<svg width="29" height="23" viewBox="0 0 29 23" fill="none" xmlns="http://www.w3.org/2000/svg">
    <path
        d="M0 0V18.8184H16.5714V16.7272H2.07143V16.1146L7.25 10.8873L10.3571 14.0237L16.5714 7.7509L19.9821 11.1937L21.4467 9.71536L16.5717 4.79444L10.3574 11.0672L7.25024 7.93084L2.07167 13.1582V2.09117H22.7859V10.4549H24.8574V0.000239288L0 0ZM9.83929 3.1364C9.42731 3.1364 9.0322 3.30138 8.74072 3.59565C8.44942 3.88969 8.28574 4.28853 8.28574 4.70438C8.28574 5.12047 8.44942 5.51931 8.74072 5.81329C9.03201 6.10728 9.42737 6.27279 9.83929 6.27279C10.2512 6.27279 10.6466 6.10733 10.9379 5.81329C11.2291 5.51926 11.3928 5.12042 11.3928 4.70438C11.3928 4.28853 11.2291 3.8897 10.9379 3.59565C10.6463 3.30138 10.2512 3.1364 9.83929 3.1364ZM22.7857 12.5456V16.7274L18.6429 16.7272V18.8181H22.7857V23H24.8571V18.8181L29 18.8184V16.7272H24.8571V12.5453L22.7857 12.5456Z"
        fill="white" />
</svg>
