<svg width="14" height="20" viewBox="0 0 14 20" fill="none" xmlns="http://www.w3.org/2000/svg">
<path d="M13.4989 0.086414C13.277 0.11078 13.0919 0.321423 13.0966 0.544174V9.12189L0.719805 0.177966C0.63302 0.115087 0.523235 0.084434 0.416447 0.093549C0.191999 0.110998 -0.000643535 0.319443 1.61578e-06 0.544226V19.4744C0.00126168 19.6396 0.101593 19.8001 0.249651 19.874C0.397709 19.9478 0.586561 19.9317 0.719805 19.8336L13.0966 10.8896V19.4742C13.0933 19.7124 13.3096 19.9313 13.5482 19.9313C13.7868 19.9313 14.0032 19.7123 13.9998 19.4742L13.9999 0.544057C14.0054 0.288295 13.7536 0.0583287 13.4989 0.0862973L13.4989 0.086414Z" fill="white"/>
</svg>
