<svg width="14" height="20" viewBox="0 0 14 20" fill="none" xmlns="http://www.w3.org/2000/svg">
<path d="M0.501101 0.086414C0.723028 0.11078 0.90811 0.321423 0.903376 0.544174V9.12189L13.2802 0.177966C13.367 0.115087 13.4768 0.084434 13.5836 0.093549C13.808 0.110998 14.0006 0.319443 14 0.544226V19.4744C13.9987 19.6396 13.8984 19.8001 13.7503 19.874C13.6023 19.9478 13.4134 19.9317 13.2802 19.8336L0.903376 10.8896V19.4742C0.906683 19.7124 0.690428 19.9313 0.45181 19.9313C0.213185 19.9313 -0.00322151 19.7123 0.000246048 19.4742L8.86917e-05 0.544057C-0.0054245 0.288295 0.246431 0.0583287 0.501128 0.0862973L0.501101 0.086414Z" fill="white"/>
</svg>
