<svg width="13" height="15" viewBox="0 0 13 15" fill="none" xmlns="http://www.w3.org/2000/svg">
<path d="M8.75476 12.5405C9.00408 12.6521 9.28032 12.7141 9.57108 12.7141C10.6756 12.7141 11.571 11.8187 11.571 10.7142C11.571 10.4234 11.509 10.1472 11.3974 9.89784L8.75476 12.5405ZM7.74471 11.5305L10.3872 8.88778C10.1381 8.77617 9.86185 8.7142 9.57108 8.7142C8.4666 8.7142 7.57114 9.60965 7.57114 10.7141C7.57114 11.0049 7.63312 11.2811 7.74473 11.5305L7.74471 11.5305ZM9.57108 14.1427C7.67757 14.1427 6.14258 12.6077 6.14258 10.7142C6.14258 8.82064 7.67757 7.28564 9.57108 7.28564C11.4646 7.28564 12.9996 8.82064 12.9996 10.7142C12.9996 12.6077 11.4646 14.1427 9.57108 14.1427Z" fill="black"/>
<path d="M5.2858 8.57134C3.1555 8.57134 1.42857 10.2983 1.42857 12.4286C1.42857 12.823 1.10889 13.1429 0.714283 13.1429C0.319871 13.1429 0 12.823 0 12.4286C0 9.50925 2.36647 7.14288 5.28569 7.14288C6.37926 7.14288 7.39507 7.47491 8.23829 8.04369C7.79345 8.27886 7.41819 8.62782 7.1513 9.05196C6.59844 8.74583 5.96248 8.57145 5.28569 8.57145L5.2858 8.57134ZM5.2858 6.5714C3.47121 6.5714 1.99999 5.10039 1.99999 3.2856C1.99999 1.47101 3.47121 0 5.2858 0C7.10038 0 8.5714 1.47101 8.5714 3.2856C8.5714 5.10039 7.10038 6.5714 5.2858 6.5714ZM5.2858 5.14284C6.3114 5.14284 7.14283 4.31136 7.14283 3.2856C7.14283 2.25999 6.31135 1.42857 5.2858 1.42857C4.26003 1.42857 3.42856 2.26004 3.42856 3.2856C3.42856 4.31136 4.26003 5.14284 5.2858 5.14284Z" fill="black"/>
</svg>
