<svg width="22" height="21" viewBox="0 0 22 21" fill="none" xmlns="http://www.w3.org/2000/svg">
<path d="M8.2369 0C3.84675 0 0.269409 3.56744 0.269409 7.94544C0.269409 12.3234 3.84675 15.8909 8.2369 15.8909C10.1255 15.8909 11.8579 15.227 13.2255 14.1263L19.8683 20.7507C20.2016 21.083 20.7442 21.0832 21.0777 20.7507C21.411 20.4183 21.4112 19.8772 21.0777 19.5446L14.4441 12.9293C15.5465 11.5659 16.2046 9.82762 16.2046 7.94559C16.2046 3.56759 12.6273 0.000151934 8.23715 0.000151934L8.2369 0ZM8.2369 1.7027C11.7043 1.7027 14.4971 4.4877 14.4971 7.94554C14.4971 11.4034 11.7043 14.1884 8.2369 14.1884C4.76952 14.1884 1.97673 11.4034 1.97673 7.94554C1.97673 4.48755 4.76947 1.7027 8.2369 1.7027Z" fill="white"/>
</svg>
