<svg width="22" height="22" viewBox="0 0 22 22" fill="none" xmlns="http://www.w3.org/2000/svg">
<path d="M10.6399 0.144196L0.917835 7.41552C0.738295 7.55129 0.628093 7.77395 0.629282 7.99883V21.0868C0.629282 21.4675 0.976667 21.814 1.35848 21.814H7.92085C8.30265 21.814 8.65005 21.4675 8.65005 21.0868V13.5735H13.5111V21.0868C13.5111 21.4675 13.8584 21.814 14.2403 21.814H20.8026C21.1844 21.814 21.5318 21.4675 21.5318 21.0868V7.99883C21.5318 7.77414 21.4228 7.55147 21.2433 7.41552L11.5212 0.144196C11.2028 -0.0573323 10.9253 -0.0385697 10.6401 0.144196H10.6399ZM11.0803 1.63625L20.0732 8.36222V20.3599H14.9691V12.8466C14.9691 12.4659 14.6217 11.6348 14.2399 11.6348H7.92061C7.53881 11.6348 7.19141 12.4659 7.19141 12.8466V20.3599H2.08734V8.36222L11.0803 1.63625Z" fill="white"/>
</svg>
