<svg width="16" height="22" viewBox="0 0 16 22" fill="none" xmlns="http://www.w3.org/2000/svg">
<path d="M14.1769 7.04005C13.9428 7.04005 13.7182 7.13269 13.5528 7.29787C13.3873 7.46287 13.2944 7.68665 13.2944 7.92007V10.8535C13.2944 12.8447 12.2291 14.6846 10.4999 15.6803C8.77067 16.6758 6.64034 16.6758 4.91131 15.6803C3.18211 14.6848 2.11677 12.8449 2.11677 10.8535V7.92007C2.11677 7.60571 1.94855 7.31525 1.67554 7.15799C1.40254 7.00072 1.06612 7.00072 0.793093 7.15799C0.520085 7.31525 0.351868 7.60574 0.351868 7.92007V10.8535C0.353419 12.6958 1.05024 14.4701 2.30376 15.8233C3.55728 17.1767 5.27581 18.0099 7.11753 18.1574V21.4134C7.11753 21.7374 7.38089 22 7.70577 22C8.03065 22 8.29401 21.7374 8.29401 21.4134V18.1574C10.1356 18.0099 11.8542 17.1767 13.1078 15.8233C14.3613 14.47 15.0581 12.6957 15.0597 10.8535V7.92007C15.0597 7.68667 14.9666 7.46287 14.8011 7.29787C14.6357 7.13269 14.4113 7.04005 14.1772 7.04005H14.1769Z" fill="white"/>
<path d="M7.70534 15.2535C8.8756 15.2535 9.99782 14.79 10.8253 13.9648C11.6528 13.1396 12.1176 12.0204 12.1176 10.8535V4.4C12.1176 2.828 11.2767 1.3755 9.91147 0.589483C8.54627 -0.196494 6.86441 -0.196494 5.49922 0.589483C4.13402 1.37546 3.29309 2.828 3.29309 4.4V10.8535C3.29309 12.0204 3.75792 13.1396 4.5854 13.9648C5.41287 14.79 6.53508 15.2535 7.70534 15.2535ZM5.05799 4.4C5.05799 3.45672 5.56266 2.58534 6.38167 2.1137C7.20067 1.64206 8.21001 1.64206 9.02902 2.1137C9.84802 2.58534 10.3527 3.45672 10.3527 4.4V10.8535C10.3527 11.7966 9.84802 12.6682 9.02902 13.1398C8.21001 13.6115 7.20067 13.6115 6.38167 13.1398C5.56266 12.6682 5.05799 11.7966 5.05799 10.8535V4.4Z" fill="white"/>
</svg>
