<svg width="18" height="22" viewBox="0 0 18 22" fill="none" xmlns="http://www.w3.org/2000/svg">
<path d="M9.12571 22C10.3391 22 11.3318 20.9846 11.3318 19.7436H6.9196C6.9196 20.9846 7.91235 22 9.12571 22ZM15.744 15.2308V9.58974C15.744 6.12615 13.9461 3.22667 10.7803 2.45949V0H7.47113V2.45949C4.31639 3.22667 2.50738 6.11487 2.50738 9.58974V15.2308L0.30127 17.4872V18.6154H17.9502V17.4872L15.744 15.2308ZM13.5379 16.359H4.71349V9.58974C4.71349 6.7918 6.37911 4.51282 9.12571 4.51282C11.8723 4.51282 13.5379 6.7918 13.5379 9.58974V16.359Z" fill="white"/>
</svg>
