<svg width="16" height="15" viewBox="0 0 16 15" fill="none" xmlns="http://www.w3.org/2000/svg">
    <path
        d="M15.5942 5.66094C15.4742 5.3012 15.1625 5.03731 14.7786 4.96539L10.8687 4.38966C10.7007 4.36573 10.5329 4.24576 10.4609 4.10186L8.70988 0.575737C8.54189 0.215997 8.18216 0 7.79832 0C7.41449 0 7.05476 0.215847 6.88676 0.575737L5.13574 4.10186C5.06379 4.26986 4.8958 4.36573 4.72798 4.38966L0.866028 4.96527C0.482193 5.01329 0.170483 5.27715 0.0505042 5.66081C-0.0694663 6.02055 0.0265775 6.42849 0.314373 6.69218L3.14478 9.45063C3.26475 9.5706 3.3367 9.76251 3.28868 9.93033L2.61704 13.8166C2.54509 14.2004 2.71291 14.5842 3.0248 14.8001C3.33669 15.04 3.74446 15.0639 4.10418 14.872L7.58229 13.049C7.72619 12.9771 7.9181 12.9771 8.08611 13.049L11.5642 14.872C11.7081 14.944 11.8761 14.992 12.0439 14.992C12.2598 14.992 12.4517 14.9201 12.6436 14.8001C12.9555 14.5601 13.1233 14.2004 13.0514 13.8166L12.3797 9.93067C12.3558 9.76268 12.4036 9.57093 12.5236 9.45097L15.354 6.69252C15.6181 6.42848 15.714 6.04478 15.5942 5.66094ZM15.0184 6.35648L12.188 9.1151C11.9481 9.35504 11.8283 9.69084 11.9002 10.0026L12.5719 13.8885C12.5958 14.1043 12.5238 14.2962 12.356 14.4162C12.188 14.5362 11.9722 14.5601 11.8043 14.4642L8.30195 12.6172C8.15805 12.5452 7.99007 12.4972 7.82225 12.4972C7.65426 12.4972 7.48644 12.5452 7.34255 12.6172L3.86444 14.4401C3.67252 14.536 3.4806 14.5121 3.2887 14.3921C3.12071 14.2722 3.04876 14.0802 3.07286 13.8644L3.7445 10.0026C3.79252 9.66682 3.69648 9.33099 3.4567 9.11515L0.626121 6.35653C0.482223 6.21263 0.434202 5.99679 0.482223 5.80486C0.554172 5.61294 0.69807 5.46905 0.913908 5.44512L4.82387 4.86939C5.15969 4.82136 5.4475 4.60552 5.59155 4.31772L7.34258 0.791596C7.43845 0.599677 7.60645 0.503801 7.82228 0.503801C8.03811 0.503801 8.20611 0.623771 8.30198 0.791596L10.053 4.31772C10.1969 4.60552 10.4847 4.82154 10.8207 4.86939L14.7307 5.44512C14.9465 5.46905 15.0904 5.61311 15.1623 5.80486C15.2104 6.02071 15.1623 6.21258 15.0184 6.35648Z"
        fill="white" />
</svg>
