<svg width="15" height="15" viewBox="0 0 15 15" fill="none" xmlns="http://www.w3.org/2000/svg">
    <path
        d="M5.36554 3.61763C5.08874 2.74273 4.94535 1.80739 4.95847 0.835254C4.96424 0.407515 4.61802 0.0528386 4.18909 0.0470839L1.45956 0.0104631C1.03063 0.00470839 0.674966 0.349968 0.669195 0.777707C0.570674 8.08038 6.42562 14.0784 13.7486 14.1766C14.1775 14.1824 14.5332 13.8371 14.5389 13.4094L14.5756 10.6952C14.5813 10.2674 14.2351 9.91275 13.8062 9.90699C12.8391 9.89402 11.8976 9.72582 11.028 9.42635C10.9505 9.39419 10.8648 9.38526 10.7868 9.38422C10.584 9.3815 10.388 9.45665 10.2301 9.60232L8.49126 11.2903C6.29945 10.133 4.51439 8.3122 3.42107 6.09622L5.15987 4.40828C5.38117 4.19345 5.44765 3.89098 5.36554 3.61763ZM10.9828 11.0437C11.6432 11.2392 12.3201 11.365 13.0057 11.4208L12.9901 12.5796C11.9616 12.4958 10.9739 12.2803 10.0345 11.9566L10.9828 11.0437ZM2.79466 4.5399C2.48761 3.59458 2.29817 2.60417 2.24183 1.57665L3.41164 1.59235C3.45689 2.28524 3.56474 2.96342 3.7432 3.61142L2.79466 4.5399Z"
        fill="white" />
</svg>
