<svg width="28" height="25" viewBox="0 0 28 25" fill="none" xmlns="http://www.w3.org/2000/svg">
    <path fill-rule="evenodd" clip-rule="evenodd"
        d="M23.0674 0.961137V6.08712C23.0674 6.61768 23.498 7.04826 24.0285 7.04826C24.5591 7.04826 24.9897 6.61768 24.9897 6.08712V0.961137C24.9897 0.430578 24.5591 0 24.0285 0C23.498 0 23.0674 0.430578 23.0674 0.961137Z"
        fill="white" />
    <path fill-rule="evenodd" clip-rule="evenodd"
        d="M21.465 4.48526H26.591C27.1216 4.48526 27.5522 4.05468 27.5522 3.52412C27.5522 2.99357 27.1216 2.56299 26.591 2.56299H21.465C20.9345 2.56299 20.5039 2.99357 20.5039 3.52412C20.5039 4.05468 20.9345 4.48526 21.465 4.48526Z"
        fill="white" />
    <path fill-rule="evenodd" clip-rule="evenodd"
        d="M16.3391 0.640625H10.083C9.23337 0.640625 8.45677 1.12119 8.07743 1.87978L6.86376 4.30816C6.80862 4.41585 6.69835 4.48494 6.5767 4.48494H3.52424C1.57775 4.48494 0 6.06247 0 8.00918V20.8242C0 21.7585 0.371581 22.6555 1.03171 23.3167C1.69292 23.9766 2.59013 24.3484 3.52424 24.3484H24.0283C24.9626 24.3484 25.8596 23.9768 26.5208 23.3167C27.1808 22.6555 27.5525 21.7583 27.5525 20.8242V9.93145C27.5525 9.4009 27.122 8.97032 26.5914 8.97032C26.0609 8.97032 25.6303 9.4009 25.6303 9.93145V20.8242C25.6303 21.2496 25.4612 21.6559 25.1613 21.9569C24.8601 22.2568 24.4539 22.4259 24.0285 22.4259H3.52446C3.09902 22.4259 2.69266 22.2568 2.39169 21.9569C2.09176 21.6557 1.9227 21.2496 1.9227 20.8242V8.00918C1.9227 7.12483 2.64031 6.40721 3.52467 6.40721H6.57713C7.42672 6.40721 8.20332 5.92665 8.58266 5.16806L9.79633 2.73968C9.85147 2.63198 9.96174 2.5629 10.0834 2.5629H16.3396C16.8701 2.5629 17.3007 2.13232 17.3007 1.60176C17.3007 1.0712 16.8701 0.640625 16.3396 0.640625H16.3391Z"
        fill="white" />
    <path fill-rule="evenodd" clip-rule="evenodd"
        d="M13.7765 7.68896C10.4163 7.68896 7.68945 10.416 7.68945 13.776C7.68945 17.1361 10.4164 19.863 13.7765 19.863C17.1365 19.863 19.8635 17.136 19.8635 13.776C19.8635 10.4158 17.1365 7.68896 13.7765 7.68896ZM13.7765 9.61124C16.0755 9.61124 17.9413 11.4771 17.9413 13.7761C17.9413 16.0751 16.0755 17.9409 13.7765 17.9409C11.4775 17.9409 9.61162 16.0751 9.61162 13.7761C9.61162 11.4771 11.4775 9.61124 13.7765 9.61124Z"
        fill="white" />
</svg>
