<svg width="31" height="26" viewBox="0 0 31 26" fill="none" xmlns="http://www.w3.org/2000/svg">
    <path
        d="M12.4193 11.7242H12.4205C12.9426 11.7242 13.3652 12.1474 13.3652 12.6696C13.3652 13.1914 12.9419 13.6148 12.4198 13.6148C11.8977 13.6148 11.4743 13.1917 11.4743 12.6696C11.4743 12.1475 11.8969 11.7242 12.419 11.7242H12.4193ZM18.1967 11.7242H18.197C18.7188 11.7242 19.1419 12.1474 19.1419 12.6696C19.1419 13.1914 18.7189 13.6148 18.1967 13.6148C17.6746 13.6148 17.2513 13.1917 17.2513 12.6696C17.2513 12.1475 17.6743 11.7242 18.1965 11.7242H18.1967ZM23.9735 11.7242H23.9737C24.4958 11.7242 24.9189 12.1474 24.9189 12.6696C24.9189 13.1914 24.4956 13.6148 23.9737 13.6148C23.4514 13.6148 23.0283 13.1917 23.0283 12.6696C23.0283 12.1475 23.4511 11.7242 23.9732 11.7242H23.9735ZM12.4188 10.6285C12.4188 10.6285 12.4192 10.6285 12.4188 10.6285C11.2915 10.6285 10.3789 11.5423 10.3789 12.6695C10.3789 13.7967 11.2927 14.7106 12.4199 14.7106C13.5472 14.7106 14.461 13.7967 14.461 12.6695C14.461 11.5423 13.5476 10.6285 12.4204 10.6285H12.4188ZM18.1959 10.6285C18.1959 10.6285 18.1962 10.6285 18.1959 10.6285C17.0687 10.6285 16.1558 11.5423 16.1558 12.6695C16.1558 13.7967 17.0696 14.7106 18.1969 14.7106C19.3241 14.7106 20.2379 13.7967 20.2379 12.6695C20.2379 11.5423 19.3246 10.6285 18.1973 10.6285H18.1959ZM23.9722 10.6285C23.9722 10.6285 23.9724 10.6285 23.9722 10.6285C22.8447 10.6285 21.9326 11.5423 21.9326 12.6695C21.9326 13.7967 22.8464 14.7106 23.9738 14.7106C25.1008 14.7106 26.0149 13.7967 26.0149 12.6695C26.0149 11.5423 25.1008 10.6285 23.9736 10.6285H23.9722ZM2.65388 0.00605961H2.6522C1.1861 0.00605961 0 1.19479 0 2.66139C0 2.73149 0.75351 14.0158 0.75351 14.0158C0.860708 15.3835 2.00546 16.4605 3.40161 16.4605C3.4028 16.4605 3.90481 16.4608 3.90481 16.4608L3.40806 19.9011C3.37528 20.127 3.48607 20.3496 3.68611 20.4596C3.7689 20.5051 3.85983 20.5273 3.95028 20.5273C4.07805 20.5273 4.20512 20.4826 4.30657 20.3957L6.1995 18.7744L6.06646 17.4466L4.70088 18.6152L5.07918 15.997C5.08517 15.942 5.08517 15.9137 5.08517 15.9137C5.08517 15.6122 4.84181 15.3675 4.54056 15.3658L3.40157 15.3648C2.56769 15.3648 1.88646 14.7106 1.84315 13.8875L1.09589 2.66175C1.09589 1.79987 1.79433 1.10137 2.65627 1.10113L21.898 1.09634C22.7594 1.09634 23.4576 1.79478 23.4576 2.65647C23.4576 2.71366 23.4545 2.77013 23.4486 2.82588L23.3708 3.59182L24.4595 3.59254L24.5535 2.65649C24.6988 1.20791 23.3648 0 21.8978 0L2.65388 0.00605961ZM28.001 5.74379H28.0022C28.8641 5.74379 29.5623 6.44223 29.5623 7.30441L28.8151 18.5302C28.7718 19.3535 28.0905 20.0075 27.2566 20.0075L26.1177 20.0087C25.8164 20.0104 25.5728 20.2551 25.5728 20.5566C25.5728 20.5849 25.579 20.6399 25.579 20.6399L25.9573 23.2581L22.3451 20.1666C22.248 20.0714 22.1154 20.012 21.969 20.0108L9.89053 20.0156C9.09518 20.0156 8.43931 19.4181 8.34406 18.6489L7.20941 7.46841C7.20343 7.41266 7.20032 7.35619 7.20032 7.29876C7.20032 6.43714 7.89852 5.73863 8.75996 5.73863L28.001 5.74379ZM8.76723 4.64308H8.76124C7.29423 4.64236 5.95952 5.85025 6.10475 7.29883L7.24687 18.6857C7.38398 20.0417 8.50262 21.1096 9.89068 21.1116L21.7603 21.1058L26.3516 25.0382C26.4533 25.1253 26.5803 25.17 26.7081 25.17C26.7986 25.17 26.8895 25.1477 26.9723 25.102C27.1721 24.992 27.2829 24.7697 27.2503 24.5438L26.7536 21.1034L27.2568 21.1032C28.653 21.1032 29.8118 20.0272 29.9049 18.6585L30.6584 7.30404C30.6584 5.83751 29.4723 4.64847 28.0062 4.64847L8.76723 4.64308Z"
        fill="white" />
</svg>