<svg width="15" height="15" viewBox="0 0 15 15" fill="none" xmlns="http://www.w3.org/2000/svg">
    <path
        d="M8.375 7.5L14.8125 1.0625C15.0625 0.8125 15.0625 0.4375 14.8125 0.1875C14.5625 -0.0625 14.1875 -0.0625 13.9375 0.1875L7.5 6.625L1.0625 0.1875C0.8125 -0.0625 0.4375 -0.0625 0.1875 0.1875C-0.0625 0.4375 -0.0625 0.8125 0.1875 1.0625L6.625 7.5L0.1875 13.9375C-0.0625 14.1875 -0.0625 14.5625 0.1875 14.8125C0.3125 14.9375 0.4375 15 0.625 15C0.8125 15 0.9375 14.9375 1.0625 14.8125L7.5 8.375L13.9375 14.8125C14.0625 14.9375 14.25 15 14.375 15C14.5 15 14.6875 14.9375 14.8125 14.8125C15.0625 14.5625 15.0625 14.1875 14.8125 13.9375L8.375 7.5Z"
        fill="white" />
</svg>
