<svg width="13" height="13" viewBox="0 0 13 13" fill="none" xmlns="http://www.w3.org/2000/svg">
    <path
        d="M4.06152 5.07708V6.7018C4.06152 7.13259 4.23279 7.5458 4.5375 7.85053C4.84207 8.15524 5.2553 8.32637 5.68624 8.32637H7.31095C7.74204 8.32679 8.15553 8.15581 8.46038 7.85122L11.9128 4.39882C12.2175 4.09382 12.3883 3.68033 12.388 3.24925C12.388 2.38752 12.0456 1.56107 11.4364 0.951671C10.8269 0.342235 10.0005 7.90366e-07 9.13864 7.90366e-07C8.70771 -0.000424201 8.29421 0.170559 7.98922 0.475147L4.53682 3.92755V3.92769C4.23225 4.23255 4.06127 4.64607 4.06156 5.07712M5.68627 5.07712L9.13868 1.62471C9.56962 1.62471 9.98282 1.79584 10.2876 2.10055C10.5923 2.40525 10.7634 2.81849 10.7634 3.24928L7.31099 6.70183H5.68627V5.07712Z"
        fill="white" />
    <path
        d="M4.26485 0H2.43716C1.79077 0 1.17086 0.256688 0.713843 0.713843C0.25683 1.17086 0 1.79059 0 2.43702V8.73265C0 9.37889 0.25683 9.99881 0.713843 10.4558C1.17086 10.9128 1.79074 11.1697 2.43716 11.1697H3.59268L4.75233 12.3293C5.13565 12.7257 5.65384 12.9641 6.20435 12.9974C6.79591 13.0269 7.37249 12.8057 7.79251 12.3881L9.01109 11.1695L10.1543 11.1697C10.8007 11.1697 11.4206 10.9128 11.8776 10.4558C12.3346 9.9988 12.5914 9.37892 12.5914 8.73264V7.71722C12.5914 7.42696 12.4366 7.15881 12.1852 7.0136C11.9339 6.86854 11.6242 6.86854 11.3729 7.0136C11.1216 7.1588 10.9668 7.42695 10.9668 7.71722V8.73264C10.9668 8.94797 10.8812 9.15466 10.7288 9.30694C10.5765 9.45936 10.3698 9.54493 10.1543 9.54493H8.83022C8.50723 9.54521 8.19743 9.67384 7.96921 9.90234L6.641 11.2305C6.54921 11.3225 6.42469 11.3741 6.29478 11.3741C6.16488 11.3741 6.04036 11.3225 5.94856 11.2305L4.62035 9.90234C4.39199 9.67384 4.08232 9.54521 3.7592 9.54493H2.43722C2.22176 9.54493 2.01506 9.45936 1.86278 9.30694C1.71036 9.15465 1.62479 8.94797 1.62479 8.73264V2.43701C1.62479 2.22155 1.71036 2.015 1.86278 1.86257C2.01507 1.71029 2.22175 1.62473 2.43722 1.62473H4.26492C4.55518 1.62473 4.82333 1.46989 4.96839 1.21845C5.11345 0.96714 5.11345 0.657462 4.96839 0.406181C4.82333 0.154899 4.55515 4.73125e-05 4.26492 4.73125e-05"
        fill="white" />
</svg>
