<svg width="321" height="93" viewBox="0 0 321 93" fill="none" xmlns="http://www.w3.org/2000/svg">
    <path
        d="M43.342 7.264C43.342 8.04133 43.1587 8.77467 42.792 9.464C42.4253 10.1533 41.8387 10.718 41.032 11.158C40.2253 11.5833 39.1913 11.796 37.93 11.796H35.158V18H32.65V2.71H37.93C39.1033 2.71 40.0933 2.91533 40.9 3.326C41.7213 3.722 42.33 4.26467 42.726 4.954C43.1367 5.64333 43.342 6.41333 43.342 7.264ZM37.93 9.75C38.8833 9.75 39.5947 9.53733 40.064 9.112C40.5333 8.672 40.768 8.056 40.768 7.264C40.768 5.592 39.822 4.756 37.93 4.756H35.158V9.75H37.93ZM48.242 7.638C48.6087 7.022 49.0927 6.54533 49.694 6.208C50.31 5.856 51.036 5.68 51.872 5.68V8.276H51.234C50.2513 8.276 49.5033 8.52533 48.99 9.024C48.4913 9.52267 48.242 10.388 48.242 11.62V18H45.734V5.878H48.242V7.638ZM59.4353 18.198C58.2913 18.198 57.2573 17.9413 56.3333 17.428C55.4093 16.9 54.6833 16.1667 54.1553 15.228C53.6273 14.2747 53.3633 13.1747 53.3633 11.928C53.3633 10.696 53.6347 9.60333 54.1773 8.65C54.72 7.69667 55.4607 6.96333 56.3993 6.45C57.338 5.93667 58.3867 5.68 59.5453 5.68C60.704 5.68 61.7527 5.93667 62.6913 6.45C63.63 6.96333 64.3707 7.69667 64.9133 8.65C65.456 9.60333 65.7273 10.696 65.7273 11.928C65.7273 13.16 65.4487 14.2527 64.8913 15.206C64.334 16.1593 63.5713 16.9 62.6033 17.428C61.65 17.9413 60.594 18.198 59.4353 18.198ZM59.4353 16.02C60.0807 16.02 60.682 15.866 61.2393 15.558C61.8113 15.25 62.2733 14.788 62.6253 14.172C62.9773 13.556 63.1533 12.808 63.1533 11.928C63.1533 11.048 62.9847 10.3073 62.6473 9.706C62.31 9.09 61.8627 8.628 61.3053 8.32C60.748 8.012 60.1467 7.858 59.5013 7.858C58.856 7.858 58.2547 8.012 57.6973 8.32C57.1547 8.628 56.722 9.09 56.3993 9.706C56.0767 10.3073 55.9153 11.048 55.9153 11.928C55.9153 13.2333 56.2453 14.2453 56.9053 14.964C57.58 15.668 58.4233 16.02 59.4353 16.02ZM73.2886 7.924H71.0446V18H68.5146V7.924H67.0846V5.878H68.5146V5.02C68.5146 3.62667 68.8813 2.61467 69.6146 1.984C70.3626 1.33867 71.5286 1.016 73.1126 1.016V3.106C72.35 3.106 71.8146 3.25267 71.5066 3.546C71.1986 3.82467 71.0446 4.316 71.0446 5.02V5.878H73.2886V7.924ZM76.7873 4.272C76.3327 4.272 75.9513 4.118 75.6433 3.81C75.3353 3.502 75.1813 3.12067 75.1813 2.666C75.1813 2.21133 75.3353 1.83 75.6433 1.522C75.9513 1.214 76.3327 1.06 76.7873 1.06C77.2273 1.06 77.6013 1.214 77.9093 1.522C78.2173 1.83 78.3713 2.21133 78.3713 2.666C78.3713 3.12067 78.2173 3.502 77.9093 3.81C77.6013 4.118 77.2273 4.272 76.7873 4.272ZM78.0193 5.878V18H75.5113V5.878H78.0193ZM84.2381 7.924V14.634C84.2381 15.0887 84.3408 15.4187 84.5461 15.624C84.7661 15.8147 85.1328 15.91 85.6461 15.91H87.1861V18H85.2061C84.0768 18 83.2114 17.736 82.6101 17.208C82.0088 16.68 81.7081 15.822 81.7081 14.634V7.924H80.2781V5.878H81.7081V2.864H84.2381V5.878H87.1861V7.924H84.2381ZM100.471 18.198C99.3265 18.198 98.2925 17.9413 97.3685 17.428C96.4445 16.9 95.7185 16.1667 95.1905 15.228C94.6625 14.2747 94.3985 13.1747 94.3985 11.928C94.3985 10.696 94.6698 9.60333 95.2125 8.65C95.7552 7.69667 96.4958 6.96333 97.4345 6.45C98.3732 5.93667 99.4218 5.68 100.581 5.68C101.739 5.68 102.788 5.93667 103.727 6.45C104.665 6.96333 105.406 7.69667 105.949 8.65C106.491 9.60333 106.763 10.696 106.763 11.928C106.763 13.16 106.484 14.2527 105.927 15.206C105.369 16.1593 104.607 16.9 103.639 17.428C102.685 17.9413 101.629 18.198 100.471 18.198ZM100.471 16.02C101.116 16.02 101.717 15.866 102.275 15.558C102.847 15.25 103.309 14.788 103.661 14.172C104.013 13.556 104.189 12.808 104.189 11.928C104.189 11.048 104.02 10.3073 103.683 9.706C103.345 9.09 102.898 8.628 102.341 8.32C101.783 8.012 101.182 7.858 100.537 7.858C99.8912 7.858 99.2898 8.012 98.7325 8.32C98.1898 8.628 97.7572 9.09 97.4345 9.706C97.1118 10.3073 96.9505 11.048 96.9505 11.928C96.9505 13.2333 97.2805 14.2453 97.9405 14.964C98.6152 15.668 99.4585 16.02 100.471 16.02ZM111.75 7.638C112.116 7.022 112.6 6.54533 113.202 6.208C113.818 5.856 114.544 5.68 115.38 5.68V8.276H114.742C113.759 8.276 113.011 8.52533 112.498 9.024C111.999 9.52267 111.75 10.388 111.75 11.62V18H109.242V5.878H111.75V7.638ZM125.908 1.72V18H123.4V1.72H125.908ZM134.459 18.198C133.315 18.198 132.281 17.9413 131.357 17.428C130.433 16.9 129.707 16.1667 129.179 15.228C128.651 14.2747 128.387 13.1747 128.387 11.928C128.387 10.696 128.658 9.60333 129.201 8.65C129.743 7.69667 130.484 6.96333 131.423 6.45C132.361 5.93667 133.41 5.68 134.569 5.68C135.727 5.68 136.776 5.93667 137.715 6.45C138.653 6.96333 139.394 7.69667 139.937 8.65C140.479 9.60333 140.751 10.696 140.751 11.928C140.751 13.16 140.472 14.2527 139.915 15.206C139.357 16.1593 138.595 16.9 137.627 17.428C136.673 17.9413 135.617 18.198 134.459 18.198ZM134.459 16.02C135.104 16.02 135.705 15.866 136.263 15.558C136.835 15.25 137.297 14.788 137.649 14.172C138.001 13.556 138.177 12.808 138.177 11.928C138.177 11.048 138.008 10.3073 137.671 9.706C137.333 9.09 136.886 8.628 136.329 8.32C135.771 8.012 135.17 7.858 134.525 7.858C133.879 7.858 133.278 8.012 132.721 8.32C132.178 8.628 131.745 9.09 131.423 9.706C131.1 10.3073 130.939 11.048 130.939 11.928C130.939 13.2333 131.269 14.2453 131.929 14.964C132.603 15.668 133.447 16.02 134.459 16.02ZM147.63 18.198C146.677 18.198 145.819 18.0293 145.056 17.692C144.308 17.34 143.714 16.8707 143.274 16.284C142.834 15.6827 142.599 15.0153 142.57 14.282H145.166C145.21 14.7953 145.452 15.228 145.892 15.58C146.347 15.9173 146.911 16.086 147.586 16.086C148.29 16.086 148.833 15.954 149.214 15.69C149.61 15.4113 149.808 15.0593 149.808 14.634C149.808 14.1793 149.588 13.842 149.148 13.622C148.723 13.402 148.041 13.16 147.102 12.896C146.193 12.6467 145.452 12.4047 144.88 12.17C144.308 11.9353 143.809 11.576 143.384 11.092C142.973 10.608 142.768 9.97 142.768 9.178C142.768 8.53267 142.959 7.946 143.34 7.418C143.721 6.87533 144.264 6.45 144.968 6.142C145.687 5.834 146.508 5.68 147.432 5.68C148.811 5.68 149.918 6.032 150.754 6.736C151.605 7.42533 152.059 8.37133 152.118 9.574H149.61C149.566 9.03133 149.346 8.59867 148.95 8.276C148.554 7.95333 148.019 7.792 147.344 7.792C146.684 7.792 146.178 7.91667 145.826 8.166C145.474 8.41533 145.298 8.74533 145.298 9.156C145.298 9.47867 145.415 9.75 145.65 9.97C145.885 10.19 146.171 10.366 146.508 10.498C146.845 10.6153 147.344 10.7693 148.004 10.96C148.884 11.1947 149.603 11.4367 150.16 11.686C150.732 11.9207 151.223 12.2727 151.634 12.742C152.045 13.2113 152.257 13.8347 152.272 14.612C152.272 15.3013 152.081 15.9173 151.7 16.46C151.319 17.0027 150.776 17.428 150.072 17.736C149.383 18.044 148.569 18.198 147.63 18.198ZM159.382 18.198C158.429 18.198 157.571 18.0293 156.808 17.692C156.06 17.34 155.466 16.8707 155.026 16.284C154.586 15.6827 154.351 15.0153 154.322 14.282H156.918C156.962 14.7953 157.204 15.228 157.644 15.58C158.099 15.9173 158.663 16.086 159.338 16.086C160.042 16.086 160.585 15.954 160.966 15.69C161.362 15.4113 161.56 15.0593 161.56 14.634C161.56 14.1793 161.34 13.842 160.9 13.622C160.475 13.402 159.793 13.16 158.854 12.896C157.945 12.6467 157.204 12.4047 156.632 12.17C156.06 11.9353 155.561 11.576 155.136 11.092C154.725 10.608 154.52 9.97 154.52 9.178C154.52 8.53267 154.711 7.946 155.092 7.418C155.473 6.87533 156.016 6.45 156.72 6.142C157.439 5.834 158.26 5.68 159.184 5.68C160.563 5.68 161.67 6.032 162.506 6.736C163.357 7.42533 163.811 8.37133 163.87 9.574H161.362C161.318 9.03133 161.098 8.59867 160.702 8.276C160.306 7.95333 159.771 7.792 159.096 7.792C158.436 7.792 157.93 7.91667 157.578 8.166C157.226 8.41533 157.05 8.74533 157.05 9.156C157.05 9.47867 157.167 9.75 157.402 9.97C157.637 10.19 157.923 10.366 158.26 10.498C158.597 10.6153 159.096 10.7693 159.756 10.96C160.636 11.1947 161.355 11.4367 161.912 11.686C162.484 11.9207 162.975 12.2727 163.386 12.742C163.797 13.2113 164.009 13.8347 164.024 14.612C164.024 15.3013 163.833 15.9173 163.452 16.46C163.071 17.0027 162.528 17.428 161.824 17.736C161.135 18.044 160.321 18.198 159.382 18.198ZM169.484 14.986L166.822 21.058H165.194L166.756 14.986H169.484ZM172.951 4.272C172.497 4.272 172.115 4.118 171.807 3.81C171.499 3.502 171.345 3.12067 171.345 2.666C171.345 2.21133 171.499 1.83 171.807 1.522C172.115 1.214 172.497 1.06 172.951 1.06C173.391 1.06 173.765 1.214 174.073 1.522C174.381 1.83 174.535 2.21133 174.535 2.666C174.535 3.12067 174.381 3.502 174.073 3.81C173.765 4.118 173.391 4.272 172.951 4.272ZM174.183 5.878V18H171.675V5.878H174.183ZM180.402 7.924V14.634C180.402 15.0887 180.505 15.4187 180.71 15.624C180.93 15.8147 181.297 15.91 181.81 15.91H183.35V18H181.37C180.241 18 179.376 17.736 178.774 17.208C178.173 16.68 177.872 15.822 177.872 14.634V7.924H176.442V5.878H177.872V2.864H180.402V5.878H183.35V7.924H180.402ZM190.062 18.198C189.108 18.198 188.25 18.0293 187.488 17.692C186.74 17.34 186.146 16.8707 185.706 16.284C185.266 15.6827 185.031 15.0153 185.002 14.282H187.598C187.642 14.7953 187.884 15.228 188.324 15.58C188.778 15.9173 189.343 16.086 190.018 16.086C190.722 16.086 191.264 15.954 191.646 15.69C192.042 15.4113 192.24 15.0593 192.24 14.634C192.24 14.1793 192.02 13.842 191.58 13.622C191.154 13.402 190.472 13.16 189.534 12.896C188.624 12.6467 187.884 12.4047 187.312 12.17C186.74 11.9353 186.241 11.576 185.816 11.092C185.405 10.608 185.2 9.97 185.2 9.178C185.2 8.53267 185.39 7.946 185.772 7.418C186.153 6.87533 186.696 6.45 187.4 6.142C188.118 5.834 188.94 5.68 189.864 5.68C191.242 5.68 192.35 6.032 193.186 6.736C194.036 7.42533 194.491 8.37133 194.55 9.574H192.042C191.998 9.03133 191.778 8.59867 191.382 8.276C190.986 7.95333 190.45 7.792 189.776 7.792C189.116 7.792 188.61 7.91667 188.258 8.166C187.906 8.41533 187.73 8.74533 187.73 9.156C187.73 9.47867 187.847 9.75 188.082 9.97C188.316 10.19 188.602 10.366 188.94 10.498C189.277 10.6153 189.776 10.7693 190.436 10.96C191.316 11.1947 192.034 11.4367 192.592 11.686C193.164 11.9207 193.655 12.2727 194.066 12.742C194.476 13.2113 194.689 13.8347 194.704 14.612C194.704 15.3013 194.513 15.9173 194.132 16.46C193.75 17.0027 193.208 17.428 192.504 17.736C191.814 18.044 191 18.198 190.062 18.198ZM202.293 11.884C202.293 10.6667 202.542 9.58867 203.041 8.65C203.554 7.71133 204.243 6.98533 205.109 6.472C205.989 5.944 206.957 5.68 208.013 5.68C208.966 5.68 209.795 5.87067 210.499 6.252C211.217 6.61867 211.789 7.08067 212.215 7.638V5.878H214.745V18H212.215V16.196C211.789 16.768 211.21 17.2447 210.477 17.626C209.743 18.0073 208.907 18.198 207.969 18.198C206.927 18.198 205.974 17.934 205.109 17.406C204.243 16.8633 203.554 16.1153 203.041 15.162C202.542 14.194 202.293 13.1013 202.293 11.884ZM212.215 11.928C212.215 11.092 212.039 10.366 211.687 9.75C211.349 9.134 210.902 8.66467 210.345 8.342C209.787 8.01933 209.186 7.858 208.541 7.858C207.895 7.858 207.294 8.01933 206.737 8.342C206.179 8.65 205.725 9.112 205.373 9.728C205.035 10.3293 204.867 11.048 204.867 11.884C204.867 12.72 205.035 13.4533 205.373 14.084C205.725 14.7147 206.179 15.1987 206.737 15.536C207.309 15.8587 207.91 16.02 208.541 16.02C209.186 16.02 209.787 15.8587 210.345 15.536C210.902 15.2133 211.349 14.744 211.687 14.128C212.039 13.4973 212.215 12.764 212.215 11.928ZM220.547 1.72V18H218.039V1.72H220.547ZM226.347 1.72V18H223.839V1.72H226.347ZM240.613 18.198C239.469 18.198 238.435 17.9413 237.511 17.428C236.587 16.9 235.861 16.1667 235.333 15.228C234.805 14.2747 234.541 13.1747 234.541 11.928C234.541 10.696 234.812 9.60333 235.355 8.65C235.898 7.69667 236.638 6.96333 237.577 6.45C238.516 5.93667 239.564 5.68 240.723 5.68C241.882 5.68 242.93 5.93667 243.869 6.45C244.808 6.96333 245.548 7.69667 246.091 8.65C246.634 9.60333 246.905 10.696 246.905 11.928C246.905 13.16 246.626 14.2527 246.069 15.206C245.512 16.1593 244.749 16.9 243.781 17.428C242.828 17.9413 241.772 18.198 240.613 18.198ZM240.613 16.02C241.258 16.02 241.86 15.866 242.417 15.558C242.989 15.25 243.451 14.788 243.803 14.172C244.155 13.556 244.331 12.808 244.331 11.928C244.331 11.048 244.162 10.3073 243.825 9.706C243.488 9.09 243.04 8.628 242.483 8.32C241.926 8.012 241.324 7.858 240.679 7.858C240.034 7.858 239.432 8.012 238.875 8.32C238.332 8.628 237.9 9.09 237.577 9.706C237.254 10.3073 237.093 11.048 237.093 11.928C237.093 13.2333 237.423 14.2453 238.083 14.964C238.758 15.668 239.601 16.02 240.613 16.02ZM255.5 5.68C256.454 5.68 257.304 5.878 258.052 6.274C258.815 6.67 259.409 7.25667 259.834 8.034C260.26 8.81133 260.472 9.75 260.472 10.85V18H257.986V11.224C257.986 10.1387 257.715 9.31 257.172 8.738C256.63 8.15133 255.889 7.858 254.95 7.858C254.012 7.858 253.264 8.15133 252.706 8.738C252.164 9.31 251.892 10.1387 251.892 11.224V18H249.384V5.878H251.892V7.264C252.303 6.76533 252.824 6.37667 253.454 6.098C254.1 5.81933 254.782 5.68 255.5 5.68ZM280.298 5.878L272.862 23.698H270.266L272.73 17.802L267.956 5.878H270.75L274.16 15.118L277.702 5.878H280.298ZM287.449 18.198C286.305 18.198 285.271 17.9413 284.347 17.428C283.423 16.9 282.697 16.1667 282.169 15.228C281.641 14.2747 281.377 13.1747 281.377 11.928C281.377 10.696 281.648 9.60333 282.191 8.65C282.734 7.69667 283.474 6.96333 284.413 6.45C285.352 5.93667 286.4 5.68 287.559 5.68C288.718 5.68 289.766 5.93667 290.705 6.45C291.644 6.96333 292.384 7.69667 292.927 8.65C293.47 9.60333 293.741 10.696 293.741 11.928C293.741 13.16 293.462 14.2527 292.905 15.206C292.348 16.1593 291.585 16.9 290.617 17.428C289.664 17.9413 288.608 18.198 287.449 18.198ZM287.449 16.02C288.094 16.02 288.696 15.866 289.253 15.558C289.825 15.25 290.287 14.788 290.639 14.172C290.991 13.556 291.167 12.808 291.167 11.928C291.167 11.048 290.998 10.3073 290.661 9.706C290.324 9.09 289.876 8.628 289.319 8.32C288.762 8.012 288.16 7.858 287.515 7.858C286.87 7.858 286.268 8.012 285.711 8.32C285.168 8.628 284.736 9.09 284.413 9.706C284.09 10.3073 283.929 11.048 283.929 11.928C283.929 13.2333 284.259 14.2453 284.919 14.964C285.594 15.668 286.437 16.02 287.449 16.02ZM307.198 5.878V18H304.69V16.57C304.294 17.0687 303.774 17.4647 303.128 17.758C302.498 18.0367 301.823 18.176 301.104 18.176C300.151 18.176 299.293 17.978 298.53 17.582C297.782 17.186 297.188 16.5993 296.748 15.822C296.323 15.0447 296.11 14.106 296.11 13.006V5.878H298.596V12.632C298.596 13.7173 298.868 14.5533 299.41 15.14C299.953 15.712 300.694 15.998 301.632 15.998C302.571 15.998 303.312 15.712 303.854 15.14C304.412 14.5533 304.69 13.7173 304.69 12.632V5.878H307.198ZM313.653 2.71L313.367 13.38H311.277L310.991 2.71H313.653ZM312.399 18.154C311.945 18.154 311.563 18 311.255 17.692C310.947 17.384 310.793 17.0027 310.793 16.548C310.793 16.0933 310.947 15.712 311.255 15.404C311.563 15.096 311.945 14.942 312.399 14.942C312.839 14.942 313.213 15.096 313.521 15.404C313.829 15.712 313.983 16.0933 313.983 16.548C313.983 17.0027 313.829 17.384 313.521 17.692C313.213 18 312.839 18.154 312.399 18.154Z"
        fill="black" />
    <path
        d="M36.352 40.756C36.6133 40.2987 36.996 39.9253 37.5 39.636C38.004 39.3467 38.578 39.202 39.222 39.202C39.9127 39.202 40.5333 39.3653 41.084 39.692C41.6347 40.0187 42.0687 40.4807 42.386 41.078C42.7033 41.666 42.862 42.352 42.862 43.136C42.862 43.9107 42.7033 44.6013 42.386 45.208C42.0687 45.8147 41.63 46.286 41.07 46.622C40.5193 46.958 39.9033 47.126 39.222 47.126C38.5593 47.126 37.976 46.9813 37.472 46.692C36.9773 46.4027 36.604 46.034 36.352 45.586V47H35.078V36.64H36.352V40.756ZM41.56 43.136C41.56 42.5573 41.4433 42.0533 41.21 41.624C40.9767 41.1947 40.6593 40.868 40.258 40.644C39.866 40.42 39.432 40.308 38.956 40.308C38.4893 40.308 38.0553 40.4247 37.654 40.658C37.262 40.882 36.9447 41.2133 36.702 41.652C36.4687 42.0813 36.352 42.5807 36.352 43.15C36.352 43.7287 36.4687 44.2373 36.702 44.676C36.9447 45.1053 37.262 45.4367 37.654 45.67C38.0553 45.894 38.4893 46.006 38.956 46.006C39.432 46.006 39.866 45.894 40.258 45.67C40.6593 45.4367 40.9767 45.1053 41.21 44.676C41.4433 44.2373 41.56 43.724 41.56 43.136ZM44.0629 43.136C44.0629 42.352 44.2216 41.666 44.5389 41.078C44.8563 40.4807 45.2903 40.0187 45.8409 39.692C46.4009 39.3653 47.0216 39.202 47.7029 39.202C48.3749 39.202 48.9583 39.3467 49.4529 39.636C49.9476 39.9253 50.3163 40.2893 50.5589 40.728V39.328H51.8469V47H50.5589V45.572C50.3069 46.02 49.9289 46.3933 49.4249 46.692C48.9303 46.9813 48.3516 47.126 47.6889 47.126C47.0076 47.126 46.3916 46.958 45.8409 46.622C45.2903 46.286 44.8563 45.8147 44.5389 45.208C44.2216 44.6013 44.0629 43.9107 44.0629 43.136ZM50.5589 43.15C50.5589 42.5713 50.4423 42.0673 50.2089 41.638C49.9756 41.2087 49.6583 40.882 49.2569 40.658C48.8649 40.4247 48.4309 40.308 47.9549 40.308C47.4789 40.308 47.0449 40.42 46.6529 40.644C46.2609 40.868 45.9483 41.1947 45.7149 41.624C45.4816 42.0533 45.3649 42.5573 45.3649 43.136C45.3649 43.724 45.4816 44.2373 45.7149 44.676C45.9483 45.1053 46.2609 45.4367 46.6529 45.67C47.0449 45.894 47.4789 46.006 47.9549 46.006C48.4309 46.006 48.8649 45.894 49.2569 45.67C49.6583 45.4367 49.9756 45.1053 50.2089 44.676C50.4423 44.2373 50.5589 43.7287 50.5589 43.15ZM54.9519 45.95H58.7179V47H53.4959V45.95L57.2199 40.364H53.5239V39.328H58.6899V40.364L54.9519 45.95ZM59.895 43.136C59.895 42.352 60.0536 41.666 60.371 41.078C60.6883 40.4807 61.1223 40.0187 61.673 39.692C62.233 39.3653 62.8536 39.202 63.535 39.202C64.207 39.202 64.7903 39.3467 65.285 39.636C65.7796 39.9253 66.1483 40.2893 66.391 40.728V39.328H67.679V47H66.391V45.572C66.139 46.02 65.761 46.3933 65.257 46.692C64.7623 46.9813 64.1836 47.126 63.521 47.126C62.8396 47.126 62.2236 46.958 61.673 46.622C61.1223 46.286 60.6883 45.8147 60.371 45.208C60.0536 44.6013 59.895 43.9107 59.895 43.136ZM66.391 43.15C66.391 42.5713 66.2743 42.0673 66.041 41.638C65.8076 41.2087 65.4903 40.882 65.089 40.658C64.697 40.4247 64.263 40.308 63.787 40.308C63.311 40.308 62.877 40.42 62.485 40.644C62.093 40.868 61.7803 41.1947 61.547 41.624C61.3136 42.0533 61.197 42.5573 61.197 43.136C61.197 43.724 61.3136 44.2373 61.547 44.676C61.7803 45.1053 62.093 45.4367 62.485 45.67C62.877 45.894 63.311 46.006 63.787 46.006C64.263 46.006 64.697 45.894 65.089 45.67C65.4903 45.4367 65.8076 45.1053 66.041 44.676C66.2743 44.2373 66.391 43.7287 66.391 43.15ZM69.3559 43.136C69.3559 42.352 69.5146 41.666 69.8319 41.078C70.1492 40.4807 70.5832 40.0187 71.1339 39.692C71.6939 39.3653 72.3146 39.202 72.9959 39.202C73.6679 39.202 74.2512 39.3467 74.7459 39.636C75.2406 39.9253 75.6092 40.2893 75.8519 40.728V39.328H77.1399V47H75.8519V45.572C75.5999 46.02 75.2219 46.3933 74.7179 46.692C74.2232 46.9813 73.6446 47.126 72.9819 47.126C72.3006 47.126 71.6846 46.958 71.1339 46.622C70.5832 46.286 70.1492 45.8147 69.8319 45.208C69.5146 44.6013 69.3559 43.9107 69.3559 43.136ZM75.8519 43.15C75.8519 42.5713 75.7352 42.0673 75.5019 41.638C75.2686 41.2087 74.9512 40.882 74.5499 40.658C74.1579 40.4247 73.7239 40.308 73.2479 40.308C72.7719 40.308 72.3379 40.42 71.9459 40.644C71.5539 40.868 71.2412 41.1947 71.0079 41.624C70.7746 42.0533 70.6579 42.5573 70.6579 43.136C70.6579 43.724 70.7746 44.2373 71.0079 44.676C71.2412 45.1053 71.5539 45.4367 71.9459 45.67C72.3379 45.894 72.7719 46.006 73.2479 46.006C73.7239 46.006 74.1579 45.894 74.5499 45.67C74.9512 45.4367 75.2686 45.1053 75.5019 44.676C75.7352 44.2373 75.8519 43.7287 75.8519 43.15ZM80.5668 40.574C80.7908 40.1353 81.1082 39.7947 81.5188 39.552C81.9388 39.3093 82.4475 39.188 83.0448 39.188V40.504H82.7088C81.2808 40.504 80.5668 41.2787 80.5668 42.828V47H79.2928V39.328H80.5668V40.574ZM95.9199 47H94.6459L89.5219 39.23V47H88.2479V37.228H89.5219L94.6459 44.984V37.228H95.9199V47ZM98.7497 38.082C98.507 38.082 98.3017 37.998 98.1337 37.83C97.9657 37.662 97.8817 37.4567 97.8817 37.214C97.8817 36.9713 97.9657 36.766 98.1337 36.598C98.3017 36.43 98.507 36.346 98.7497 36.346C98.983 36.346 99.179 36.43 99.3377 36.598C99.5057 36.766 99.5897 36.9713 99.5897 37.214C99.5897 37.4567 99.5057 37.662 99.3377 37.83C99.179 37.998 98.983 38.082 98.7497 38.082ZM99.3657 39.328V47H98.0917V39.328H99.3657ZM103.091 40.378V44.9C103.091 45.2733 103.17 45.5393 103.329 45.698C103.488 45.8473 103.763 45.922 104.155 45.922H105.093V47H103.945C103.236 47 102.704 46.8367 102.349 46.51C101.994 46.1833 101.817 45.6467 101.817 44.9V40.378H100.823V39.328H101.817V37.396H103.091V39.328H105.093V40.378H103.091ZM107.295 38.082C107.052 38.082 106.847 37.998 106.679 37.83C106.511 37.662 106.427 37.4567 106.427 37.214C106.427 36.9713 106.511 36.766 106.679 36.598C106.847 36.43 107.052 36.346 107.295 36.346C107.528 36.346 107.724 36.43 107.883 36.598C108.051 36.766 108.135 36.9713 108.135 37.214C108.135 37.4567 108.051 37.662 107.883 37.83C107.724 37.998 107.528 38.082 107.295 38.082ZM107.911 39.328V47H106.637V39.328H107.911ZM114.472 38.082C114.23 38.082 114.024 37.998 113.856 37.83C113.688 37.662 113.604 37.4567 113.604 37.214C113.604 36.9713 113.688 36.766 113.856 36.598C114.024 36.43 114.23 36.346 114.472 36.346C114.706 36.346 114.902 36.43 115.06 36.598C115.228 36.766 115.312 36.9713 115.312 37.214C115.312 37.4567 115.228 37.662 115.06 37.83C114.902 37.998 114.706 38.082 114.472 38.082ZM115.088 39.328V47H113.814V39.328H115.088ZM119.976 47.126C119.388 47.126 118.86 47.028 118.394 46.832C117.927 46.6267 117.558 46.3467 117.288 45.992C117.017 45.628 116.868 45.2127 116.84 44.746H118.156C118.193 45.1287 118.37 45.4413 118.688 45.684C119.014 45.9267 119.439 46.048 119.962 46.048C120.447 46.048 120.83 45.9407 121.11 45.726C121.39 45.5113 121.53 45.2407 121.53 44.914C121.53 44.578 121.38 44.3307 121.082 44.172C120.783 44.004 120.321 43.8407 119.696 43.682C119.126 43.5327 118.66 43.3833 118.296 43.234C117.941 43.0753 117.633 42.8467 117.372 42.548C117.12 42.24 116.994 41.8387 116.994 41.344C116.994 40.952 117.11 40.5927 117.344 40.266C117.577 39.9393 117.908 39.6827 118.338 39.496C118.767 39.3 119.257 39.202 119.808 39.202C120.657 39.202 121.343 39.4167 121.866 39.846C122.388 40.2753 122.668 40.8633 122.706 41.61H121.432C121.404 41.2087 121.24 40.8867 120.942 40.644C120.652 40.4013 120.26 40.28 119.766 40.28C119.308 40.28 118.944 40.378 118.674 40.574C118.403 40.77 118.268 41.0267 118.268 41.344C118.268 41.596 118.347 41.806 118.506 41.974C118.674 42.1327 118.879 42.2633 119.122 42.366C119.374 42.4593 119.719 42.5667 120.158 42.688C120.708 42.8373 121.156 42.9867 121.502 43.136C121.847 43.276 122.141 43.4907 122.384 43.78C122.636 44.0693 122.766 44.4473 122.776 44.914C122.776 45.334 122.659 45.712 122.426 46.048C122.192 46.384 121.861 46.65 121.432 46.846C121.012 47.0327 120.526 47.126 119.976 47.126ZM132.045 39.188C132.978 39.188 133.734 39.4727 134.313 40.042C134.891 40.602 135.181 41.414 135.181 42.478V47H133.921V42.66C133.921 41.8947 133.729 41.3113 133.347 40.91C132.964 40.4993 132.441 40.294 131.779 40.294C131.107 40.294 130.57 40.504 130.169 40.924C129.777 41.344 129.581 41.9553 129.581 42.758V47H128.307V39.328H129.581V40.42C129.833 40.028 130.173 39.7247 130.603 39.51C131.041 39.2953 131.522 39.188 132.045 39.188ZM140.608 47.126C139.889 47.126 139.236 46.9627 138.648 46.636C138.069 46.3093 137.612 45.8473 137.276 45.25C136.949 44.6433 136.786 43.9433 136.786 43.15C136.786 42.366 136.954 41.6753 137.29 41.078C137.635 40.4713 138.102 40.0093 138.69 39.692C139.278 39.3653 139.936 39.202 140.664 39.202C141.392 39.202 142.05 39.3653 142.638 39.692C143.226 40.0093 143.688 40.4667 144.024 41.064C144.369 41.6613 144.542 42.3567 144.542 43.15C144.542 43.9433 144.364 44.6433 144.01 45.25C143.664 45.8473 143.193 46.3093 142.596 46.636C141.998 46.9627 141.336 47.126 140.608 47.126ZM140.608 46.006C141.065 46.006 141.494 45.8987 141.896 45.684C142.297 45.4693 142.619 45.1473 142.862 44.718C143.114 44.2887 143.24 43.766 143.24 43.15C143.24 42.534 143.118 42.0113 142.876 41.582C142.633 41.1527 142.316 40.8353 141.924 40.63C141.532 40.4153 141.107 40.308 140.65 40.308C140.183 40.308 139.754 40.4153 139.362 40.63C138.979 40.8353 138.671 41.1527 138.438 41.582C138.204 42.0113 138.088 42.534 138.088 43.15C138.088 43.7753 138.2 44.3027 138.424 44.732C138.657 45.1613 138.965 45.4833 139.348 45.698C139.73 45.9033 140.15 46.006 140.608 46.006ZM147.771 40.378V44.9C147.771 45.2733 147.85 45.5393 148.009 45.698C148.167 45.8473 148.443 45.922 148.835 45.922H149.773V47H148.625C147.915 47 147.383 46.8367 147.029 46.51C146.674 46.1833 146.497 45.6467 146.497 44.9V40.378H145.503V39.328H146.497V37.396H147.771V39.328H149.773V40.378H147.771ZM160.187 47L157.863 43.01H156.323V47H155.049V37.242H158.199C158.936 37.242 159.557 37.368 160.061 37.62C160.574 37.872 160.957 38.2127 161.209 38.642C161.461 39.0713 161.587 39.5613 161.587 40.112C161.587 40.784 161.391 41.3767 160.999 41.89C160.616 42.4033 160.037 42.744 159.263 42.912L161.713 47H160.187ZM156.323 41.988H158.199C158.889 41.988 159.407 41.82 159.753 41.484C160.098 41.1387 160.271 40.6813 160.271 40.112C160.271 39.5333 160.098 39.0853 159.753 38.768C159.417 38.4507 158.899 38.292 158.199 38.292H156.323V41.988ZM170.566 42.87C170.566 43.1127 170.552 43.3693 170.524 43.64H164.392C164.439 44.396 164.696 44.9887 165.162 45.418C165.638 45.838 166.212 46.048 166.884 46.048C167.435 46.048 167.892 45.922 168.256 45.67C168.63 45.4087 168.891 45.0633 169.04 44.634H170.412C170.207 45.3713 169.796 45.9733 169.18 46.44C168.564 46.8973 167.799 47.126 166.884 47.126C166.156 47.126 165.503 46.9627 164.924 46.636C164.355 46.3093 163.907 45.8473 163.58 45.25C163.254 44.6433 163.09 43.9433 163.09 43.15C163.09 42.3567 163.249 41.6613 163.566 41.064C163.884 40.4667 164.327 40.0093 164.896 39.692C165.475 39.3653 166.138 39.202 166.884 39.202C167.612 39.202 168.256 39.3607 168.816 39.678C169.376 39.9953 169.806 40.434 170.104 40.994C170.412 41.5447 170.566 42.17 170.566 42.87ZM169.25 42.604C169.25 42.1187 169.143 41.7033 168.928 41.358C168.714 41.0033 168.42 40.7373 168.046 40.56C167.682 40.3733 167.276 40.28 166.828 40.28C166.184 40.28 165.634 40.4853 165.176 40.896C164.728 41.3067 164.472 41.876 164.406 42.604H169.25ZM174.964 47.126C174.376 47.126 173.849 47.028 173.382 46.832C172.915 46.6267 172.547 46.3467 172.276 45.992C172.005 45.628 171.856 45.2127 171.828 44.746H173.144C173.181 45.1287 173.359 45.4413 173.676 45.684C174.003 45.9267 174.427 46.048 174.95 46.048C175.435 46.048 175.818 45.9407 176.098 45.726C176.378 45.5113 176.518 45.2407 176.518 44.914C176.518 44.578 176.369 44.3307 176.07 44.172C175.771 44.004 175.309 43.8407 174.684 43.682C174.115 43.5327 173.648 43.3833 173.284 43.234C172.929 43.0753 172.621 42.8467 172.36 42.548C172.108 42.24 171.982 41.8387 171.982 41.344C171.982 40.952 172.099 40.5927 172.332 40.266C172.565 39.9393 172.897 39.6827 173.326 39.496C173.755 39.3 174.245 39.202 174.796 39.202C175.645 39.202 176.331 39.4167 176.854 39.846C177.377 40.2753 177.657 40.8633 177.694 41.61H176.42C176.392 41.2087 176.229 40.8867 175.93 40.644C175.641 40.4013 175.249 40.28 174.754 40.28C174.297 40.28 173.933 40.378 173.662 40.574C173.391 40.77 173.256 41.0267 173.256 41.344C173.256 41.596 173.335 41.806 173.494 41.974C173.662 42.1327 173.867 42.2633 174.11 42.366C174.362 42.4593 174.707 42.5667 175.146 42.688C175.697 42.8373 176.145 42.9867 176.49 43.136C176.835 43.276 177.129 43.4907 177.372 43.78C177.624 44.0693 177.755 44.4473 177.764 44.914C177.764 45.334 177.647 45.712 177.414 46.048C177.181 46.384 176.849 46.65 176.42 46.846C176 47.0327 175.515 47.126 174.964 47.126ZM180.836 40.742C181.088 40.3033 181.462 39.9393 181.956 39.65C182.46 39.3513 183.044 39.202 183.706 39.202C184.388 39.202 185.004 39.3653 185.554 39.692C186.114 40.0187 186.553 40.4807 186.87 41.078C187.188 41.666 187.346 42.352 187.346 43.136C187.346 43.9107 187.188 44.6013 186.87 45.208C186.553 45.8147 186.114 46.286 185.554 46.622C185.004 46.958 184.388 47.126 183.706 47.126C183.053 47.126 182.474 46.9813 181.97 46.692C181.476 46.3933 181.098 46.0247 180.836 45.586V50.64H179.562V39.328H180.836V40.742ZM186.044 43.136C186.044 42.5573 185.928 42.0533 185.694 41.624C185.461 41.1947 185.144 40.868 184.742 40.644C184.35 40.42 183.916 40.308 183.44 40.308C182.974 40.308 182.54 40.4247 182.138 40.658C181.746 40.882 181.429 41.2133 181.186 41.652C180.953 42.0813 180.836 42.5807 180.836 43.15C180.836 43.7287 180.953 44.2373 181.186 44.676C181.429 45.1053 181.746 45.4367 182.138 45.67C182.54 45.894 182.974 46.006 183.44 46.006C183.916 46.006 184.35 45.894 184.742 45.67C185.144 45.4367 185.461 45.1053 185.694 44.676C185.928 44.2373 186.044 43.724 186.044 43.136ZM192.369 47.126C191.651 47.126 190.997 46.9627 190.409 46.636C189.831 46.3093 189.373 45.8473 189.037 45.25C188.711 44.6433 188.547 43.9433 188.547 43.15C188.547 42.366 188.715 41.6753 189.051 41.078C189.397 40.4713 189.863 40.0093 190.451 39.692C191.039 39.3653 191.697 39.202 192.425 39.202C193.153 39.202 193.811 39.3653 194.399 39.692C194.987 40.0093 195.449 40.4667 195.785 41.064C196.131 41.6613 196.303 42.3567 196.303 43.15C196.303 43.9433 196.126 44.6433 195.771 45.25C195.426 45.8473 194.955 46.3093 194.357 46.636C193.76 46.9627 193.097 47.126 192.369 47.126ZM192.369 46.006C192.827 46.006 193.256 45.8987 193.657 45.684C194.059 45.4693 194.381 45.1473 194.623 44.718C194.875 44.2887 195.001 43.766 195.001 43.15C195.001 42.534 194.88 42.0113 194.637 41.582C194.395 41.1527 194.077 40.8353 193.685 40.63C193.293 40.4153 192.869 40.308 192.411 40.308C191.945 40.308 191.515 40.4153 191.123 40.63C190.741 40.8353 190.433 41.1527 190.199 41.582C189.966 42.0113 189.849 42.534 189.849 43.15C189.849 43.7753 189.961 44.3027 190.185 44.732C190.419 45.1613 190.727 45.4833 191.109 45.698C191.492 45.9033 191.912 46.006 192.369 46.006ZM201.716 39.188C202.65 39.188 203.406 39.4727 203.984 40.042C204.563 40.602 204.852 41.414 204.852 42.478V47H203.592V42.66C203.592 41.8947 203.401 41.3113 203.018 40.91C202.636 40.4993 202.113 40.294 201.45 40.294C200.778 40.294 200.242 40.504 199.84 40.924C199.448 41.344 199.252 41.9553 199.252 42.758V47H197.978V39.328H199.252V40.42C199.504 40.028 199.845 39.7247 200.274 39.51C200.713 39.2953 201.194 39.188 201.716 39.188ZM209.649 47.126C209.061 47.126 208.534 47.028 208.067 46.832C207.601 46.6267 207.232 46.3467 206.961 45.992C206.691 45.628 206.541 45.2127 206.513 44.746H207.829C207.867 45.1287 208.044 45.4413 208.361 45.684C208.688 45.9267 209.113 46.048 209.635 46.048C210.121 46.048 210.503 45.9407 210.783 45.726C211.063 45.5113 211.203 45.2407 211.203 44.914C211.203 44.578 211.054 44.3307 210.755 44.172C210.457 44.004 209.995 43.8407 209.369 43.682C208.8 43.5327 208.333 43.3833 207.969 43.234C207.615 43.0753 207.307 42.8467 207.045 42.548C206.793 42.24 206.667 41.8387 206.667 41.344C206.667 40.952 206.784 40.5927 207.017 40.266C207.251 39.9393 207.582 39.6827 208.011 39.496C208.441 39.3 208.931 39.202 209.481 39.202C210.331 39.202 211.017 39.4167 211.539 39.846C212.062 40.2753 212.342 40.8633 212.379 41.61H211.105C211.077 41.2087 210.914 40.8867 210.615 40.644C210.326 40.4013 209.934 40.28 209.439 40.28C208.982 40.28 208.618 40.378 208.347 40.574C208.077 40.77 207.941 41.0267 207.941 41.344C207.941 41.596 208.021 41.806 208.179 41.974C208.347 42.1327 208.553 42.2633 208.795 42.366C209.047 42.4593 209.393 42.5667 209.831 42.688C210.382 42.8373 210.83 42.9867 211.175 43.136C211.521 43.276 211.815 43.4907 212.057 43.78C212.309 44.0693 212.44 44.4473 212.449 44.914C212.449 45.334 212.333 45.712 212.099 46.048C211.866 46.384 211.535 46.65 211.105 46.846C210.685 47.0327 210.2 47.126 209.649 47.126ZM214.906 38.082C214.663 38.082 214.458 37.998 214.29 37.83C214.122 37.662 214.038 37.4567 214.038 37.214C214.038 36.9713 214.122 36.766 214.29 36.598C214.458 36.43 214.663 36.346 214.906 36.346C215.139 36.346 215.335 36.43 215.494 36.598C215.662 36.766 215.746 36.9713 215.746 37.214C215.746 37.4567 215.662 37.662 215.494 37.83C215.335 37.998 215.139 38.082 214.906 38.082ZM215.522 39.328V47H214.248V39.328H215.522ZM218.967 40.756C219.229 40.2987 219.611 39.9253 220.115 39.636C220.619 39.3467 221.193 39.202 221.837 39.202C222.528 39.202 223.149 39.3653 223.699 39.692C224.25 40.0187 224.684 40.4807 225.001 41.078C225.319 41.666 225.477 42.352 225.477 43.136C225.477 43.9107 225.319 44.6013 225.001 45.208C224.684 45.8147 224.245 46.286 223.685 46.622C223.135 46.958 222.519 47.126 221.837 47.126C221.175 47.126 220.591 46.9813 220.087 46.692C219.593 46.4027 219.219 46.034 218.967 45.586V47H217.693V36.64H218.967V40.756ZM224.175 43.136C224.175 42.5573 224.059 42.0533 223.825 41.624C223.592 41.1947 223.275 40.868 222.873 40.644C222.481 40.42 222.047 40.308 221.571 40.308C221.105 40.308 220.671 40.4247 220.269 40.658C219.877 40.882 219.56 41.2133 219.317 41.652C219.084 42.0813 218.967 42.5807 218.967 43.15C218.967 43.7287 219.084 44.2373 219.317 44.676C219.56 45.1053 219.877 45.4367 220.269 45.67C220.671 45.894 221.105 46.006 221.571 46.006C222.047 46.006 222.481 45.894 222.873 45.67C223.275 45.4367 223.592 45.1053 223.825 44.676C224.059 44.2373 224.175 43.724 224.175 43.136ZM226.678 43.136C226.678 42.352 226.837 41.666 227.154 41.078C227.472 40.4807 227.906 40.0187 228.456 39.692C229.016 39.3653 229.637 39.202 230.318 39.202C230.99 39.202 231.574 39.3467 232.068 39.636C232.563 39.9253 232.932 40.2893 233.174 40.728V39.328H234.462V47H233.174V45.572C232.922 46.02 232.544 46.3933 232.04 46.692C231.546 46.9813 230.967 47.126 230.304 47.126C229.623 47.126 229.007 46.958 228.456 46.622C227.906 46.286 227.472 45.8147 227.154 45.208C226.837 44.6013 226.678 43.9107 226.678 43.136ZM233.174 43.15C233.174 42.5713 233.058 42.0673 232.824 41.638C232.591 41.2087 232.274 40.882 231.872 40.658C231.48 40.4247 231.046 40.308 230.57 40.308C230.094 40.308 229.66 40.42 229.268 40.644C228.876 40.868 228.564 41.1947 228.33 41.624C228.097 42.0533 227.98 42.5573 227.98 43.136C227.98 43.724 228.097 44.2373 228.33 44.676C228.564 45.1053 228.876 45.4367 229.268 45.67C229.66 45.894 230.094 46.006 230.57 46.006C231.046 46.006 231.48 45.894 231.872 45.67C232.274 45.4367 232.591 45.1053 232.824 44.676C233.058 44.2373 233.174 43.7287 233.174 43.15ZM237.889 36.64V47H236.615V36.64H237.889ZM247.06 42.87C247.06 43.1127 247.046 43.3693 247.018 43.64H240.886C240.933 44.396 241.19 44.9887 241.656 45.418C242.132 45.838 242.706 46.048 243.378 46.048C243.929 46.048 244.386 45.922 244.75 45.67C245.124 45.4087 245.385 45.0633 245.534 44.634H246.906C246.701 45.3713 246.29 45.9733 245.674 46.44C245.058 46.8973 244.293 47.126 243.378 47.126C242.65 47.126 241.997 46.9627 241.418 46.636C240.849 46.3093 240.401 45.8473 240.074 45.25C239.748 44.6433 239.584 43.9433 239.584 43.15C239.584 42.3567 239.743 41.6613 240.06 41.064C240.378 40.4667 240.821 40.0093 241.39 39.692C241.969 39.3653 242.632 39.202 243.378 39.202C244.106 39.202 244.75 39.3607 245.31 39.678C245.87 39.9953 246.3 40.434 246.598 40.994C246.906 41.5447 247.06 42.17 247.06 42.87ZM245.744 42.604C245.744 42.1187 245.637 41.7033 245.422 41.358C245.208 41.0033 244.914 40.7373 244.54 40.56C244.176 40.3733 243.77 40.28 243.322 40.28C242.678 40.28 242.128 40.4853 241.67 40.896C241.222 41.3067 240.966 41.876 240.9 42.604H245.744ZM253.132 38.082C252.89 38.082 252.684 37.998 252.516 37.83C252.348 37.662 252.264 37.4567 252.264 37.214C252.264 36.9713 252.348 36.766 252.516 36.598C252.684 36.43 252.89 36.346 253.132 36.346C253.366 36.346 253.562 36.43 253.72 36.598C253.888 36.766 253.972 36.9713 253.972 37.214C253.972 37.4567 253.888 37.662 253.72 37.83C253.562 37.998 253.366 38.082 253.132 38.082ZM253.748 39.328V47H252.474V39.328H253.748ZM259.658 39.188C260.591 39.188 261.347 39.4727 261.926 40.042C262.504 40.602 262.794 41.414 262.794 42.478V47H261.534V42.66C261.534 41.8947 261.342 41.3113 260.96 40.91C260.577 40.4993 260.054 40.294 259.392 40.294C258.72 40.294 258.183 40.504 257.782 40.924C257.39 41.344 257.194 41.9553 257.194 42.758V47H255.92V39.328H257.194V40.42C257.446 40.028 257.786 39.7247 258.216 39.51C258.654 39.2953 259.135 39.188 259.658 39.188ZM268.131 43.136C268.131 42.352 268.29 41.666 268.607 41.078C268.925 40.4807 269.359 40.0187 269.909 39.692C270.469 39.3653 271.09 39.202 271.771 39.202C272.443 39.202 273.027 39.3467 273.521 39.636C274.016 39.9253 274.385 40.2893 274.627 40.728V39.328H275.915V47H274.627V45.572C274.375 46.02 273.997 46.3933 273.493 46.692C272.999 46.9813 272.42 47.126 271.757 47.126C271.076 47.126 270.46 46.958 269.909 46.622C269.359 46.286 268.925 45.8147 268.607 45.208C268.29 44.6013 268.131 43.9107 268.131 43.136ZM274.627 43.15C274.627 42.5713 274.511 42.0673 274.277 41.638C274.044 41.2087 273.727 40.882 273.325 40.658C272.933 40.4247 272.499 40.308 272.023 40.308C271.547 40.308 271.113 40.42 270.721 40.644C270.329 40.868 270.017 41.1947 269.783 41.624C269.55 42.0533 269.433 42.5573 269.433 43.136C269.433 43.724 269.55 44.2373 269.783 44.676C270.017 45.1053 270.329 45.4367 270.721 45.67C271.113 45.894 271.547 46.006 272.023 46.006C272.499 46.006 272.933 45.894 273.325 45.67C273.727 45.4367 274.044 45.1053 274.277 44.676C274.511 44.2373 274.627 43.7287 274.627 43.15ZM281.806 39.188C282.74 39.188 283.496 39.4727 284.074 40.042C284.653 40.602 284.942 41.414 284.942 42.478V47H283.682V42.66C283.682 41.8947 283.491 41.3113 283.108 40.91C282.726 40.4993 282.203 40.294 281.54 40.294C280.868 40.294 280.332 40.504 279.93 40.924C279.538 41.344 279.342 41.9553 279.342 42.758V47H278.068V39.328H279.342V40.42C279.594 40.028 279.935 39.7247 280.364 39.51C280.803 39.2953 281.284 39.188 281.806 39.188ZM293.631 39.328L289.011 50.612H287.695L289.207 46.916L286.113 39.328H287.527L289.935 45.544L292.315 39.328H293.631ZM45.298 60.328L42.904 68H41.588L39.74 61.91L37.892 68H36.576L34.168 60.328H35.47L37.234 66.768L39.138 60.328H40.44L42.302 66.782L44.038 60.328H45.298ZM46.0864 64.136C46.0864 63.352 46.245 62.666 46.5624 62.078C46.8797 61.4807 47.3137 61.0187 47.8644 60.692C48.4244 60.3653 49.045 60.202 49.7264 60.202C50.3984 60.202 50.9817 60.3467 51.4764 60.636C51.971 60.9253 52.3397 61.2893 52.5824 61.728V60.328H53.8704V68H52.5824V66.572C52.3304 67.02 51.9524 67.3933 51.4484 67.692C50.9537 67.9813 50.375 68.126 49.7124 68.126C49.031 68.126 48.415 67.958 47.8644 67.622C47.3137 67.286 46.8797 66.8147 46.5624 66.208C46.245 65.6013 46.0864 64.9107 46.0864 64.136ZM52.5824 64.15C52.5824 63.5713 52.4657 63.0673 52.2324 62.638C51.999 62.2087 51.6817 61.882 51.2804 61.658C50.8884 61.4247 50.4544 61.308 49.9784 61.308C49.5024 61.308 49.0684 61.42 48.6764 61.644C48.2844 61.868 47.9717 62.1947 47.7384 62.624C47.505 63.0533 47.3884 63.5573 47.3884 64.136C47.3884 64.724 47.505 65.2373 47.7384 65.676C47.9717 66.1053 48.2844 66.4367 48.6764 66.67C49.0684 66.894 49.5024 67.006 49.9784 67.006C50.4544 67.006 50.8884 66.894 51.2804 66.67C51.6817 66.4367 51.999 66.1053 52.2324 65.676C52.4657 65.2373 52.5824 64.7287 52.5824 64.15ZM62.6313 60.328L58.0113 71.612H56.6953L58.2073 67.916L55.1133 60.328H56.5273L58.9353 66.544L61.3153 60.328H62.6313ZM70.7664 61.378H69.1564V68H67.8824V61.378H66.8884V60.328H67.8824V59.782C67.8824 58.9233 68.1017 58.298 68.5404 57.906C68.9884 57.5047 69.7024 57.304 70.6824 57.304V58.368C70.1224 58.368 69.7257 58.48 69.4924 58.704C69.2684 58.9187 69.1564 59.278 69.1564 59.782V60.328H70.7664V61.378ZM75.5978 68.126C74.8792 68.126 74.2258 67.9627 73.6378 67.636C73.0592 67.3093 72.6018 66.8473 72.2658 66.25C71.9392 65.6433 71.7758 64.9433 71.7758 64.15C71.7758 63.366 71.9438 62.6753 72.2798 62.078C72.6252 61.4713 73.0918 61.0093 73.6798 60.692C74.2678 60.3653 74.9258 60.202 75.6538 60.202C76.3818 60.202 77.0398 60.3653 77.6278 60.692C78.2158 61.0093 78.6778 61.4667 79.0138 62.064C79.3592 62.6613 79.5318 63.3567 79.5318 64.15C79.5318 64.9433 79.3545 65.6433 78.9998 66.25C78.6545 66.8473 78.1832 67.3093 77.5858 67.636C76.9885 67.9627 76.3258 68.126 75.5978 68.126ZM75.5978 67.006C76.0552 67.006 76.4845 66.8987 76.8858 66.684C77.2872 66.4693 77.6092 66.1473 77.8518 65.718C78.1038 65.2887 78.2298 64.766 78.2298 64.15C78.2298 63.534 78.1085 63.0113 77.8658 62.582C77.6232 62.1527 77.3058 61.8353 76.9138 61.63C76.5218 61.4153 76.0972 61.308 75.6398 61.308C75.1732 61.308 74.7438 61.4153 74.3518 61.63C73.9692 61.8353 73.6612 62.1527 73.4278 62.582C73.1945 63.0113 73.0778 63.534 73.0778 64.15C73.0778 64.7753 73.1898 65.3027 73.4138 65.732C73.6472 66.1613 73.9552 66.4833 74.3378 66.698C74.7205 66.9033 75.1405 67.006 75.5978 67.006ZM82.4809 61.574C82.7049 61.1353 83.0222 60.7947 83.4329 60.552C83.8529 60.3093 84.3616 60.188 84.9589 60.188V61.504H84.6229C83.1949 61.504 82.4809 62.2787 82.4809 63.828V68H81.2069V60.328H82.4809V61.574ZM89.686 64.136C89.686 63.352 89.8447 62.666 90.162 62.078C90.4793 61.4807 90.9133 61.0187 91.464 60.692C92.024 60.3653 92.6447 60.202 93.326 60.202C93.998 60.202 94.5813 60.3467 95.076 60.636C95.5707 60.9253 95.9393 61.2893 96.182 61.728V60.328H97.47V68H96.182V66.572C95.93 67.02 95.552 67.3933 95.048 67.692C94.5533 67.9813 93.9747 68.126 93.312 68.126C92.6307 68.126 92.0147 67.958 91.464 67.622C90.9133 67.286 90.4793 66.8147 90.162 66.208C89.8447 65.6013 89.686 64.9107 89.686 64.136ZM96.182 64.15C96.182 63.5713 96.0653 63.0673 95.832 62.638C95.5987 62.2087 95.2813 61.882 94.88 61.658C94.488 61.4247 94.054 61.308 93.578 61.308C93.102 61.308 92.668 61.42 92.276 61.644C91.884 61.868 91.5713 62.1947 91.338 62.624C91.1047 63.0533 90.988 63.5573 90.988 64.136C90.988 64.724 91.1047 65.2373 91.338 65.676C91.5713 66.1053 91.884 66.4367 92.276 66.67C92.668 66.894 93.102 67.006 93.578 67.006C94.054 67.006 94.488 66.894 94.88 66.67C95.2813 66.4367 95.5987 66.1053 95.832 65.676C96.0653 65.2373 96.182 64.7287 96.182 64.15ZM103.361 60.188C104.294 60.188 105.05 60.4727 105.629 61.042C106.208 61.602 106.497 62.414 106.497 63.478V68H105.237V63.66C105.237 62.8947 105.046 62.3113 104.663 61.91C104.28 61.4993 103.758 61.294 103.095 61.294C102.423 61.294 101.886 61.504 101.485 61.924C101.093 62.344 100.897 62.9553 100.897 63.758V68H99.6229V60.328H100.897V61.42C101.149 61.028 101.49 60.7247 101.919 60.51C102.358 60.2953 102.838 60.188 103.361 60.188ZM115.186 60.328L110.566 71.612H109.25L110.762 67.916L107.668 60.328H109.082L111.49 66.544L113.87 60.328H115.186ZM121.473 57.64V68H120.199V57.64H121.473ZM126.99 68.126C126.272 68.126 125.618 67.9627 125.03 67.636C124.452 67.3093 123.994 66.8473 123.658 66.25C123.332 65.6433 123.168 64.9433 123.168 64.15C123.168 63.366 123.336 62.6753 123.672 62.078C124.018 61.4713 124.484 61.0093 125.072 60.692C125.66 60.3653 126.318 60.202 127.046 60.202C127.774 60.202 128.432 60.3653 129.02 60.692C129.608 61.0093 130.07 61.4667 130.406 62.064C130.752 62.6613 130.924 63.3567 130.924 64.15C130.924 64.9433 130.747 65.6433 130.392 66.25C130.047 66.8473 129.576 67.3093 128.978 67.636C128.381 67.9627 127.718 68.126 126.99 68.126ZM126.99 67.006C127.448 67.006 127.877 66.8987 128.278 66.684C128.68 66.4693 129.002 66.1473 129.244 65.718C129.496 65.2887 129.622 64.766 129.622 64.15C129.622 63.534 129.501 63.0113 129.258 62.582C129.016 62.1527 128.698 61.8353 128.306 61.63C127.914 61.4153 127.49 61.308 127.032 61.308C126.566 61.308 126.136 61.4153 125.744 61.63C125.362 61.8353 125.054 62.1527 124.82 62.582C124.587 63.0113 124.47 63.534 124.47 64.15C124.47 64.7753 124.582 65.3027 124.806 65.732C125.04 66.1613 125.348 66.4833 125.73 66.698C126.113 66.9033 126.533 67.006 126.99 67.006ZM135.315 68.126C134.727 68.126 134.2 68.028 133.733 67.832C133.267 67.6267 132.898 67.3467 132.627 66.992C132.357 66.628 132.207 66.2127 132.179 65.746H133.495C133.533 66.1287 133.71 66.4413 134.027 66.684C134.354 66.9267 134.779 67.048 135.301 67.048C135.787 67.048 136.169 66.9407 136.449 66.726C136.729 66.5113 136.869 66.2407 136.869 65.914C136.869 65.578 136.72 65.3307 136.421 65.172C136.123 65.004 135.661 64.8407 135.035 64.682C134.466 64.5327 133.999 64.3833 133.635 64.234C133.281 64.0753 132.973 63.8467 132.711 63.548C132.459 63.24 132.333 62.8387 132.333 62.344C132.333 61.952 132.45 61.5927 132.683 61.266C132.917 60.9393 133.248 60.6827 133.677 60.496C134.107 60.3 134.597 60.202 135.147 60.202C135.997 60.202 136.683 60.4167 137.205 60.846C137.728 61.2753 138.008 61.8633 138.045 62.61H136.771C136.743 62.2087 136.58 61.8867 136.281 61.644C135.992 61.4013 135.6 61.28 135.105 61.28C134.648 61.28 134.284 61.378 134.013 61.574C133.743 61.77 133.607 62.0267 133.607 62.344C133.607 62.596 133.687 62.806 133.845 62.974C134.013 63.1327 134.219 63.2633 134.461 63.366C134.713 63.4593 135.059 63.5667 135.497 63.688C136.048 63.8373 136.496 63.9867 136.841 64.136C137.187 64.276 137.481 64.4907 137.723 64.78C137.975 65.0693 138.106 65.4473 138.115 65.914C138.115 66.334 137.999 66.712 137.765 67.048C137.532 67.384 137.201 67.65 136.771 67.846C136.351 68.0327 135.866 68.126 135.315 68.126ZM142.63 68.126C142.042 68.126 141.515 68.028 141.048 67.832C140.581 67.6267 140.213 67.3467 139.942 66.992C139.671 66.628 139.522 66.2127 139.494 65.746H140.81C140.847 66.1287 141.025 66.4413 141.342 66.684C141.669 66.9267 142.093 67.048 142.616 67.048C143.101 67.048 143.484 66.9407 143.764 66.726C144.044 66.5113 144.184 66.2407 144.184 65.914C144.184 65.578 144.035 65.3307 143.736 65.172C143.437 65.004 142.975 64.8407 142.35 64.682C141.781 64.5327 141.314 64.3833 140.95 64.234C140.595 64.0753 140.287 63.8467 140.026 63.548C139.774 63.24 139.648 62.8387 139.648 62.344C139.648 61.952 139.765 61.5927 139.998 61.266C140.231 60.9393 140.563 60.6827 140.992 60.496C141.421 60.3 141.911 60.202 142.462 60.202C143.311 60.202 143.997 60.4167 144.52 60.846C145.043 61.2753 145.323 61.8633 145.36 62.61H144.086C144.058 62.2087 143.895 61.8867 143.596 61.644C143.307 61.4013 142.915 61.28 142.42 61.28C141.963 61.28 141.599 61.378 141.328 61.574C141.057 61.77 140.922 62.0267 140.922 62.344C140.922 62.596 141.001 62.806 141.16 62.974C141.328 63.1327 141.533 63.2633 141.776 63.366C142.028 63.4593 142.373 63.5667 142.812 63.688C143.363 63.8373 143.811 63.9867 144.156 64.136C144.501 64.276 144.795 64.4907 145.038 64.78C145.29 65.0693 145.421 65.4473 145.43 65.914C145.43 66.334 145.313 66.712 145.08 67.048C144.847 67.384 144.515 67.65 144.086 67.846C143.666 68.0327 143.181 68.126 142.63 68.126ZM151.619 59.082C151.376 59.082 151.171 58.998 151.003 58.83C150.835 58.662 150.751 58.4567 150.751 58.214C150.751 57.9713 150.835 57.766 151.003 57.598C151.171 57.43 151.376 57.346 151.619 57.346C151.852 57.346 152.048 57.43 152.207 57.598C152.375 57.766 152.459 57.9713 152.459 58.214C152.459 58.4567 152.375 58.662 152.207 58.83C152.048 58.998 151.852 59.082 151.619 59.082ZM152.235 60.328V68H150.961V60.328H152.235ZM167.365 60.188C167.962 60.188 168.494 60.314 168.961 60.566C169.427 60.8087 169.796 61.1773 170.067 61.672C170.337 62.1667 170.473 62.7687 170.473 63.478V68H169.213V63.66C169.213 62.8947 169.021 62.3113 168.639 61.91C168.265 61.4993 167.757 61.294 167.113 61.294C166.45 61.294 165.923 61.5087 165.531 61.938C165.139 62.358 164.943 62.9693 164.943 63.772V68H163.683V63.66C163.683 62.8947 163.491 62.3113 163.109 61.91C162.735 61.4993 162.227 61.294 161.583 61.294C160.92 61.294 160.393 61.5087 160.001 61.938C159.609 62.358 159.413 62.9693 159.413 63.772V68H158.139V60.328H159.413V61.434C159.665 61.0327 160.001 60.7247 160.421 60.51C160.85 60.2953 161.321 60.188 161.835 60.188C162.479 60.188 163.048 60.3327 163.543 60.622C164.037 60.9113 164.406 61.336 164.649 61.896C164.863 61.3547 165.218 60.9347 165.713 60.636C166.207 60.3373 166.758 60.188 167.365 60.188ZM172.086 64.136C172.086 63.352 172.245 62.666 172.562 62.078C172.88 61.4807 173.314 61.0187 173.864 60.692C174.424 60.3653 175.045 60.202 175.726 60.202C176.398 60.202 176.982 60.3467 177.476 60.636C177.971 60.9253 178.34 61.2893 178.582 61.728V60.328H179.87V68H178.582V66.572C178.33 67.02 177.952 67.3933 177.448 67.692C176.954 67.9813 176.375 68.126 175.712 68.126C175.031 68.126 174.415 67.958 173.864 67.622C173.314 67.286 172.88 66.8147 172.562 66.208C172.245 65.6013 172.086 64.9107 172.086 64.136ZM178.582 64.15C178.582 63.5713 178.466 63.0673 178.232 62.638C177.999 62.2087 177.682 61.882 177.28 61.658C176.888 61.4247 176.454 61.308 175.978 61.308C175.502 61.308 175.068 61.42 174.676 61.644C174.284 61.868 173.972 62.1947 173.738 62.624C173.505 63.0533 173.388 63.5573 173.388 64.136C173.388 64.724 173.505 65.2373 173.738 65.676C173.972 66.1053 174.284 66.4367 174.676 66.67C175.068 66.894 175.502 67.006 175.978 67.006C176.454 67.006 176.888 66.894 177.28 66.67C177.682 66.4367 177.999 66.1053 178.232 65.676C178.466 65.2373 178.582 64.7287 178.582 64.15ZM186.307 68L183.297 64.612V68H182.023V57.64H183.297V63.73L186.251 60.328H188.029L184.417 64.15L188.043 68H186.307ZM196.228 63.87C196.228 64.1127 196.214 64.3693 196.186 64.64H190.054C190.101 65.396 190.358 65.9887 190.824 66.418C191.3 66.838 191.874 67.048 192.546 67.048C193.097 67.048 193.554 66.922 193.918 66.67C194.292 66.4087 194.553 66.0633 194.702 65.634H196.074C195.869 66.3713 195.458 66.9733 194.842 67.44C194.226 67.8973 193.461 68.126 192.546 68.126C191.818 68.126 191.165 67.9627 190.586 67.636C190.017 67.3093 189.569 66.8473 189.242 66.25C188.916 65.6433 188.752 64.9433 188.752 64.15C188.752 63.3567 188.911 62.6613 189.228 62.064C189.546 61.4667 189.989 61.0093 190.558 60.692C191.137 60.3653 191.8 60.202 192.546 60.202C193.274 60.202 193.918 60.3607 194.478 60.678C195.038 60.9953 195.468 61.434 195.766 61.994C196.074 62.5447 196.228 63.17 196.228 63.87ZM194.912 63.604C194.912 63.1187 194.805 62.7033 194.59 62.358C194.376 62.0033 194.082 61.7373 193.708 61.56C193.344 61.3733 192.938 61.28 192.49 61.28C191.846 61.28 191.296 61.4853 190.838 61.896C190.39 62.3067 190.134 62.876 190.068 63.604H194.912ZM211.862 60.328L209.468 68H208.152L206.304 61.91L204.456 68H203.14L200.732 60.328H202.034L203.798 66.768L205.702 60.328H207.004L208.866 66.782L210.602 60.328H211.862ZM213.785 59.082C213.542 59.082 213.337 58.998 213.169 58.83C213.001 58.662 212.917 58.4567 212.917 58.214C212.917 57.9713 213.001 57.766 213.169 57.598C213.337 57.43 213.542 57.346 213.785 57.346C214.018 57.346 214.214 57.43 214.373 57.598C214.541 57.766 214.625 57.9713 214.625 58.214C214.625 58.4567 214.541 58.662 214.373 58.83C214.214 58.998 214.018 59.082 213.785 59.082ZM214.401 60.328V68H213.127V60.328H214.401ZM218.126 61.378V65.9C218.126 66.2733 218.205 66.5393 218.364 66.698C218.523 66.8473 218.798 66.922 219.19 66.922H220.128V68H218.98C218.271 68 217.739 67.8367 217.384 67.51C217.029 67.1833 216.852 66.6467 216.852 65.9V61.378H215.858V60.328H216.852V58.396H218.126V60.328H220.128V61.378H218.126ZM225.48 60.188C226.058 60.188 226.581 60.314 227.048 60.566C227.514 60.8087 227.878 61.1773 228.14 61.672C228.41 62.1667 228.546 62.7687 228.546 63.478V68H227.286V63.66C227.286 62.8947 227.094 62.3113 226.712 61.91C226.329 61.4993 225.806 61.294 225.144 61.294C224.472 61.294 223.935 61.504 223.534 61.924C223.142 62.344 222.946 62.9553 222.946 63.758V68H221.672V57.64H222.946V61.42C223.198 61.028 223.543 60.7247 223.982 60.51C224.43 60.2953 224.929 60.188 225.48 60.188ZM235.017 59.082C234.775 59.082 234.569 58.998 234.401 58.83C234.233 58.662 234.149 58.4567 234.149 58.214C234.149 57.9713 234.233 57.766 234.401 57.598C234.569 57.43 234.775 57.346 235.017 57.346C235.251 57.346 235.447 57.43 235.605 57.598C235.773 57.766 235.857 57.9713 235.857 58.214C235.857 58.4567 235.773 58.662 235.605 58.83C235.447 58.998 235.251 59.082 235.017 59.082ZM235.633 60.328V68H234.359V60.328H235.633ZM241.543 60.188C242.476 60.188 243.232 60.4727 243.811 61.042C244.389 61.602 244.679 62.414 244.679 63.478V68H243.419V63.66C243.419 62.8947 243.227 62.3113 242.845 61.91C242.462 61.4993 241.939 61.294 241.277 61.294C240.605 61.294 240.068 61.504 239.667 61.924C239.275 62.344 239.079 62.9553 239.079 63.758V68H237.805V60.328H239.079V61.42C239.331 61.028 239.671 60.7247 240.101 60.51C240.539 60.2953 241.02 60.188 241.543 60.188ZM249.882 61.378H248.272V68H246.998V61.378H246.004V60.328H246.998V59.782C246.998 58.9233 247.217 58.298 247.656 57.906C248.104 57.5047 248.818 57.304 249.798 57.304V58.368C249.238 58.368 248.841 58.48 248.608 58.704C248.384 58.9187 248.272 59.278 248.272 59.782V60.328H249.882V61.378ZM254.713 68.126C253.994 68.126 253.341 67.9627 252.753 67.636C252.174 67.3093 251.717 66.8473 251.381 66.25C251.054 65.6433 250.891 64.9433 250.891 64.15C250.891 63.366 251.059 62.6753 251.395 62.078C251.74 61.4713 252.207 61.0093 252.795 60.692C253.383 60.3653 254.041 60.202 254.769 60.202C255.497 60.202 256.155 60.3653 256.743 60.692C257.331 61.0093 257.793 61.4667 258.129 62.064C258.474 62.6613 258.647 63.3567 258.647 64.15C258.647 64.9433 258.47 65.6433 258.115 66.25C257.77 66.8473 257.298 67.3093 256.701 67.636C256.104 67.9627 255.441 68.126 254.713 68.126ZM254.713 67.006C255.17 67.006 255.6 66.8987 256.001 66.684C256.402 66.4693 256.724 66.1473 256.967 65.718C257.219 65.2887 257.345 64.766 257.345 64.15C257.345 63.534 257.224 63.0113 256.981 62.582C256.738 62.1527 256.421 61.8353 256.029 61.63C255.637 61.4153 255.212 61.308 254.755 61.308C254.288 61.308 253.859 61.4153 253.467 61.63C253.084 61.8353 252.776 62.1527 252.543 62.582C252.31 63.0113 252.193 63.534 252.193 64.15C252.193 64.7753 252.305 65.3027 252.529 65.732C252.762 66.1613 253.07 66.4833 253.453 66.698C253.836 66.9033 254.256 67.006 254.713 67.006ZM261.596 61.574C261.82 61.1353 262.137 60.7947 262.548 60.552C262.968 60.3093 263.477 60.188 264.074 60.188V61.504H263.738C262.31 61.504 261.596 62.2787 261.596 63.828V68H260.322V60.328H261.596V61.574ZM274.771 60.188C275.368 60.188 275.9 60.314 276.367 60.566C276.833 60.8087 277.202 61.1773 277.473 61.672C277.743 62.1667 277.879 62.7687 277.879 63.478V68H276.619V63.66C276.619 62.8947 276.427 62.3113 276.045 61.91C275.671 61.4993 275.163 61.294 274.519 61.294C273.856 61.294 273.329 61.5087 272.937 61.938C272.545 62.358 272.349 62.9693 272.349 63.772V68H271.089V63.66C271.089 62.8947 270.897 62.3113 270.515 61.91C270.141 61.4993 269.633 61.294 268.989 61.294C268.326 61.294 267.799 61.5087 267.407 61.938C267.015 62.358 266.819 62.9693 266.819 63.772V68H265.545V60.328H266.819V61.434C267.071 61.0327 267.407 60.7247 267.827 60.51C268.256 60.2953 268.727 60.188 269.241 60.188C269.885 60.188 270.454 60.3327 270.949 60.622C271.443 60.9113 271.812 61.336 272.055 61.896C272.269 61.3547 272.624 60.9347 273.119 60.636C273.613 60.3373 274.164 60.188 274.771 60.188ZM279.493 64.136C279.493 63.352 279.651 62.666 279.969 62.078C280.286 61.4807 280.72 61.0187 281.271 60.692C281.831 60.3653 282.451 60.202 283.133 60.202C283.805 60.202 284.388 60.3467 284.883 60.636C285.377 60.9253 285.746 61.2893 285.989 61.728V60.328H287.277V68H285.989V66.572C285.737 67.02 285.359 67.3933 284.855 67.692C284.36 67.9813 283.781 68.126 283.119 68.126C282.437 68.126 281.821 67.958 281.271 67.622C280.72 67.286 280.286 66.8147 279.969 66.208C279.651 65.6013 279.493 64.9107 279.493 64.136ZM285.989 64.15C285.989 63.5713 285.872 63.0673 285.639 62.638C285.405 62.2087 285.088 61.882 284.687 61.658C284.295 61.4247 283.861 61.308 283.385 61.308C282.909 61.308 282.475 61.42 282.083 61.644C281.691 61.868 281.378 62.1947 281.145 62.624C280.911 63.0533 280.795 63.5573 280.795 64.136C280.795 64.724 280.911 65.2373 281.145 65.676C281.378 66.1053 281.691 66.4367 282.083 66.67C282.475 66.894 282.909 67.006 283.385 67.006C283.861 67.006 284.295 66.894 284.687 66.67C285.088 66.4367 285.405 66.1053 285.639 65.676C285.872 65.2373 285.989 64.7287 285.989 64.15ZM290.984 61.378V65.9C290.984 66.2733 291.063 66.5393 291.222 66.698C291.38 66.8473 291.656 66.922 292.048 66.922H292.986V68H291.838C291.128 68 290.596 67.8367 290.242 67.51C289.887 67.1833 289.71 66.6467 289.71 65.9V61.378H288.716V60.328H289.71V58.396H290.984V60.328H292.986V61.378H290.984ZM295.187 59.082C294.945 59.082 294.739 58.998 294.571 58.83C294.403 58.662 294.319 58.4567 294.319 58.214C294.319 57.9713 294.403 57.766 294.571 57.598C294.739 57.43 294.945 57.346 295.187 57.346C295.421 57.346 295.617 57.43 295.775 57.598C295.943 57.766 296.027 57.9713 296.027 58.214C296.027 58.4567 295.943 58.662 295.775 58.83C295.617 58.998 295.421 59.082 295.187 59.082ZM295.803 60.328V68H294.529V60.328H295.803ZM301.32 68.126C300.602 68.126 299.948 67.9627 299.36 67.636C298.782 67.3093 298.324 66.8473 297.988 66.25C297.662 65.6433 297.498 64.9433 297.498 64.15C297.498 63.366 297.666 62.6753 298.002 62.078C298.348 61.4713 298.814 61.0093 299.402 60.692C299.99 60.3653 300.648 60.202 301.376 60.202C302.104 60.202 302.762 60.3653 303.35 60.692C303.938 61.0093 304.4 61.4667 304.736 62.064C305.082 62.6613 305.254 63.3567 305.254 64.15C305.254 64.9433 305.077 65.6433 304.722 66.25C304.377 66.8473 303.906 67.3093 303.308 67.636C302.711 67.9627 302.048 68.126 301.32 68.126ZM301.32 67.006C301.778 67.006 302.207 66.8987 302.608 66.684C303.01 66.4693 303.332 66.1473 303.574 65.718C303.826 65.2887 303.952 64.766 303.952 64.15C303.952 63.534 303.831 63.0113 303.588 62.582C303.346 62.1527 303.028 61.8353 302.636 61.63C302.244 61.4153 301.82 61.308 301.362 61.308C300.896 61.308 300.466 61.4153 300.074 61.63C299.692 61.8353 299.384 62.1527 299.15 62.582C298.917 63.0113 298.8 63.534 298.8 64.15C298.8 64.7753 298.912 65.3027 299.136 65.732C299.37 66.1613 299.678 66.4833 300.06 66.698C300.443 66.9033 300.863 67.006 301.32 67.006ZM310.668 60.188C311.601 60.188 312.357 60.4727 312.936 61.042C313.514 61.602 313.804 62.414 313.804 63.478V68H312.544V63.66C312.544 62.8947 312.352 62.3113 311.97 61.91C311.587 61.4993 311.064 61.294 310.402 61.294C309.73 61.294 309.193 61.504 308.792 61.924C308.4 62.344 308.204 62.9553 308.204 63.758V68H306.93V60.328H308.204V61.42C308.456 61.028 308.796 60.7247 309.226 60.51C309.664 60.2953 310.145 60.188 310.668 60.188ZM320.891 58.242V68H319.617V58.242H320.891ZM34.602 85.15C34.602 84.3567 34.7607 83.666 35.078 83.078C35.3953 82.4807 35.834 82.0187 36.394 81.692C36.9633 81.3653 37.612 81.202 38.34 81.202C39.2827 81.202 40.0573 81.4307 40.664 81.888C41.28 82.3453 41.686 82.98 41.882 83.792H40.51C40.3793 83.3253 40.1227 82.9567 39.74 82.686C39.3667 82.4153 38.9 82.28 38.34 82.28C37.612 82.28 37.024 82.532 36.576 83.036C36.128 83.5307 35.904 84.2353 35.904 85.15C35.904 86.074 36.128 86.788 36.576 87.292C37.024 87.796 37.612 88.048 38.34 88.048C38.9 88.048 39.3667 87.9173 39.74 87.656C40.1133 87.3947 40.37 87.0213 40.51 86.536H41.882C41.6767 87.32 41.266 87.95 40.65 88.426C40.034 88.8927 39.264 89.126 38.34 89.126C37.612 89.126 36.9633 88.9627 36.394 88.636C35.834 88.3093 35.3953 87.8473 35.078 87.25C34.7607 86.6527 34.602 85.9527 34.602 85.15ZM46.9279 89.126C46.2092 89.126 45.5559 88.9627 44.9679 88.636C44.3892 88.3093 43.9319 87.8473 43.5959 87.25C43.2692 86.6433 43.1059 85.9433 43.1059 85.15C43.1059 84.366 43.2739 83.6753 43.6099 83.078C43.9552 82.4713 44.4219 82.0093 45.0099 81.692C45.5979 81.3653 46.2559 81.202 46.9839 81.202C47.7119 81.202 48.3699 81.3653 48.9579 81.692C49.5459 82.0093 50.0079 82.4667 50.3439 83.064C50.6892 83.6613 50.8619 84.3567 50.8619 85.15C50.8619 85.9433 50.6846 86.6433 50.3299 87.25C49.9846 87.8473 49.5132 88.3093 48.9159 88.636C48.3186 88.9627 47.6559 89.126 46.9279 89.126ZM46.9279 88.006C47.3852 88.006 47.8146 87.8987 48.2159 87.684C48.6172 87.4693 48.9392 87.1473 49.1819 86.718C49.4339 86.2887 49.5599 85.766 49.5599 85.15C49.5599 84.534 49.4386 84.0113 49.1959 83.582C48.9532 83.1527 48.6359 82.8353 48.2439 82.63C47.8519 82.4153 47.4272 82.308 46.9699 82.308C46.5032 82.308 46.0739 82.4153 45.6819 82.63C45.2992 82.8353 44.9912 83.1527 44.7579 83.582C44.5246 84.0113 44.4079 84.534 44.4079 85.15C44.4079 85.7753 44.5199 86.3027 44.7439 86.732C44.9772 87.1613 45.2852 87.4833 45.6679 87.698C46.0506 87.9033 46.4706 88.006 46.9279 88.006ZM53.811 78.64V89H52.537V78.64H53.811ZM57.2563 78.64V89H55.9823V78.64H57.2563ZM66.4276 84.87C66.4276 85.1127 66.4136 85.3693 66.3856 85.64H60.2536C60.3003 86.396 60.5569 86.9887 61.0236 87.418C61.4996 87.838 62.0736 88.048 62.7456 88.048C63.2963 88.048 63.7536 87.922 64.1176 87.67C64.4909 87.4087 64.7523 87.0633 64.9016 86.634H66.2736C66.0683 87.3713 65.6576 87.9733 65.0416 88.44C64.4256 88.8973 63.6603 89.126 62.7456 89.126C62.0176 89.126 61.3643 88.9627 60.7856 88.636C60.2163 88.3093 59.7683 87.8473 59.4416 87.25C59.1149 86.6433 58.9516 85.9433 58.9516 85.15C58.9516 84.3567 59.1103 83.6613 59.4276 83.064C59.7449 82.4667 60.1883 82.0093 60.7576 81.692C61.3363 81.3653 61.9989 81.202 62.7456 81.202C63.4736 81.202 64.1176 81.3607 64.6776 81.678C65.2376 81.9953 65.6669 82.434 65.9656 82.994C66.2736 83.5447 66.4276 84.17 66.4276 84.87ZM65.1116 84.604C65.1116 84.1187 65.0043 83.7033 64.7896 83.358C64.5749 83.0033 64.2809 82.7373 63.9076 82.56C63.5436 82.3733 63.1376 82.28 62.6896 82.28C62.0456 82.28 61.4949 82.4853 61.0376 82.896C60.5896 83.3067 60.3329 83.876 60.2676 84.604H65.1116ZM67.6333 85.15C67.6333 84.3567 67.7919 83.666 68.1093 83.078C68.4266 82.4807 68.8653 82.0187 69.4253 81.692C69.9946 81.3653 70.6433 81.202 71.3713 81.202C72.3139 81.202 73.0886 81.4307 73.6953 81.888C74.3113 82.3453 74.7173 82.98 74.9133 83.792H73.5413C73.4106 83.3253 73.1539 82.9567 72.7713 82.686C72.3979 82.4153 71.9313 82.28 71.3713 82.28C70.6433 82.28 70.0553 82.532 69.6073 83.036C69.1593 83.5307 68.9353 84.2353 68.9353 85.15C68.9353 86.074 69.1593 86.788 69.6073 87.292C70.0553 87.796 70.6433 88.048 71.3713 88.048C71.9313 88.048 72.3979 87.9173 72.7713 87.656C73.1446 87.3947 73.4013 87.0213 73.5413 86.536H74.9133C74.7079 87.32 74.2973 87.95 73.6813 88.426C73.0653 88.8927 72.2953 89.126 71.3713 89.126C70.6433 89.126 69.9946 88.9627 69.4253 88.636C68.8653 88.3093 68.4266 87.8473 68.1093 87.25C67.7919 86.6527 67.6333 85.9527 67.6333 85.15ZM78.1672 82.378V86.9C78.1672 87.2733 78.2465 87.5393 78.4052 87.698C78.5638 87.8473 78.8392 87.922 79.2312 87.922H80.1692V89H79.0212C78.3118 89 77.7798 88.8367 77.4252 88.51C77.0705 88.1833 76.8932 87.6467 76.8932 86.9V82.378H75.8992V81.328H76.8932V79.396H78.1672V81.328H80.1692V82.378H78.1672ZM88.7912 89.126C88.0725 89.126 87.4192 88.9627 86.8312 88.636C86.2525 88.3093 85.7952 87.8473 85.4592 87.25C85.1325 86.6433 84.9692 85.9433 84.9692 85.15C84.9692 84.366 85.1372 83.6753 85.4732 83.078C85.8185 82.4713 86.2852 82.0093 86.8732 81.692C87.4612 81.3653 88.1192 81.202 88.8472 81.202C89.5752 81.202 90.2332 81.3653 90.8212 81.692C91.4092 82.0093 91.8712 82.4667 92.2072 83.064C92.5525 83.6613 92.7252 84.3567 92.7252 85.15C92.7252 85.9433 92.5479 86.6433 92.1932 87.25C91.8479 87.8473 91.3765 88.3093 90.7792 88.636C90.1819 88.9627 89.5192 89.126 88.7912 89.126ZM88.7912 88.006C89.2485 88.006 89.6779 87.8987 90.0792 87.684C90.4805 87.4693 90.8025 87.1473 91.0452 86.718C91.2972 86.2887 91.4232 85.766 91.4232 85.15C91.4232 84.534 91.3019 84.0113 91.0592 83.582C90.8165 83.1527 90.4992 82.8353 90.1072 82.63C89.7152 82.4153 89.2905 82.308 88.8332 82.308C88.3665 82.308 87.9372 82.4153 87.5452 82.63C87.1625 82.8353 86.8545 83.1527 86.6212 83.582C86.3879 84.0113 86.2712 84.534 86.2712 85.15C86.2712 85.7753 86.3832 86.3027 86.6072 86.732C86.8405 87.1613 87.1485 87.4833 87.5312 87.698C87.9139 87.9033 88.3339 88.006 88.7912 88.006ZM98.1383 81.188C99.0716 81.188 99.8276 81.4727 100.406 82.042C100.985 82.602 101.274 83.414 101.274 84.478V89H100.014V84.66C100.014 83.8947 99.8229 83.3113 99.4403 82.91C99.0576 82.4993 98.5349 82.294 97.8723 82.294C97.2003 82.294 96.6636 82.504 96.2623 82.924C95.8703 83.344 95.6743 83.9553 95.6743 84.758V89H94.4003V81.328H95.6743V82.42C95.9263 82.028 96.2669 81.7247 96.6963 81.51C97.1349 81.2953 97.6156 81.188 98.1383 81.188ZM108.642 82.378V86.9C108.642 87.2733 108.721 87.5393 108.88 87.698C109.038 87.8473 109.314 87.922 109.706 87.922H110.644V89H109.496C108.786 89 108.254 88.8367 107.9 88.51C107.545 88.1833 107.368 87.6467 107.368 86.9V82.378H106.374V81.328H107.368V79.396H108.642V81.328H110.644V82.378H108.642ZM115.995 81.188C116.574 81.188 117.097 81.314 117.563 81.566C118.03 81.8087 118.394 82.1773 118.655 82.672C118.926 83.1667 119.061 83.7687 119.061 84.478V89H117.801V84.66C117.801 83.8947 117.61 83.3113 117.227 82.91C116.845 82.4993 116.322 82.294 115.659 82.294C114.987 82.294 114.451 82.504 114.049 82.924C113.657 83.344 113.461 83.9553 113.461 84.758V89H112.187V78.64H113.461V82.42C113.713 82.028 114.059 81.7247 114.497 81.51C114.945 81.2953 115.445 81.188 115.995 81.188ZM121.8 80.082C121.558 80.082 121.352 79.998 121.184 79.83C121.016 79.662 120.932 79.4567 120.932 79.214C120.932 78.9713 121.016 78.766 121.184 78.598C121.352 78.43 121.558 78.346 121.8 78.346C122.034 78.346 122.23 78.43 122.388 78.598C122.556 78.766 122.64 78.9713 122.64 79.214C122.64 79.4567 122.556 79.662 122.388 79.83C122.23 79.998 122.034 80.082 121.8 80.082ZM122.416 81.328V89H121.142V81.328H122.416ZM127.304 89.126C126.716 89.126 126.188 89.028 125.722 88.832C125.255 88.6267 124.886 88.3467 124.616 87.992C124.345 87.628 124.196 87.2127 124.168 86.746H125.484C125.521 87.1287 125.698 87.4413 126.016 87.684C126.342 87.9267 126.767 88.048 127.29 88.048C127.775 88.048 128.158 87.9407 128.438 87.726C128.718 87.5113 128.858 87.2407 128.858 86.914C128.858 86.578 128.708 86.3307 128.41 86.172C128.111 86.004 127.649 85.8407 127.024 85.682C126.454 85.5327 125.988 85.3833 125.624 85.234C125.269 85.0753 124.961 84.8467 124.7 84.548C124.448 84.24 124.322 83.8387 124.322 83.344C124.322 82.952 124.438 82.5927 124.672 82.266C124.905 81.9393 125.236 81.6827 125.666 81.496C126.095 81.3 126.585 81.202 127.136 81.202C127.985 81.202 128.671 81.4167 129.194 81.846C129.716 82.2753 129.996 82.8633 130.034 83.61H128.76C128.732 83.2087 128.568 82.8867 128.27 82.644C127.98 82.4013 127.588 82.28 127.094 82.28C126.636 82.28 126.272 82.378 126.002 82.574C125.731 82.77 125.596 83.0267 125.596 83.344C125.596 83.596 125.675 83.806 125.834 83.974C126.002 84.1327 126.207 84.2633 126.45 84.366C126.702 84.4593 127.047 84.5667 127.486 84.688C128.036 84.8373 128.484 84.9867 128.83 85.136C129.175 85.276 129.469 85.4907 129.712 85.78C129.964 86.0693 130.094 86.4473 130.104 86.914C130.104 87.334 129.987 87.712 129.754 88.048C129.52 88.384 129.189 88.65 128.76 88.846C128.34 89.0327 127.854 89.126 127.304 89.126ZM136.909 82.742C137.161 82.3033 137.534 81.9393 138.029 81.65C138.533 81.3513 139.116 81.202 139.779 81.202C140.46 81.202 141.076 81.3653 141.627 81.692C142.187 82.0187 142.625 82.4807 142.943 83.078C143.26 83.666 143.419 84.352 143.419 85.136C143.419 85.9107 143.26 86.6013 142.943 87.208C142.625 87.8147 142.187 88.286 141.627 88.622C141.076 88.958 140.46 89.126 139.779 89.126C139.125 89.126 138.547 88.9813 138.043 88.692C137.548 88.3933 137.17 88.0247 136.909 87.586V92.64H135.635V81.328H136.909V82.742ZM142.117 85.136C142.117 84.5573 142 84.0533 141.767 83.624C141.533 83.1947 141.216 82.868 140.815 82.644C140.423 82.42 139.989 82.308 139.513 82.308C139.046 82.308 138.612 82.4247 138.211 82.658C137.819 82.882 137.501 83.2133 137.259 83.652C137.025 84.0813 136.909 84.5807 136.909 85.15C136.909 85.7287 137.025 86.2373 137.259 86.676C137.501 87.1053 137.819 87.4367 138.211 87.67C138.612 87.894 139.046 88.006 139.513 88.006C139.989 88.006 140.423 87.894 140.815 87.67C141.216 87.4367 141.533 87.1053 141.767 86.676C142 86.2373 142.117 85.724 142.117 85.136ZM146.37 78.64V89H145.096V78.64H146.37ZM148.065 85.136C148.065 84.352 148.224 83.666 148.541 83.078C148.858 82.4807 149.292 82.0187 149.843 81.692C150.403 81.3653 151.024 81.202 151.705 81.202C152.377 81.202 152.96 81.3467 153.455 81.636C153.95 81.9253 154.318 82.2893 154.561 82.728V81.328H155.849V89H154.561V87.572C154.309 88.02 153.931 88.3933 153.427 88.692C152.932 88.9813 152.354 89.126 151.691 89.126C151.01 89.126 150.394 88.958 149.843 88.622C149.292 88.286 148.858 87.8147 148.541 87.208C148.224 86.6013 148.065 85.9107 148.065 85.136ZM154.561 85.15C154.561 84.5713 154.444 84.0673 154.211 83.638C153.978 83.2087 153.66 82.882 153.259 82.658C152.867 82.4247 152.433 82.308 151.957 82.308C151.481 82.308 151.047 82.42 150.655 82.644C150.263 82.868 149.95 83.1947 149.717 83.624C149.484 84.0533 149.367 84.5573 149.367 85.136C149.367 85.724 149.484 86.2373 149.717 86.676C149.95 87.1053 150.263 87.4367 150.655 87.67C151.047 87.894 151.481 88.006 151.957 88.006C152.433 88.006 152.867 87.894 153.259 87.67C153.66 87.4367 153.978 87.1053 154.211 86.676C154.444 86.2373 154.561 85.7287 154.561 85.15ZM159.556 82.378V86.9C159.556 87.2733 159.635 87.5393 159.794 87.698C159.952 87.8473 160.228 87.922 160.62 87.922H161.558V89H160.41C159.7 89 159.168 88.8367 158.814 88.51C158.459 88.1833 158.282 87.6467 158.282 86.9V82.378H157.288V81.328H158.282V79.396H159.556V81.328H161.558V82.378H159.556ZM166.223 82.378H164.613V89H163.339V82.378H162.345V81.328H163.339V80.782C163.339 79.9233 163.559 79.298 163.997 78.906C164.445 78.5047 165.159 78.304 166.139 78.304V79.368C165.579 79.368 165.183 79.48 164.949 79.704C164.725 79.9187 164.613 80.278 164.613 80.782V81.328H166.223V82.378ZM168.983 82.574C169.207 82.1353 169.524 81.7947 169.935 81.552C170.355 81.3093 170.864 81.188 171.461 81.188V82.504H171.125C169.697 82.504 168.983 83.2787 168.983 84.828V89H167.709V81.328H168.983V82.574ZM176.278 89.126C175.559 89.126 174.906 88.9627 174.318 88.636C173.739 88.3093 173.282 87.8473 172.946 87.25C172.619 86.6433 172.456 85.9433 172.456 85.15C172.456 84.366 172.624 83.6753 172.96 83.078C173.305 82.4713 173.772 82.0093 174.36 81.692C174.948 81.3653 175.606 81.202 176.334 81.202C177.062 81.202 177.72 81.3653 178.308 81.692C178.896 82.0093 179.358 82.4667 179.694 83.064C180.039 83.6613 180.212 84.3567 180.212 85.15C180.212 85.9433 180.034 86.6433 179.68 87.25C179.334 87.8473 178.863 88.3093 178.266 88.636C177.668 88.9627 177.006 89.126 176.278 89.126ZM176.278 88.006C176.735 88.006 177.164 87.8987 177.566 87.684C177.967 87.4693 178.289 87.1473 178.532 86.718C178.784 86.2887 178.91 85.766 178.91 85.15C178.91 84.534 178.788 84.0113 178.546 83.582C178.303 83.1527 177.986 82.8353 177.594 82.63C177.202 82.4153 176.777 82.308 176.32 82.308C175.853 82.308 175.424 82.4153 175.032 82.63C174.649 82.8353 174.341 83.1527 174.108 83.582C173.874 84.0113 173.758 84.534 173.758 85.15C173.758 85.7753 173.87 86.3027 174.094 86.732C174.327 87.1613 174.635 87.4833 175.018 87.698C175.4 87.9033 175.82 88.006 176.278 88.006ZM191.113 81.188C191.71 81.188 192.242 81.314 192.709 81.566C193.175 81.8087 193.544 82.1773 193.815 82.672C194.085 83.1667 194.221 83.7687 194.221 84.478V89H192.961V84.66C192.961 83.8947 192.769 83.3113 192.387 82.91C192.013 82.4993 191.505 82.294 190.861 82.294C190.198 82.294 189.671 82.5087 189.279 82.938C188.887 83.358 188.691 83.9693 188.691 84.772V89H187.431V84.66C187.431 83.8947 187.239 83.3113 186.857 82.91C186.483 82.4993 185.975 82.294 185.331 82.294C184.668 82.294 184.141 82.5087 183.749 82.938C183.357 83.358 183.161 83.9693 183.161 84.772V89H181.887V81.328H183.161V82.434C183.413 82.0327 183.749 81.7247 184.169 81.51C184.598 81.2953 185.069 81.188 185.583 81.188C186.227 81.188 186.796 81.3327 187.291 81.622C187.785 81.9113 188.154 82.336 188.397 82.896C188.611 82.3547 188.966 81.9347 189.461 81.636C189.955 81.3373 190.506 81.188 191.113 81.188Z"
        fill="black" />
    <path
        d="M27.1412 28.797C27.0727 28.8771 26.9982 28.9551 26.9187 29.0312C26.8961 29.0524 26.8715 29.0727 26.8482 29.0935C26.7769 29.1585 26.7022 29.2223 26.6226 29.2849C26.586 29.3136 26.5484 29.3419 26.51 29.3704C26.4325 29.4275 26.3507 29.4833 26.2664 29.5376C26.2307 29.5611 26.1971 29.5844 26.1607 29.6071C26.0438 29.6782 25.9216 29.7472 25.7939 29.8133C25.7505 29.836 25.7044 29.8566 25.6597 29.8786C25.5664 29.9241 25.4713 29.9686 25.3732 30.0112C25.3173 30.0352 25.2608 30.0595 25.2036 30.0825C25.101 30.124 24.9949 30.164 24.8875 30.2021C24.8376 30.2201 24.7902 30.2386 24.7395 30.2559C24.5904 30.3064 24.4356 30.3534 24.2783 30.3975C24.2151 30.4155 24.1494 30.4315 24.0847 30.4483C23.9763 30.4763 23.8666 30.5028 23.7545 30.5283C23.683 30.5443 23.611 30.5601 23.5382 30.5751C23.4113 30.6009 23.2816 30.6244 23.1509 30.6462C23.0901 30.6559 23.0309 30.6674 22.97 30.6767C22.7991 30.7022 22.625 30.7242 22.4484 30.7435C22.3718 30.7517 22.2941 30.758 22.2165 30.7653C22.0934 30.7765 21.9689 30.7863 21.8435 30.7935C21.7629 30.7988 21.6827 30.8033 21.6014 30.807C21.4411 30.814 21.2792 30.8176 21.1159 30.8191C21.0773 30.8193 21.0406 30.8221 21.0018 30.8221C20.9644 30.8221 20.929 30.8196 20.8916 30.8191C20.7263 30.8181 20.562 30.8138 20.3996 30.807C20.3206 30.8033 20.2423 30.7988 20.164 30.794C20.0348 30.7863 19.9074 30.776 19.7814 30.765C19.7069 30.7583 19.6319 30.7523 19.5581 30.744C19.3737 30.7237 19.1919 30.7015 19.0137 30.6737C18.965 30.6662 18.9181 30.6569 18.87 30.6489C18.7312 30.6257 18.5945 30.6011 18.46 30.5739C18.391 30.5601 18.3235 30.5451 18.2563 30.5298C18.1386 30.5036 18.0232 30.4753 17.9093 30.4458C17.8493 30.43 17.7886 30.4155 17.7299 30.3987C17.5691 30.3539 17.4123 30.3062 17.26 30.2549C17.2161 30.2399 17.1742 30.2236 17.1311 30.2078C17.0161 30.167 16.904 30.1248 16.7949 30.0805C16.7412 30.0585 16.6887 30.0364 16.6363 30.0137C16.5329 29.9689 16.4326 29.9221 16.3347 29.8738C16.2943 29.8541 16.2522 29.835 16.2131 29.8148C16.0831 29.7475 15.9587 29.6777 15.8407 29.6049C15.8074 29.5846 15.777 29.5633 15.7451 29.5428C15.6568 29.486 15.5713 29.4275 15.49 29.3677C15.4536 29.3412 15.4187 29.3141 15.3839 29.2874C15.3013 29.2223 15.2236 29.1563 15.1498 29.0887C15.1292 29.0699 15.1071 29.0517 15.0873 29.0329C15.0075 28.9564 14.9323 28.8778 14.8633 28.7975V29.8343C14.8633 30.2767 15.0881 30.7045 15.5314 31.1058C16.3568 31.8609 17.8205 32.4078 19.5494 32.6082C21.0288 32.7831 22.6473 32.6788 23.9783 32.328C24.8453 32.0976 25.5897 31.7691 26.1291 31.3783L26.2059 31.3247C26.6487 30.9947 27.1407 30.4819 27.1407 29.8341L27.14 28.7971L27.1412 28.797Z"
        fill="#F4C430" />
    <path
        d="M20.2895 34.8823C21.1327 34.9201 22.0357 34.8891 22.8922 34.7582L23.0274 34.7357C25.4492 34.3327 27.1412 33.2248 27.1412 32.0424V31.2243C27.1254 31.2425 27.1046 31.2598 27.0883 31.2781C27.0261 31.3476 26.9591 31.4152 26.8878 31.482C26.8572 31.5108 26.8276 31.5395 26.7953 31.5675C26.6919 31.6584 26.582 31.7472 26.4611 31.8335L26.3838 31.8858C25.7967 32.2926 25.0175 32.6318 24.1223 32.8703C23.9113 32.9256 23.6925 32.9734 23.47 33.0172C23.395 33.0322 23.319 33.0449 23.2429 33.0582C23.0909 33.0847 22.9376 33.1087 22.7818 33.1295C22.6943 33.1415 22.6072 33.1538 22.5184 33.1643C22.3104 33.1883 22.1007 33.2081 21.8889 33.2218C21.7976 33.2278 21.7058 33.2303 21.6139 33.2346C21.4551 33.2421 21.2958 33.2473 21.137 33.2491C21.0366 33.2501 20.937 33.2493 20.8369 33.2483C20.6947 33.2466 20.5527 33.2421 20.4107 33.2361C20.3264 33.2323 20.2423 33.2298 20.158 33.2246C19.9317 33.2103 19.7062 33.1918 19.4839 33.1655C17.6414 32.9519 16.0625 32.3522 15.1528 31.5205C15.0587 31.4354 14.9752 31.3471 14.8961 31.2578C14.8861 31.2465 14.8728 31.2358 14.8633 31.2242V32.0429C14.8633 33.4184 17.1597 34.6594 20.0912 34.8685C20.1648 34.8755 20.227 34.879 20.2894 34.8823L20.2895 34.8823Z"
        fill="#F4C430" />
    <path
        d="M14.8643 27.4039C14.8643 27.5975 14.9082 27.7872 14.9917 27.9713C15.012 28.0158 15.0416 28.0586 15.066 28.1024C15.0923 28.1492 15.1139 28.1962 15.145 28.2418C15.9348 29.3969 18.2977 30.2616 21.0018 30.2616C23.9136 30.2616 26.4297 29.2591 27.0133 27.9708C27.0968 27.7869 27.1407 27.5972 27.1407 27.4036V26.5847C26.1154 27.7894 23.7834 28.613 21.002 28.613C18.2212 28.613 15.8897 27.7897 14.8648 26.5847L14.8643 27.4039Z"
        fill="#F4C430" />
    <path
        d="M21.002 28.0527C24.3297 28.0527 27.1407 26.7442 27.1407 25.196V24.1539C26.8863 24.4524 26.5539 24.7279 26.1517 24.9725C24.9322 25.7161 23.0942 26.1822 21.002 26.1822C18.9104 26.1822 17.0728 25.7159 15.8535 24.9725C15.4519 24.7279 15.1189 24.4521 14.8647 24.1539V25.196C14.8645 26.7442 17.6752 28.0527 21.002 28.0527Z"
        fill="#F4C430" />
    <path
        d="M21.002 19.907C17.6755 19.907 14.8647 21.2155 14.8647 22.7637C14.8647 23.6424 15.7702 24.4428 17.1604 24.9719C18.2206 25.3755 19.5623 25.6212 21.0022 25.6212C22.4423 25.6212 23.7842 25.3753 24.845 24.9719C26.2354 24.4428 27.1409 23.6421 27.1409 22.7637C27.1406 21.2155 24.3295 19.907 21.0019 19.907H21.002Z"
        fill="#F4C430" />
    <path
        d="M0.0664062 32.0437C0.0664062 33.5927 2.87712 34.9012 6.20434 34.9012C9.53208 34.9012 12.3431 33.5924 12.3431 32.0437V31.2249C11.3177 32.4296 8.9857 33.2532 6.20434 33.2532C3.42324 33.2532 1.09173 32.4293 0.0664062 31.2249V32.0437Z"
        fill="#F4C430" />
    <path
        d="M0.0664709 29.6124V29.8358C0.0664709 31.3845 2.87718 32.6925 6.20441 32.6925C9.53215 32.6925 12.3431 31.384 12.3431 29.8358V28.7937C12.0887 29.0922 11.7563 29.3676 11.3541 29.6123C10.1346 30.3559 8.29661 30.822 6.20441 30.822C4.11278 30.822 2.27499 30.3557 1.05518 29.6123C0.653514 29.3676 0.320553 29.0919 0.0664062 28.7937L0.0664709 29.6124Z"
        fill="#F4C430" />
    <path
        d="M0.0664062 27.404C0.0664062 28.2827 0.971882 29.083 2.36202 29.6122C3.42228 30.0158 4.76424 30.2615 6.2046 30.2615C7.6447 30.2615 8.98667 30.0155 10.0474 29.6122C11.4378 29.083 12.3433 28.2824 12.3433 27.404C12.3433 25.8553 9.53234 24.5472 6.2046 24.5472C2.87705 24.547 0.0664062 25.8553 0.0664062 27.404Z"
        fill="#F4C430" />
    <path
        d="M5.92465 5.24622V19.3486L4.00336 17.4336L3.60596 17.8299L6.20568 20.4214L8.80438 17.8299L8.40722 17.4336L6.4867 19.3486V5.24622H5.92465Z"
        fill="#F4C430" />
    <path
        d="M21.138 15.5356V1.43322L23.0585 3.34816L23.456 2.95211L20.857 0.360352L18.2583 2.95211L18.6555 3.34816L20.576 1.43322V15.5356H21.138Z"
        fill="#F4C430" />
</svg>
