<svg width="328" height="83" viewBox="0 0 328 83" fill="none" xmlns="http://www.w3.org/2000/svg">
    <path
        d="M49.212 27H46.704L39.158 15.582V27H36.65V11.688H39.158L46.704 23.084V11.688H49.212V27ZM57.7635 27.198C56.6195 27.198 55.5855 26.9413 54.6615 26.428C53.7375 25.9 53.0115 25.1667 52.4835 24.228C51.9555 23.2747 51.6915 22.1747 51.6915 20.928C51.6915 19.696 51.9628 18.6033 52.5055 17.65C53.0481 16.6967 53.7888 15.9633 54.7275 15.45C55.6661 14.9367 56.7148 14.68 57.8735 14.68C59.0321 14.68 60.0808 14.9367 61.0195 15.45C61.9581 15.9633 62.6988 16.6967 63.2415 17.65C63.7841 18.6033 64.0555 19.696 64.0555 20.928C64.0555 22.16 63.7768 23.2527 63.2195 24.206C62.6621 25.1593 61.8995 25.9 60.9315 26.428C59.9781 26.9413 58.9221 27.198 57.7635 27.198ZM57.7635 25.02C58.4088 25.02 59.0101 24.866 59.5675 24.558C60.1395 24.25 60.6015 23.788 60.9535 23.172C61.3055 22.556 61.4815 21.808 61.4815 20.928C61.4815 20.048 61.3128 19.3073 60.9755 18.706C60.6381 18.09 60.1908 17.628 59.6335 17.32C59.0761 17.012 58.4748 16.858 57.8295 16.858C57.1841 16.858 56.5828 17.012 56.0255 17.32C55.4828 17.628 55.0501 18.09 54.7275 18.706C54.4048 19.3073 54.2435 20.048 54.2435 20.928C54.2435 22.2333 54.5735 23.2453 55.2335 23.964C55.9081 24.668 56.7515 25.02 57.7635 25.02ZM69.4608 16.924V23.634C69.4608 24.0887 69.5634 24.4187 69.7688 24.624C69.9888 24.8147 70.3554 24.91 70.8688 24.91H72.4088V27H70.4288C69.2994 27 68.4341 26.736 67.8328 26.208C67.2314 25.68 66.9308 24.822 66.9308 23.634V16.924H65.5008V14.878H66.9308V11.864H69.4608V14.878H72.4088V16.924H69.4608ZM79.5992 20.884C79.5992 19.6667 79.8485 18.5887 80.3472 17.65C80.8605 16.7113 81.5498 15.9853 82.4152 15.472C83.2952 14.944 84.2632 14.68 85.3192 14.68C86.2725 14.68 87.1012 14.8707 87.8052 15.252C88.5238 15.6187 89.0958 16.0807 89.5212 16.638V14.878H92.0512V27H89.5212V25.196C89.0958 25.768 88.5165 26.2447 87.7832 26.626C87.0498 27.0073 86.2138 27.198 85.2752 27.198C84.2338 27.198 83.2805 26.934 82.4152 26.406C81.5498 25.8633 80.8605 25.1153 80.3472 24.162C79.8485 23.194 79.5992 22.1013 79.5992 20.884ZM89.5212 20.928C89.5212 20.092 89.3452 19.366 88.9932 18.75C88.6558 18.134 88.2085 17.6647 87.6512 17.342C87.0938 17.0193 86.4925 16.858 85.8472 16.858C85.2018 16.858 84.6005 17.0193 84.0432 17.342C83.4858 17.65 83.0312 18.112 82.6792 18.728C82.3418 19.3293 82.1732 20.048 82.1732 20.884C82.1732 21.72 82.3418 22.4533 82.6792 23.084C83.0312 23.7147 83.4858 24.1987 84.0432 24.536C84.6152 24.8587 85.2165 25.02 85.8472 25.02C86.4925 25.02 87.0938 24.8587 87.6512 24.536C88.2085 24.2133 88.6558 23.744 88.9932 23.128C89.3452 22.4973 89.5212 21.764 89.5212 20.928ZM106.098 27.154C105.071 27.154 104.147 26.978 103.326 26.626C102.505 26.2593 101.859 25.746 101.39 25.086C100.921 24.426 100.686 23.656 100.686 22.776H103.37C103.429 23.436 103.685 23.9787 104.14 24.404C104.609 24.8293 105.262 25.042 106.098 25.042C106.963 25.042 107.638 24.8367 108.122 24.426C108.606 24.0007 108.848 23.458 108.848 22.798C108.848 22.2847 108.694 21.8667 108.386 21.544C108.093 21.2213 107.719 20.972 107.264 20.796C106.824 20.62 106.208 20.4293 105.416 20.224C104.419 19.96 103.605 19.696 102.974 19.432C102.358 19.1533 101.83 18.728 101.39 18.156C100.95 17.584 100.73 16.8213 100.73 15.868C100.73 14.988 100.95 14.218 101.39 13.558C101.83 12.898 102.446 12.392 103.238 12.04C104.03 11.688 104.947 11.512 105.988 11.512C107.469 11.512 108.679 11.886 109.618 12.634C110.571 13.3673 111.099 14.3793 111.202 15.67H108.43C108.386 15.1127 108.122 14.636 107.638 14.24C107.154 13.844 106.516 13.646 105.724 13.646C105.005 13.646 104.419 13.8293 103.964 14.196C103.509 14.5627 103.282 15.0907 103.282 15.78C103.282 16.2493 103.421 16.638 103.7 16.946C103.993 17.2393 104.36 17.474 104.8 17.65C105.24 17.826 105.841 18.0167 106.604 18.222C107.616 18.5007 108.437 18.7793 109.068 19.058C109.713 19.3367 110.256 19.7693 110.696 20.356C111.151 20.928 111.378 21.698 111.378 22.666C111.378 23.4433 111.165 24.1767 110.74 24.866C110.329 25.5553 109.721 26.1127 108.914 26.538C108.122 26.9487 107.183 27.154 106.098 27.154ZM116.846 13.734V18.222H122.126V20.268H116.846V24.954H122.786V27H114.338V11.688H122.786V13.734H116.846ZM134.059 19.146C134.88 19.2927 135.577 19.7253 136.149 20.444C136.721 21.1627 137.007 21.9767 137.007 22.886C137.007 23.6633 136.801 24.3673 136.391 24.998C135.995 25.614 135.415 26.1053 134.653 26.472C133.89 26.824 133.003 27 131.991 27H125.875V11.71H131.705C132.746 11.71 133.641 11.886 134.389 12.238C135.137 12.59 135.701 13.0667 136.083 13.668C136.464 14.2547 136.655 14.9147 136.655 15.648C136.655 16.528 136.42 17.2613 135.951 17.848C135.481 18.4347 134.851 18.8673 134.059 19.146ZM128.383 18.134H131.485C132.306 18.134 132.944 17.9507 133.399 17.584C133.868 17.2027 134.103 16.66 134.103 15.956C134.103 15.2667 133.868 14.7313 133.399 14.35C132.944 13.954 132.306 13.756 131.485 13.756H128.383V18.134ZM131.771 24.954C132.621 24.954 133.289 24.7487 133.773 24.338C134.257 23.9273 134.499 23.3553 134.499 22.622C134.499 21.874 134.242 21.28 133.729 20.84C133.215 20.4 132.533 20.18 131.683 20.18H128.383V24.954H131.771ZM142.24 11.71V27H139.732V11.71H142.24ZM153.756 16.638C154.122 16.022 154.606 15.5453 155.208 15.208C155.824 14.856 156.55 14.68 157.386 14.68V17.276H156.748C155.765 17.276 155.017 17.5253 154.504 18.024C154.005 18.5227 153.756 19.388 153.756 20.62V27H151.248V14.878H153.756V16.638ZM170.801 20.642C170.801 21.0967 170.772 21.5073 170.713 21.874H161.451C161.524 22.842 161.884 23.6193 162.529 24.206C163.174 24.7927 163.966 25.086 164.905 25.086C166.254 25.086 167.208 24.5213 167.765 23.392H170.471C170.104 24.5067 169.437 25.4233 168.469 26.142C167.516 26.846 166.328 27.198 164.905 27.198C163.746 27.198 162.705 26.9413 161.781 26.428C160.872 25.9 160.153 25.1667 159.625 24.228C159.112 23.2747 158.855 22.1747 158.855 20.928C158.855 19.6813 159.104 18.5887 159.603 17.65C160.116 16.6967 160.828 15.9633 161.737 15.45C162.661 14.9367 163.717 14.68 164.905 14.68C166.049 14.68 167.068 14.9293 167.963 15.428C168.858 15.9267 169.554 16.6307 170.053 17.54C170.552 18.4347 170.801 19.4687 170.801 20.642ZM168.183 19.85C168.168 18.926 167.838 18.1853 167.193 17.628C166.548 17.0707 165.748 16.792 164.795 16.792C163.93 16.792 163.189 17.0707 162.573 17.628C161.957 18.1707 161.59 18.9113 161.473 19.85H168.183ZM178.153 14.68C179.092 14.68 179.92 14.8707 180.639 15.252C181.372 15.6187 181.944 16.0807 182.355 16.638V14.878H184.885V27.198C184.885 28.3127 184.65 29.3027 184.181 30.168C183.712 31.048 183.03 31.7373 182.135 32.236C181.255 32.7347 180.199 32.984 178.967 32.984C177.324 32.984 175.96 32.5953 174.875 31.818C173.79 31.0553 173.174 30.014 173.027 28.694H175.513C175.704 29.3247 176.107 29.8307 176.723 30.212C177.354 30.608 178.102 30.806 178.967 30.806C179.979 30.806 180.793 30.498 181.409 29.882C182.04 29.266 182.355 28.3713 182.355 27.198V25.174C181.93 25.746 181.35 26.23 180.617 26.626C179.898 27.0073 179.077 27.198 178.153 27.198C177.097 27.198 176.129 26.934 175.249 26.406C174.384 25.8633 173.694 25.1153 173.181 24.162C172.682 23.194 172.433 22.1013 172.433 20.884C172.433 19.6667 172.682 18.5887 173.181 17.65C173.694 16.7113 174.384 15.9853 175.249 15.472C176.129 14.944 177.097 14.68 178.153 14.68ZM182.355 20.928C182.355 20.092 182.179 19.366 181.827 18.75C181.49 18.134 181.042 17.6647 180.485 17.342C179.928 17.0193 179.326 16.858 178.681 16.858C178.036 16.858 177.434 17.0193 176.877 17.342C176.32 17.65 175.865 18.112 175.513 18.728C175.176 19.3293 175.007 20.048 175.007 20.884C175.007 21.72 175.176 22.4533 175.513 23.084C175.865 23.7147 176.32 24.1987 176.877 24.536C177.449 24.8587 178.05 25.02 178.681 25.02C179.326 25.02 179.928 24.8587 180.485 24.536C181.042 24.2133 181.49 23.744 181.827 23.128C182.179 22.4973 182.355 21.764 182.355 20.928ZM189.455 13.272C189.001 13.272 188.619 13.118 188.311 12.81C188.003 12.502 187.849 12.1207 187.849 11.666C187.849 11.2113 188.003 10.83 188.311 10.522C188.619 10.214 189.001 10.06 189.455 10.06C189.895 10.06 190.269 10.214 190.577 10.522C190.885 10.83 191.039 11.2113 191.039 11.666C191.039 12.1207 190.885 12.502 190.577 12.81C190.269 13.118 189.895 13.272 189.455 13.272ZM190.687 14.878V27H188.179V14.878H190.687ZM198.38 27.198C197.427 27.198 196.569 27.0293 195.806 26.692C195.058 26.34 194.464 25.8707 194.024 25.284C193.584 24.6827 193.349 24.0153 193.32 23.282H195.916C195.96 23.7953 196.202 24.228 196.642 24.58C197.097 24.9173 197.661 25.086 198.336 25.086C199.04 25.086 199.583 24.954 199.964 24.69C200.36 24.4113 200.558 24.0593 200.558 23.634C200.558 23.1793 200.338 22.842 199.898 22.622C199.473 22.402 198.791 22.16 197.852 21.896C196.943 21.6467 196.202 21.4047 195.63 21.17C195.058 20.9353 194.559 20.576 194.134 20.092C193.723 19.608 193.518 18.97 193.518 18.178C193.518 17.5327 193.709 16.946 194.09 16.418C194.471 15.8753 195.014 15.45 195.718 15.142C196.437 14.834 197.258 14.68 198.182 14.68C199.561 14.68 200.668 15.032 201.504 15.736C202.355 16.4253 202.809 17.3713 202.868 18.574H200.36C200.316 18.0313 200.096 17.5987 199.7 17.276C199.304 16.9533 198.769 16.792 198.094 16.792C197.434 16.792 196.928 16.9167 196.576 17.166C196.224 17.4153 196.048 17.7453 196.048 18.156C196.048 18.4787 196.165 18.75 196.4 18.97C196.635 19.19 196.921 19.366 197.258 19.498C197.595 19.6153 198.094 19.7693 198.754 19.96C199.634 20.1947 200.353 20.4367 200.91 20.686C201.482 20.9207 201.973 21.2727 202.384 21.742C202.795 22.2113 203.007 22.8347 203.022 23.612C203.022 24.3013 202.831 24.9173 202.45 25.46C202.069 26.0027 201.526 26.428 200.822 26.736C200.133 27.044 199.319 27.198 198.38 27.198ZM208.658 16.924V23.634C208.658 24.0887 208.761 24.4187 208.966 24.624C209.186 24.8147 209.553 24.91 210.066 24.91H211.606V27H209.626C208.497 27 207.631 26.736 207.03 26.208C206.429 25.68 206.128 24.822 206.128 23.634V16.924H204.698V14.878H206.128V11.864H208.658V14.878H211.606V16.924H208.658ZM225.028 20.642C225.028 21.0967 224.998 21.5073 224.94 21.874H215.678C215.751 22.842 216.11 23.6193 216.756 24.206C217.401 24.7927 218.193 25.086 219.132 25.086C220.481 25.086 221.434 24.5213 221.992 23.392H224.698C224.331 24.5067 223.664 25.4233 222.696 26.142C221.742 26.846 220.554 27.198 219.132 27.198C217.973 27.198 216.932 26.9413 216.008 26.428C215.098 25.9 214.38 25.1667 213.852 24.228C213.338 23.2747 213.082 22.1747 213.082 20.928C213.082 19.6813 213.331 18.5887 213.83 17.65C214.343 16.6967 215.054 15.9633 215.964 15.45C216.888 14.9367 217.944 14.68 219.132 14.68C220.276 14.68 221.295 14.9293 222.19 15.428C223.084 15.9267 223.781 16.6307 224.28 17.54C224.778 18.4347 225.028 19.4687 225.028 20.642ZM222.41 19.85C222.395 18.926 222.065 18.1853 221.42 17.628C220.774 17.0707 219.975 16.792 219.022 16.792C218.156 16.792 217.416 17.0707 216.8 17.628C216.184 18.1707 215.817 18.9113 215.7 19.85H222.41ZM230.004 16.638C230.37 16.022 230.854 15.5453 231.456 15.208C232.072 14.856 232.798 14.68 233.634 14.68V17.276H232.996C232.013 17.276 231.265 17.5253 230.752 18.024C230.253 18.5227 230.004 19.388 230.004 20.62V27H227.496V14.878H230.004V16.638ZM247.049 20.642C247.049 21.0967 247.02 21.5073 246.961 21.874H237.699C237.772 22.842 238.132 23.6193 238.777 24.206C239.422 24.7927 240.214 25.086 241.153 25.086C242.502 25.086 243.456 24.5213 244.013 23.392H246.719C246.352 24.5067 245.685 25.4233 244.717 26.142C243.764 26.846 242.576 27.198 241.153 27.198C239.994 27.198 238.953 26.9413 238.029 26.428C237.12 25.9 236.401 25.1667 235.873 24.228C235.36 23.2747 235.103 22.1747 235.103 20.928C235.103 19.6813 235.352 18.5887 235.851 17.65C236.364 16.6967 237.076 15.9633 237.985 15.45C238.909 14.9367 239.965 14.68 241.153 14.68C242.297 14.68 243.316 14.9293 244.211 15.428C245.106 15.9267 245.802 16.6307 246.301 17.54C246.8 18.4347 247.049 19.4687 247.049 20.642ZM244.431 19.85C244.416 18.926 244.086 18.1853 243.441 17.628C242.796 17.0707 241.996 16.792 241.043 16.792C240.178 16.792 239.437 17.0707 238.821 17.628C238.205 18.1707 237.838 18.9113 237.721 19.85H244.431ZM248.681 20.884C248.681 19.6667 248.931 18.5887 249.429 17.65C249.943 16.7113 250.632 15.9853 251.497 15.472C252.377 14.944 253.353 14.68 254.423 14.68C255.215 14.68 255.993 14.856 256.755 15.208C257.533 15.5453 258.149 16 258.603 16.572V10.72H261.133V27H258.603V25.174C258.193 25.7607 257.621 26.2447 256.887 26.626C256.169 27.0073 255.34 27.198 254.401 27.198C253.345 27.198 252.377 26.934 251.497 26.406C250.632 25.8633 249.943 25.1153 249.429 24.162C248.931 23.194 248.681 22.1013 248.681 20.884ZM258.603 20.928C258.603 20.092 258.427 19.366 258.075 18.75C257.738 18.134 257.291 17.6647 256.733 17.342C256.176 17.0193 255.575 16.858 254.929 16.858C254.284 16.858 253.683 17.0193 253.125 17.342C252.568 17.65 252.113 18.112 251.761 18.728C251.424 19.3293 251.255 20.048 251.255 20.884C251.255 21.72 251.424 22.4533 251.761 23.084C252.113 23.7147 252.568 24.1987 253.125 24.536C253.697 24.8587 254.299 25.02 254.929 25.02C255.575 25.02 256.176 24.8587 256.733 24.536C257.291 24.2133 257.738 23.744 258.075 23.128C258.427 22.4973 258.603 21.764 258.603 20.928ZM267.573 11.71L267.287 22.38H265.197L264.911 11.71H267.573ZM266.319 27.154C265.865 27.154 265.483 27 265.175 26.692C264.867 26.384 264.713 26.0027 264.713 25.548C264.713 25.0933 264.867 24.712 265.175 24.404C265.483 24.096 265.865 23.942 266.319 23.942C266.759 23.942 267.133 24.096 267.441 24.404C267.749 24.712 267.903 25.0933 267.903 25.548C267.903 26.0027 267.749 26.384 267.441 26.692C267.133 27 266.759 27.154 266.319 27.154Z"
        fill="black" />
    <path
        d="M40.352 46.242V56H39.078V46.242H40.352ZM53.0597 48.328V56H51.7857V54.866C51.5431 55.258 51.2024 55.566 50.7637 55.79C50.3344 56.0047 49.8584 56.112 49.3357 56.112C48.7384 56.112 48.2017 55.9907 47.7257 55.748C47.2497 55.496 46.8717 55.1227 46.5917 54.628C46.3211 54.1333 46.1857 53.5313 46.1857 52.822V48.328H47.4457V52.654C47.4457 53.41 47.6371 53.9933 48.0197 54.404C48.4024 54.8053 48.9251 55.006 49.5877 55.006C50.2691 55.006 50.8057 54.796 51.1977 54.376C51.5897 53.956 51.7857 53.3447 51.7857 52.542V48.328H53.0597ZM58.9488 48.188C59.8821 48.188 60.6381 48.4727 61.2168 49.042C61.7955 49.602 62.0848 50.414 62.0848 51.478V56H60.8248V51.66C60.8248 50.8947 60.6335 50.3113 60.2508 49.91C59.8681 49.4993 59.3455 49.294 58.6828 49.294C58.0108 49.294 57.4741 49.504 57.0728 49.924C56.6808 50.344 56.4848 50.9553 56.4848 51.758V56H55.2108V48.328H56.4848V49.42C56.7368 49.028 57.0775 48.7247 57.5068 48.51C57.9455 48.2953 58.4261 48.188 58.9488 48.188ZM63.6899 52.136C63.6899 51.352 63.8486 50.666 64.1659 50.078C64.4832 49.4807 64.9172 49.0187 65.4679 48.692C66.0279 48.3653 66.6532 48.202 67.3439 48.202C67.9412 48.202 68.4966 48.342 69.0099 48.622C69.5232 48.8927 69.9152 49.252 70.1859 49.7V45.64H71.4739V56H70.1859V54.558C69.9339 55.0153 69.5606 55.3933 69.0659 55.692C68.5712 55.9813 67.9926 56.126 67.3299 56.126C66.6486 56.126 66.0279 55.958 65.4679 55.622C64.9172 55.286 64.4832 54.8147 64.1659 54.208C63.8486 53.6013 63.6899 52.9107 63.6899 52.136ZM70.1859 52.15C70.1859 51.5713 70.0692 51.0673 69.8359 50.638C69.6026 50.2087 69.2852 49.882 68.8839 49.658C68.4919 49.4247 68.0579 49.308 67.5819 49.308C67.1059 49.308 66.6719 49.42 66.2799 49.644C65.8879 49.868 65.5752 50.1947 65.3419 50.624C65.1086 51.0533 64.9919 51.5573 64.9919 52.136C64.9919 52.724 65.1086 53.2373 65.3419 53.676C65.5752 54.1053 65.8879 54.4367 66.2799 54.67C66.6719 54.894 67.1059 55.006 67.5819 55.006C68.0579 55.006 68.4919 54.894 68.8839 54.67C69.2852 54.4367 69.6026 54.1053 69.8359 53.676C70.0692 53.2373 70.1859 52.7287 70.1859 52.15ZM80.6268 51.87C80.6268 52.1127 80.6128 52.3693 80.5848 52.64H74.4528C74.4995 53.396 74.7562 53.9887 75.2228 54.418C75.6988 54.838 76.2728 55.048 76.9448 55.048C77.4955 55.048 77.9528 54.922 78.3168 54.67C78.6902 54.4087 78.9515 54.0633 79.1008 53.634H80.4728C80.2675 54.3713 79.8568 54.9733 79.2408 55.44C78.6248 55.8973 77.8595 56.126 76.9448 56.126C76.2168 56.126 75.5635 55.9627 74.9848 55.636C74.4155 55.3093 73.9675 54.8473 73.6408 54.25C73.3142 53.6433 73.1508 52.9433 73.1508 52.15C73.1508 51.3567 73.3095 50.6613 73.6268 50.064C73.9442 49.4667 74.3875 49.0093 74.9568 48.692C75.5355 48.3653 76.1982 48.202 76.9448 48.202C77.6728 48.202 78.3168 48.3607 78.8768 48.678C79.4368 48.9953 79.8662 49.434 80.1648 49.994C80.4728 50.5447 80.6268 51.17 80.6268 51.87ZM79.3108 51.604C79.3108 51.1187 79.2035 50.7033 78.9888 50.358C78.7742 50.0033 78.4802 49.7373 78.1068 49.56C77.7428 49.3733 77.3368 49.28 76.8888 49.28C76.2448 49.28 75.6942 49.4853 75.2368 49.896C74.7888 50.3067 74.5322 50.876 74.4668 51.604H79.3108ZM83.5825 49.574C83.8065 49.1353 84.1238 48.7947 84.5345 48.552C84.9545 48.3093 85.4631 48.188 86.0605 48.188V49.504H85.7245C84.2965 49.504 83.5825 50.2787 83.5825 51.828V56H82.3085V48.328H83.5825V49.574ZM90.2471 56.126C89.6591 56.126 89.1318 56.028 88.6651 55.832C88.1985 55.6267 87.8298 55.3467 87.5591 54.992C87.2885 54.628 87.1391 54.2127 87.1111 53.746H88.4271C88.4645 54.1287 88.6418 54.4413 88.9591 54.684C89.2858 54.9267 89.7105 55.048 90.2331 55.048C90.7185 55.048 91.1011 54.9407 91.3811 54.726C91.6611 54.5113 91.8011 54.2407 91.8011 53.914C91.8011 53.578 91.6518 53.3307 91.3531 53.172C91.0545 53.004 90.5925 52.8407 89.9671 52.682C89.3978 52.5327 88.9311 52.3833 88.5671 52.234C88.2125 52.0753 87.9045 51.8467 87.6431 51.548C87.3911 51.24 87.2651 50.8387 87.2651 50.344C87.2651 49.952 87.3818 49.5927 87.6151 49.266C87.8485 48.9393 88.1798 48.6827 88.6091 48.496C89.0385 48.3 89.5285 48.202 90.0791 48.202C90.9285 48.202 91.6145 48.4167 92.1371 48.846C92.6598 49.2753 92.9398 49.8633 92.9771 50.61H91.7031C91.6751 50.2087 91.5118 49.8867 91.2131 49.644C90.9238 49.4013 90.5318 49.28 90.0371 49.28C89.5798 49.28 89.2158 49.378 88.9451 49.574C88.6745 49.77 88.5391 50.0267 88.5391 50.344C88.5391 50.596 88.6185 50.806 88.7771 50.974C88.9451 51.1327 89.1505 51.2633 89.3931 51.366C89.6451 51.4593 89.9905 51.5667 90.4291 51.688C90.9798 51.8373 91.4278 51.9867 91.7731 52.136C92.1185 52.276 92.4125 52.4907 92.6551 52.78C92.9071 53.0693 93.0378 53.4473 93.0471 53.914C93.0471 54.334 92.9305 54.712 92.6971 55.048C92.4638 55.384 92.1325 55.65 91.7031 55.846C91.2831 56.0327 90.7978 56.126 90.2471 56.126ZM96.3996 49.378V53.9C96.3996 54.2733 96.4789 54.5393 96.6376 54.698C96.7962 54.8473 97.0716 54.922 97.4636 54.922H98.4016V56H97.2536C96.5442 56 96.0122 55.8367 95.6576 55.51C95.3029 55.1833 95.1256 54.6467 95.1256 53.9V49.378H94.1316V48.328H95.1256V46.396H96.3996V48.328H98.4016V49.378H96.3996ZM99.4692 52.136C99.4692 51.352 99.6279 50.666 99.9452 50.078C100.263 49.4807 100.697 49.0187 101.247 48.692C101.807 48.3653 102.428 48.202 103.109 48.202C103.781 48.202 104.365 48.3467 104.859 48.636C105.354 48.9253 105.723 49.2893 105.965 49.728V48.328H107.253V56H105.965V54.572C105.713 55.02 105.335 55.3933 104.831 55.692C104.337 55.9813 103.758 56.126 103.095 56.126C102.414 56.126 101.798 55.958 101.247 55.622C100.697 55.286 100.263 54.8147 99.9452 54.208C99.6279 53.6013 99.4692 52.9107 99.4692 52.136ZM105.965 52.15C105.965 51.5713 105.849 51.0673 105.615 50.638C105.382 50.2087 105.065 49.882 104.663 49.658C104.271 49.4247 103.837 49.308 103.361 49.308C102.885 49.308 102.451 49.42 102.059 49.644C101.667 49.868 101.355 50.1947 101.121 50.624C100.888 51.0533 100.771 51.5573 100.771 52.136C100.771 52.724 100.888 53.2373 101.121 53.676C101.355 54.1053 101.667 54.4367 102.059 54.67C102.451 54.894 102.885 55.006 103.361 55.006C103.837 55.006 104.271 54.894 104.663 54.67C105.065 54.4367 105.382 54.1053 105.615 53.676C105.849 53.2373 105.965 52.7287 105.965 52.15ZM113.144 48.188C114.077 48.188 114.833 48.4727 115.412 49.042C115.991 49.602 116.28 50.414 116.28 51.478V56H115.02V51.66C115.02 50.8947 114.829 50.3113 114.446 49.91C114.063 49.4993 113.541 49.294 112.878 49.294C112.206 49.294 111.669 49.504 111.268 49.924C110.876 50.344 110.68 50.9553 110.68 51.758V56H109.406V48.328H110.68V49.42C110.932 49.028 111.273 48.7247 111.702 48.51C112.141 48.2953 112.621 48.188 113.144 48.188ZM117.885 52.136C117.885 51.352 118.044 50.666 118.361 50.078C118.679 49.4807 119.113 49.0187 119.663 48.692C120.223 48.3653 120.849 48.202 121.539 48.202C122.137 48.202 122.692 48.342 123.205 48.622C123.719 48.8927 124.111 49.252 124.381 49.7V45.64H125.669V56H124.381V54.558C124.129 55.0153 123.756 55.3933 123.261 55.692C122.767 55.9813 122.188 56.126 121.525 56.126C120.844 56.126 120.223 55.958 119.663 55.622C119.113 55.286 118.679 54.8147 118.361 54.208C118.044 53.6013 117.885 52.9107 117.885 52.136ZM124.381 52.15C124.381 51.5713 124.265 51.0673 124.031 50.638C123.798 50.2087 123.481 49.882 123.079 49.658C122.687 49.4247 122.253 49.308 121.777 49.308C121.301 49.308 120.867 49.42 120.475 49.644C120.083 49.868 119.771 50.1947 119.537 50.624C119.304 51.0533 119.187 51.5573 119.187 52.136C119.187 52.724 119.304 53.2373 119.537 53.676C119.771 54.1053 120.083 54.4367 120.475 54.67C120.867 54.894 121.301 55.006 121.777 55.006C122.253 55.006 122.687 54.894 123.079 54.67C123.481 54.4367 123.798 54.1053 124.031 53.676C124.265 53.2373 124.381 52.7287 124.381 52.15ZM132.829 49.756C133.09 49.2987 133.473 48.9253 133.977 48.636C134.481 48.3467 135.055 48.202 135.699 48.202C136.389 48.202 137.01 48.3653 137.561 48.692C138.111 49.0187 138.545 49.4807 138.863 50.078C139.18 50.666 139.339 51.352 139.339 52.136C139.339 52.9107 139.18 53.6013 138.863 54.208C138.545 54.8147 138.107 55.286 137.547 55.622C136.996 55.958 136.38 56.126 135.699 56.126C135.036 56.126 134.453 55.9813 133.949 55.692C133.454 55.4027 133.081 55.034 132.829 54.586V56H131.555V45.64H132.829V49.756ZM138.037 52.136C138.037 51.5573 137.92 51.0533 137.687 50.624C137.453 50.1947 137.136 49.868 136.735 49.644C136.343 49.42 135.909 49.308 135.433 49.308C134.966 49.308 134.532 49.4247 134.131 49.658C133.739 49.882 133.421 50.2133 133.179 50.652C132.945 51.0813 132.829 51.5807 132.829 52.15C132.829 52.7287 132.945 53.2373 133.179 53.676C133.421 54.1053 133.739 54.4367 134.131 54.67C134.532 54.894 134.966 55.006 135.433 55.006C135.909 55.006 136.343 54.894 136.735 54.67C137.136 54.4367 137.453 54.1053 137.687 53.676C137.92 53.2373 138.037 52.724 138.037 52.136ZM140.54 52.136C140.54 51.352 140.698 50.666 141.016 50.078C141.333 49.4807 141.767 49.0187 142.318 48.692C142.878 48.3653 143.498 48.202 144.18 48.202C144.852 48.202 145.435 48.3467 145.93 48.636C146.424 48.9253 146.793 49.2893 147.036 49.728V48.328H148.324V56H147.036V54.572C146.784 55.02 146.406 55.3933 145.902 55.692C145.407 55.9813 144.828 56.126 144.166 56.126C143.484 56.126 142.868 55.958 142.318 55.622C141.767 55.286 141.333 54.8147 141.016 54.208C140.698 53.6013 140.54 52.9107 140.54 52.136ZM147.036 52.15C147.036 51.5713 146.919 51.0673 146.686 50.638C146.452 50.2087 146.135 49.882 145.734 49.658C145.342 49.4247 144.908 49.308 144.432 49.308C143.956 49.308 143.522 49.42 143.13 49.644C142.738 49.868 142.425 50.1947 142.192 50.624C141.958 51.0533 141.842 51.5573 141.842 52.136C141.842 52.724 141.958 53.2373 142.192 53.676C142.425 54.1053 142.738 54.4367 143.13 54.67C143.522 54.894 143.956 55.006 144.432 55.006C144.908 55.006 145.342 54.894 145.734 54.67C146.135 54.4367 146.452 54.1053 146.686 53.676C146.919 53.2373 147.036 52.7287 147.036 52.15ZM151.428 54.95H155.194V56H149.972V54.95L153.696 49.364H150V48.328H155.166V49.364L151.428 54.95ZM156.372 52.136C156.372 51.352 156.53 50.666 156.848 50.078C157.165 49.4807 157.599 49.0187 158.15 48.692C158.71 48.3653 159.33 48.202 160.012 48.202C160.684 48.202 161.267 48.3467 161.762 48.636C162.256 48.9253 162.625 49.2893 162.868 49.728V48.328H164.156V56H162.868V54.572C162.616 55.02 162.238 55.3933 161.734 55.692C161.239 55.9813 160.66 56.126 159.998 56.126C159.316 56.126 158.7 55.958 158.15 55.622C157.599 55.286 157.165 54.8147 156.848 54.208C156.53 53.6013 156.372 52.9107 156.372 52.136ZM162.868 52.15C162.868 51.5713 162.751 51.0673 162.518 50.638C162.284 50.2087 161.967 49.882 161.566 49.658C161.174 49.4247 160.74 49.308 160.264 49.308C159.788 49.308 159.354 49.42 158.962 49.644C158.57 49.868 158.257 50.1947 158.024 50.624C157.79 51.0533 157.674 51.5573 157.674 52.136C157.674 52.724 157.79 53.2373 158.024 53.676C158.257 54.1053 158.57 54.4367 158.962 54.67C159.354 54.894 159.788 55.006 160.264 55.006C160.74 55.006 161.174 54.894 161.566 54.67C161.967 54.4367 162.284 54.1053 162.518 53.676C162.751 53.2373 162.868 52.7287 162.868 52.15ZM165.832 52.136C165.832 51.352 165.991 50.666 166.308 50.078C166.626 49.4807 167.06 49.0187 167.61 48.692C168.17 48.3653 168.791 48.202 169.472 48.202C170.144 48.202 170.728 48.3467 171.222 48.636C171.717 48.9253 172.086 49.2893 172.328 49.728V48.328H173.616V56H172.328V54.572C172.076 55.02 171.698 55.3933 171.194 55.692C170.7 55.9813 170.121 56.126 169.458 56.126C168.777 56.126 168.161 55.958 167.61 55.622C167.06 55.286 166.626 54.8147 166.308 54.208C165.991 53.6013 165.832 52.9107 165.832 52.136ZM172.328 52.15C172.328 51.5713 172.212 51.0673 171.978 50.638C171.745 50.2087 171.428 49.882 171.026 49.658C170.634 49.4247 170.2 49.308 169.724 49.308C169.248 49.308 168.814 49.42 168.422 49.644C168.03 49.868 167.718 50.1947 167.484 50.624C167.251 51.0533 167.134 51.5573 167.134 52.136C167.134 52.724 167.251 53.2373 167.484 53.676C167.718 54.1053 168.03 54.4367 168.422 54.67C168.814 54.894 169.248 55.006 169.724 55.006C170.2 55.006 170.634 54.894 171.026 54.67C171.428 54.4367 171.745 54.1053 171.978 53.676C172.212 53.2373 172.328 52.7287 172.328 52.15ZM177.043 49.574C177.267 49.1353 177.585 48.7947 177.995 48.552C178.415 48.3093 178.924 48.188 179.521 48.188V49.504H179.185C177.757 49.504 177.043 50.2787 177.043 51.828V56H175.769V48.328H177.043V49.574ZM192.396 56H191.122L185.998 48.23V56H184.724V46.228H185.998L191.122 53.984V46.228H192.396V56ZM195.226 47.082C194.984 47.082 194.778 46.998 194.61 46.83C194.442 46.662 194.358 46.4567 194.358 46.214C194.358 45.9713 194.442 45.766 194.61 45.598C194.778 45.43 194.984 45.346 195.226 45.346C195.46 45.346 195.656 45.43 195.814 45.598C195.982 45.766 196.066 45.9713 196.066 46.214C196.066 46.4567 195.982 46.662 195.814 46.83C195.656 46.998 195.46 47.082 195.226 47.082ZM195.842 48.328V56H194.568V48.328H195.842ZM199.568 49.378V53.9C199.568 54.2733 199.647 54.5393 199.806 54.698C199.964 54.8473 200.24 54.922 200.632 54.922H201.57V56H200.422C199.712 56 199.18 55.8367 198.826 55.51C198.471 55.1833 198.294 54.6467 198.294 53.9V49.378H197.3V48.328H198.294V46.396H199.568V48.328H201.57V49.378H199.568ZM203.771 47.082C203.528 47.082 203.323 46.998 203.155 46.83C202.987 46.662 202.903 46.4567 202.903 46.214C202.903 45.9713 202.987 45.766 203.155 45.598C203.323 45.43 203.528 45.346 203.771 45.346C204.004 45.346 204.2 45.43 204.359 45.598C204.527 45.766 204.611 45.9713 204.611 46.214C204.611 46.4567 204.527 46.662 204.359 46.83C204.2 46.998 204.004 47.082 203.771 47.082ZM204.387 48.328V56H203.113V48.328H204.387ZM210.949 47.082C210.706 47.082 210.501 46.998 210.333 46.83C210.165 46.662 210.081 46.4567 210.081 46.214C210.081 45.9713 210.165 45.766 210.333 45.598C210.501 45.43 210.706 45.346 210.949 45.346C211.182 45.346 211.378 45.43 211.537 45.598C211.705 45.766 211.789 45.9713 211.789 46.214C211.789 46.4567 211.705 46.662 211.537 46.83C211.378 46.998 211.182 47.082 210.949 47.082ZM211.565 48.328V56H210.291V48.328H211.565ZM216.452 56.126C215.864 56.126 215.337 56.028 214.87 55.832C214.404 55.6267 214.035 55.3467 213.764 54.992C213.494 54.628 213.344 54.2127 213.316 53.746H214.632C214.67 54.1287 214.847 54.4413 215.164 54.684C215.491 54.9267 215.916 55.048 216.438 55.048C216.924 55.048 217.306 54.9407 217.586 54.726C217.866 54.5113 218.006 54.2407 218.006 53.914C218.006 53.578 217.857 53.3307 217.558 53.172C217.26 53.004 216.798 52.8407 216.172 52.682C215.603 52.5327 215.136 52.3833 214.772 52.234C214.418 52.0753 214.11 51.8467 213.848 51.548C213.596 51.24 213.47 50.8387 213.47 50.344C213.47 49.952 213.587 49.5927 213.82 49.266C214.054 48.9393 214.385 48.6827 214.814 48.496C215.244 48.3 215.734 48.202 216.284 48.202C217.134 48.202 217.82 48.4167 218.342 48.846C218.865 49.2753 219.145 49.8633 219.182 50.61H217.908C217.88 50.2087 217.717 49.8867 217.418 49.644C217.129 49.4013 216.737 49.28 216.242 49.28C215.785 49.28 215.421 49.378 215.15 49.574C214.88 49.77 214.744 50.0267 214.744 50.344C214.744 50.596 214.824 50.806 214.982 50.974C215.15 51.1327 215.356 51.2633 215.598 51.366C215.85 51.4593 216.196 51.5667 216.634 51.688C217.185 51.8373 217.633 51.9867 217.978 52.136C218.324 52.276 218.618 52.4907 218.86 52.78C219.112 53.0693 219.243 53.4473 219.252 53.914C219.252 54.334 219.136 54.712 218.902 55.048C218.669 55.384 218.338 55.65 217.908 55.846C217.488 56.0327 217.003 56.126 216.452 56.126ZM228.521 48.188C229.454 48.188 230.21 48.4727 230.789 49.042C231.368 49.602 231.657 50.414 231.657 51.478V56H230.397V51.66C230.397 50.8947 230.206 50.3113 229.823 49.91C229.44 49.4993 228.918 49.294 228.255 49.294C227.583 49.294 227.046 49.504 226.645 49.924C226.253 50.344 226.057 50.9553 226.057 51.758V56H224.783V48.328H226.057V49.42C226.309 49.028 226.65 48.7247 227.079 48.51C227.518 48.2953 227.998 48.188 228.521 48.188ZM237.084 56.126C236.365 56.126 235.712 55.9627 235.124 55.636C234.545 55.3093 234.088 54.8473 233.752 54.25C233.425 53.6433 233.262 52.9433 233.262 52.15C233.262 51.366 233.43 50.6753 233.766 50.078C234.111 49.4713 234.578 49.0093 235.166 48.692C235.754 48.3653 236.412 48.202 237.14 48.202C237.868 48.202 238.526 48.3653 239.114 48.692C239.702 49.0093 240.164 49.4667 240.5 50.064C240.845 50.6613 241.018 51.3567 241.018 52.15C241.018 52.9433 240.841 53.6433 240.486 54.25C240.141 54.8473 239.669 55.3093 239.072 55.636C238.475 55.9627 237.812 56.126 237.084 56.126ZM237.084 55.006C237.541 55.006 237.971 54.8987 238.372 54.684C238.773 54.4693 239.095 54.1473 239.338 53.718C239.59 53.2887 239.716 52.766 239.716 52.15C239.716 51.534 239.595 51.0113 239.352 50.582C239.109 50.1527 238.792 49.8353 238.4 49.63C238.008 49.4153 237.583 49.308 237.126 49.308C236.659 49.308 236.23 49.4153 235.838 49.63C235.455 49.8353 235.147 50.1527 234.914 50.582C234.681 51.0113 234.564 51.534 234.564 52.15C234.564 52.7753 234.676 53.3027 234.9 53.732C235.133 54.1613 235.441 54.4833 235.824 54.698C236.207 54.9033 236.627 55.006 237.084 55.006ZM244.247 49.378V53.9C244.247 54.2733 244.327 54.5393 244.485 54.698C244.644 54.8473 244.919 54.922 245.311 54.922H246.249V56H245.101C244.392 56 243.86 55.8367 243.505 55.51C243.151 55.1833 242.973 54.6467 242.973 53.9V49.378H241.979V48.328H242.973V46.396H244.247V48.328H246.249V49.378H244.247ZM254.619 56.098C253.975 56.098 253.397 55.986 252.883 55.762C252.379 55.5287 251.983 55.2113 251.693 54.81C251.404 54.3993 251.255 53.928 251.245 53.396H252.603C252.65 53.8533 252.837 54.2407 253.163 54.558C253.499 54.866 253.985 55.02 254.619 55.02C255.226 55.02 255.702 54.8707 256.047 54.572C256.402 54.264 256.579 53.872 256.579 53.396C256.579 53.0227 256.477 52.7193 256.271 52.486C256.066 52.2527 255.809 52.0753 255.501 51.954C255.193 51.8327 254.778 51.702 254.255 51.562C253.611 51.394 253.093 51.226 252.701 51.058C252.319 50.89 251.987 50.6287 251.707 50.274C251.437 49.91 251.301 49.4247 251.301 48.818C251.301 48.286 251.437 47.8147 251.707 47.404C251.978 46.9933 252.356 46.676 252.841 46.452C253.336 46.228 253.901 46.116 254.535 46.116C255.45 46.116 256.197 46.3447 256.775 46.802C257.363 47.2593 257.695 47.866 257.769 48.622H256.369C256.323 48.2487 256.127 47.922 255.781 47.642C255.436 47.3527 254.979 47.208 254.409 47.208C253.877 47.208 253.443 47.348 253.107 47.628C252.771 47.8987 252.603 48.2813 252.603 48.776C252.603 49.1307 252.701 49.42 252.897 49.644C253.103 49.868 253.35 50.0407 253.639 50.162C253.938 50.274 254.353 50.4047 254.885 50.554C255.529 50.7313 256.047 50.9087 256.439 51.086C256.831 51.254 257.167 51.52 257.447 51.884C257.727 52.2387 257.867 52.724 257.867 53.34C257.867 53.816 257.741 54.264 257.489 54.684C257.237 55.104 256.864 55.4447 256.369 55.706C255.875 55.9673 255.291 56.098 254.619 56.098ZM261.016 47.278V50.54H264.572V51.59H261.016V54.95H264.992V56H259.742V46.228H264.992V47.278H261.016ZM271.806 50.974C272.16 51.03 272.482 51.1747 272.772 51.408C273.07 51.6413 273.304 51.9307 273.472 52.276C273.649 52.6213 273.738 52.99 273.738 53.382C273.738 53.8767 273.612 54.3247 273.36 54.726C273.108 55.118 272.739 55.4307 272.254 55.664C271.778 55.888 271.213 56 270.56 56H266.92V46.242H270.42C271.082 46.242 271.647 46.354 272.114 46.578C272.58 46.7927 272.93 47.0867 273.164 47.46C273.397 47.8333 273.514 48.2533 273.514 48.72C273.514 49.2987 273.355 49.7793 273.038 50.162C272.73 50.5353 272.319 50.806 271.806 50.974ZM268.194 50.456H270.336C270.933 50.456 271.395 50.316 271.722 50.036C272.048 49.756 272.212 49.3687 272.212 48.874C272.212 48.3793 272.048 47.992 271.722 47.712C271.395 47.432 270.924 47.292 270.308 47.292H268.194V50.456ZM270.448 54.95C271.082 54.95 271.577 54.8007 271.932 54.502C272.286 54.2033 272.464 53.788 272.464 53.256C272.464 52.7147 272.277 52.29 271.904 51.982C271.53 51.6647 271.031 51.506 270.406 51.506H268.194V54.95H270.448ZM276.78 46.242V56H275.506V46.242H276.78ZM44.216 77L41.892 73.01H40.352V77H39.078V67.242H42.228C42.9653 67.242 43.586 67.368 44.09 67.62C44.6033 67.872 44.986 68.2127 45.238 68.642C45.49 69.0713 45.616 69.5613 45.616 70.112C45.616 70.784 45.42 71.3767 45.028 71.89C44.6453 72.4033 44.0667 72.744 43.292 72.912L45.742 77H44.216ZM40.352 71.988H42.228C42.9187 71.988 43.4367 71.82 43.782 71.484C44.1273 71.1387 44.3 70.6813 44.3 70.112C44.3 69.5333 44.1273 69.0853 43.782 68.768C43.446 68.4507 42.928 68.292 42.228 68.292H40.352V71.988ZM54.5956 72.87C54.5956 73.1127 54.5816 73.3693 54.5536 73.64H48.4216C48.4682 74.396 48.7249 74.9887 49.1916 75.418C49.6676 75.838 50.2416 76.048 50.9136 76.048C51.4642 76.048 51.9216 75.922 52.2856 75.67C52.6589 75.4087 52.9202 75.0633 53.0696 74.634H54.4416C54.2362 75.3713 53.8256 75.9733 53.2096 76.44C52.5936 76.8973 51.8282 77.126 50.9136 77.126C50.1856 77.126 49.5322 76.9627 48.9536 76.636C48.3842 76.3093 47.9362 75.8473 47.6096 75.25C47.2829 74.6433 47.1196 73.9433 47.1196 73.15C47.1196 72.3567 47.2782 71.6613 47.5956 71.064C47.9129 70.4667 48.3562 70.0093 48.9256 69.692C49.5042 69.3653 50.1669 69.202 50.9136 69.202C51.6416 69.202 52.2856 69.3607 52.8456 69.678C53.4056 69.9953 53.8349 70.434 54.1336 70.994C54.4416 71.5447 54.5956 72.17 54.5956 72.87ZM53.2796 72.604C53.2796 72.1187 53.1722 71.7033 52.9576 71.358C52.7429 71.0033 52.4489 70.7373 52.0756 70.56C51.7116 70.3733 51.3056 70.28 50.8576 70.28C50.2136 70.28 49.6629 70.4853 49.2056 70.896C48.7576 71.3067 48.5009 71.876 48.4356 72.604H53.2796ZM59.4412 69.202C60.1039 69.202 60.6826 69.3467 61.1772 69.636C61.6812 69.9253 62.0546 70.2893 62.2972 70.728V69.328H63.5852V77.168C63.5852 77.868 63.4359 78.4887 63.1372 79.03C62.8386 79.5807 62.4092 80.01 61.8492 80.318C61.2986 80.626 60.6546 80.78 59.9172 80.78C58.9092 80.78 58.0692 80.542 57.3972 80.066C56.7252 79.59 56.3286 78.9413 56.2072 78.12H57.4672C57.6072 78.5867 57.8966 78.96 58.3352 79.24C58.7739 79.5293 59.3012 79.674 59.9172 79.674C60.6172 79.674 61.1866 79.4547 61.6252 79.016C62.0732 78.5773 62.2972 77.9613 62.2972 77.168V75.558C62.0452 76.006 61.6719 76.3793 61.1772 76.678C60.6826 76.9767 60.1039 77.126 59.4412 77.126C58.7599 77.126 58.1392 76.958 57.5792 76.622C57.0286 76.286 56.5946 75.8147 56.2772 75.208C55.9599 74.6013 55.8012 73.9107 55.8012 73.136C55.8012 72.352 55.9599 71.666 56.2772 71.078C56.5946 70.4807 57.0286 70.0187 57.5792 69.692C58.1392 69.3653 58.7599 69.202 59.4412 69.202ZM62.2972 73.15C62.2972 72.5713 62.1806 72.0673 61.9472 71.638C61.7139 71.2087 61.3966 70.882 60.9952 70.658C60.6032 70.4247 60.1692 70.308 59.6932 70.308C59.2172 70.308 58.7832 70.42 58.3912 70.644C57.9992 70.868 57.6866 71.1947 57.4532 71.624C57.2199 72.0533 57.1032 72.5573 57.1032 73.136C57.1032 73.724 57.2199 74.2373 57.4532 74.676C57.6866 75.1053 57.9992 75.4367 58.3912 75.67C58.7832 75.894 59.2172 76.006 59.6932 76.006C60.1692 76.006 60.6032 75.894 60.9952 75.67C61.3966 75.4367 61.7139 75.1053 61.9472 74.676C62.1806 74.2373 62.2972 73.7287 62.2972 73.15ZM66.3962 68.082C66.1535 68.082 65.9482 67.998 65.7802 67.83C65.6122 67.662 65.5282 67.4567 65.5282 67.214C65.5282 66.9713 65.6122 66.766 65.7802 66.598C65.9482 66.43 66.1535 66.346 66.3962 66.346C66.6295 66.346 66.8255 66.43 66.9842 66.598C67.1522 66.766 67.2362 66.9713 67.2362 67.214C67.2362 67.4567 67.1522 67.662 66.9842 67.83C66.8255 67.998 66.6295 68.082 66.3962 68.082ZM67.0122 69.328V77H65.7382V69.328H67.0122ZM71.8995 77.126C71.3115 77.126 70.7841 77.028 70.3175 76.832C69.8508 76.6267 69.4821 76.3467 69.2115 75.992C68.9408 75.628 68.7915 75.2127 68.7635 74.746H70.0795C70.1168 75.1287 70.2941 75.4413 70.6115 75.684C70.9381 75.9267 71.3628 76.048 71.8855 76.048C72.3708 76.048 72.7535 75.9407 73.0335 75.726C73.3135 75.5113 73.4535 75.2407 73.4535 74.914C73.4535 74.578 73.3041 74.3307 73.0055 74.172C72.7068 74.004 72.2448 73.8407 71.6195 73.682C71.0501 73.5327 70.5835 73.3833 70.2195 73.234C69.8648 73.0753 69.5568 72.8467 69.2955 72.548C69.0435 72.24 68.9175 71.8387 68.9175 71.344C68.9175 70.952 69.0341 70.5927 69.2675 70.266C69.5008 69.9393 69.8321 69.6827 70.2615 69.496C70.6908 69.3 71.1808 69.202 71.7315 69.202C72.5808 69.202 73.2668 69.4167 73.7895 69.846C74.3121 70.2753 74.5921 70.8633 74.6295 71.61H73.3555C73.3275 71.2087 73.1641 70.8867 72.8655 70.644C72.5761 70.4013 72.1841 70.28 71.6895 70.28C71.2321 70.28 70.8681 70.378 70.5975 70.574C70.3268 70.77 70.1915 71.0267 70.1915 71.344C70.1915 71.596 70.2708 71.806 70.4295 71.974C70.5975 72.1327 70.8028 72.2633 71.0455 72.366C71.2975 72.4593 71.6428 72.5667 72.0815 72.688C72.6321 72.8373 73.0801 72.9867 73.4255 73.136C73.7708 73.276 74.0648 73.4907 74.3075 73.78C74.5595 74.0693 74.6901 74.4473 74.6995 74.914C74.6995 75.334 74.5828 75.712 74.3495 76.048C74.1161 76.384 73.7848 76.65 73.3555 76.846C72.9355 77.0327 72.4501 77.126 71.8995 77.126ZM78.0519 70.378V74.9C78.0519 75.2733 78.1313 75.5393 78.2899 75.698C78.4486 75.8473 78.7239 75.922 79.1159 75.922H80.0539V77H78.9059C78.1966 77 77.6646 76.8367 77.3099 76.51C76.9553 76.1833 76.7779 75.6467 76.7779 74.9V70.378H75.7839V69.328H76.7779V67.396H78.0519V69.328H80.0539V70.378H78.0519ZM88.5975 72.87C88.5975 73.1127 88.5835 73.3693 88.5555 73.64H82.4235C82.4702 74.396 82.7269 74.9887 83.1935 75.418C83.6695 75.838 84.2435 76.048 84.9155 76.048C85.4662 76.048 85.9235 75.922 86.2875 75.67C86.6609 75.4087 86.9222 75.0633 87.0715 74.634H88.4435C88.2382 75.3713 87.8275 75.9733 87.2115 76.44C86.5955 76.8973 85.8302 77.126 84.9155 77.126C84.1875 77.126 83.5342 76.9627 82.9555 76.636C82.3862 76.3093 81.9382 75.8473 81.6115 75.25C81.2849 74.6433 81.1215 73.9433 81.1215 73.15C81.1215 72.3567 81.2802 71.6613 81.5975 71.064C81.9149 70.4667 82.3582 70.0093 82.9275 69.692C83.5062 69.3653 84.1689 69.202 84.9155 69.202C85.6435 69.202 86.2875 69.3607 86.8475 69.678C87.4075 69.9953 87.8369 70.434 88.1355 70.994C88.4435 71.5447 88.5975 72.17 88.5975 72.87ZM87.2815 72.604C87.2815 72.1187 87.1742 71.7033 86.9595 71.358C86.7449 71.0033 86.4509 70.7373 86.0775 70.56C85.7135 70.3733 85.3075 70.28 84.8595 70.28C84.2155 70.28 83.6649 70.4853 83.2075 70.896C82.7595 71.3067 82.5029 71.876 82.4375 72.604H87.2815ZM91.5532 70.574C91.7772 70.1353 92.0945 69.7947 92.5052 69.552C92.9252 69.3093 93.4338 69.188 94.0312 69.188V70.504H93.6952C92.2672 70.504 91.5532 71.2787 91.5532 72.828V77H90.2792V69.328H91.5532V70.574ZM100.508 67.242V77H99.2343V67.242H100.508ZM106.418 69.188C107.351 69.188 108.107 69.4727 108.686 70.042C109.264 70.602 109.554 71.414 109.554 72.478V77H108.294V72.66C108.294 71.8947 108.102 71.3113 107.72 70.91C107.337 70.4993 106.814 70.294 106.152 70.294C105.48 70.294 104.943 70.504 104.542 70.924C104.15 71.344 103.954 71.9553 103.954 72.758V77H102.68V69.328H103.954V70.42C104.206 70.028 104.546 69.7247 104.976 69.51C105.414 69.2953 105.895 69.188 106.418 69.188ZM114.491 75.824L116.871 69.328H118.229L115.219 77H113.735L110.725 69.328H112.097L114.491 75.824ZM126.482 72.87C126.482 73.1127 126.468 73.3693 126.44 73.64H120.308C120.355 74.396 120.612 74.9887 121.078 75.418C121.554 75.838 122.128 76.048 122.8 76.048C123.351 76.048 123.808 75.922 124.172 75.67C124.546 75.4087 124.807 75.0633 124.956 74.634H126.328C126.123 75.3713 125.712 75.9733 125.096 76.44C124.48 76.8973 123.715 77.126 122.8 77.126C122.072 77.126 121.419 76.9627 120.84 76.636C120.271 76.3093 119.823 75.8473 119.496 75.25C119.17 74.6433 119.006 73.9433 119.006 73.15C119.006 72.3567 119.165 71.6613 119.482 71.064C119.8 70.4667 120.243 70.0093 120.812 69.692C121.391 69.3653 122.054 69.202 122.8 69.202C123.528 69.202 124.172 69.3607 124.732 69.678C125.292 69.9953 125.722 70.434 126.02 70.994C126.328 71.5447 126.482 72.17 126.482 72.87ZM125.166 72.604C125.166 72.1187 125.059 71.7033 124.844 71.358C124.63 71.0033 124.336 70.7373 123.962 70.56C123.598 70.3733 123.192 70.28 122.744 70.28C122.1 70.28 121.55 70.4853 121.092 70.896C120.644 71.3067 120.388 71.876 120.322 72.604H125.166ZM130.88 77.126C130.292 77.126 129.765 77.028 129.298 76.832C128.831 76.6267 128.463 76.3467 128.192 75.992C127.921 75.628 127.772 75.2127 127.744 74.746H129.06C129.097 75.1287 129.275 75.4413 129.592 75.684C129.919 75.9267 130.343 76.048 130.866 76.048C131.351 76.048 131.734 75.9407 132.014 75.726C132.294 75.5113 132.434 75.2407 132.434 74.914C132.434 74.578 132.285 74.3307 131.986 74.172C131.687 74.004 131.225 73.8407 130.6 73.682C130.031 73.5327 129.564 73.3833 129.2 73.234C128.845 73.0753 128.537 72.8467 128.276 72.548C128.024 72.24 127.898 71.8387 127.898 71.344C127.898 70.952 128.015 70.5927 128.248 70.266C128.481 69.9393 128.813 69.6827 129.242 69.496C129.671 69.3 130.161 69.202 130.712 69.202C131.561 69.202 132.247 69.4167 132.77 69.846C133.293 70.2753 133.573 70.8633 133.61 71.61H132.336C132.308 71.2087 132.145 70.8867 131.846 70.644C131.557 70.4013 131.165 70.28 130.67 70.28C130.213 70.28 129.849 70.378 129.578 70.574C129.307 70.77 129.172 71.0267 129.172 71.344C129.172 71.596 129.251 71.806 129.41 71.974C129.578 72.1327 129.783 72.2633 130.026 72.366C130.278 72.4593 130.623 72.5667 131.062 72.688C131.613 72.8373 132.061 72.9867 132.406 73.136C132.751 73.276 133.045 73.4907 133.288 73.78C133.54 74.0693 133.671 74.4473 133.68 74.914C133.68 75.334 133.563 75.712 133.33 76.048C133.097 76.384 132.765 76.65 132.336 76.846C131.916 77.0327 131.431 77.126 130.88 77.126ZM137.032 70.378V74.9C137.032 75.2733 137.112 75.5393 137.27 75.698C137.429 75.8473 137.704 75.922 138.096 75.922H139.034V77H137.886C137.177 77 136.645 76.8367 136.29 76.51C135.936 76.1833 135.758 75.6467 135.758 74.9V70.378H134.764V69.328H135.758V67.396H137.032V69.328H139.034V70.378H137.032ZM149.804 69.188C150.401 69.188 150.933 69.314 151.4 69.566C151.867 69.8087 152.235 70.1773 152.506 70.672C152.777 71.1667 152.912 71.7687 152.912 72.478V77H151.652V72.66C151.652 71.8947 151.461 71.3113 151.078 70.91C150.705 70.4993 150.196 70.294 149.552 70.294C148.889 70.294 148.362 70.5087 147.97 70.938C147.578 71.358 147.382 71.9693 147.382 72.772V77H146.122V72.66C146.122 71.8947 145.931 71.3113 145.548 70.91C145.175 70.4993 144.666 70.294 144.022 70.294C143.359 70.294 142.832 70.5087 142.44 70.938C142.048 71.358 141.852 71.9693 141.852 72.772V77H140.578V69.328H141.852V70.434C142.104 70.0327 142.44 69.7247 142.86 69.51C143.289 69.2953 143.761 69.188 144.274 69.188C144.918 69.188 145.487 69.3327 145.982 69.622C146.477 69.9113 146.845 70.336 147.088 70.896C147.303 70.3547 147.657 69.9347 148.152 69.636C148.647 69.3373 149.197 69.188 149.804 69.188ZM162.002 72.87C162.002 73.1127 161.988 73.3693 161.96 73.64H155.828C155.874 74.396 156.131 74.9887 156.598 75.418C157.074 75.838 157.648 76.048 158.32 76.048C158.87 76.048 159.328 75.922 159.692 75.67C160.065 75.4087 160.326 75.0633 160.476 74.634H161.848C161.642 75.3713 161.232 75.9733 160.616 76.44C160 76.8973 159.234 77.126 158.32 77.126C157.592 77.126 156.938 76.9627 156.36 76.636C155.79 76.3093 155.342 75.8473 155.016 75.25C154.689 74.6433 154.526 73.9433 154.526 73.15C154.526 72.3567 154.684 71.6613 155.002 71.064C155.319 70.4667 155.762 70.0093 156.332 69.692C156.91 69.3653 157.573 69.202 158.32 69.202C159.048 69.202 159.692 69.3607 160.252 69.678C160.812 69.9953 161.241 70.434 161.54 70.994C161.848 71.5447 162.002 72.17 162.002 72.87ZM160.686 72.604C160.686 72.1187 160.578 71.7033 160.364 71.358C160.149 71.0033 159.855 70.7373 159.482 70.56C159.118 70.3733 158.712 70.28 158.264 70.28C157.62 70.28 157.069 70.4853 156.612 70.896C156.164 71.3067 155.907 71.876 155.842 72.604H160.686ZM167.421 69.188C168.355 69.188 169.111 69.4727 169.689 70.042C170.268 70.602 170.557 71.414 170.557 72.478V77H169.297V72.66C169.297 71.8947 169.106 71.3113 168.723 70.91C168.341 70.4993 167.818 70.294 167.155 70.294C166.483 70.294 165.947 70.504 165.545 70.924C165.153 71.344 164.957 71.9553 164.957 72.758V77H163.683V69.328H164.957V70.42C165.209 70.028 165.55 69.7247 165.979 69.51C166.418 69.2953 166.899 69.188 167.421 69.188ZM174.193 70.378V74.9C174.193 75.2733 174.272 75.5393 174.431 75.698C174.589 75.8473 174.865 75.922 175.257 75.922H176.195V77H175.047C174.337 77 173.805 76.8367 173.451 76.51C173.096 76.1833 172.919 75.6467 172.919 74.9V70.378H171.925V69.328H172.919V67.396H174.193V69.328H176.195V70.378H174.193ZM187.239 74.83H182.983L182.199 77H180.855L184.383 67.298H185.853L189.367 77H188.023L187.239 74.83ZM186.875 73.794L185.111 68.866L183.347 73.794H186.875ZM190.428 73.136C190.428 72.352 190.587 71.666 190.904 71.078C191.222 70.4807 191.656 70.0187 192.206 69.692C192.766 69.3653 193.392 69.202 194.082 69.202C194.68 69.202 195.235 69.342 195.748 69.622C196.262 69.8927 196.654 70.252 196.924 70.7V66.64H198.212V77H196.924V75.558C196.672 76.0153 196.299 76.3933 195.804 76.692C195.31 76.9813 194.731 77.126 194.068 77.126C193.387 77.126 192.766 76.958 192.206 76.622C191.656 76.286 191.222 75.8147 190.904 75.208C190.587 74.6013 190.428 73.9107 190.428 73.136ZM196.924 73.15C196.924 72.5713 196.808 72.0673 196.574 71.638C196.341 71.2087 196.024 70.882 195.622 70.658C195.23 70.4247 194.796 70.308 194.32 70.308C193.844 70.308 193.41 70.42 193.018 70.644C192.626 70.868 192.314 71.1947 192.08 71.624C191.847 72.0533 191.73 72.5573 191.73 73.136C191.73 73.724 191.847 74.2373 192.08 74.676C192.314 75.1053 192.626 75.4367 193.018 75.67C193.41 75.894 193.844 76.006 194.32 76.006C194.796 76.006 195.23 75.894 195.622 75.67C196.024 75.4367 196.341 75.1053 196.574 74.676C196.808 74.2373 196.924 73.7287 196.924 73.15ZM203.221 75.824L205.601 69.328H206.959L203.949 77H202.465L199.455 69.328H200.827L203.221 75.824ZM208.871 68.082C208.628 68.082 208.423 67.998 208.255 67.83C208.087 67.662 208.003 67.4567 208.003 67.214C208.003 66.9713 208.087 66.766 208.255 66.598C208.423 66.43 208.628 66.346 208.871 66.346C209.104 66.346 209.3 66.43 209.459 66.598C209.627 66.766 209.711 66.9713 209.711 67.214C209.711 67.4567 209.627 67.662 209.459 67.83C209.3 67.998 209.104 68.082 208.871 68.082ZM209.487 69.328V77H208.213V69.328H209.487ZM214.374 77.126C213.786 77.126 213.259 77.028 212.792 76.832C212.325 76.6267 211.957 76.3467 211.686 75.992C211.415 75.628 211.266 75.2127 211.238 74.746H212.554C212.591 75.1287 212.769 75.4413 213.086 75.684C213.413 75.9267 213.837 76.048 214.36 76.048C214.845 76.048 215.228 75.9407 215.508 75.726C215.788 75.5113 215.928 75.2407 215.928 74.914C215.928 74.578 215.779 74.3307 215.48 74.172C215.181 74.004 214.719 73.8407 214.094 73.682C213.525 73.5327 213.058 73.3833 212.694 73.234C212.339 73.0753 212.031 72.8467 211.77 72.548C211.518 72.24 211.392 71.8387 211.392 71.344C211.392 70.952 211.509 70.5927 211.742 70.266C211.975 69.9393 212.307 69.6827 212.736 69.496C213.165 69.3 213.655 69.202 214.206 69.202C215.055 69.202 215.741 69.4167 216.264 69.846C216.787 70.2753 217.067 70.8633 217.104 71.61H215.83C215.802 71.2087 215.639 70.8867 215.34 70.644C215.051 70.4013 214.659 70.28 214.164 70.28C213.707 70.28 213.343 70.378 213.072 70.574C212.801 70.77 212.666 71.0267 212.666 71.344C212.666 71.596 212.745 71.806 212.904 71.974C213.072 72.1327 213.277 72.2633 213.52 72.366C213.772 72.4593 214.117 72.5667 214.556 72.688C215.107 72.8373 215.555 72.9867 215.9 73.136C216.245 73.276 216.539 73.4907 216.782 73.78C217.034 74.0693 217.165 74.4473 217.174 74.914C217.174 75.334 217.057 75.712 216.824 76.048C216.591 76.384 216.259 76.65 215.83 76.846C215.41 77.0327 214.925 77.126 214.374 77.126ZM222.319 77.126C221.6 77.126 220.947 76.9627 220.359 76.636C219.78 76.3093 219.323 75.8473 218.987 75.25C218.66 74.6433 218.497 73.9433 218.497 73.15C218.497 72.366 218.665 71.6753 219.001 71.078C219.346 70.4713 219.813 70.0093 220.401 69.692C220.989 69.3653 221.647 69.202 222.375 69.202C223.103 69.202 223.761 69.3653 224.349 69.692C224.937 70.0093 225.399 70.4667 225.735 71.064C226.08 71.6613 226.253 72.3567 226.253 73.15C226.253 73.9433 226.075 74.6433 225.721 75.25C225.375 75.8473 224.904 76.3093 224.307 76.636C223.709 76.9627 223.047 77.126 222.319 77.126ZM222.319 76.006C222.776 76.006 223.205 75.8987 223.607 75.684C224.008 75.4693 224.33 75.1473 224.573 74.718C224.825 74.2887 224.951 73.766 224.951 73.15C224.951 72.534 224.829 72.0113 224.587 71.582C224.344 71.1527 224.027 70.8353 223.635 70.63C223.243 70.4153 222.818 70.308 222.361 70.308C221.894 70.308 221.465 70.4153 221.073 70.63C220.69 70.8353 220.382 71.1527 220.149 71.582C219.915 72.0113 219.799 72.534 219.799 73.15C219.799 73.7753 219.911 74.3027 220.135 74.732C220.368 75.1613 220.676 75.4833 221.059 75.698C221.441 75.9033 221.861 76.006 222.319 76.006ZM229.202 70.574C229.426 70.1353 229.743 69.7947 230.154 69.552C230.574 69.3093 231.082 69.188 231.68 69.188V70.504H231.344C229.916 70.504 229.202 71.2787 229.202 72.828V77H227.928V69.328H229.202V70.574ZM239.758 69.328L235.138 80.612H233.822L235.334 76.916L232.24 69.328H233.654L236.062 75.544L238.442 69.328H239.758ZM247.893 70.378H246.283V77H245.009V70.378H244.015V69.328H245.009V68.782C245.009 67.9233 245.229 67.298 245.667 66.906C246.115 66.5047 246.829 66.304 247.809 66.304V67.368C247.249 67.368 246.853 67.48 246.619 67.704C246.395 67.9187 246.283 68.278 246.283 68.782V69.328H247.893V70.378ZM250.037 68.082C249.794 68.082 249.589 67.998 249.421 67.83C249.253 67.662 249.169 67.4567 249.169 67.214C249.169 66.9713 249.253 66.766 249.421 66.598C249.589 66.43 249.794 66.346 250.037 66.346C250.27 66.346 250.466 66.43 250.625 66.598C250.793 66.766 250.877 66.9713 250.877 67.214C250.877 67.4567 250.793 67.662 250.625 67.83C250.466 67.998 250.27 68.082 250.037 68.082ZM250.653 69.328V77H249.379V69.328H250.653ZM254.098 70.574C254.322 70.1353 254.639 69.7947 255.05 69.552C255.47 69.3093 255.979 69.188 256.576 69.188V70.504H256.24C254.812 70.504 254.098 71.2787 254.098 72.828V77H252.824V69.328H254.098V70.574ZM267.273 69.188C267.87 69.188 268.402 69.314 268.869 69.566C269.335 69.8087 269.704 70.1773 269.975 70.672C270.245 71.1667 270.381 71.7687 270.381 72.478V77H269.121V72.66C269.121 71.8947 268.929 71.3113 268.547 70.91C268.173 70.4993 267.665 70.294 267.021 70.294C266.358 70.294 265.831 70.5087 265.439 70.938C265.047 71.358 264.851 71.9693 264.851 72.772V77H263.591V72.66C263.591 71.8947 263.399 71.3113 263.017 70.91C262.643 70.4993 262.135 70.294 261.491 70.294C260.828 70.294 260.301 70.5087 259.909 70.938C259.517 71.358 259.321 71.9693 259.321 72.772V77H258.047V69.328H259.321V70.434C259.573 70.0327 259.909 69.7247 260.329 69.51C260.758 69.2953 261.229 69.188 261.743 69.188C262.387 69.188 262.956 69.3327 263.451 69.622C263.945 69.9113 264.314 70.336 264.557 70.896C264.771 70.3547 265.126 69.9347 265.621 69.636C266.115 69.3373 266.666 69.188 267.273 69.188Z"
        fill="black" />
    <path
        d="M32.5721 3.54674C31.722 1.22645 30.1523 -0.334285 29.0657 0.0612876C28.9789 0.0927164 28.8983 0.1377 28.8219 0.191615V0.19075L17.8322 8.21514H17.8331C17.5868 8.38987 17.4778 8.71195 17.5853 9.00805C17.694 9.30389 17.9852 9.4792 18.2853 9.45584L18.2902 9.46997L31.807 8.52714C31.9235 8.52454 32.038 8.50609 32.1444 8.46688C33.2316 8.07041 33.4232 5.86808 32.5723 3.54669L32.5721 3.54674ZM31.7683 7.79307C30.9995 8.07363 29.8045 6.73893 29.0984 4.81281C28.3932 2.88728 28.4444 1.09846 29.2132 0.818183C29.982 0.537628 31.1779 1.87174 31.884 3.79756C32.5892 5.72398 32.5383 7.51251 31.7683 7.79307H31.7683Z"
        fill="#F4C430" />
    <path
        d="M23.355 10.5867C23.355 10.2514 23.0196 9.98035 22.6053 9.98035C22.2323 9.98035 21.9235 10.2027 21.868 10.4924L21.1816 13.4116L17.107 11.7326L9.64137 12.2265L0.22163 21.601L0.221919 21.6021C0.11841 21.7062 0.0556641 21.8386 0.0556641 21.9819C0.0556641 22.3166 0.391062 22.5882 0.804817 22.5882C1.00924 22.5882 1.19486 22.5213 1.3299 22.4129L1.33105 22.4138L9.64124 16.0144L10.733 21.541H10.7327L7.37122 37.891C7.37122 37.891 7.19166 38.4495 7.87721 38.568C8.48122 38.6735 8.6929 38.1582 8.6929 38.1582L14.0365 25.8903H14.0391L19.3829 38.1582C19.3829 38.1582 19.5943 38.6732 20.1991 38.568C20.8838 38.4495 20.7045 37.891 20.7045 37.891L17.3442 21.5454L18.4409 15.2789L22.0907 16.4646C22.0907 16.4646 22.697 16.7365 23.0498 16.0557C23.3881 15.4015 23.3574 10.9613 23.354 10.6038C23.3528 10.5975 23.3545 10.5923 23.3545 10.5868L23.355 10.5867Z"
        fill="#F4C430" />
    <path
        d="M13.3956 11.1743C14.9422 11.1798 16.2017 9.93306 16.2063 8.39041C16.2121 6.84783 14.9619 5.59239 13.415 5.58693C11.8681 5.58203 10.6095 6.82879 10.6045 8.37144C10.5987 9.9138 11.8489 11.1686 13.3956 11.1744V11.1743ZM14.6635 9.16347C15.007 8.94145 15.3912 8.92415 15.5219 9.12599C15.652 9.32782 15.4797 9.67008 15.1374 9.8924C14.7942 10.1144 14.4099 10.1317 14.2792 9.93046C14.1479 9.7292 14.3203 9.38579 14.6635 9.16345L14.6635 9.16347Z"
        fill="#F4C430" />
</svg>
