<svg width="16" height="11" viewBox="0 0 16 11" fill="none" xmlns="http://www.w3.org/2000/svg">
    <path fill-rule="evenodd" clip-rule="evenodd"
        d="M14.6386 10.9999H0.540326C0.280818 10.9999 0.0703919 10.8013 0.0703919 10.5563V0.935425C0.0657287 0.89988 0.0657287 0.865873 0.0703919 0.830327V0.443604C0.0703919 0.198636 0.280821 0 0.540326 0H14.6386C14.8981 0 15.1086 0.198638 15.1086 0.443604V10.5564C15.1084 10.8014 14.8981 10.9999 14.6386 10.9999ZM1.01008 10.1128H14.1686V1.51769L7.91851 6.53296C7.74586 6.72356 6.93364 6.7086 6.79072 6.53296L1.01011 1.96056L1.01008 10.1128ZM7.35445 5.8216L13.5192 0.886912H1.18974L7.35445 5.8216Z"
        fill="white" />
</svg>
