<svg width="15" height="20" viewBox="0 0 15 20" fill="none" xmlns="http://www.w3.org/2000/svg">
    <path
        d="M10.8389 9.61506C10.4955 8.30214 9.52595 7.27184 8.27345 6.80728C9.06124 6.08008 9.56624 5.04993 9.56624 3.91877C9.56624 1.75731 7.80889 0 5.64747 0C3.48601 0 1.7287 1.75735 1.7287 3.91877C1.7287 5.07023 2.23369 6.10036 3.02149 6.80728C1.60753 7.33244 0.53694 8.60506 0.334905 10.1807L0.0116749 12.8067C-0.0893532 13.6349 0.476236 14.4227 1.2843 14.5843C2.61753 14.8469 4.01135 14.9883 5.42527 15.0086C5.72821 17.3518 7.74818 19.1899 10.1924 19.1899C12.8386 19.1899 15 17.0285 15 14.3824C14.9799 11.938 13.1821 9.93804 10.8388 9.6152L10.8389 9.61506ZM5.6273 1.25232C7.08169 1.25232 8.27345 2.44407 8.27345 3.89846C8.27345 5.35285 7.10186 6.54461 5.6273 6.54461C4.17291 6.54461 2.98116 5.35285 2.98116 3.89846C2.98116 2.44407 4.17291 1.25232 5.6273 1.25232ZM1.26413 12.948L1.58736 10.322C1.76913 8.88775 2.98119 7.8172 4.41527 7.8172H6.85953C8.03112 7.8172 9.06127 8.54439 9.48554 9.59482C7.36452 9.91805 5.70817 11.5946 5.42537 13.6954C4.09215 13.6752 2.77923 13.5539 1.5268 13.3116C1.36518 13.2914 1.24401 13.1298 1.26416 12.948H1.26413ZM10.1723 17.897C8.23301 17.897 6.6373 16.3214 6.6373 14.362C6.6373 12.4026 8.21288 10.827 10.1723 10.827C12.1115 10.827 13.7072 12.4026 13.7072 14.362C13.7072 16.3214 12.1114 17.897 10.1723 17.897Z"
        fill="#FFC107" />
    <path
        d="M11.8086 13.7154H10.8188V12.7256C10.8188 12.362 10.536 12.0791 10.1723 12.0791C9.80876 12.0791 9.52582 12.3619 9.52582 12.7256V13.7154H8.53599C8.17247 13.7154 7.88953 13.9982 7.88953 14.3619C7.88953 14.7254 8.17232 15.0083 8.53599 15.0083H9.52582V15.9982C9.52582 16.3617 9.80861 16.6446 10.1723 16.6446C10.5358 16.6446 10.8188 16.3618 10.8188 15.9982V15.0083H11.8086C12.1721 15.0083 12.4551 14.7255 12.4551 14.3619C12.4551 13.9982 12.152 13.7154 11.8086 13.7154Z"
        fill="#FFC107" />
</svg>