<svg width="23" height="22" viewBox="0 0 23 22" fill="none" xmlns="http://www.w3.org/2000/svg">
<path d="M22.7363 8.13562C22.4354 7.89719 21.9993 7.94887 21.7607 8.24829L21.2992 8.83094C20.3577 3.86624 15.953 0.0654297 10.751 0.0654297C4.82312 0.0654297 0 4.88855 0 10.816C0 16.7435 4.82312 21.5666 10.751 21.5666C14.7296 21.5666 18.3632 19.3862 20.2341 15.876C20.4147 15.538 20.2866 15.1166 19.9478 14.9359C19.6098 14.7553 19.1899 14.8849 19.0085 15.2222C17.38 18.2777 14.2154 20.1763 10.7511 20.1763C5.58879 20.1772 1.38973 15.9777 1.38973 10.8159C1.38973 5.65397 5.58848 1.45451 10.7511 1.45451C15.2544 1.45451 19.0733 4.72538 19.9232 9.01115L19.3182 8.53188C19.0172 8.29345 18.5811 8.34427 18.3426 8.64455C18.1041 8.94552 18.1549 9.3824 18.4552 9.62087L20.3632 11.1321C20.4905 11.2332 20.6426 11.2818 20.7939 11.2818C20.9993 11.2818 21.2013 11.1915 21.3388 11.0186L22.85 9.11058C23.0878 8.81047 23.0377 8.37357 22.7365 8.13515L22.7363 8.13562Z" fill="white"/>
<path d="M6.30273 8.225V7.23247H8.2878V14.1897H7.19029V8.225H6.30273Z" fill="white"/>
<path d="M14.2679 8.16774H11.0708V10.0669C11.2044 9.88876 11.4016 9.73924 11.6625 9.61836C11.9297 9.49747 12.2128 9.43703 12.5119 9.43703C13.0463 9.43703 13.479 9.55155 13.8098 9.7806C14.147 10.0096 14.3856 10.2991 14.5256 10.6491C14.6719 10.999 14.7451 11.368 14.7451 11.7561C14.7451 12.2269 14.6528 12.6469 14.4683 13.0159C14.2902 13.3785 14.0198 13.6648 13.6571 13.8748C13.3008 14.0847 12.8618 14.1897 12.3401 14.1897C11.6466 14.1897 11.0899 14.0179 10.67 13.6744C10.25 13.3308 9.99873 12.8759 9.91602 12.3096H10.9754C11.0453 12.6087 11.2012 12.8473 11.443 13.0254C11.6848 13.1972 11.987 13.2831 12.3496 13.2831C12.8014 13.2831 13.1386 13.1463 13.3612 12.8727C13.5903 12.5991 13.7048 12.2365 13.7048 11.7847C13.7048 11.3267 13.5903 10.9767 13.3612 10.735C13.1322 10.4868 12.795 10.3628 12.3496 10.3628C12.0379 10.3628 11.7738 10.4423 11.5575 10.6013C11.3476 10.754 11.1949 10.964 11.0994 11.2312H10.0687V7.21338H14.2679V8.16774Z" fill="white"/>
</svg>
