<svg width="16" height="15" viewBox="0 0 16 15" fill="none" xmlns="http://www.w3.org/2000/svg">
<path d="M14.182 4.75476H10.1819V2.39096C10.1814 1.90894 9.98958 1.44681 9.64878 1.10592C9.30787 0.765144 8.84572 0.573308 8.36374 0.572754H1.81821C1.33619 0.573295 0.874055 0.765127 0.533167 1.10592C0.19239 1.44684 0.00055412 1.90898 0 2.39096V6.75465C0.000541132 7.23667 0.192373 7.6988 0.533167 8.03969C0.874082 8.38047 1.33622 8.5723 1.81821 8.57286V9.33273C1.81793 9.47626 1.86042 9.61655 1.94009 9.73588C2.01991 9.8552 2.13328 9.94801 2.26599 10.0025C2.39925 10.0583 2.54603 10.073 2.68768 10.0449C2.82932 10.0167 2.95933 9.94693 3.06119 9.84452C3.07418 9.83166 3.08608 9.81787 3.0969 9.80298L4.00195 8.57284H5.81825V10.9366C5.81879 11.4187 6.01063 11.8808 6.35142 12.2217C6.69234 12.5625 7.15448 12.7543 7.63646 12.7548H11.6677L12.9406 14.0275C13.0769 14.1637 13.2619 14.2403 13.4546 14.2401C13.6474 14.2401 13.8322 14.1635 13.9686 14.0272C14.105 13.891 14.1817 13.7062 14.1818 13.5134V12.7549C14.6638 12.7543 15.1259 12.5625 15.4667 12.2217C15.8076 11.8808 15.9993 11.4186 16 10.9367V6.57296C15.9995 6.09094 15.8078 5.62881 15.4668 5.28792C15.1261 4.94701 14.6639 4.75531 14.1819 4.75475L14.182 4.75476ZM3.81823 7.84557C3.70257 7.84557 3.59379 7.90063 3.52534 7.99371L2.54535 9.3245V8.20923C2.54535 8.00833 2.3826 7.84558 2.18171 7.84558H1.81807C1.52883 7.84531 1.25151 7.73019 1.04694 7.52577C0.842528 7.32123 0.7274 7.0439 0.72713 6.75465V2.39096C0.7274 2.10172 0.842525 1.8244 1.04694 1.61983C1.25149 1.41542 1.52882 1.30029 1.81807 1.30002H8.3636C8.65284 1.30029 8.93016 1.41541 9.13473 1.61983C9.33914 1.82437 9.45427 2.1017 9.45454 2.39096V4.75476H7.63634C7.24942 4.75571 6.87307 4.88138 6.56301 5.113L5.4219 2.60419C5.36292 2.47432 5.23345 2.39098 5.09086 2.39098C4.94827 2.39098 4.81881 2.47432 4.75983 2.60419L2.94162 6.60424C2.85856 6.787 2.93946 7.00265 3.12236 7.0857C3.16944 7.10735 3.22071 7.11844 3.27252 7.1183C3.41511 7.1183 3.54471 7.03497 3.6037 6.90496L4.16783 5.66373H6.01457L6.04041 5.72014C5.8966 5.98178 5.82016 6.27506 5.81813 6.57352V7.84557H3.81823ZM5.68392 4.93645H4.49855L5.09084 3.63312L5.68392 4.93645ZM15.273 10.9365C15.2726 11.2258 15.1576 11.5029 14.953 11.7075C14.7485 11.9121 14.4713 12.0271 14.182 12.0275H13.8184C13.7219 12.0273 13.6294 12.0656 13.5612 12.1339C13.493 12.2021 13.4547 12.2946 13.4547 12.3911V13.5133L12.0754 12.1339C12.0074 12.0657 11.9148 12.0273 11.8185 12.0274H7.63662C7.34739 12.027 7.07021 11.9121 6.86564 11.7075C6.66106 11.503 6.5461 11.2258 6.54569 10.9365V6.57282C6.54596 6.28359 6.66109 6.00627 6.8655 5.8017C7.07005 5.59715 7.34738 5.48216 7.63663 5.48189H14.1822C14.4714 5.48216 14.7487 5.59715 14.9533 5.8017C15.1577 6.00624 15.2728 6.28357 15.2731 6.57282L15.273 10.9365Z" fill="#FFC107"/>
<path d="M12.7286 7.48204H11.274V6.75475C11.274 6.55386 11.1113 6.39111 10.9104 6.39111C10.7095 6.39111 10.5467 6.55386 10.5467 6.75475V7.48204H9.09216C8.89126 7.48204 8.72852 7.64478 8.72852 7.84568C8.72852 8.04657 8.89126 8.20932 9.09216 8.20932H11.7905C11.7014 8.82716 11.3872 9.39022 10.9082 9.7905C10.6283 9.55646 10.4022 9.26464 10.2453 8.93525C10.1592 8.75383 9.94238 8.67659 9.76098 8.76263C9.5797 8.84867 9.50232 9.06553 9.58849 9.24693C9.75746 9.59731 9.98853 9.9144 10.2703 10.1827C9.94728 10.3208 9.59947 10.3918 9.24812 10.3913C9.15289 10.3918 9.06211 10.4307 8.99609 10.4993C8.92994 10.5677 8.8945 10.66 8.89747 10.7549C8.90356 10.9583 9.07063 11.1197 9.2741 11.1186C9.85191 11.1184 10.4193 10.9641 10.9175 10.6715C11.4205 10.9629 11.9913 11.1171 12.5726 11.1186C12.6678 11.1182 12.7586 11.0792 12.8246 11.0108C12.8908 10.9423 12.9262 10.85 12.9232 10.7549C12.9171 10.5517 12.7501 10.3904 12.5466 10.3913C12.2065 10.3901 11.87 10.3201 11.5575 10.1855C12.0991 9.65874 12.4411 8.96041 12.5251 8.20944H12.7284C12.9292 8.20944 13.0921 8.0467 13.0921 7.8458C13.0921 7.64504 12.9292 7.48216 12.7284 7.48216L12.7286 7.48204Z" fill="#FFC107"/>
</svg>
