<svg width="11" height="13" viewBox="0 0 11 13" fill="none" xmlns="http://www.w3.org/2000/svg">
    <path fill-rule="evenodd" clip-rule="evenodd"
        d="M6.99059 2.49843e-05C6.99059 2.49843e-05 6.1889 1.37922 6.88347 2.7903C7.57854 4.20142 8.18787 5.31336 8.0485 6.49976C8.0485 6.49976 8.4013 4.57549 10.1866 4.0727C10.1866 4.0727 9.52386 5.32338 9.88713 7.08772C10.2504 8.85163 9.42729 12.1446 6.04893 13C6.04893 13 9.04245 11.407 6.89349 8.81958C6.89349 8.81958 6.84018 10.0921 5.73353 10.4713C5.73353 10.4713 7.47597 7.50453 4.91035 4.74625C4.91035 4.74625 5.4983 6.66007 3.53116 8.29597C1.56401 9.93187 2.53709 12.5616 3.67021 12.9249C3.67021 12.9249 -2.5093 10.1666 1.16841 4.47927C1.16841 4.47927 1.29691 5.77282 2.23765 6.2755C2.23765 6.2755 2.09916 0.726968 6.99059 2.49843e-05Z"
        fill="white" />
</svg>
