<svg width="13" height="18" viewBox="0 0 13 18" fill="none" xmlns="http://www.w3.org/2000/svg">
    <path
        d="M1.3167 11.16L5.92653 17.6942C6.06283 17.8868 6.27539 18 6.50101 18C6.72664 18 6.9392 17.8868 7.0755 17.6942L11.6853 11.16C12.6624 9.77546 13.1214 8.04987 12.9725 6.32152C12.8234 4.59345 12.077 2.98706 10.8796 1.81774C9.68223 0.648416 8.12038 0 6.49995 0C4.87948 0 3.31744 0.648376 2.12028 1.81774C0.92311 2.9871 0.176669 4.59349 0.0275788 6.32152C-0.1215 8.04975 0.337513 9.77534 1.31471 11.16H1.3167ZM6.5012 3.28264C7.38849 3.28264 8.23957 3.66028 8.86707 4.33233C9.49457 5.00438 9.84699 5.9158 9.84699 6.86614C9.84699 7.81663 9.49454 8.72802 8.86707 9.4001C8.23961 10.0721 7.38849 10.4496 6.5012 10.4496C5.6139 10.4496 4.76282 10.0721 4.13532 9.4001C3.50786 8.72806 3.15541 7.81663 3.15541 6.86614C3.15656 5.91611 3.50929 5.00532 4.13665 4.33359C4.76385 3.66182 5.61423 3.2839 6.5012 3.28264Z"
        fill="#FFC107" />
</svg>
