<svg width="18" height="18" viewBox="0 0 18 18" fill="none" xmlns="http://www.w3.org/2000/svg">
    <path
        d="M17.4972 0.50602C17.262 0.266303 16.9603 0.102042 16.6309 0.0344676C16.3014 -0.0330995 15.9594 -0.000823071 15.6483 0.126854L1.03811 5.9625C0.602414 6.14885 0.263644 6.50706 0.102302 6.9518C-0.0590329 7.39651 -0.0285498 7.888 0.186709 8.3095C0.401825 8.731 0.782309 9.04459 1.2377 9.176L6.88743 10.6607V10.6605C6.98478 10.6865 7.0735 10.7377 7.14482 10.8087C7.216 10.8797 7.26719 10.9684 7.29321 11.0655L8.78133 16.7146C8.8666 17.066 9.06287 17.3808 9.3414 17.6123C9.61979 17.8439 9.96561 17.9797 10.3274 18H10.4434C10.7854 18.0024 11.1201 17.901 11.4031 17.7093C11.686 17.5176 11.904 17.2447 12.028 16.9266L17.871 2.35036C17.9998 2.04078 18.0331 1.69977 17.9666 1.37112C17.9001 1.0426 17.7366 0.741208 17.4974 0.5058L17.4972 0.50602ZM16.8143 1.93287L10.9713 16.5029C10.9104 16.6505 10.7902 16.766 10.6399 16.8214C10.4896 16.8767 10.323 16.8668 10.1805 16.7941C10.0379 16.7214 9.93217 16.5924 9.88917 16.4386L8.40106 10.7958C8.36942 10.6958 8.32844 10.599 8.27869 10.5066L11.5576 7.24177C11.6848 7.09501 11.7288 6.89388 11.6745 6.70767C11.6201 6.52132 11.4749 6.37528 11.2886 6.31948C11.1023 6.26382 10.9005 6.30614 10.7524 6.43195L7.47996 9.69676C7.38736 9.64726 7.2903 9.60638 7.19007 9.57468L1.52746 8.09648C1.37331 8.05359 1.24404 7.94815 1.17114 7.80584C1.09823 7.66367 1.08831 7.4974 1.14382 7.3475C1.19932 7.19759 1.31507 7.07766 1.46304 7.01683L16.067 1.18743C16.172 1.13636 16.2902 1.11872 16.4054 1.13722C16.5207 1.15558 16.6275 1.20909 16.7112 1.29029C16.7935 1.37321 16.8477 1.47995 16.8661 1.59514C16.8846 1.71034 16.8665 1.82855 16.8143 1.93298L16.8143 1.93287Z"
        fill="#FFC107" />
</svg>
