<svg width="4" height="15" viewBox="0 0 4 15" fill="none" xmlns="http://www.w3.org/2000/svg">
    <path
        d="M0.535934 0.515957C1.4289 -0.555671 3.21484 0.158801 3.21484 1.58758C3.21484 3.01637 1.4289 3.73068 0.535934 2.65921C-0.178378 2.1234 -0.178378 1.05193 0.535934 0.516116V0.515957Z"
        fill="white" />
    <path
        d="M0.535934 6.58796C1.4289 5.69499 3.21484 6.40932 3.21484 7.65959C3.21484 9.08837 1.4289 9.80268 0.535934 8.90971C-0.178378 8.1954 -0.178378 7.30243 0.535934 6.58796Z"
        fill="white" />
    <path
        d="M0.535934 12.3031C1.4289 11.2314 3.21484 11.9459 3.21484 13.3747C3.21484 14.8035 1.4289 15.5178 0.535934 14.4463C-0.178378 13.9105 -0.178378 12.839 0.535934 12.3032V12.3031Z"
        fill="white" />
</svg>
