<svg width="16" height="19" viewBox="0 0 16 19" fill="none" xmlns="http://www.w3.org/2000/svg">
    <path
        d="M0.664824 15.3361H3.07181C3.7442 16.9891 5.1987 18.1965 6.94732 18.553C8.69591 18.9094 10.507 18.3677 11.7727 17.1097C12.2737 16.6004 12.6701 15.9978 12.9395 15.3361H15.333C15.5642 15.3353 15.7784 15.2151 15.8993 15.0182C16.0202 14.8211 16.0304 14.5757 15.9264 14.3693L14.6663 11.8424V8.00192C14.6663 7.76364 14.5392 7.54354 14.3329 7.42448C14.1266 7.30541 13.8725 7.30541 13.6662 7.42448C13.4599 7.54354 13.3328 7.76365 13.3328 8.00192V12.0024C13.3334 12.1067 13.3586 12.2096 13.4062 12.3024L14.2529 14.0026H1.74471L2.59156 12.3024H2.59141C2.63903 12.2096 2.66419 12.1067 2.66478 12.0024V6.66843C2.66553 5.37513 3.13611 4.12614 3.98905 3.15403C4.84199 2.18187 6.01905 1.55265 7.30122 1.38341C8.58335 1.21435 9.88336 1.51676 10.9591 2.23456C11.1581 2.36672 11.4124 2.38279 11.6263 2.27668C11.8403 2.17057 11.9813 1.95834 11.9963 1.71993C12.0113 1.48166 11.8981 1.25336 11.6992 1.12104C10.354 0.2236 8.72832 -0.154426 7.12535 0.0575229C5.52204 0.269304 4.05058 1.05677 2.98467 2.27295C1.91875 3.48917 1.33121 5.05126 1.33148 6.66852V11.8425L0.0713675 14.3694C-0.032664 14.5758 -0.0223924 14.8212 0.098454 15.0183C0.219451 15.2152 0.433614 15.3354 0.664731 15.3362L0.664824 15.3361ZM10.826 16.1628C9.94692 17.0375 8.71195 17.4549 7.48247 17.293C6.25299 17.1312 5.16822 16.4084 4.54536 15.3361H11.4593C11.2873 15.6395 11.0742 15.9177 10.8259 16.1628H10.826Z"
        fill="white" />
    <path
        d="M3.3313 6.6682V8.66844C3.3313 8.90671 3.4584 9.12682 3.66467 9.24588C3.87095 9.36494 4.12515 9.36494 4.33142 9.24588C4.53769 9.12682 4.66479 8.9067 4.66479 8.66844V6.6682C4.66479 5.78402 5.01602 4.93614 5.64125 4.31093C6.26647 3.68571 7.11434 3.33447 7.99852 3.33447C8.23679 3.33447 8.4569 3.20737 8.57596 3.0011C8.69502 2.79482 8.69502 2.54062 8.57596 2.33435C8.4569 2.12808 8.23678 2.00098 7.99852 2.00098C6.76074 2.00098 5.57355 2.49269 4.69828 3.36796C3.82301 4.24322 3.3313 5.43041 3.3313 6.6682Z"
        fill="white" />
    <path
        d="M11.3328 3.3347C11.0945 3.3347 10.8744 3.4618 10.7553 3.66807C10.6363 3.87435 10.6363 4.12855 10.7553 4.33482C10.8744 4.54109 11.0945 4.66819 11.3328 4.66819H12.6662V6.00169C12.6662 6.23996 12.7933 6.46006 12.9996 6.57913C13.2059 6.69819 13.4601 6.69819 13.6664 6.57913C13.8726 6.46006 13.9997 6.23995 13.9997 6.00169V4.66819H15.3332C15.5715 4.66819 15.7916 4.5411 15.9107 4.33482C16.0297 4.12854 16.0297 3.87435 15.9107 3.66807C15.7916 3.4618 15.5715 3.3347 15.3332 3.3347H13.9997V2.00121C13.9997 1.76294 13.8726 1.54283 13.6664 1.42377C13.4601 1.30471 13.2059 1.30471 12.9996 1.42377C12.7933 1.54283 12.6662 1.76294 12.6662 2.00121V3.3347H11.3328Z"
        fill="white" />
</svg>
