<svg width="23" height="22" viewBox="0 0 23 22" fill="none" xmlns="http://www.w3.org/2000/svg">
<path d="M0.26366 8.13562C0.564631 7.89719 1.00067 7.94887 1.23927 8.24829L1.70081 8.83094C2.64232 3.86624 7.047 0.0654297 12.249 0.0654297C18.1769 0.0654297 23 4.88855 23 10.816C23 16.7435 18.1769 21.5666 12.249 21.5666C8.27037 21.5666 4.63675 19.3862 2.7659 15.876C2.58535 15.538 2.71335 15.1166 3.05223 14.9359C3.39024 14.7553 3.81009 14.8849 3.99149 15.2222C5.62004 18.2777 8.78463 20.1763 12.2489 20.1763C17.4112 20.1772 21.6103 15.9777 21.6103 10.8159C21.6103 5.65397 17.4115 1.45451 12.2489 1.45451C7.74555 1.45451 3.92666 4.72538 3.07679 9.01115L3.68184 8.53188C3.98281 8.29345 4.41885 8.34427 4.65745 8.64455C4.89588 8.94552 4.84506 9.3824 4.54478 9.62087L2.63679 11.1321C2.50947 11.2332 2.35735 11.2818 2.20609 11.2818C2.00074 11.2818 1.79865 11.1915 1.6612 11.0186L0.149958 9.11058C-0.0877857 8.81047 -0.037653 8.37357 0.263489 8.13515L0.26366 8.13562Z" fill="white"/>
<path d="M8.25488 8.225V7.23247H10.2399V14.1897H9.14243V8.225H8.25488Z" fill="white"/>
<path d="M16.22 8.16774H13.0229V10.0669C13.1565 9.88876 13.3538 9.73924 13.6146 9.61836C13.8819 9.49747 14.165 9.43703 14.464 9.43703C14.9985 9.43703 15.4311 9.55155 15.7619 9.7806C16.0991 10.0096 16.3377 10.2991 16.4777 10.6491C16.624 10.999 16.6972 11.368 16.6972 11.7561C16.6972 12.2269 16.605 12.6469 16.4204 13.0159C16.2423 13.3785 15.9719 13.6648 15.6092 13.8748C15.253 14.0847 14.8139 14.1897 14.2922 14.1897C13.5987 14.1897 13.042 14.0179 12.6221 13.6744C12.2022 13.3308 11.9509 12.8759 11.8682 12.3096H12.9275C12.9975 12.6087 13.1534 12.8473 13.3951 13.0254C13.6369 13.1972 13.9391 13.2831 14.3018 13.2831C14.7535 13.2831 15.0907 13.1463 15.3134 12.8727C15.5424 12.5991 15.657 12.2365 15.657 11.7847C15.657 11.3267 15.5424 10.9767 15.3134 10.735C15.0844 10.4868 14.7471 10.3628 14.3018 10.3628C13.99 10.3628 13.726 10.4423 13.5097 10.6013C13.2997 10.754 13.147 10.964 13.0516 11.2312H12.0209V7.21338H16.22V8.16774Z" fill="white"/>
</svg>
