<svg width="11" height="15" viewBox="0 0 11 15" fill="none" xmlns="http://www.w3.org/2000/svg">
    <path
        d="M8.27225 0H0.570559C0.267499 0 0 0.249586 0 0.57056V13.9594C0 14.2624 0.249585 14.5299 0.570559 14.5299H10.4294C10.7325 14.5299 11 14.2804 11 13.9594L10.9999 2.7634L8.27225 0ZM8.1653 0.909291L10.2334 3.01293H8.1653V0.909291ZM10.2689 13.7989H0.713139V0.713184H7.45212V3.72615H10.2689V13.7989Z"
        fill="white" />
    <path
        d="M2.08594 6.09738C2.08594 6.29349 2.24636 6.4539 2.44247 6.4539H8.53964C8.73575 6.4539 8.89617 6.29348 8.89617 6.09738C8.89617 5.90126 8.73574 5.74085 8.53964 5.74085L2.44247 5.74072C2.24635 5.74072 2.08594 5.90127 2.08594 6.09738V6.09738Z"
        fill="white" />
    <path
        d="M8.53964 7.47021H2.44247C2.24635 7.47021 2.08594 7.63064 2.08594 7.82674C2.08594 8.02286 2.24636 8.18327 2.44247 8.18327H8.53964C8.73575 8.18327 8.89617 8.02285 8.89617 7.82674C8.89629 7.63076 8.73587 7.47021 8.53977 7.47021H8.53964Z"
        fill="white" />
    <path
        d="M8.53964 9.18164H2.44247C2.24635 9.18164 2.08594 9.34206 2.08594 9.53817C2.08594 9.73428 2.24636 9.8947 2.44247 9.8947H8.53964C8.73575 9.8947 8.89617 9.73427 8.89617 9.53817C8.89629 9.34205 8.73587 9.18164 8.53977 9.18164H8.53964Z"
        fill="white" />
    <path
        d="M6.57856 10.9106H2.44247C2.24635 10.9106 2.08594 11.0711 2.08594 11.2672C2.08594 11.4633 2.24636 11.6237 2.44247 11.6237H6.57856C6.77467 11.6237 6.93509 11.4633 6.93509 11.2672C6.93509 11.0711 6.77467 10.9106 6.57856 10.9106Z"
        fill="white" />
    <path
        d="M2.58505 4.67098H4.42134C4.59967 4.67098 4.7601 4.52834 4.7601 4.33221V3.0308C4.7601 2.85247 4.61746 2.70996 4.45704 2.70996V2.33551C4.45704 1.81856 4.02914 1.39062 3.51216 1.39062C2.99521 1.39062 2.56727 1.81853 2.56727 2.33551V2.70996C2.40685 2.72774 2.26421 2.87038 2.26421 3.0308V4.33221C2.2463 4.52833 2.38894 4.67098 2.58505 4.67098ZM3.76173 3.90431C3.76173 4.04695 3.63688 4.17168 3.49436 4.17168C3.35172 4.17168 3.22699 4.04682 3.22699 3.90431V3.4943C3.22699 3.35166 3.35185 3.22693 3.49436 3.22693C3.637 3.22693 3.76173 3.35178 3.76173 3.4943V3.90431ZM3.13769 2.3533C3.13769 2.28205 3.13769 2.19288 3.15547 2.13941C3.15547 2.12162 3.15547 2.12162 3.17325 2.12162C3.17325 2.10384 3.17325 2.10384 3.19104 2.10384C3.20882 2.08606 3.20882 2.06815 3.20882 2.05037V2.03258C3.28008 1.92563 3.36924 1.85425 3.51188 1.85425C3.63674 1.87204 3.74368 1.92551 3.81494 2.03258V2.05037C3.83272 2.06815 3.83272 2.08606 3.83272 2.10384C3.83272 2.12162 3.83272 2.12162 3.85051 2.12162C3.85051 2.13941 3.85051 2.13941 3.86829 2.13941C3.85051 2.21066 3.86829 2.28205 3.86829 2.3533V2.70983H3.15523L3.15561 2.3533H3.13769Z"
        fill="white" />
</svg>
