<svg width="15" height="15" viewBox="0 0 15 15" fill="none" xmlns="http://www.w3.org/2000/svg">
<path d="M13.6113 7.49881C13.6113 7.1933 13.5905 6.88779 13.5506 6.58402C13.5592 6.64478 13.5679 6.70727 13.5749 6.76803C13.4933 6.17262 13.3353 5.58937 13.101 5.03564C13.1235 5.09119 13.1478 5.14674 13.1704 5.20229C12.9413 4.66072 12.6427 4.15209 12.2834 3.68689C12.3198 3.73376 12.3563 3.78062 12.3927 3.82749C12.0386 3.3727 11.629 2.96305 11.1742 2.60891C11.221 2.64536 11.2679 2.68182 11.3148 2.71827C10.8496 2.35896 10.3409 2.06037 9.79937 1.83126C9.85491 1.85382 9.91046 1.87813 9.96601 1.90069C9.41228 1.66809 8.82903 1.5084 8.23363 1.42679C8.29438 1.43547 8.35687 1.44415 8.41763 1.45109C7.81007 1.37125 7.19384 1.37125 6.58631 1.45109C6.64707 1.44241 6.70956 1.43374 6.77031 1.42679C6.17491 1.50838 5.59166 1.66634 5.03793 1.90069C5.09348 1.87813 5.14903 1.85382 5.20457 1.83126C4.663 2.06039 4.15438 2.35896 3.68918 2.71827C3.73605 2.68182 3.78291 2.64536 3.82978 2.60891C3.37499 2.96302 2.96534 3.37267 2.6112 3.82749C2.64765 3.78062 2.6841 3.73376 2.72056 3.68689C2.36124 4.15209 2.06265 4.66072 1.83354 5.20229C1.85611 5.14674 1.88041 5.09119 1.90298 5.03564C1.67037 5.58937 1.51069 6.17262 1.42908 6.76803C1.43776 6.70727 1.44644 6.64478 1.45338 6.58402C1.37353 7.19159 1.37353 7.80781 1.45338 8.41534C1.4447 8.35459 1.43602 8.2921 1.42908 8.23134C1.51066 8.82675 1.66863 9.40999 1.90298 9.96372C1.88041 9.90817 1.85611 9.85263 1.83354 9.79708C2.06268 10.3387 2.36124 10.8473 2.72056 11.3125C2.6841 11.2656 2.64765 11.2187 2.6112 11.1719C2.9653 11.6267 3.37496 12.0363 3.82978 12.3905C3.78291 12.354 3.73605 12.3175 3.68918 12.2811C4.15438 12.6404 4.663 12.939 5.20457 13.1681C5.14903 13.1455 5.09348 13.1212 5.03793 13.0987C5.59166 13.3313 6.17491 13.491 6.77031 13.5726C6.70956 13.5639 6.64707 13.5552 6.58631 13.5483C7.19387 13.6281 7.8101 13.6281 8.41763 13.5483C8.35687 13.557 8.29438 13.5656 8.23363 13.5726C8.82903 13.491 9.41228 13.333 9.96601 13.0987C9.91046 13.1212 9.85491 13.1455 9.79937 13.1681C10.3409 12.939 10.8496 12.6404 11.3148 12.2811C11.2679 12.3175 11.221 12.354 11.1742 12.3905C11.6289 12.0363 12.0386 11.6267 12.3927 11.1719C12.3563 11.2187 12.3198 11.2656 12.2834 11.3125C12.6427 10.8473 12.9413 10.3387 13.1704 9.79708C13.1478 9.85263 13.1235 9.90817 13.101 9.96372C13.3336 9.40999 13.4933 8.82675 13.5749 8.23134C13.5662 8.2921 13.5575 8.35459 13.5506 8.41534C13.5905 8.10983 13.6113 7.80432 13.6113 7.49881C13.6113 7.13601 13.9307 6.78711 14.3057 6.80447C14.6806 6.82183 15 7.10998 15 7.49881C14.9965 9.02116 14.5313 10.5522 13.646 11.7934C13.4134 12.1198 13.1617 12.4322 12.884 12.7204C12.6097 13.0033 12.3112 13.255 11.9987 13.4946C11.4033 13.9511 10.7385 14.2983 10.0337 14.5569C8.58253 15.0898 6.94042 15.1367 5.45438 14.7149C4.02405 14.3087 2.70133 13.4633 1.75524 12.3142C1.50007 12.0052 1.26227 11.6806 1.0557 11.3369C0.850865 10.995 0.684225 10.6374 0.5332 10.2693C0.241576 9.55764 0.0801555 8.8008 0.0211165 8.03354C-0.0969233 6.50599 0.283231 4.9333 1.07826 3.62276C1.84552 2.35733 2.99985 1.30539 4.35207 0.694367C4.72008 0.527725 5.09675 0.381911 5.48733 0.272556C5.88483 0.161461 6.29277 0.0937634 6.70242 0.0451574C7.48183 -0.0451088 8.27511 0.00349617 9.04408 0.159724C10.5074 0.456557 11.8839 1.23074 12.9134 2.30871C13.9496 3.39363 14.6718 4.79619 14.8974 6.28019C14.9582 6.68464 14.9999 7.08909 14.9999 7.49878C14.9999 7.86158 14.6805 8.21048 14.3055 8.19312C13.9288 8.17576 13.6112 7.88761 13.6112 7.49878L13.6113 7.49881Z" fill="black"/>
<path d="M8.17775 4.17472V5.50611V7.62732V8.11509C8.17775 8.4779 7.85837 8.8268 7.48341 8.80944C7.10673 8.79208 6.78906 8.50393 6.78906 8.11509V6.7837V4.66249V4.17472C6.78906 3.81192 7.10844 3.46301 7.48341 3.48038C7.86008 3.49774 8.17775 3.78589 8.17775 4.17472Z" fill="black"/>
<path d="M8.17775 10.3891V10.8578C8.17775 11.2206 7.85837 11.5695 7.48341 11.5521C7.10673 11.5348 6.78906 11.2466 6.78906 10.8578V10.3891C6.78906 10.0263 7.10844 9.67737 7.48341 9.69473C7.86008 9.71209 8.17775 10.0002 8.17775 10.3891Z" fill="black"/>
</svg>
