<svg width="26" height="21" viewBox="0 0 26 21" fill="none" xmlns="http://www.w3.org/2000/svg">
<path d="M25.6923 7.57808L16.2146 0.173201C16.0541 0.0479142 15.8516 -0.012997 15.6477 0.00232066C15.4435 0.0178218 15.2529 0.108457 15.1135 0.256176C14.9744 0.404078 14.8971 0.597932 14.8969 0.799462V3.98014C10.0445 4.02281 5.58284 5.94095 2.83813 9.19964V9.19946C1.61575 10.6409 0.755718 12.3457 0.32753 14.1753C-0.129344 16.2205 -0.108039 18.3412 0.39015 20.377C0.430168 20.5516 0.528548 20.7077 0.66935 20.8207C0.810342 20.9336 0.985606 20.9967 1.16735 21H1.18125C1.36022 21.0002 1.534 20.942 1.67593 20.8348C1.81785 20.7277 1.91993 20.5775 1.96606 20.4073C2.70733 17.6902 4.42905 15.3321 6.80903 13.7746C9.18902 12.217 12.0642 11.5665 14.8961 11.9449V15.61C14.896 15.8117 14.9734 16.0061 15.1127 16.1542C15.2519 16.3022 15.4429 16.3929 15.6472 16.4082C15.8518 16.4233 16.0545 16.3621 16.2147 16.2364L25.6925 8.83106C25.8866 8.67933 26 8.44864 26 8.20463C26 7.96044 25.8866 7.72974 25.6925 7.57801L25.6923 7.57808ZM16.5219 13.954V11.2683C16.5219 11.083 16.4565 10.9036 16.337 10.7604C16.2175 10.6172 16.0513 10.5193 15.8666 10.4834C13.0978 9.94868 10.2283 10.291 7.66901 11.4609C5.11007 12.6309 2.99318 14.5686 1.62229 16.996C1.60469 14.5214 2.47824 12.121 4.08822 10.2204C6.55694 7.28944 10.623 5.57881 15.0585 5.57881C15.2645 5.57881 15.4713 5.58246 15.6792 5.58975C15.8997 5.59814 16.1138 5.51772 16.2728 5.36709C16.4316 5.21663 16.5212 5.00873 16.5211 4.79173V2.45523L23.8806 8.20462L16.5219 13.954Z" fill="white"/>
</svg>
