<svg width="17" height="13" viewBox="0 0 17 13" fill="none" xmlns="http://www.w3.org/2000/svg">
    <path
        d="M16.6629 4.69119L10.8143 0.10722C10.7153 0.0296612 10.5903 -0.00804579 10.4644 0.0014366C10.3384 0.0110326 10.2208 0.0671399 10.1348 0.158585C10.049 0.250143 10.0013 0.370148 10.0012 0.494905V2.46389C7.00674 2.49031 4.25349 3.67773 2.55974 5.69501V5.6949C1.80542 6.58722 1.2747 7.64256 1.01047 8.77516C0.728532 10.0413 0.741679 11.3541 1.04911 12.6144C1.0738 12.7224 1.13451 12.819 1.2214 12.889C1.30841 12.9589 1.41656 12.998 1.52872 13H1.53729C1.64773 13.0001 1.75497 12.9641 1.84256 12.8977C1.93013 12.8314 1.99313 12.7384 2.0216 12.6331C2.47903 10.9511 3.54149 9.49128 5.01016 8.52714C6.47884 7.56292 8.25307 7.16022 10.0007 7.39449V9.66332C10.0006 9.78819 10.0483 9.90853 10.1343 10.0002C10.2202 10.0919 10.338 10.148 10.4642 10.1575C10.5904 10.1668 10.7155 10.1289 10.8144 10.0511L16.663 5.46685C16.7828 5.37292 16.8528 5.23011 16.8528 5.07906C16.8528 4.92789 16.7828 4.78508 16.663 4.69115L16.6629 4.69119ZM11.0039 8.63819V6.97561C11.0039 6.8609 10.9636 6.74982 10.8898 6.66119C10.8161 6.57257 10.7135 6.51195 10.5995 6.48971C8.8909 6.1587 7.12015 6.3706 5.54085 7.09483C3.96175 7.81915 2.65542 9.01865 1.80946 10.5213C1.79859 8.98946 2.33766 7.50349 3.33116 6.32694C4.8546 4.51251 7.36372 3.45355 10.1009 3.45355C10.228 3.45355 10.3556 3.45581 10.4839 3.46032C10.6199 3.46552 10.7521 3.41573 10.8502 3.32248C10.9482 3.22934 11.0035 3.10064 11.0034 2.96631V1.5199L15.5449 5.07905L11.0039 8.63819Z"
        fill="white" />
</svg>
