<svg width="18" height="20" viewBox="0 0 18 20" fill="none" xmlns="http://www.w3.org/2000/svg">
<path fill-rule="evenodd" clip-rule="evenodd" d="M8.80144 2.36092L10.0395 7.66227L15.3408 8.90032L10.0395 10.1384L8.80144 15.439L7.56339 10.1384L2.26204 8.90032L7.56339 7.66227L8.80144 2.36092ZM13.5669 12.2746L14.2556 15.2221L17.2031 15.9108L14.2556 16.5996L13.5669 19.5471L12.8782 16.5996L9.93065 15.9108L12.8782 15.2221L13.5669 12.2746ZM3.63624 11.0809L4.32495 14.0284L7.27247 14.7171L4.32495 15.4059L3.63624 18.3534L2.94752 15.4059L0 14.7171L2.94752 14.0284L3.63624 11.0809ZM14.3638 0L15.0525 2.94752L18 3.63623L15.0525 4.32495L14.3638 7.27247L13.675 4.32495L10.7275 3.63623L13.675 2.94752L14.3638 0Z" fill="white"/>
</svg>
