<svg width="12" height="16" viewBox="0 0 12 16" fill="none" xmlns="http://www.w3.org/2000/svg">
    <path
        d="M4.93296 9.58105H2.78257C2.52956 9.58105 2.33984 9.78664 2.33984 10.0238C2.33984 10.2609 2.54543 10.4665 2.78257 10.4665H4.93296C5.18597 10.4665 5.37568 10.2609 5.37568 10.0238C5.37568 9.78665 5.18598 9.58105 4.93296 9.58105Z"
        fill="white" />
    <path
        d="M2.78257 8.25313H7.25727C7.51028 8.25313 7.7 8.04754 7.7 7.8104C7.7 7.55739 7.49441 7.36768 7.25727 7.36768H2.78257C2.52956 7.36768 2.33984 7.57326 2.33984 7.8104C2.33984 8.04754 2.54543 8.25313 2.78257 8.25313Z"
        fill="white" />
    <path
        d="M2.78257 6.00801H7.25727C7.51028 6.00801 7.7 5.80243 7.7 5.56528C7.7 5.31227 7.49441 5.12256 7.25727 5.12256H2.78257C2.52956 5.12256 2.33984 5.32814 2.33984 5.56528C2.33984 5.80241 2.54543 6.00801 2.78257 6.00801Z"
        fill="white" />
    <path
        d="M2.78257 3.76289H4.61675C4.86976 3.76289 5.05948 3.55731 5.05948 3.32017C5.05948 3.06716 4.85389 2.87744 4.61675 2.87744H2.78257C2.52956 2.87744 2.33984 3.08303 2.33984 3.32017C2.33984 3.5573 2.54543 3.76289 2.78257 3.76289Z"
        fill="white" />
    <path
        d="M10.0712 9.02768V2.84586C10.0712 2.73514 10.0237 2.60876 9.94466 2.52969L7.54147 0.126496C7.4624 0.0474223 7.33591 0 7.2253 0H0.442688C0.189698 0 0 0.205567 0 0.442688V12.4901C0 12.7431 0.205567 12.9328 0.442688 12.9328H5.96047C6.38738 14.1344 7.5415 15.0039 8.88538 15.0039C10.5929 15.0039 12 13.6126 12 11.8893C11.9999 10.6088 11.1935 9.50198 10.071 9.02764L10.0712 9.02768ZM7.2095 1.07511L8.99598 2.8617H7.2095V1.07511ZM0.885389 12.0474V0.9012H6.30831V3.32017C6.30831 3.57316 6.51388 3.76286 6.751 3.76286H9.15419V8.80634C9.05935 8.79057 8.9645 8.79057 8.86967 8.79057C7.16215 8.79057 5.75504 10.1819 5.75504 11.9052V12.0475L0.885389 12.0474ZM8.88539 14.1186C7.66797 14.1186 6.67201 13.1225 6.67201 11.9052C6.67201 10.6878 7.66808 9.6918 8.88539 9.6918C10.1028 9.6918 11.0988 10.6879 11.0988 11.9052C11.0988 13.1226 10.1028 14.1186 8.88539 14.1186Z"
        fill="white" />
    <path
        d="M9.48693 11.0357L8.52242 12.0002L8.20622 11.684C8.03228 11.5101 7.74774 11.5101 7.57381 11.684C7.39988 11.858 7.39987 12.1425 7.57381 12.3164L8.22211 12.9647C8.31697 13.0596 8.4277 13.0913 8.53832 13.0913C8.64905 13.0913 8.77545 13.0438 8.85452 12.9647L10.1511 11.6681C10.3251 11.4942 10.3251 11.2097 10.1511 11.0357C9.94544 10.8618 9.66089 10.8618 9.48696 11.0357H9.48693Z"
        fill="white" />
</svg>
