<svg width="26" height="28" viewBox="0 0 26 28" fill="none" xmlns="http://www.w3.org/2000/svg">
    <path fill-rule="evenodd" clip-rule="evenodd"
        d="M21.1467 0C21.6315 2.3031 21.7528 4.36365 21.5104 6.182C20.177 7.5154 17.9951 8.7275 14.8439 9.57595C17.0257 9.57595 18.7226 9.81833 20.4199 9.33356C18.3593 13.3336 13.6319 15.5156 6.84388 16.4851C9.63178 11.879 13.0259 7.63657 16.7834 3.75757C12.6621 7.27282 9.26838 11.6361 6.35938 16.3636C7.69278 10.5456 9.87463 6.66656 12.5414 4.00006L11.9353 6.66667C12.5414 5.09087 13.3898 3.63642 14.4808 2.42426C15.3293 1.81821 16.1777 1.33346 17.0263 0.969765C16.7839 1.45453 16.6627 1.93951 16.6627 2.18186C16.905 1.6971 17.1474 1.21211 17.39 0.848465C18.7234 0.3637 19.9355 0.121115 21.1476 1.5e-05L21.1467 0Z"
        fill="white" />
    <path fill-rule="evenodd" clip-rule="evenodd"
        d="M2.60116 26.0605C5.99511 16.606 12.4192 8.121 21.1467 0C12.4192 5.818 5.38916 15.1515 0.0556641 28C1.99511 26.6666 2.60116 26.0606 2.60116 26.0606V26.0605ZM2.35878 25.8181C5.38903 17.4546 10.6013 10.0606 16.7828 3.75761C9.63128 9.93962 4.54028 18.3031 0.904279 27.0301C1.38904 26.6664 1.87403 26.1817 2.35878 25.818V25.8181Z"
        fill="white" />
    <path fill-rule="evenodd" clip-rule="evenodd"
        d="M2.11671 27.879C27.6927 25.8185 5.02591 24.8488 13.8742 23.0306C17.0258 22.5458 20.9047 22.5458 25.3892 23.0306C15.5712 23.3942 12.9042 24.0003 16.2982 24.97C21.3892 26.7882 16.5406 28.1216 2.11621 27.8792L2.11671 27.879Z"
        fill="white" />
</svg>
