<svg width="20" height="16" viewBox="0 0 20 16" fill="none" xmlns="http://www.w3.org/2000/svg">
    <path
        d="M19.6923 1.9006C18.9681 2.21303 18.1801 2.43788 17.3683 2.52545C18.2111 2.02471 18.8422 1.23362 19.1433 0.300601C18.3524 0.771108 17.4861 1.10104 16.5826 1.27575C16.205 0.872024 15.7483 0.5504 15.241 0.330915C14.7337 0.11143 14.1866 -0.00121132 13.6339 9.82343e-06C11.3974 9.82343e-06 9.59885 1.81303 9.59885 4.03788C9.59885 4.3503 9.63671 4.66273 9.69825 4.96332C6.34953 4.78817 3.36291 3.18817 1.37735 0.738471C1.01556 1.3565 0.825969 2.06019 0.828303 2.77634C0.828303 4.17752 1.54064 5.41302 2.6269 6.13965C1.98675 6.11444 1.36159 5.93846 0.802271 5.62604V5.67575C0.802271 7.63787 2.18909 9.26391 4.03739 9.63787C3.69035 9.72803 3.33334 9.77415 2.97479 9.77515C2.7121 9.77515 2.46361 9.74912 2.21275 9.71361C2.72393 11.3136 4.21251 12.4757 5.98508 12.5136C4.59826 13.6 2.8612 14.2391 0.975031 14.2391C0.63661 14.2391 0.324221 14.2272 0 14.1894C1.78913 15.3373 3.91196 16 6.19807 16C13.6197 16 17.6807 9.85089 17.6807 4.51362C17.6807 4.33847 17.6807 4.16332 17.6689 3.98817C18.4546 3.41303 19.1433 2.7006 19.6923 1.9006Z"
        fill="white" />
</svg>
