<svg width="15" height="14" viewBox="0 0 15 14" fill="none" xmlns="http://www.w3.org/2000/svg">
    <path
        d="M7.08634 1.6625C8.10416 1.6625 8.92894 2.485 8.92894 3.5C8.92894 4.515 8.10416 5.3375 7.08634 5.3375C6.06852 5.3375 5.24373 4.515 5.24373 3.5C5.24373 2.485 6.06852 1.6625 7.08634 1.6625ZM7.08634 9.5375C9.69231 9.5375 12.4387 10.815 12.4387 11.375V12.3375H1.73401V11.375C1.73401 10.815 4.48037 9.5375 7.08634 9.5375ZM7.08634 0C5.14722 0 3.57662 1.56625 3.57662 3.5C3.57662 5.43375 5.14722 7 7.08634 7C9.02546 7 10.5961 5.43375 10.5961 3.5C10.5961 1.56625 9.02546 0 7.08634 0ZM7.08634 7.875C4.7436 7.875 0.0668945 9.0475 0.0668945 11.375V14H14.1058V11.375C14.1058 9.0475 9.42908 7.875 7.08634 7.875Z"
        fill="white" />
</svg>
