<svg width="27" height="22" viewBox="0 0 27 22" fill="none" xmlns="http://www.w3.org/2000/svg">
    <path
        d="M25.996 9.6457L17.8505 1.50019C17.0999 0.749533 15.8489 0.749533 15.0982 1.50019C14.3476 2.25085 14.3476 3.50182 15.0982 4.25248L19.9078 9.08964L2.11561 9.08964C1.0314 9.08964 0.169638 9.9514 0.169638 11.0356C0.169638 12.1198 1.0314 12.9816 2.11561 12.9816L19.9078 12.9816L15.0984 17.791C14.3478 18.5417 14.3478 19.7926 15.0984 20.5433C15.4876 20.9325 15.9881 21.1272 16.4884 21.1272C16.9888 21.1272 17.4893 20.9325 17.8785 20.5433L25.9962 12.4256C26.3576 12.0641 26.5801 11.5638 26.5801 11.0356C26.5801 10.5073 26.3854 10.007 25.9962 9.64555L25.996 9.6457Z"
        fill="white" />
</svg>