<svg width="302" height="84" viewBox="0 0 302 84" fill="none" xmlns="http://www.w3.org/2000/svg">
    <path
        d="M4.914 8.806C5.41667 8.11267 6.10133 7.54933 6.968 7.116C7.852 6.66533 8.83133 6.44 9.906 6.44C11.1713 6.44 12.3153 6.74333 13.338 7.35C14.3607 7.95667 15.1667 8.82333 15.756 9.95C16.3453 11.0593 16.64 12.3333 16.64 13.772C16.64 15.2107 16.3453 16.502 15.756 17.646C15.1667 18.7727 14.352 19.6567 13.312 20.298C12.2893 20.922 11.154 21.234 9.906 21.234C8.79667 21.234 7.80867 21.0173 6.942 20.584C6.09267 20.1507 5.41667 19.596 4.914 18.92V21H1.95V1.76H4.914V8.806ZM13.624 13.772C13.624 12.784 13.416 11.9347 13 11.224C12.6013 10.496 12.064 9.95 11.388 9.586C10.7293 9.20467 10.0187 9.014 9.256 9.014C8.51067 9.014 7.8 9.20467 7.124 9.586C6.46533 9.96733 5.928 10.522 5.512 11.25C5.11333 11.978 4.914 12.836 4.914 13.824C4.914 14.812 5.11333 15.6787 5.512 16.424C5.928 17.152 6.46533 17.7067 7.124 18.088C7.8 18.4693 8.51067 18.66 9.256 18.66C10.0187 18.66 10.7293 18.4693 11.388 18.088C12.064 17.6893 12.6013 17.1173 13 16.372C13.416 15.6267 13.624 14.76 13.624 13.772ZM32.7011 13.486C32.7011 14.0233 32.6664 14.5087 32.5971 14.942H21.6511C21.7378 16.086 22.1624 17.0047 22.9251 17.698C23.6878 18.3913 24.6238 18.738 25.7331 18.738C27.3278 18.738 28.4544 18.0707 29.1131 16.736H32.3111C31.8778 18.0533 31.0891 19.1367 29.9451 19.986C28.8184 20.818 27.4144 21.234 25.7331 21.234C24.3638 21.234 23.1331 20.9307 22.0411 20.324C20.9664 19.7 20.1171 18.8333 19.4931 17.724C18.8864 16.5973 18.5831 15.2973 18.5831 13.824C18.5831 12.3507 18.8778 11.0593 19.4671 9.95C20.0738 8.82333 20.9144 7.95667 21.9891 7.35C23.0811 6.74333 24.3291 6.44 25.7331 6.44C27.0851 6.44 28.2898 6.73467 29.3471 7.324C30.4044 7.91333 31.2278 8.74533 31.8171 9.82C32.4064 10.8773 32.7011 12.0993 32.7011 13.486ZM29.6071 12.55C29.5898 11.458 29.1998 10.5827 28.4371 9.924C27.6744 9.26533 26.7298 8.936 25.6031 8.936C24.5804 8.936 23.7051 9.26533 22.9771 9.924C22.2491 10.5653 21.8158 11.4407 21.6771 12.55H29.6071ZM0.962 44.772C0.962 43.3333 1.25667 42.0593 1.846 40.95C2.45267 39.8407 3.26733 38.9827 4.29 38.376C5.33 37.752 6.474 37.44 7.722 37.44C8.84867 37.44 9.828 37.6653 10.66 38.116C11.5093 38.5493 12.1853 39.0953 12.688 39.754V37.674H15.678V52H12.688V49.868C12.1853 50.544 11.5007 51.1073 10.634 51.558C9.76733 52.0087 8.77933 52.234 7.67 52.234C6.43933 52.234 5.31267 51.922 4.29 51.298C3.26733 50.6567 2.45267 49.7727 1.846 48.646C1.25667 47.502 0.962 46.2107 0.962 44.772ZM12.688 44.824C12.688 43.836 12.48 42.978 12.064 42.25C11.6653 41.522 11.1367 40.9673 10.478 40.586C9.81933 40.2047 9.10867 40.014 8.346 40.014C7.58333 40.014 6.87267 40.2047 6.214 40.586C5.55533 40.95 5.018 41.496 4.602 42.224C4.20333 42.9347 4.004 43.784 4.004 44.772C4.004 45.76 4.20333 46.6267 4.602 47.372C5.018 48.1173 5.55533 48.6893 6.214 49.088C6.89 49.4693 7.60067 49.66 8.346 49.66C9.10867 49.66 9.81933 49.4693 10.478 49.088C11.1367 48.7067 11.6653 48.152 12.064 47.424C12.48 46.6787 12.688 45.812 12.688 44.824ZM22.5351 39.806C23.0378 39.1127 23.7224 38.5493 24.5891 38.116C25.4731 37.6653 26.4524 37.44 27.5271 37.44C28.7924 37.44 29.9364 37.7433 30.9591 38.35C31.9818 38.9567 32.7878 39.8233 33.3771 40.95C33.9664 42.0593 34.2611 43.3333 34.2611 44.772C34.2611 46.2107 33.9664 47.502 33.3771 48.646C32.7878 49.7727 31.9731 50.6567 30.9331 51.298C29.9104 51.922 28.7751 52.234 27.5271 52.234C26.4178 52.234 25.4298 52.0173 24.5631 51.584C23.7138 51.1507 23.0378 50.596 22.5351 49.92V52H19.5711V32.76H22.5351V39.806ZM31.2451 44.772C31.2451 43.784 31.0371 42.9347 30.6211 42.224C30.2224 41.496 29.6851 40.95 29.0091 40.586C28.3504 40.2047 27.6398 40.014 26.8771 40.014C26.1318 40.014 25.4211 40.2047 24.7451 40.586C24.0864 40.9673 23.5491 41.522 23.1331 42.25C22.7344 42.978 22.5351 43.836 22.5351 44.824C22.5351 45.812 22.7344 46.6787 23.1331 47.424C23.5491 48.152 24.0864 48.7067 24.7451 49.088C25.4211 49.4693 26.1318 49.66 26.8771 49.66C27.6398 49.66 28.3504 49.4693 29.0091 49.088C29.6851 48.6893 30.2224 48.1173 30.6211 47.372C31.0371 46.6267 31.2451 45.76 31.2451 44.772ZM43.4062 52.234C42.0542 52.234 40.8322 51.9307 39.7402 51.324C38.6482 50.7 37.7902 49.8333 37.1662 48.724C36.5422 47.5973 36.2302 46.2973 36.2302 44.824C36.2302 43.368 36.5509 42.0767 37.1922 40.95C37.8335 39.8233 38.7089 38.9567 39.8182 38.35C40.9275 37.7433 42.1669 37.44 43.5362 37.44C44.9055 37.44 46.1449 37.7433 47.2542 38.35C48.3635 38.9567 49.2389 39.8233 49.8802 40.95C50.5215 42.0767 50.8422 43.368 50.8422 44.824C50.8422 46.28 50.5129 47.5713 49.8542 48.698C49.1955 49.8247 48.2942 50.7 47.1502 51.324C46.0235 51.9307 44.7755 52.234 43.4062 52.234ZM43.4062 49.66C44.1689 49.66 44.8795 49.478 45.5382 49.114C46.2142 48.75 46.7602 48.204 47.1762 47.476C47.5922 46.748 47.8002 45.864 47.8002 44.824C47.8002 43.784 47.6009 42.9087 47.2022 42.198C46.8035 41.47 46.2749 40.924 45.6162 40.56C44.9575 40.196 44.2469 40.014 43.4842 40.014C42.7215 40.014 42.0109 40.196 41.3522 40.56C40.7109 40.924 40.1995 41.47 39.8182 42.198C39.4369 42.9087 39.2462 43.784 39.2462 44.824C39.2462 46.3667 39.6362 47.5627 40.4162 48.412C41.2135 49.244 42.2102 49.66 43.4062 49.66ZM66.7463 37.674V52H63.7823V50.31C63.3143 50.8993 62.6989 51.3673 61.9363 51.714C61.1909 52.0433 60.3936 52.208 59.5443 52.208C58.4176 52.208 57.4036 51.974 56.5023 51.506C55.6183 51.038 54.9163 50.3447 54.3963 49.426C53.8936 48.5073 53.6423 47.398 53.6423 46.098V37.674H56.5803V45.656C56.5803 46.9387 56.9009 47.9267 57.5423 48.62C58.1836 49.296 59.0589 49.634 60.1683 49.634C61.2776 49.634 62.1529 49.296 62.7943 48.62C63.4529 47.9267 63.7823 46.9387 63.7823 45.656V37.674H66.7463ZM74.115 40.092V48.022C74.115 48.5593 74.2364 48.9493 74.479 49.192C74.739 49.4173 75.1724 49.53 75.779 49.53H77.599V52H75.259C73.9244 52 72.9017 51.688 72.191 51.064C71.4804 50.44 71.125 49.426 71.125 48.022V40.092H69.435V37.674H71.125V34.112H74.115V37.674H77.599V40.092H74.115ZM104.427 37.44C105.553 37.44 106.559 37.674 107.443 38.142C108.344 38.61 109.046 39.3033 109.549 40.222C110.069 41.1407 110.329 42.25 110.329 43.55V52H107.391V43.992C107.391 42.7093 107.07 41.73 106.429 41.054C105.787 40.3607 104.912 40.014 103.803 40.014C102.693 40.014 101.809 40.3607 101.151 41.054C100.509 41.73 100.189 42.7093 100.189 43.992V52H97.2508V43.992C97.2508 42.7093 96.9301 41.73 96.2888 41.054C95.6474 40.3607 94.7721 40.014 93.6628 40.014C92.5534 40.014 91.6694 40.3607 91.0108 41.054C90.3694 41.73 90.0488 42.7093 90.0488 43.992V52H87.0848V37.674H90.0488V39.312C90.5341 38.7227 91.1494 38.2633 91.8948 37.934C92.6401 37.6047 93.4374 37.44 94.2868 37.44C95.4308 37.44 96.4534 37.6827 97.3548 38.168C98.2561 38.6533 98.9494 39.3553 99.4348 40.274C99.8681 39.4073 100.544 38.7227 101.463 38.22C102.381 37.7 103.369 37.44 104.427 37.44ZM113.112 44.772C113.112 43.3333 113.407 42.0593 113.996 40.95C114.603 39.8407 115.418 38.9827 116.44 38.376C117.48 37.752 118.624 37.44 119.872 37.44C120.999 37.44 121.978 37.6653 122.81 38.116C123.66 38.5493 124.336 39.0953 124.838 39.754V37.674H127.828V52H124.838V49.868C124.336 50.544 123.651 51.1073 122.784 51.558C121.918 52.0087 120.93 52.234 119.82 52.234C118.59 52.234 117.463 51.922 116.44 51.298C115.418 50.6567 114.603 49.7727 113.996 48.646C113.407 47.502 113.112 46.2107 113.112 44.772ZM124.838 44.824C124.838 43.836 124.63 42.978 124.214 42.25C123.816 41.522 123.287 40.9673 122.628 40.586C121.97 40.2047 121.259 40.014 120.496 40.014C119.734 40.014 119.023 40.2047 118.364 40.586C117.706 40.95 117.168 41.496 116.752 42.224C116.354 42.9347 116.154 43.784 116.154 44.772C116.154 45.76 116.354 46.6267 116.752 47.372C117.168 48.1173 117.706 48.6893 118.364 49.088C119.04 49.4693 119.751 49.66 120.496 49.66C121.259 49.66 121.97 49.4693 122.628 49.088C123.287 48.7067 123.816 48.152 124.214 47.424C124.63 46.6787 124.838 45.812 124.838 44.824ZM134.685 39.754C135.119 39.026 135.691 38.4627 136.401 38.064C137.129 37.648 137.987 37.44 138.975 37.44V40.508H138.221C137.06 40.508 136.176 40.8027 135.569 41.392C134.98 41.9813 134.685 43.004 134.685 44.46V52H131.721V37.674H134.685V39.754ZM147.368 44.85L153.972 52H149.968L144.664 45.838V52H141.7V32.76H144.664V43.94L149.864 37.674H153.972L147.368 44.85ZM169.226 44.486C169.226 45.0233 169.192 45.5087 169.122 45.942H158.176C158.263 47.086 158.688 48.0047 159.45 48.698C160.213 49.3913 161.149 49.738 162.258 49.738C163.853 49.738 164.98 49.0707 165.638 47.736H168.836C168.403 49.0533 167.614 50.1367 166.47 50.986C165.344 51.818 163.94 52.234 162.258 52.234C160.889 52.234 159.658 51.9307 158.566 51.324C157.492 50.7 156.642 49.8333 156.018 48.724C155.412 47.5973 155.108 46.2973 155.108 44.824C155.108 43.3507 155.403 42.0593 155.992 40.95C156.599 39.8233 157.44 38.9567 158.514 38.35C159.606 37.7433 160.854 37.44 162.258 37.44C163.61 37.44 164.815 37.7347 165.872 38.324C166.93 38.9133 167.753 39.7453 168.342 40.82C168.932 41.8773 169.226 43.0993 169.226 44.486ZM166.132 43.55C166.115 42.458 165.725 41.5827 164.962 40.924C164.2 40.2653 163.255 39.936 162.128 39.936C161.106 39.936 160.23 40.2653 159.502 40.924C158.774 41.5653 158.341 42.4407 158.202 43.55H166.132ZM175.601 40.092V48.022C175.601 48.5593 175.723 48.9493 175.965 49.192C176.225 49.4173 176.659 49.53 177.265 49.53H179.085V52H176.745C175.411 52 174.388 51.688 173.677 51.064C172.967 50.44 172.611 49.426 172.611 48.022V40.092H170.921V37.674H172.611V34.112H175.601V37.674H179.085V40.092H175.601ZM187.017 52.234C185.891 52.234 184.877 52.0347 183.975 51.636C183.091 51.22 182.389 50.6653 181.869 49.972C181.349 49.2613 181.072 48.4727 181.037 47.606H184.105C184.157 48.2127 184.443 48.724 184.963 49.14C185.501 49.5387 186.168 49.738 186.965 49.738C187.797 49.738 188.439 49.582 188.889 49.27C189.357 48.9407 189.591 48.5247 189.591 48.022C189.591 47.4847 189.331 47.086 188.811 46.826C188.309 46.566 187.503 46.28 186.393 45.968C185.319 45.6733 184.443 45.3873 183.767 45.11C183.091 44.8327 182.502 44.408 181.999 43.836C181.514 43.264 181.271 42.51 181.271 41.574C181.271 40.8113 181.497 40.118 181.947 39.494C182.398 38.8527 183.039 38.35 183.871 37.986C184.721 37.622 185.691 37.44 186.783 37.44C188.413 37.44 189.721 37.856 190.709 38.688C191.715 39.5027 192.252 40.6207 192.321 42.042H189.357C189.305 41.4007 189.045 40.8893 188.577 40.508C188.109 40.1267 187.477 39.936 186.679 39.936C185.899 39.936 185.301 40.0833 184.885 40.378C184.469 40.6727 184.261 41.0627 184.261 41.548C184.261 41.9293 184.4 42.25 184.677 42.51C184.955 42.77 185.293 42.978 185.691 43.134C186.09 43.2727 186.679 43.4547 187.459 43.68C188.499 43.9573 189.349 44.2433 190.007 44.538C190.683 44.8153 191.264 45.2313 191.749 45.786C192.235 46.3407 192.486 47.0773 192.503 47.996C192.503 48.8107 192.278 49.5387 191.827 50.18C191.377 50.8213 190.735 51.324 189.903 51.688C189.089 52.052 188.127 52.234 187.017 52.234ZM198.956 48.438L195.81 55.614H193.886L195.732 48.438H198.956ZM215.528 37.44C216.654 37.44 217.66 37.674 218.544 38.142C219.445 38.61 220.147 39.3033 220.65 40.222C221.152 41.1407 221.404 42.25 221.404 43.55V52H218.466V43.992C218.466 42.7093 218.145 41.73 217.504 41.054C216.862 40.3607 215.987 40.014 214.878 40.014C213.768 40.014 212.884 40.3607 212.226 41.054C211.584 41.73 211.264 42.7093 211.264 43.992V52H208.3V37.674H211.264V39.312C211.749 38.7227 212.364 38.2633 213.11 37.934C213.872 37.6047 214.678 37.44 215.528 37.44ZM238.314 44.486C238.314 45.0233 238.28 45.5087 238.21 45.942H227.264C227.351 47.086 227.776 48.0047 228.538 48.698C229.301 49.3913 230.237 49.738 231.346 49.738C232.941 49.738 234.068 49.0707 234.726 47.736H237.924C237.491 49.0533 236.702 50.1367 235.558 50.986C234.432 51.818 233.028 52.234 231.346 52.234C229.977 52.234 228.746 51.9307 227.654 51.324C226.58 50.7 225.73 49.8333 225.106 48.724C224.5 47.5973 224.196 46.2973 224.196 44.824C224.196 43.3507 224.491 42.0593 225.08 40.95C225.687 39.8233 226.528 38.9567 227.602 38.35C228.694 37.7433 229.942 37.44 231.346 37.44C232.698 37.44 233.903 37.7347 234.96 38.324C236.018 38.9133 236.841 39.7453 237.43 40.82C238.02 41.8773 238.314 43.0993 238.314 44.486ZM235.22 43.55C235.203 42.458 234.813 41.5827 234.05 40.924C233.288 40.2653 232.343 39.936 231.216 39.936C230.194 39.936 229.318 40.2653 228.59 40.924C227.862 41.5653 227.429 42.4407 227.29 43.55H235.22ZM260.471 37.674L256.025 52H252.905L250.019 41.418L247.133 52H244.013L239.541 37.674H242.557L245.547 49.192L248.589 37.674H251.683L254.595 49.14L257.559 37.674H260.471ZM267.886 52.234C266.76 52.234 265.746 52.0347 264.844 51.636C263.96 51.22 263.258 50.6653 262.738 49.972C262.218 49.2613 261.941 48.4727 261.906 47.606H264.974C265.026 48.2127 265.312 48.724 265.832 49.14C266.37 49.5387 267.037 49.738 267.834 49.738C268.666 49.738 269.308 49.582 269.758 49.27C270.226 48.9407 270.46 48.5247 270.46 48.022C270.46 47.4847 270.2 47.086 269.68 46.826C269.178 46.566 268.372 46.28 267.262 45.968C266.188 45.6733 265.312 45.3873 264.636 45.11C263.96 44.8327 263.371 44.408 262.868 43.836C262.383 43.264 262.14 42.51 262.14 41.574C262.14 40.8113 262.366 40.118 262.816 39.494C263.267 38.8527 263.908 38.35 264.74 37.986C265.59 37.622 266.56 37.44 267.652 37.44C269.282 37.44 270.59 37.856 271.578 38.688C272.584 39.5027 273.121 40.6207 273.19 42.042H270.226C270.174 41.4007 269.914 40.8893 269.446 40.508C268.978 40.1267 268.346 39.936 267.548 39.936C266.768 39.936 266.17 40.0833 265.754 40.378C265.338 40.6727 265.13 41.0627 265.13 41.548C265.13 41.9293 265.269 42.25 265.546 42.51C265.824 42.77 266.162 42.978 266.56 43.134C266.959 43.2727 267.548 43.4547 268.328 43.68C269.368 43.9573 270.218 44.2433 270.876 44.538C271.552 44.8153 272.133 45.2313 272.618 45.786C273.104 46.3407 273.355 47.0773 273.372 47.996C273.372 48.8107 273.147 49.5387 272.696 50.18C272.246 50.8213 271.604 51.324 270.772 51.688C269.958 52.052 268.996 52.234 267.886 52.234ZM297.291 52L295.055 49.764C294.188 50.6307 293.244 51.2807 292.221 51.714C291.198 52.13 290.054 52.338 288.789 52.338C287.506 52.338 286.371 52.1127 285.383 51.662C284.395 51.2113 283.632 50.57 283.095 49.738C282.558 48.8887 282.289 47.9093 282.289 46.8C282.289 45.552 282.644 44.4427 283.355 43.472C284.066 42.484 285.123 41.704 286.527 41.132C286.024 40.5253 285.669 39.962 285.461 39.442C285.253 38.9047 285.149 38.3153 285.149 37.674C285.149 36.8767 285.348 36.166 285.747 35.542C286.163 34.918 286.752 34.424 287.515 34.06C288.278 33.696 289.162 33.514 290.167 33.514C291.19 33.514 292.056 33.7133 292.767 34.112C293.495 34.4933 294.032 35.022 294.379 35.698C294.743 36.374 294.89 37.128 294.821 37.96H291.857C291.874 37.3187 291.718 36.8247 291.389 36.478C291.06 36.114 290.609 35.932 290.037 35.932C289.465 35.932 288.997 36.1053 288.633 36.452C288.286 36.7813 288.113 37.1887 288.113 37.674C288.113 38.142 288.243 38.61 288.503 39.078C288.78 39.5287 289.257 40.118 289.933 40.846L294.717 45.604L296.563 42.562H299.761L297.421 46.566L296.771 47.632L301.165 52H297.291ZM288.789 49.816C290.418 49.816 291.857 49.1487 293.105 47.814L288.321 43.004C286.276 43.8187 285.253 45.0493 285.253 46.696C285.253 47.58 285.582 48.3253 286.241 48.932C286.9 49.5213 287.749 49.816 288.789 49.816ZM15.08 75.486C15.08 76.0233 15.0453 76.5087 14.976 76.942H4.03C4.11667 78.086 4.54133 79.0047 5.304 79.698C6.06667 80.3913 7.00267 80.738 8.112 80.738C9.70667 80.738 10.8333 80.0707 11.492 78.736H14.69C14.2567 80.0533 13.468 81.1367 12.324 81.986C11.1973 82.818 9.79333 83.234 8.112 83.234C6.74267 83.234 5.512 82.9307 4.42 82.324C3.34533 81.7 2.496 80.8333 1.872 79.724C1.26533 78.5973 0.962 77.2973 0.962 75.824C0.962 74.3507 1.25667 73.0593 1.846 71.95C2.45267 70.8233 3.29333 69.9567 4.368 69.35C5.46 68.7433 6.708 68.44 8.112 68.44C9.464 68.44 10.6687 68.7347 11.726 69.324C12.7833 69.9133 13.6067 70.7453 14.196 71.82C14.7853 72.8773 15.08 74.0993 15.08 75.486ZM11.986 74.55C11.9687 73.458 11.5787 72.5827 10.816 71.924C10.0533 71.2653 9.10867 70.936 7.982 70.936C6.95933 70.936 6.084 71.2653 5.356 71.924C4.628 72.5653 4.19467 73.4407 4.056 74.55H11.986ZM23.5349 80.348L27.5909 68.674H30.7369L25.2769 83H21.7409L16.3069 68.674H19.4789L23.5349 80.348ZM46.1073 75.486C46.1073 76.0233 46.0727 76.5087 46.0033 76.942H35.0573C35.144 78.086 35.5687 79.0047 36.3313 79.698C37.094 80.3913 38.03 80.738 39.1393 80.738C40.734 80.738 41.8607 80.0707 42.5193 78.736H45.7173C45.284 80.0533 44.4953 81.1367 43.3513 81.986C42.2247 82.818 40.8207 83.234 39.1393 83.234C37.77 83.234 36.5393 82.9307 35.4473 82.324C34.3727 81.7 33.5233 80.8333 32.8993 79.724C32.2927 78.5973 31.9893 77.2973 31.9893 75.824C31.9893 74.3507 32.284 73.0593 32.8733 71.95C33.48 70.8233 34.3207 69.9567 35.3953 69.35C36.4873 68.7433 37.7353 68.44 39.1393 68.44C40.4913 68.44 41.696 68.7347 42.7533 69.324C43.8107 69.9133 44.634 70.7453 45.2233 71.82C45.8127 72.8773 46.1073 74.0993 46.1073 75.486ZM43.0133 74.55C42.996 73.458 42.606 72.5827 41.8433 71.924C41.0807 71.2653 40.136 70.936 39.0093 70.936C37.9867 70.936 37.1113 71.2653 36.3833 71.924C35.6553 72.5653 35.222 73.4407 35.0833 74.55H43.0133ZM56.2522 68.44C57.3789 68.44 58.3842 68.674 59.2682 69.142C60.1696 69.61 60.8716 70.3033 61.3742 71.222C61.8769 72.1407 62.1282 73.25 62.1282 74.55V83H59.1902V74.992C59.1902 73.7093 58.8696 72.73 58.2282 72.054C57.5869 71.3607 56.7116 71.014 55.6022 71.014C54.4929 71.014 53.6089 71.3607 52.9502 72.054C52.3089 72.73 51.9882 73.7093 51.9882 74.992V83H49.0242V68.674H51.9882V70.312C52.4736 69.7227 53.0889 69.2633 53.8342 68.934C54.5969 68.6047 55.4029 68.44 56.2522 68.44ZM69.367 71.092V79.022C69.367 79.5593 69.4883 79.9493 69.731 80.192C69.991 80.4173 70.4243 80.53 71.031 80.53H72.851V83H70.511C69.1763 83 68.1537 82.688 67.443 82.064C66.7323 81.44 66.377 80.426 66.377 79.022V71.092H64.687V68.674H66.377V65.112H69.367V68.674H72.851V71.092H69.367ZM80.7828 83.234C79.6561 83.234 78.6421 83.0347 77.7408 82.636C76.8568 82.22 76.1548 81.6653 75.6348 80.972C75.1148 80.2613 74.8375 79.4727 74.8028 78.606H77.8708C77.9228 79.2127 78.2088 79.724 78.7288 80.14C79.2661 80.5387 79.9335 80.738 80.7308 80.738C81.5628 80.738 82.2041 80.582 82.6548 80.27C83.1228 79.9407 83.3568 79.5247 83.3568 79.022C83.3568 78.4847 83.0968 78.086 82.5768 77.826C82.0741 77.566 81.2681 77.28 80.1588 76.968C79.0841 76.6733 78.2088 76.3873 77.5328 76.11C76.8568 75.8327 76.2675 75.408 75.7648 74.836C75.2795 74.264 75.0368 73.51 75.0368 72.574C75.0368 71.8113 75.2621 71.118 75.7128 70.494C76.1635 69.8527 76.8048 69.35 77.6368 68.986C78.4861 68.622 79.4568 68.44 80.5488 68.44C82.1781 68.44 83.4868 68.856 84.4748 69.688C85.4801 70.5027 86.0175 71.6207 86.0868 73.042H83.1228C83.0708 72.4007 82.8108 71.8893 82.3428 71.508C81.8748 71.1267 81.2421 70.936 80.4448 70.936C79.6648 70.936 79.0668 71.0833 78.6508 71.378C78.2348 71.6727 78.0268 72.0627 78.0268 72.548C78.0268 72.9293 78.1655 73.25 78.4428 73.51C78.7201 73.77 79.0581 73.978 79.4568 74.134C79.8555 74.2727 80.4448 74.4547 81.2248 74.68C82.2648 74.9573 83.1141 75.2433 83.7728 75.538C84.4488 75.8153 85.0295 76.2313 85.5148 76.786C86.0001 77.3407 86.2515 78.0773 86.2688 78.996C86.2688 79.8107 86.0435 80.5387 85.5928 81.18C85.1421 81.8213 84.5008 82.324 83.6688 82.688C82.8541 83.052 81.8921 83.234 80.7828 83.234Z"
        fill="white" />
    <path
        d="M43.8799 4.776C43.3425 4.776 42.8919 4.594 42.5279 4.23C42.1639 3.866 41.9819 3.41533 41.9819 2.878C41.9819 2.34067 42.1639 1.89 42.5279 1.526C42.8919 1.162 43.3425 0.979999 43.8799 0.979999C44.3999 0.979999 44.8419 1.162 45.2059 1.526C45.5699 1.89 45.7519 2.34067 45.7519 2.878C45.7519 3.41533 45.5699 3.866 45.2059 4.23C44.8419 4.594 44.3999 4.776 43.8799 4.776ZM45.3359 6.674V21H42.3719V6.674H45.3359ZM56.4553 6.44C57.582 6.44 58.5873 6.674 59.4713 7.142C60.3727 7.61 61.0747 8.30333 61.5773 9.222C62.08 10.1407 62.3313 11.25 62.3313 12.55V21H59.3933V12.992C59.3933 11.7093 59.0727 10.73 58.4313 10.054C57.79 9.36067 56.9147 9.014 55.8053 9.014C54.696 9.014 53.812 9.36067 53.1533 10.054C52.512 10.73 52.1913 11.7093 52.1913 12.992V21H49.2273V6.674H52.1913V8.312C52.6767 7.72267 53.292 7.26333 54.0373 6.934C54.8 6.60467 55.606 6.44 56.4553 6.44ZM72.1181 9.092H69.4661V21H66.4761V9.092H64.7861V6.674H66.4761V5.66C66.4761 4.01333 66.9094 2.81733 67.7761 2.072C68.6601 1.30933 70.0381 0.928 71.9101 0.928V3.398C71.0088 3.398 70.3761 3.57133 70.0121 3.918C69.6481 4.24733 69.4661 4.828 69.4661 5.66V6.674H72.1181V9.092ZM80.9589 21.234C79.6069 21.234 78.3849 20.9307 77.2929 20.324C76.2009 19.7 75.3429 18.8333 74.7189 17.724C74.0949 16.5973 73.7829 15.2973 73.7829 13.824C73.7829 12.368 74.1036 11.0767 74.7449 9.95C75.3863 8.82333 76.2616 7.95667 77.3709 7.35C78.4803 6.74333 79.7196 6.44 81.0889 6.44C82.4583 6.44 83.6976 6.74333 84.8069 7.35C85.9163 7.95667 86.7916 8.82333 87.4329 9.95C88.0743 11.0767 88.3949 12.368 88.3949 13.824C88.3949 15.28 88.0656 16.5713 87.4069 17.698C86.7483 18.8247 85.8469 19.7 84.7029 20.324C83.5763 20.9307 82.3283 21.234 80.9589 21.234ZM80.9589 18.66C81.7216 18.66 82.4323 18.478 83.0909 18.114C83.7669 17.75 84.3129 17.204 84.7289 16.476C85.1449 15.748 85.3529 14.864 85.3529 13.824C85.3529 12.784 85.1536 11.9087 84.7549 11.198C84.3563 10.47 83.8276 9.924 83.1689 9.56C82.5103 9.196 81.7996 9.014 81.0369 9.014C80.2743 9.014 79.5636 9.196 78.9049 9.56C78.2636 9.924 77.7523 10.47 77.3709 11.198C76.9896 11.9087 76.7989 12.784 76.7989 13.824C76.7989 15.3667 77.1889 16.5627 77.9689 17.412C78.7663 18.244 79.7629 18.66 80.9589 18.66ZM94.289 8.754C94.7223 8.026 95.2943 7.46267 96.005 7.064C96.733 6.648 97.591 6.44 98.579 6.44V9.508H97.825C96.6637 9.508 95.7797 9.80267 95.173 10.392C94.5837 10.9813 94.289 12.004 94.289 13.46V21H91.325V6.674H94.289V8.754ZM118.646 6.44C119.772 6.44 120.778 6.674 121.662 7.142C122.563 7.61 123.265 8.30333 123.768 9.222C124.288 10.1407 124.548 11.25 124.548 12.55V21H121.61V12.992C121.61 11.7093 121.289 10.73 120.648 10.054C120.006 9.36067 119.131 9.014 118.022 9.014C116.912 9.014 116.028 9.36067 115.37 10.054C114.728 10.73 114.408 11.7093 114.408 12.992V21H111.47V12.992C111.47 11.7093 111.149 10.73 110.508 10.054C109.866 9.36067 108.991 9.014 107.882 9.014C106.772 9.014 105.888 9.36067 105.23 10.054C104.588 10.73 104.268 11.7093 104.268 12.992V21H101.304V6.674H104.268V8.312C104.753 7.72267 105.368 7.26333 106.114 6.934C106.859 6.60467 107.656 6.44 108.506 6.44C109.65 6.44 110.672 6.68267 111.574 7.168C112.475 7.65333 113.168 8.35533 113.654 9.274C114.087 8.40733 114.763 7.72267 115.682 7.22C116.6 6.7 117.588 6.44 118.646 6.44ZM141.449 13.486C141.449 14.0233 141.414 14.5087 141.345 14.942H130.399C130.486 16.086 130.91 17.0047 131.673 17.698C132.436 18.3913 133.372 18.738 134.481 18.738C136.076 18.738 137.202 18.0707 137.861 16.736H141.059C140.626 18.0533 139.837 19.1367 138.693 19.986C137.566 20.818 136.162 21.234 134.481 21.234C133.112 21.234 131.881 20.9307 130.789 20.324C129.714 19.7 128.865 18.8333 128.241 17.724C127.634 16.5973 127.331 15.2973 127.331 13.824C127.331 12.3507 127.626 11.0593 128.215 9.95C128.822 8.82333 129.662 7.95667 130.737 7.35C131.829 6.74333 133.077 6.44 134.481 6.44C135.833 6.44 137.038 6.73467 138.095 7.324C139.152 7.91333 139.976 8.74533 140.565 9.82C141.154 10.8773 141.449 12.0993 141.449 13.486ZM138.355 12.55C138.338 11.458 137.948 10.5827 137.185 9.924C136.422 9.26533 135.478 8.936 134.351 8.936C133.328 8.936 132.453 9.26533 131.725 9.924C130.997 10.5653 130.564 11.4407 130.425 12.55H138.355ZM143.378 13.772C143.378 12.3333 143.673 11.0593 144.262 9.95C144.869 8.84067 145.683 7.98267 146.706 7.376C147.746 6.752 148.899 6.44 150.164 6.44C151.1 6.44 152.019 6.648 152.92 7.064C153.839 7.46267 154.567 8 155.104 8.676V1.76H158.094V21H155.104V18.842C154.619 19.5353 153.943 20.1073 153.076 20.558C152.227 21.0087 151.247 21.234 150.138 21.234C148.89 21.234 147.746 20.922 146.706 20.298C145.683 19.6567 144.869 18.7727 144.262 17.646C143.673 16.502 143.378 15.2107 143.378 13.772ZM155.104 13.824C155.104 12.836 154.896 11.978 154.48 11.25C154.081 10.522 153.553 9.96733 152.894 9.586C152.235 9.20467 151.525 9.014 150.762 9.014C149.999 9.014 149.289 9.20467 148.63 9.586C147.971 9.95 147.434 10.496 147.018 11.224C146.619 11.9347 146.42 12.784 146.42 13.772C146.42 14.76 146.619 15.6267 147.018 16.372C147.434 17.1173 147.971 17.6893 148.63 18.088C149.306 18.4693 150.017 18.66 150.762 18.66C151.525 18.66 152.235 18.4693 152.894 18.088C153.553 17.7067 154.081 17.152 154.48 16.424C154.896 15.6787 155.104 14.812 155.104 13.824Z"
        fill="#F4C430" />
</svg>