<svg width="249" height="53" viewBox="0 0 249 53" fill="none" xmlns="http://www.w3.org/2000/svg">
<path d="M15.08 13.486C15.08 14.0233 15.0453 14.5087 14.976 14.942H4.03C4.11667 16.086 4.54133 17.0047 5.304 17.698C6.06667 18.3913 7.00267 18.738 8.112 18.738C9.70667 18.738 10.8333 18.0707 11.492 16.736H14.69C14.2567 18.0533 13.468 19.1367 12.324 19.986C11.1973 20.818 9.79333 21.234 8.112 21.234C6.74267 21.234 5.512 20.9307 4.42 20.324C3.34533 19.7 2.496 18.8333 1.872 17.724C1.26533 16.5973 0.962 15.2973 0.962 13.824C0.962 12.3507 1.25667 11.0593 1.846 9.95C2.45267 8.82333 3.29333 7.95667 4.368 7.35C5.46 6.74333 6.708 6.44 8.112 6.44C9.464 6.44 10.6687 6.73467 11.726 7.324C12.7833 7.91333 13.6067 8.74533 14.196 9.82C14.7853 10.8773 15.08 12.0993 15.08 13.486ZM11.986 12.55C11.9687 11.458 11.5787 10.5827 10.816 9.924C10.0533 9.26533 9.10867 8.936 7.982 8.936C6.95933 8.936 6.084 9.26533 5.356 9.924C4.628 10.5653 4.19467 11.4407 4.056 12.55H11.986ZM25.2249 6.44C26.3515 6.44 27.3569 6.674 28.2409 7.142C29.1422 7.61 29.8442 8.30333 30.3469 9.222C30.8495 10.1407 31.1009 11.25 31.1009 12.55V21H28.1629V12.992C28.1629 11.7093 27.8422 10.73 27.2009 10.054C26.5595 9.36067 25.6842 9.014 24.5749 9.014C23.4655 9.014 22.5815 9.36067 21.9229 10.054C21.2815 10.73 20.9609 11.7093 20.9609 12.992V21H17.9969V6.674H20.9609V8.312C21.4462 7.72267 22.0615 7.26333 22.8069 6.934C23.5695 6.60467 24.3755 6.44 25.2249 6.44ZM40.6536 6.44C41.763 6.44 42.7423 6.66533 43.5916 7.116C44.4583 7.54933 45.1343 8.09533 45.6196 8.754V6.674H48.6096V21.234C48.6096 22.5513 48.3323 23.7213 47.7776 24.744C47.223 25.784 46.417 26.5987 45.3596 27.188C44.3196 27.7773 43.0716 28.072 41.6156 28.072C39.6743 28.072 38.0623 27.6127 36.7796 26.694C35.497 25.7927 34.769 24.562 34.5956 23.002H37.5336C37.759 23.7473 38.2356 24.3453 38.9636 24.796C39.709 25.264 40.593 25.498 41.6156 25.498C42.8116 25.498 43.7736 25.134 44.5016 24.406C45.247 23.678 45.6196 22.6207 45.6196 21.234V18.842C45.117 19.518 44.4323 20.09 43.5656 20.558C42.7163 21.0087 41.7456 21.234 40.6536 21.234C39.4056 21.234 38.2616 20.922 37.2216 20.298C36.199 19.6567 35.3843 18.7727 34.7776 17.646C34.1883 16.502 33.8936 15.2107 33.8936 13.772C33.8936 12.3333 34.1883 11.0593 34.7776 9.95C35.3843 8.84067 36.199 7.98267 37.2216 7.376C38.2616 6.752 39.4056 6.44 40.6536 6.44ZM45.6196 13.824C45.6196 12.836 45.4116 11.978 44.9956 11.25C44.597 10.522 44.0683 9.96733 43.4096 9.586C42.751 9.20467 42.0403 9.014 41.2776 9.014C40.515 9.014 39.8043 9.20467 39.1456 9.586C38.487 9.95 37.9496 10.496 37.5336 11.224C37.135 11.9347 36.9356 12.784 36.9356 13.772C36.9356 14.76 37.135 15.6267 37.5336 16.372C37.9496 17.1173 38.487 17.6893 39.1456 18.088C39.8216 18.4693 40.5323 18.66 41.2776 18.66C42.0403 18.66 42.751 18.4693 43.4096 18.088C44.0683 17.7067 44.597 17.152 44.9956 16.424C45.4116 15.6787 45.6196 14.812 45.6196 13.824ZM51.5147 13.772C51.5147 12.3333 51.8094 11.0593 52.3987 9.95C53.0054 8.84067 53.8201 7.98267 54.8427 7.376C55.8827 6.752 57.0267 6.44 58.2747 6.44C59.4014 6.44 60.3807 6.66533 61.2127 7.116C62.0621 7.54933 62.7381 8.09533 63.2407 8.754V6.674H66.2307V21H63.2407V18.868C62.7381 19.544 62.0534 20.1073 61.1867 20.558C60.3201 21.0087 59.3321 21.234 58.2227 21.234C56.9921 21.234 55.8654 20.922 54.8427 20.298C53.8201 19.6567 53.0054 18.7727 52.3987 17.646C51.8094 16.502 51.5147 15.2107 51.5147 13.772ZM63.2407 13.824C63.2407 12.836 63.0327 11.978 62.6167 11.25C62.2181 10.522 61.6894 9.96733 61.0307 9.586C60.3721 9.20467 59.6614 9.014 58.8987 9.014C58.1361 9.014 57.4254 9.20467 56.7667 9.586C56.1081 9.95 55.5707 10.496 55.1547 11.224C54.7561 11.9347 54.5567 12.784 54.5567 13.772C54.5567 14.76 54.7561 15.6267 55.1547 16.372C55.5707 17.1173 56.1081 17.6893 56.7667 18.088C57.4427 18.4693 58.1534 18.66 58.8987 18.66C59.6614 18.66 60.3721 18.4693 61.0307 18.088C61.6894 17.7067 62.2181 17.152 62.6167 16.424C63.0327 15.6787 63.2407 14.812 63.2407 13.824ZM75.8958 6.44C77.0052 6.44 77.9845 6.66533 78.8338 7.116C79.7005 7.54933 80.3765 8.09533 80.8618 8.754V6.674H83.8518V21.234C83.8518 22.5513 83.5745 23.7213 83.0198 24.744C82.4652 25.784 81.6592 26.5987 80.6018 27.188C79.5618 27.7773 78.3138 28.072 76.8578 28.072C74.9165 28.072 73.3045 27.6127 72.0218 26.694C70.7392 25.7927 70.0112 24.562 69.8378 23.002H72.7758C73.0012 23.7473 73.4778 24.3453 74.2058 24.796C74.9512 25.264 75.8352 25.498 76.8578 25.498C78.0538 25.498 79.0158 25.134 79.7438 24.406C80.4892 23.678 80.8618 22.6207 80.8618 21.234V18.842C80.3592 19.518 79.6745 20.09 78.8078 20.558C77.9585 21.0087 76.9878 21.234 75.8958 21.234C74.6478 21.234 73.5038 20.922 72.4638 20.298C71.4412 19.6567 70.6265 18.7727 70.0198 17.646C69.4305 16.502 69.1358 15.2107 69.1358 13.772C69.1358 12.3333 69.4305 11.0593 70.0198 9.95C70.6265 8.84067 71.4412 7.98267 72.4638 7.376C73.5038 6.752 74.6478 6.44 75.8958 6.44ZM80.8618 13.824C80.8618 12.836 80.6538 11.978 80.2378 11.25C79.8392 10.522 79.3105 9.96733 78.6518 9.586C77.9932 9.20467 77.2825 9.014 76.5198 9.014C75.7572 9.014 75.0465 9.20467 74.3878 9.586C73.7292 9.95 73.1918 10.496 72.7758 11.224C72.3772 11.9347 72.1778 12.784 72.1778 13.772C72.1778 14.76 72.3772 15.6267 72.7758 16.372C73.1918 17.1173 73.7292 17.6893 74.3878 18.088C75.0638 18.4693 75.7745 18.66 76.5198 18.66C77.2825 18.66 77.9932 18.4693 78.6518 18.088C79.3105 17.7067 79.8392 17.152 80.2378 16.424C80.6538 15.6787 80.8618 14.812 80.8618 13.824ZM100.875 13.486C100.875 14.0233 100.84 14.5087 100.771 14.942H89.8249C89.9116 16.086 90.3363 17.0047 91.0989 17.698C91.8616 18.3913 92.7976 18.738 93.9069 18.738C95.5016 18.738 96.6283 18.0707 97.2869 16.736H100.485C100.052 18.0533 99.2629 19.1367 98.1189 19.986C96.9923 20.818 95.5883 21.234 93.9069 21.234C92.5376 21.234 91.3069 20.9307 90.2149 20.324C89.1403 19.7 88.2909 18.8333 87.6669 17.724C87.0603 16.5973 86.7569 15.2973 86.7569 13.824C86.7569 12.3507 87.0516 11.0593 87.6409 9.95C88.2476 8.82333 89.0883 7.95667 90.1629 7.35C91.2549 6.74333 92.5029 6.44 93.9069 6.44C95.2589 6.44 96.4636 6.73467 97.5209 7.324C98.5783 7.91333 99.4016 8.74533 99.9909 9.82C100.58 10.8773 100.875 12.0993 100.875 13.486ZM97.7809 12.55C97.7636 11.458 97.3736 10.5827 96.6109 9.924C95.8483 9.26533 94.9036 8.936 93.7769 8.936C92.7543 8.936 91.8789 9.26533 91.1509 9.924C90.4229 10.5653 89.9896 11.4407 89.8509 12.55H97.7809ZM129.786 6.674L125.34 21H122.22L119.334 10.418L116.448 21H113.328L108.856 6.674H111.872L114.862 18.192L117.904 6.674H120.998L123.91 18.14L126.874 6.674H129.786ZM133.509 4.776C132.971 4.776 132.521 4.594 132.157 4.23C131.793 3.866 131.611 3.41533 131.611 2.878C131.611 2.34067 131.793 1.89 132.157 1.526C132.521 1.162 132.971 0.979999 133.509 0.979999C134.029 0.979999 134.471 1.162 134.835 1.526C135.199 1.89 135.381 2.34067 135.381 2.878C135.381 3.41533 135.199 3.866 134.835 4.23C134.471 4.594 134.029 4.776 133.509 4.776ZM134.965 6.674V21H132.001V6.674H134.965ZM142.314 9.092V17.022C142.314 17.5593 142.436 17.9493 142.678 18.192C142.938 18.4173 143.372 18.53 143.978 18.53H145.798V21H143.458C142.124 21 141.101 20.688 140.39 20.064C139.68 19.44 139.324 18.426 139.324 17.022V9.092H137.634V6.674H139.324V3.112H142.314V6.674H145.798V9.092H142.314ZM155.94 6.44C157.032 6.44 158.003 6.674 158.852 7.142C159.719 7.61 160.395 8.30333 160.88 9.222C161.383 10.1407 161.634 11.25 161.634 12.55V21H158.696V12.992C158.696 11.7093 158.375 10.73 157.734 10.054C157.093 9.36067 156.217 9.014 155.108 9.014C153.999 9.014 153.115 9.36067 152.456 10.054C151.815 10.73 151.494 11.7093 151.494 12.992V21H148.53V1.76H151.494V8.338C151.997 7.73133 152.629 7.26333 153.392 6.934C154.172 6.60467 155.021 6.44 155.94 6.44ZM5.408 40.092V48.022C5.408 48.5593 5.52933 48.9493 5.772 49.192C6.032 49.4173 6.46533 49.53 7.072 49.53H8.892V52H6.552C5.21733 52 4.19467 51.688 3.484 51.064C2.77333 50.44 2.418 49.426 2.418 48.022V40.092H0.728V37.674H2.418V34.112H5.408V37.674H8.892V40.092H5.408ZM19.0338 37.44C20.1258 37.44 21.0965 37.674 21.9458 38.142C22.8125 38.61 23.4885 39.3033 23.9738 40.222C24.4765 41.1407 24.7278 42.25 24.7278 43.55V52H21.7898V43.992C21.7898 42.7093 21.4692 41.73 20.8278 41.054C20.1865 40.3607 19.3112 40.014 18.2018 40.014C17.0925 40.014 16.2085 40.3607 15.5498 41.054C14.9085 41.73 14.5878 42.7093 14.5878 43.992V52H11.6238V32.76H14.5878V39.338C15.0905 38.7313 15.7232 38.2633 16.4858 37.934C17.2658 37.6047 18.1152 37.44 19.0338 37.44ZM41.6386 44.486C41.6386 45.0233 41.6039 45.5087 41.5346 45.942H30.5886C30.6753 47.086 31.0999 48.0047 31.8626 48.698C32.6253 49.3913 33.5613 49.738 34.6706 49.738C36.2653 49.738 37.3919 49.0707 38.0506 47.736H41.2486C40.8153 49.0533 40.0266 50.1367 38.8826 50.986C37.7559 51.818 36.3519 52.234 34.6706 52.234C33.3013 52.234 32.0706 51.9307 30.9786 51.324C29.9039 50.7 29.0546 49.8333 28.4306 48.724C27.8239 47.5973 27.5206 46.2973 27.5206 44.824C27.5206 43.3507 27.8153 42.0593 28.4046 40.95C29.0113 39.8233 29.8519 38.9567 30.9266 38.35C32.0186 37.7433 33.2666 37.44 34.6706 37.44C36.0226 37.44 37.2273 37.7347 38.2846 38.324C39.3419 38.9133 40.1653 39.7453 40.7546 40.82C41.3439 41.8773 41.6386 43.0993 41.6386 44.486ZM38.5446 43.55C38.5273 42.458 38.1373 41.5827 37.3746 40.924C36.6119 40.2653 35.6673 39.936 34.5406 39.936C33.5179 39.936 32.6426 40.2653 31.9146 40.924C31.1866 41.5653 30.7533 42.4407 30.6146 43.55H38.5446Z" fill="white"/>
<path d="M68.6514 37.44C69.778 37.44 70.7834 37.674 71.6674 38.142C72.5687 38.61 73.2707 39.3033 73.7734 40.222C74.2934 41.1407 74.5534 42.25 74.5534 43.55V52H71.6154V43.992C71.6154 42.7093 71.2947 41.73 70.6534 41.054C70.012 40.3607 69.1367 40.014 68.0274 40.014C66.918 40.014 66.034 40.3607 65.3754 41.054C64.734 41.73 64.4134 42.7093 64.4134 43.992V52H61.4754V43.992C61.4754 42.7093 61.1547 41.73 60.5134 41.054C59.872 40.3607 58.9967 40.014 57.8874 40.014C56.778 40.014 55.894 40.3607 55.2354 41.054C54.594 41.73 54.2734 42.7093 54.2734 43.992V52H51.3094V37.674H54.2734V39.312C54.7587 38.7227 55.374 38.2633 56.1194 37.934C56.8647 37.6047 57.662 37.44 58.5114 37.44C59.6554 37.44 60.678 37.6827 61.5794 38.168C62.4807 38.6533 63.174 39.3553 63.6594 40.274C64.0927 39.4073 64.7687 38.7227 65.6874 38.22C66.606 37.7 67.594 37.44 68.6514 37.44ZM77.337 44.772C77.337 43.3333 77.6317 42.0593 78.221 40.95C78.8277 39.8407 79.6423 38.9827 80.665 38.376C81.705 37.752 82.849 37.44 84.097 37.44C85.2237 37.44 86.203 37.6653 87.035 38.116C87.8843 38.5493 88.5603 39.0953 89.063 39.754V37.674H92.053V52H89.063V49.868C88.5603 50.544 87.8757 51.1073 87.009 51.558C86.1423 52.0087 85.1543 52.234 84.045 52.234C82.8143 52.234 81.6877 51.922 80.665 51.298C79.6423 50.6567 78.8277 49.7727 78.221 48.646C77.6317 47.502 77.337 46.2107 77.337 44.772ZM89.063 44.824C89.063 43.836 88.855 42.978 88.439 42.25C88.0403 41.522 87.5117 40.9673 86.853 40.586C86.1943 40.2047 85.4837 40.014 84.721 40.014C83.9583 40.014 83.2477 40.2047 82.589 40.586C81.9303 40.95 81.393 41.496 80.977 42.224C80.5783 42.9347 80.379 43.784 80.379 44.772C80.379 45.76 80.5783 46.6267 80.977 47.372C81.393 48.1173 81.9303 48.6893 82.589 49.088C83.265 49.4693 83.9757 49.66 84.721 49.66C85.4837 49.66 86.1943 49.4693 86.853 49.088C87.5117 48.7067 88.0403 48.152 88.439 47.424C88.855 46.6787 89.063 45.812 89.063 44.824ZM98.9101 39.754C99.3434 39.026 99.9154 38.4627 100.626 38.064C101.354 37.648 102.212 37.44 103.2 37.44V40.508H102.446C101.285 40.508 100.401 40.8027 99.7941 41.392C99.2048 41.9813 98.9101 43.004 98.9101 44.46V52H95.9461V37.674H98.9101V39.754ZM111.593 44.85L118.197 52H114.193L108.889 45.838V52H105.925V32.76H108.889V43.94L114.089 37.674H118.197L111.593 44.85ZM133.451 44.486C133.451 45.0233 133.416 45.5087 133.347 45.942H122.401C122.488 47.086 122.912 48.0047 123.675 48.698C124.438 49.3913 125.374 49.738 126.483 49.738C128.078 49.738 129.204 49.0707 129.863 47.736H133.061C132.628 49.0533 131.839 50.1367 130.695 50.986C129.568 51.818 128.164 52.234 126.483 52.234C125.114 52.234 123.883 51.9307 122.791 51.324C121.716 50.7 120.867 49.8333 120.243 48.724C119.636 47.5973 119.333 46.2973 119.333 44.824C119.333 43.3507 119.628 42.0593 120.217 40.95C120.824 39.8233 121.664 38.9567 122.739 38.35C123.831 37.7433 125.079 37.44 126.483 37.44C127.835 37.44 129.04 37.7347 130.097 38.324C131.154 38.9133 131.978 39.7453 132.567 40.82C133.156 41.8773 133.451 43.0993 133.451 44.486ZM130.357 43.55C130.34 42.458 129.95 41.5827 129.187 40.924C128.424 40.2653 127.48 39.936 126.353 39.936C125.33 39.936 124.455 40.2653 123.727 40.924C122.999 41.5653 122.566 42.4407 122.427 43.55H130.357ZM139.826 40.092V48.022C139.826 48.5593 139.947 48.9493 140.19 49.192C140.45 49.4173 140.883 49.53 141.49 49.53H143.31V52H140.97C139.635 52 138.613 51.688 137.902 51.064C137.191 50.44 136.836 49.426 136.836 48.022V40.092H135.146V37.674H136.836V34.112H139.826V37.674H143.31V40.092H139.826ZM170.138 37.44C171.264 37.44 172.27 37.674 173.154 38.142C174.055 38.61 174.757 39.3033 175.26 40.222C175.78 41.1407 176.04 42.25 176.04 43.55V52H173.102V43.992C173.102 42.7093 172.781 41.73 172.14 41.054C171.498 40.3607 170.623 40.014 169.514 40.014C168.404 40.014 167.52 40.3607 166.862 41.054C166.22 41.73 165.9 42.7093 165.9 43.992V52H162.962V43.992C162.962 42.7093 162.641 41.73 162 41.054C161.358 40.3607 160.483 40.014 159.374 40.014C158.264 40.014 157.38 40.3607 156.722 41.054C156.08 41.73 155.76 42.7093 155.76 43.992V52H152.796V37.674H155.76V39.312C156.245 38.7227 156.86 38.2633 157.606 37.934C158.351 37.6047 159.148 37.44 159.998 37.44C161.142 37.44 162.164 37.6827 163.066 38.168C163.967 38.6533 164.66 39.3553 165.146 40.274C165.579 39.4073 166.255 38.7227 167.174 38.22C168.092 37.7 169.08 37.44 170.138 37.44ZM178.823 44.772C178.823 43.3333 179.118 42.0593 179.707 40.95C180.314 39.8407 181.129 38.9827 182.151 38.376C183.191 37.752 184.335 37.44 185.583 37.44C186.71 37.44 187.689 37.6653 188.521 38.116C189.371 38.5493 190.047 39.0953 190.549 39.754V37.674H193.539V52H190.549V49.868C190.047 50.544 189.362 51.1073 188.495 51.558C187.629 52.0087 186.641 52.234 185.531 52.234C184.301 52.234 183.174 51.922 182.151 51.298C181.129 50.6567 180.314 49.7727 179.707 48.646C179.118 47.502 178.823 46.2107 178.823 44.772ZM190.549 44.824C190.549 43.836 190.341 42.978 189.925 42.25C189.527 41.522 188.998 40.9673 188.339 40.586C187.681 40.2047 186.97 40.014 186.207 40.014C185.445 40.014 184.734 40.2047 184.075 40.586C183.417 40.95 182.879 41.496 182.463 42.224C182.065 42.9347 181.865 43.784 181.865 44.772C181.865 45.76 182.065 46.6267 182.463 47.372C182.879 48.1173 183.417 48.6893 184.075 49.088C184.751 49.4693 185.462 49.66 186.207 49.66C186.97 49.66 187.681 49.4693 188.339 49.088C188.998 48.7067 189.527 48.152 189.925 47.424C190.341 46.6787 190.549 45.812 190.549 44.824ZM203.1 44.85L209.704 52H205.7L200.396 45.838V52H197.432V32.76H200.396V43.94L205.596 37.674H209.704L203.1 44.85ZM224.959 44.486C224.959 45.0233 224.924 45.5087 224.855 45.942H213.909C213.996 47.086 214.42 48.0047 215.183 48.698C215.946 49.3913 216.882 49.738 217.991 49.738C219.586 49.738 220.712 49.0707 221.371 47.736H224.569C224.136 49.0533 223.347 50.1367 222.203 50.986C221.076 51.818 219.672 52.234 217.991 52.234C216.622 52.234 215.391 51.9307 214.299 51.324C213.224 50.7 212.375 49.8333 211.751 48.724C211.144 47.5973 210.841 46.2973 210.841 44.824C210.841 43.3507 211.136 42.0593 211.725 40.95C212.332 39.8233 213.172 38.9567 214.247 38.35C215.339 37.7433 216.587 37.44 217.991 37.44C219.343 37.44 220.548 37.7347 221.605 38.324C222.662 38.9133 223.486 39.7453 224.075 40.82C224.664 41.8773 224.959 43.0993 224.959 44.486ZM221.865 43.55C221.848 42.458 221.458 41.5827 220.695 40.924C219.932 40.2653 218.988 39.936 217.861 39.936C216.838 39.936 215.963 40.2653 215.235 40.924C214.507 41.5653 214.074 42.4407 213.935 43.55H221.865ZM230.84 39.754C231.273 39.026 231.845 38.4627 232.556 38.064C233.284 37.648 234.142 37.44 235.13 37.44V40.508H234.376C233.214 40.508 232.33 40.8027 231.724 41.392C231.134 41.9813 230.84 43.004 230.84 44.46V52H227.876V37.674H230.84V39.754ZM243.054 52.234C241.928 52.234 240.914 52.0347 240.012 51.636C239.128 51.22 238.426 50.6653 237.906 49.972C237.386 49.2613 237.109 48.4727 237.074 47.606H240.142C240.194 48.2127 240.48 48.724 241 49.14C241.538 49.5387 242.205 49.738 243.002 49.738C243.834 49.738 244.476 49.582 244.926 49.27C245.394 48.9407 245.628 48.5247 245.628 48.022C245.628 47.4847 245.368 47.086 244.848 46.826C244.346 46.566 243.54 46.28 242.43 45.968C241.356 45.6733 240.48 45.3873 239.804 45.11C239.128 44.8327 238.539 44.408 238.036 43.836C237.551 43.264 237.308 42.51 237.308 41.574C237.308 40.8113 237.534 40.118 237.984 39.494C238.435 38.8527 239.076 38.35 239.908 37.986C240.758 37.622 241.728 37.44 242.82 37.44C244.45 37.44 245.758 37.856 246.746 38.688C247.752 39.5027 248.289 40.6207 248.358 42.042H245.394C245.342 41.4007 245.082 40.8893 244.614 40.508C244.146 40.1267 243.514 39.936 242.716 39.936C241.936 39.936 241.338 40.0833 240.922 40.378C240.506 40.6727 240.298 41.0627 240.298 41.548C240.298 41.9293 240.437 42.25 240.714 42.51C240.992 42.77 241.33 42.978 241.728 43.134C242.127 43.2727 242.716 43.4547 243.496 43.68C244.536 43.9573 245.386 44.2433 246.044 44.538C246.72 44.8153 247.301 45.2313 247.786 45.786C248.272 46.3407 248.523 47.0773 248.54 47.996C248.54 48.8107 248.315 49.5387 247.864 50.18C247.414 50.8213 246.772 51.324 245.94 51.688C245.126 52.052 244.164 52.234 243.054 52.234Z" fill="#F4C430"/>
</svg>
