<svg width="206" height="54" viewBox="0 0 206 54" fill="none" xmlns="http://www.w3.org/2000/svg">
<path d="M0.888 11.328C0.888 10 1.16 8.824 1.704 7.8C2.264 6.776 3.016 5.984 3.96 5.424C4.92 4.848 5.976 4.56 7.128 4.56C8.168 4.56 9.072 4.768 9.84 5.184C10.624 5.584 11.248 6.088 11.712 6.696V4.776H14.472V18H11.712V16.032C11.248 16.656 10.616 17.176 9.816 17.592C9.016 18.008 8.104 18.216 7.08 18.216C5.944 18.216 4.904 17.928 3.96 17.352C3.016 16.76 2.264 15.944 1.704 14.904C1.16 13.848 0.888 12.656 0.888 11.328ZM11.712 11.376C11.712 10.464 11.52 9.672 11.136 9C10.768 8.328 10.28 7.816 9.672 7.464C9.064 7.112 8.408 6.936 7.704 6.936C7 6.936 6.344 7.112 5.736 7.464C5.128 7.8 4.632 8.304 4.248 8.976C3.88 9.632 3.696 10.416 3.696 11.328C3.696 12.24 3.88 13.04 4.248 13.728C4.632 14.416 5.128 14.944 5.736 15.312C6.36 15.664 7.016 15.84 7.704 15.84C8.408 15.84 9.064 15.664 9.672 15.312C10.28 14.96 10.768 14.448 11.136 13.776C11.52 13.088 11.712 12.288 11.712 11.376ZM17.1536 11.328C17.1536 10 17.4256 8.824 17.9696 7.8C18.5296 6.776 19.2816 5.984 20.2256 5.424C21.1856 4.848 22.2496 4.56 23.4176 4.56C24.2816 4.56 25.1296 4.752 25.9616 5.136C26.8096 5.504 27.4816 6 27.9776 6.624V0.24H30.7376V18H27.9776V16.008C27.5296 16.648 26.9056 17.176 26.1056 17.592C25.3216 18.008 24.4176 18.216 23.3936 18.216C22.2416 18.216 21.1856 17.928 20.2256 17.352C19.2816 16.76 18.5296 15.944 17.9696 14.904C17.4256 13.848 17.1536 12.656 17.1536 11.328ZM27.9776 11.376C27.9776 10.464 27.7856 9.672 27.4016 9C27.0336 8.328 26.5456 7.816 25.9376 7.464C25.3296 7.112 24.6736 6.936 23.9696 6.936C23.2656 6.936 22.6096 7.112 22.0016 7.464C21.3936 7.8 20.8976 8.304 20.5136 8.976C20.1456 9.632 19.9616 10.416 19.9616 11.328C19.9616 12.24 20.1456 13.04 20.5136 13.728C20.8976 14.416 21.3936 14.944 22.0016 15.312C22.6256 15.664 23.2816 15.84 23.9696 15.84C24.6736 15.84 25.3296 15.664 25.9376 15.312C26.5456 14.96 27.0336 14.448 27.4016 13.776C27.7856 13.088 27.9776 12.288 27.9776 11.376ZM33.4193 11.328C33.4193 10 33.6913 8.824 34.2353 7.8C34.7953 6.776 35.5473 5.984 36.4913 5.424C37.4513 4.848 38.5153 4.56 39.6833 4.56C40.5473 4.56 41.3953 4.752 42.2273 5.136C43.0753 5.504 43.7473 6 44.2433 6.624V0.24H47.0033V18H44.2433V16.008C43.7953 16.648 43.1713 17.176 42.3713 17.592C41.5873 18.008 40.6833 18.216 39.6593 18.216C38.5073 18.216 37.4513 17.928 36.4913 17.352C35.5473 16.76 34.7953 15.944 34.2353 14.904C33.6913 13.848 33.4193 12.656 33.4193 11.328ZM44.2433 11.376C44.2433 10.464 44.0513 9.672 43.6673 9C43.2993 8.328 42.8113 7.816 42.2033 7.464C41.5953 7.112 40.9393 6.936 40.2353 6.936C39.5313 6.936 38.8753 7.112 38.2673 7.464C37.6593 7.8 37.1633 8.304 36.7793 8.976C36.4113 9.632 36.2273 10.416 36.2273 11.328C36.2273 12.24 36.4113 13.04 36.7793 13.728C37.1633 14.416 37.6593 14.944 38.2673 15.312C38.8913 15.664 39.5473 15.84 40.2353 15.84C40.9393 15.84 41.5953 15.664 42.2033 15.312C42.8113 14.96 43.2993 14.448 43.6673 13.776C44.0513 13.088 44.2433 12.288 44.2433 11.376ZM4.992 36.008V43.328C4.992 43.824 5.104 44.184 5.328 44.408C5.568 44.616 5.968 44.72 6.528 44.72H8.208V47H6.048C4.816 47 3.872 46.712 3.216 46.136C2.56 45.56 2.232 44.624 2.232 43.328V36.008H0.672V33.776H2.232V30.488H4.992V33.776H8.208V36.008H4.992ZM16.4657 47.216C15.2177 47.216 14.0897 46.936 13.0817 46.376C12.0737 45.8 11.2817 45 10.7057 43.976C10.1297 42.936 9.84169 41.736 9.84169 40.376C9.84169 39.032 10.1377 37.84 10.7297 36.8C11.3217 35.76 12.1297 34.96 13.1537 34.4C14.1777 33.84 15.3217 33.56 16.5857 33.56C17.8497 33.56 18.9937 33.84 20.0177 34.4C21.0417 34.96 21.8497 35.76 22.4417 36.8C23.0337 37.84 23.3297 39.032 23.3297 40.376C23.3297 41.72 23.0257 42.912 22.4177 43.952C21.8097 44.992 20.9777 45.8 19.9217 46.376C18.8817 46.936 17.7297 47.216 16.4657 47.216ZM16.4657 44.84C17.1697 44.84 17.8257 44.672 18.4337 44.336C19.0577 44 19.5617 43.496 19.9457 42.824C20.3297 42.152 20.5217 41.336 20.5217 40.376C20.5217 39.416 20.3377 38.608 19.9697 37.952C19.6017 37.28 19.1137 36.776 18.5057 36.44C17.8977 36.104 17.2417 35.936 16.5377 35.936C15.8337 35.936 15.1777 36.104 14.5697 36.44C13.9777 36.776 13.5057 37.28 13.1537 37.952C12.8017 38.608 12.6257 39.416 12.6257 40.376C12.6257 41.8 12.9857 42.904 13.7057 43.688C14.4417 44.456 15.3617 44.84 16.4657 44.84ZM44.1728 33.776L36.0608 53.216H33.2288L35.9168 46.784L30.7088 33.776H33.7568L37.4768 43.856L41.3408 33.776H44.1728ZM51.9735 47.216C50.7255 47.216 49.5975 46.936 48.5895 46.376C47.5815 45.8 46.7895 45 46.2135 43.976C45.6375 42.936 45.3495 41.736 45.3495 40.376C45.3495 39.032 45.6455 37.84 46.2375 36.8C46.8295 35.76 47.6375 34.96 48.6615 34.4C49.6855 33.84 50.8295 33.56 52.0935 33.56C53.3575 33.56 54.5015 33.84 55.5255 34.4C56.5495 34.96 57.3575 35.76 57.9495 36.8C58.5415 37.84 58.8375 39.032 58.8375 40.376C58.8375 41.72 58.5335 42.912 57.9255 43.952C57.3175 44.992 56.4855 45.8 55.4295 46.376C54.3895 46.936 53.2375 47.216 51.9735 47.216ZM51.9735 44.84C52.6775 44.84 53.3335 44.672 53.9415 44.336C54.5655 44 55.0695 43.496 55.4535 42.824C55.8375 42.152 56.0295 41.336 56.0295 40.376C56.0295 39.416 55.8455 38.608 55.4775 37.952C55.1095 37.28 54.6215 36.776 54.0135 36.44C53.4055 36.104 52.7495 35.936 52.0455 35.936C51.3415 35.936 50.6855 36.104 50.0775 36.44C49.4855 36.776 49.0135 37.28 48.6615 37.952C48.3095 38.608 48.1335 39.416 48.1335 40.376C48.1335 41.8 48.4935 42.904 49.2135 43.688C49.9495 44.456 50.8695 44.84 51.9735 44.84ZM73.5182 33.776V47H70.7822V45.44C70.3502 45.984 69.7822 46.416 69.0782 46.736C68.3902 47.04 67.6542 47.192 66.8702 47.192C65.8302 47.192 64.8942 46.976 64.0622 46.544C63.2462 46.112 62.5982 45.472 62.1182 44.624C61.6542 43.776 61.4222 42.752 61.4222 41.552V33.776H64.1342V41.144C64.1342 42.328 64.4302 43.24 65.0222 43.88C65.6142 44.504 66.4222 44.816 67.4462 44.816C68.4702 44.816 69.2782 44.504 69.8702 43.88C70.4782 43.24 70.7822 42.328 70.7822 41.144V33.776H73.5182ZM79.8641 35.696C80.2641 35.024 80.7921 34.504 81.4481 34.136C82.1201 33.752 82.9121 33.56 83.8241 33.56V36.392H83.1281C82.0561 36.392 81.2401 36.664 80.6801 37.208C80.1361 37.752 79.8641 38.696 79.8641 40.04V47H77.1281V33.776H79.8641V35.696ZM110.333 33.776L106.229 47H103.349L100.685 37.232L98.0214 47H95.1414L91.0134 33.776H93.7974L96.5574 44.408L99.3654 33.776H102.221L104.909 44.36L107.645 33.776H110.333ZM111.466 40.328C111.466 39 111.738 37.824 112.282 36.8C112.842 35.776 113.594 34.984 114.538 34.424C115.498 33.848 116.554 33.56 117.706 33.56C118.746 33.56 119.65 33.768 120.418 34.184C121.202 34.584 121.826 35.088 122.29 35.696V33.776H125.05V47H122.29V45.032C121.826 45.656 121.194 46.176 120.394 46.592C119.594 47.008 118.682 47.216 117.658 47.216C116.522 47.216 115.482 46.928 114.538 46.352C113.594 45.76 112.842 44.944 112.282 43.904C111.738 42.848 111.466 41.656 111.466 40.328ZM122.29 40.376C122.29 39.464 122.098 38.672 121.714 38C121.346 37.328 120.858 36.816 120.25 36.464C119.642 36.112 118.986 35.936 118.282 35.936C117.578 35.936 116.922 36.112 116.314 36.464C115.706 36.8 115.21 37.304 114.826 37.976C114.458 38.632 114.274 39.416 114.274 40.328C114.274 41.24 114.458 42.04 114.826 42.728C115.21 43.416 115.706 43.944 116.314 44.312C116.938 44.664 117.594 44.84 118.282 44.84C118.986 44.84 119.642 44.664 120.25 44.312C120.858 43.96 121.346 43.448 121.714 42.776C122.098 42.088 122.29 41.288 122.29 40.376ZM131.836 36.008V43.328C131.836 43.824 131.948 44.184 132.172 44.408C132.412 44.616 132.812 44.72 133.372 44.72H135.052V47H132.892C131.66 47 130.716 46.712 130.06 46.136C129.404 45.56 129.076 44.624 129.076 43.328V36.008H127.516V33.776H129.076V30.488H131.836V33.776H135.052V36.008H131.836ZM136.661 40.376C136.661 39.016 136.933 37.824 137.477 36.8C138.037 35.76 138.805 34.96 139.781 34.4C140.757 33.84 141.877 33.56 143.141 33.56C144.741 33.56 146.061 33.944 147.101 34.712C148.157 35.464 148.869 36.544 149.237 37.952H146.285C146.045 37.296 145.661 36.784 145.133 36.416C144.605 36.048 143.941 35.864 143.141 35.864C142.021 35.864 141.125 36.264 140.453 37.064C139.797 37.848 139.469 38.952 139.469 40.376C139.469 41.8 139.797 42.912 140.453 43.712C141.125 44.512 142.021 44.912 143.141 44.912C144.725 44.912 145.773 44.216 146.285 42.824H149.237C148.853 44.168 148.133 45.24 147.077 46.04C146.021 46.824 144.709 47.216 143.141 47.216C141.877 47.216 140.757 46.936 139.781 46.376C138.805 45.8 138.037 45 137.477 43.976C136.933 42.936 136.661 41.736 136.661 40.376ZM158.804 33.56C159.812 33.56 160.708 33.776 161.492 34.208C162.292 34.64 162.916 35.28 163.364 36.128C163.828 36.976 164.06 38 164.06 39.2V47H161.348V39.608C161.348 38.424 161.052 37.52 160.46 36.896C159.868 36.256 159.06 35.936 158.036 35.936C157.012 35.936 156.196 36.256 155.588 36.896C154.996 37.52 154.7 38.424 154.7 39.608V47H151.964V29.24H154.7V35.312C155.164 34.752 155.748 34.32 156.452 34.016C157.172 33.712 157.956 33.56 158.804 33.56ZM170.286 29.24V47H167.55V29.24H170.286ZM175.27 32.024C174.774 32.024 174.358 31.856 174.022 31.52C173.686 31.184 173.518 30.768 173.518 30.272C173.518 29.776 173.686 29.36 174.022 29.024C174.358 28.688 174.774 28.52 175.27 28.52C175.75 28.52 176.158 28.688 176.494 29.024C176.83 29.36 176.998 29.776 176.998 30.272C176.998 30.768 176.83 31.184 176.494 31.52C176.158 31.856 175.75 32.024 175.27 32.024ZM176.614 33.776V47H173.878V33.776H176.614ZM185.006 47.216C183.966 47.216 183.03 47.032 182.198 46.664C181.382 46.28 180.734 45.768 180.254 45.128C179.774 44.472 179.518 43.744 179.486 42.944H182.318C182.366 43.504 182.63 43.976 183.11 44.36C183.606 44.728 184.222 44.912 184.958 44.912C185.726 44.912 186.318 44.768 186.734 44.48C187.166 44.176 187.382 43.792 187.382 43.328C187.382 42.832 187.142 42.464 186.662 42.224C186.198 41.984 185.454 41.72 184.43 41.432C183.438 41.16 182.63 40.896 182.006 40.64C181.382 40.384 180.838 39.992 180.374 39.464C179.926 38.936 179.702 38.24 179.702 37.376C179.702 36.672 179.91 36.032 180.326 35.456C180.742 34.864 181.334 34.4 182.102 34.064C182.886 33.728 183.782 33.56 184.79 33.56C186.294 33.56 187.502 33.944 188.414 34.712C189.342 35.464 189.838 36.496 189.902 37.808H187.166C187.118 37.216 186.878 36.744 186.446 36.392C186.014 36.04 185.43 35.864 184.694 35.864C183.974 35.864 183.422 36 183.038 36.272C182.654 36.544 182.462 36.904 182.462 37.352C182.462 37.704 182.59 38 182.846 38.24C183.102 38.48 183.414 38.672 183.782 38.816C184.15 38.944 184.694 39.112 185.414 39.32C186.374 39.576 187.158 39.84 187.766 40.112C188.39 40.368 188.926 40.752 189.374 41.264C189.822 41.776 190.054 42.456 190.07 43.304C190.07 44.056 189.862 44.728 189.446 45.32C189.03 45.912 188.438 46.376 187.67 46.712C186.918 47.048 186.03 47.216 185.006 47.216ZM196.219 36.008V43.328C196.219 43.824 196.331 44.184 196.555 44.408C196.795 44.616 197.195 44.72 197.755 44.72H199.435V47H197.275C196.043 47 195.099 46.712 194.443 46.136C193.787 45.56 193.459 44.624 193.459 43.328V36.008H191.899V33.776H193.459V30.488H196.219V33.776H199.435V36.008H196.219ZM205.388 30.32L205.076 41.96H202.796L202.484 30.32H205.388ZM204.02 47.168C203.524 47.168 203.108 47 202.772 46.664C202.436 46.328 202.268 45.912 202.268 45.416C202.268 44.92 202.436 44.504 202.772 44.168C203.108 43.832 203.524 43.664 204.02 43.664C204.5 43.664 204.908 43.832 205.244 44.168C205.58 44.504 205.748 44.92 205.748 45.416C205.748 45.912 205.58 46.328 205.244 46.664C204.908 47 204.5 47.168 204.02 47.168Z" fill="white"/>
<path d="M61.6313 18.216C60.5913 18.216 59.6553 18.032 58.8233 17.664C58.0073 17.28 57.3593 16.768 56.8793 16.128C56.3993 15.472 56.1433 14.744 56.1113 13.944H58.9433C58.9913 14.504 59.2553 14.976 59.7353 15.36C60.2313 15.728 60.8473 15.912 61.5833 15.912C62.3513 15.912 62.9433 15.768 63.3593 15.48C63.7913 15.176 64.0073 14.792 64.0073 14.328C64.0073 13.832 63.7673 13.464 63.2873 13.224C62.8233 12.984 62.0793 12.72 61.0553 12.432C60.0633 12.16 59.2553 11.896 58.6313 11.64C58.0073 11.384 57.4633 10.992 56.9993 10.464C56.5513 9.936 56.3273 9.24 56.3273 8.376C56.3273 7.672 56.5353 7.032 56.9513 6.456C57.3673 5.864 57.9593 5.4 58.7273 5.064C59.5113 4.728 60.4073 4.56 61.4153 4.56C62.9193 4.56 64.1273 4.944 65.0393 5.712C65.9673 6.464 66.4633 7.496 66.5273 8.808H63.7913C63.7433 8.216 63.5033 7.744 63.0713 7.392C62.6393 7.04 62.0553 6.864 61.3193 6.864C60.5993 6.864 60.0473 7 59.6633 7.272C59.2793 7.544 59.0873 7.904 59.0873 8.352C59.0873 8.704 59.2153 9 59.4713 9.24C59.7273 9.48 60.0393 9.672 60.4073 9.816C60.7753 9.944 61.3193 10.112 62.0393 10.32C62.9993 10.576 63.7833 10.84 64.3913 11.112C65.0153 11.368 65.5513 11.752 65.9993 12.264C66.4473 12.776 66.6793 13.456 66.6953 14.304C66.6953 15.056 66.4873 15.728 66.0713 16.32C65.6553 16.912 65.0633 17.376 64.2953 17.712C63.5433 18.048 62.6553 18.216 61.6313 18.216ZM72.8436 7.008V14.328C72.8436 14.824 72.9556 15.184 73.1796 15.408C73.4196 15.616 73.8196 15.72 74.3796 15.72H76.0596V18H73.8996C72.6676 18 71.7236 17.712 71.0676 17.136C70.4116 16.56 70.0836 15.624 70.0836 14.328V7.008H68.5236V4.776H70.0836V1.488H72.8436V4.776H76.0596V7.008H72.8436ZM84.3173 18.216C83.0693 18.216 81.9413 17.936 80.9333 17.376C79.9253 16.8 79.1333 16 78.5573 14.976C77.9813 13.936 77.6933 12.736 77.6933 11.376C77.6933 10.032 77.9893 8.84 78.5813 7.8C79.1733 6.76 79.9813 5.96 81.0053 5.4C82.0293 4.84 83.1733 4.56 84.4373 4.56C85.7013 4.56 86.8453 4.84 87.8693 5.4C88.8933 5.96 89.7013 6.76 90.2933 7.8C90.8853 8.84 91.1813 10.032 91.1813 11.376C91.1813 12.72 90.8773 13.912 90.2693 14.952C89.6613 15.992 88.8293 16.8 87.7733 17.376C86.7333 17.936 85.5813 18.216 84.3173 18.216ZM84.3173 15.84C85.0213 15.84 85.6773 15.672 86.2853 15.336C86.9093 15 87.4133 14.496 87.7973 13.824C88.1813 13.152 88.3733 12.336 88.3733 11.376C88.3733 10.416 88.1893 9.608 87.8213 8.952C87.4533 8.28 86.9653 7.776 86.3573 7.44C85.7493 7.104 85.0933 6.936 84.3893 6.936C83.6853 6.936 83.0293 7.104 82.4213 7.44C81.8293 7.776 81.3573 8.28 81.0053 8.952C80.6533 9.608 80.4773 10.416 80.4773 11.376C80.4773 12.8 80.8373 13.904 81.5573 14.688C82.2933 15.456 83.2133 15.84 84.3173 15.84ZM92.9739 11.376C92.9739 10.016 93.2459 8.824 93.7899 7.8C94.3499 6.76 95.1179 5.96 96.0939 5.4C97.0699 4.84 98.1899 4.56 99.4539 4.56C101.054 4.56 102.374 4.944 103.414 5.712C104.47 6.464 105.182 7.544 105.55 8.952H102.598C102.358 8.296 101.974 7.784 101.446 7.416C100.918 7.048 100.254 6.864 99.4539 6.864C98.3339 6.864 97.4379 7.264 96.7659 8.064C96.1099 8.848 95.7819 9.952 95.7819 11.376C95.7819 12.8 96.1099 13.912 96.7659 14.712C97.4379 15.512 98.3339 15.912 99.4539 15.912C101.038 15.912 102.086 15.216 102.598 13.824H105.55C105.166 15.168 104.446 16.24 103.39 17.04C102.334 17.824 101.022 18.216 99.4539 18.216C98.1899 18.216 97.0699 17.936 96.0939 17.376C95.1179 16.8 94.3499 16 93.7899 14.976C93.2459 13.936 92.9739 12.736 92.9739 11.376ZM113.509 11.4L119.605 18H115.909L111.013 12.312V18H108.277V0.24H111.013V10.56L115.813 4.776H119.605L113.509 11.4ZM126.366 18.216C125.326 18.216 124.39 18.032 123.558 17.664C122.742 17.28 122.094 16.768 121.614 16.128C121.134 15.472 120.878 14.744 120.846 13.944H123.678C123.726 14.504 123.99 14.976 124.47 15.36C124.966 15.728 125.582 15.912 126.318 15.912C127.086 15.912 127.678 15.768 128.094 15.48C128.526 15.176 128.742 14.792 128.742 14.328C128.742 13.832 128.502 13.464 128.022 13.224C127.558 12.984 126.814 12.72 125.79 12.432C124.798 12.16 123.99 11.896 123.366 11.64C122.742 11.384 122.198 10.992 121.734 10.464C121.286 9.936 121.062 9.24 121.062 8.376C121.062 7.672 121.27 7.032 121.686 6.456C122.102 5.864 122.694 5.4 123.462 5.064C124.246 4.728 125.142 4.56 126.15 4.56C127.654 4.56 128.862 4.944 129.774 5.712C130.702 6.464 131.198 7.496 131.262 8.808H128.526C128.478 8.216 128.238 7.744 127.806 7.392C127.374 7.04 126.79 6.864 126.054 6.864C125.334 6.864 124.782 7 124.398 7.272C124.014 7.544 123.822 7.904 123.822 8.352C123.822 8.704 123.95 9 124.206 9.24C124.462 9.48 124.774 9.672 125.142 9.816C125.51 9.944 126.054 10.112 126.774 10.32C127.734 10.576 128.518 10.84 129.126 11.112C129.75 11.368 130.286 11.752 130.734 12.264C131.182 12.776 131.414 13.456 131.43 14.304C131.43 15.056 131.222 15.728 130.806 16.32C130.39 16.912 129.798 17.376 129.03 17.712C128.278 18.048 127.39 18.216 126.366 18.216Z" fill="#F4C430"/>
</svg>
