<svg width="296" height="107" viewBox="0 0 296 107" fill="none" xmlns="http://www.w3.org/2000/svg">
<path d="M4.536 7.696C4.936 7.024 5.464 6.504 6.12 6.136C6.792 5.752 7.584 5.56 8.496 5.56V8.392H7.8C6.728 8.392 5.912 8.664 5.352 9.208C4.808 9.752 4.536 10.696 4.536 12.04V19H1.8V5.776H4.536V7.696ZM23.1309 12.064C23.1309 12.56 23.0989 13.008 23.0349 13.408H12.9309C13.0109 14.464 13.4029 15.312 14.1069 15.952C14.8109 16.592 15.6749 16.912 16.6989 16.912C18.1709 16.912 19.2109 16.296 19.8189 15.064H22.7709C22.3709 16.28 21.6429 17.28 20.5869 18.064C19.5469 18.832 18.2509 19.216 16.6989 19.216C15.4349 19.216 14.2989 18.936 13.2909 18.376C12.2989 17.8 11.5149 17 10.9389 15.976C10.3789 14.936 10.0989 13.736 10.0989 12.376C10.0989 11.016 10.3709 9.824 10.9149 8.8C11.4749 7.76 12.2509 6.96 13.2429 6.4C14.2509 5.84 15.4029 5.56 16.6989 5.56C17.9469 5.56 19.0589 5.832 20.0349 6.376C21.0109 6.92 21.7709 7.688 22.3149 8.68C22.8589 9.656 23.1309 10.784 23.1309 12.064ZM20.2749 11.2C20.2589 10.192 19.8989 9.384 19.1949 8.776C18.4909 8.168 17.6189 7.864 16.5789 7.864C15.6349 7.864 14.8269 8.168 14.1549 8.776C13.4829 9.368 13.0829 10.176 12.9549 11.2H20.2749ZM24.9114 12.328C24.9114 11 25.1834 9.824 25.7274 8.8C26.2874 7.776 27.0394 6.984 27.9834 6.424C28.9434 5.848 29.9994 5.56 31.1514 5.56C32.1914 5.56 33.0954 5.768 33.8634 6.184C34.6474 6.584 35.2714 7.088 35.7354 7.696V5.776H38.4954V19H35.7354V17.032C35.2714 17.656 34.6394 18.176 33.8394 18.592C33.0394 19.008 32.1274 19.216 31.1034 19.216C29.9674 19.216 28.9274 18.928 27.9834 18.352C27.0394 17.76 26.2874 16.944 25.7274 15.904C25.1834 14.848 24.9114 13.656 24.9114 12.328ZM35.7354 12.376C35.7354 11.464 35.5434 10.672 35.1594 10C34.7914 9.328 34.3034 8.816 33.6954 8.464C33.0874 8.112 32.4314 7.936 31.7274 7.936C31.0234 7.936 30.3674 8.112 29.7594 8.464C29.1514 8.8 28.6554 9.304 28.2714 9.976C27.9034 10.632 27.7194 11.416 27.7194 12.328C27.7194 13.24 27.9034 14.04 28.2714 14.728C28.6554 15.416 29.1514 15.944 29.7594 16.312C30.3834 16.664 31.0394 16.84 31.7274 16.84C32.4314 16.84 33.0874 16.664 33.6954 16.312C34.3034 15.96 34.7914 15.448 35.1594 14.776C35.5434 14.088 35.7354 13.288 35.7354 12.376ZM44.8251 1.24V19H42.0891V1.24H44.8251ZM57.8436 8.008V15.328C57.8436 15.824 57.9556 16.184 58.1796 16.408C58.4196 16.616 58.8196 16.72 59.3796 16.72H61.0596V19H58.8996C57.6676 19 56.7236 18.712 56.0676 18.136C55.4116 17.56 55.0836 16.624 55.0836 15.328V8.008H53.5236V5.776H55.0836V2.488H57.8436V5.776H61.0596V8.008H57.8436ZM64.9733 4.024C64.4773 4.024 64.0613 3.856 63.7253 3.52C63.3893 3.184 63.2213 2.768 63.2213 2.272C63.2213 1.776 63.3893 1.36 63.7253 1.024C64.0613 0.687999 64.4773 0.519999 64.9733 0.519999C65.4533 0.519999 65.8613 0.687999 66.1973 1.024C66.5333 1.36 66.7013 1.776 66.7013 2.272C66.7013 2.768 66.5333 3.184 66.1973 3.52C65.8613 3.856 65.4533 4.024 64.9733 4.024ZM66.3173 5.776V19H63.5813V5.776H66.3173ZM85.9174 5.56C86.9574 5.56 87.8854 5.776 88.7014 6.208C89.5334 6.64 90.1814 7.28 90.6454 8.128C91.1254 8.976 91.3654 10 91.3654 11.2V19H88.6534V11.608C88.6534 10.424 88.3574 9.52 87.7654 8.896C87.1734 8.256 86.3654 7.936 85.3414 7.936C84.3174 7.936 83.5014 8.256 82.8934 8.896C82.3014 9.52 82.0054 10.424 82.0054 11.608V19H79.2934V11.608C79.2934 10.424 78.9974 9.52 78.4054 8.896C77.8134 8.256 77.0054 7.936 75.9814 7.936C74.9574 7.936 74.1414 8.256 73.5334 8.896C72.9414 9.52 72.6454 10.424 72.6454 11.608V19H69.9094V5.776H72.6454V7.288C73.0934 6.744 73.6614 6.32 74.3494 6.016C75.0374 5.712 75.7734 5.56 76.5574 5.56C77.6134 5.56 78.5574 5.784 79.3894 6.232C80.2214 6.68 80.8614 7.328 81.3094 8.176C81.7094 7.376 82.3334 6.744 83.1814 6.28C84.0294 5.8 84.9414 5.56 85.9174 5.56ZM106.967 12.064C106.967 12.56 106.935 13.008 106.871 13.408H96.7669C96.8469 14.464 97.2389 15.312 97.9429 15.952C98.6469 16.592 99.5109 16.912 100.535 16.912C102.007 16.912 103.047 16.296 103.655 15.064H106.607C106.207 16.28 105.479 17.28 104.423 18.064C103.383 18.832 102.087 19.216 100.535 19.216C99.2709 19.216 98.1349 18.936 97.1269 18.376C96.1349 17.8 95.3509 17 94.7749 15.976C94.2149 14.936 93.9349 13.736 93.9349 12.376C93.9349 11.016 94.2069 9.824 94.7509 8.8C95.3109 7.76 96.0869 6.96 97.0789 6.4C98.0869 5.84 99.2389 5.56 100.535 5.56C101.783 5.56 102.895 5.832 103.871 6.376C104.847 6.92 105.607 7.688 106.151 8.68C106.695 9.656 106.967 10.784 106.967 12.064ZM104.111 11.2C104.095 10.192 103.735 9.384 103.031 8.776C102.327 8.168 101.455 7.864 100.415 7.864C99.4709 7.864 98.6629 8.168 97.9909 8.776C97.3189 9.368 96.9189 10.176 96.7909 11.2H104.111ZM226.536 19.216C225.288 19.216 224.16 18.936 223.152 18.376C222.144 17.8 221.352 17 220.776 15.976C220.2 14.936 219.912 13.736 219.912 12.376C219.912 11.032 220.208 9.84 220.8 8.8C221.392 7.76 222.2 6.96 223.224 6.4C224.248 5.84 225.392 5.56 226.656 5.56C227.92 5.56 229.064 5.84 230.088 6.4C231.112 6.96 231.92 7.76 232.512 8.8C233.104 9.84 233.4 11.032 233.4 12.376C233.4 13.72 233.096 14.912 232.488 15.952C231.88 16.992 231.048 17.8 229.992 18.376C228.952 18.936 227.8 19.216 226.536 19.216ZM226.536 16.84C227.24 16.84 227.896 16.672 228.504 16.336C229.128 16 229.632 15.496 230.016 14.824C230.4 14.152 230.592 13.336 230.592 12.376C230.592 11.416 230.408 10.608 230.04 9.952C229.672 9.28 229.184 8.776 228.576 8.44C227.968 8.104 227.312 7.936 226.608 7.936C225.904 7.936 225.248 8.104 224.64 8.44C224.048 8.776 223.576 9.28 223.224 9.952C222.872 10.608 222.696 11.416 222.696 12.376C222.696 13.8 223.056 14.904 223.776 15.688C224.512 16.456 225.432 16.84 226.536 16.84ZM242.777 5.56C243.817 5.56 244.745 5.776 245.561 6.208C246.393 6.64 247.041 7.28 247.505 8.128C247.969 8.976 248.201 10 248.201 11.2V19H245.489V11.608C245.489 10.424 245.193 9.52 244.601 8.896C244.009 8.256 243.201 7.936 242.177 7.936C241.153 7.936 240.337 8.256 239.729 8.896C239.137 9.52 238.841 10.424 238.841 11.608V19H236.105V5.776H238.841V7.288C239.289 6.744 239.857 6.32 240.545 6.016C241.249 5.712 241.993 5.56 242.777 5.56ZM101.567 36.744C102.031 36.104 102.663 35.584 103.463 35.184C104.279 34.768 105.183 34.56 106.175 34.56C107.343 34.56 108.399 34.84 109.343 35.4C110.287 35.96 111.031 36.76 111.575 37.8C112.119 38.824 112.391 40 112.391 41.328C112.391 42.656 112.119 43.848 111.575 44.904C111.031 45.944 110.279 46.76 109.319 47.352C108.375 47.928 107.327 48.216 106.175 48.216C105.151 48.216 104.239 48.016 103.439 47.616C102.655 47.216 102.031 46.704 101.567 46.08V48H98.8313V30.24H101.567V36.744ZM109.607 41.328C109.607 40.416 109.415 39.632 109.031 38.976C108.663 38.304 108.167 37.8 107.543 37.464C106.935 37.112 106.279 36.936 105.575 36.936C104.887 36.936 104.231 37.112 103.607 37.464C102.999 37.816 102.503 38.328 102.119 39C101.751 39.672 101.567 40.464 101.567 41.376C101.567 42.288 101.751 43.088 102.119 43.776C102.503 44.448 102.999 44.96 103.607 45.312C104.231 45.664 104.887 45.84 105.575 45.84C106.279 45.84 106.935 45.664 107.543 45.312C108.167 44.944 108.663 44.416 109.031 43.728C109.415 43.04 109.607 42.24 109.607 41.328ZM127.073 34.776V48H124.337V46.44C123.905 46.984 123.337 47.416 122.633 47.736C121.945 48.04 121.209 48.192 120.425 48.192C119.385 48.192 118.449 47.976 117.617 47.544C116.801 47.112 116.153 46.472 115.673 45.624C115.209 44.776 114.977 43.752 114.977 42.552V34.776H117.689V42.144C117.689 43.328 117.985 44.24 118.577 44.88C119.169 45.504 119.977 45.816 121.001 45.816C122.025 45.816 122.833 45.504 123.425 44.88C124.033 44.24 124.337 43.328 124.337 42.144V34.776H127.073ZM142.587 34.776L134.475 54.216H131.643L134.331 47.784L129.123 34.776H132.171L135.891 44.856L139.755 34.776H142.587ZM146.044 33.024C145.548 33.024 145.132 32.856 144.796 32.52C144.46 32.184 144.292 31.768 144.292 31.272C144.292 30.776 144.46 30.36 144.796 30.024C145.132 29.688 145.548 29.52 146.044 29.52C146.524 29.52 146.932 29.688 147.268 30.024C147.604 30.36 147.772 30.776 147.772 31.272C147.772 31.768 147.604 32.184 147.268 32.52C146.932 32.856 146.524 33.024 146.044 33.024ZM147.388 34.776V48H144.652V34.776H147.388ZM157.652 34.56C158.692 34.56 159.62 34.776 160.436 35.208C161.268 35.64 161.916 36.28 162.38 37.128C162.844 37.976 163.076 39 163.076 40.2V48H160.364V40.608C160.364 39.424 160.068 38.52 159.476 37.896C158.884 37.256 158.076 36.936 157.052 36.936C156.028 36.936 155.212 37.256 154.604 37.896C154.012 38.52 153.716 39.424 153.716 40.608V48H150.98V34.776H153.716V36.288C154.164 35.744 154.732 35.32 155.42 35.016C156.124 34.712 156.868 34.56 157.652 34.56ZM171.894 34.56C172.918 34.56 173.822 34.768 174.606 35.184C175.406 35.584 176.03 36.088 176.478 36.696V34.776H179.238V48.216C179.238 49.432 178.982 50.512 178.47 51.456C177.958 52.416 177.214 53.168 176.238 53.712C175.278 54.256 174.126 54.528 172.782 54.528C170.99 54.528 169.502 54.104 168.318 53.256C167.134 52.424 166.462 51.288 166.302 49.848H169.014C169.222 50.536 169.662 51.088 170.334 51.504C171.022 51.936 171.838 52.152 172.782 52.152C173.886 52.152 174.774 51.816 175.446 51.144C176.134 50.472 176.478 49.496 176.478 48.216V46.008C176.014 46.632 175.382 47.16 174.582 47.592C173.798 48.008 172.902 48.216 171.894 48.216C170.742 48.216 169.686 47.928 168.726 47.352C167.782 46.76 167.03 45.944 166.47 44.904C165.926 43.848 165.654 42.656 165.654 41.328C165.654 40 165.926 38.824 166.47 37.8C167.03 36.776 167.782 35.984 168.726 35.424C169.686 34.848 170.742 34.56 171.894 34.56ZM176.478 41.376C176.478 40.464 176.286 39.672 175.902 39C175.534 38.328 175.046 37.816 174.438 37.464C173.83 37.112 173.174 36.936 172.47 36.936C171.766 36.936 171.11 37.112 170.502 37.464C169.894 37.8 169.398 38.304 169.014 38.976C168.646 39.632 168.462 40.416 168.462 41.328C168.462 42.24 168.646 43.04 169.014 43.728C169.398 44.416 169.894 44.944 170.502 45.312C171.126 45.664 171.782 45.84 172.47 45.84C173.174 45.84 173.83 45.664 174.438 45.312C175.046 44.96 175.534 44.448 175.902 43.776C176.286 43.088 176.478 42.288 176.478 41.376ZM201.954 48L199.89 45.936C199.09 46.736 198.218 47.336 197.274 47.736C196.33 48.12 195.274 48.312 194.106 48.312C192.922 48.312 191.874 48.104 190.962 47.688C190.05 47.272 189.346 46.68 188.85 45.912C188.354 45.128 188.106 44.224 188.106 43.2C188.106 42.048 188.434 41.024 189.09 40.128C189.746 39.216 190.722 38.496 192.018 37.968C191.554 37.408 191.226 36.888 191.034 36.408C190.842 35.912 190.746 35.368 190.746 34.776C190.746 34.04 190.93 33.384 191.298 32.808C191.682 32.232 192.226 31.776 192.93 31.44C193.634 31.104 194.45 30.936 195.378 30.936C196.322 30.936 197.122 31.12 197.778 31.488C198.45 31.84 198.946 32.328 199.266 32.952C199.602 33.576 199.738 34.272 199.674 35.04H196.938C196.954 34.448 196.81 33.992 196.506 33.672C196.202 33.336 195.786 33.168 195.258 33.168C194.73 33.168 194.298 33.328 193.962 33.648C193.642 33.952 193.482 34.328 193.482 34.776C193.482 35.208 193.602 35.64 193.842 36.072C194.098 36.488 194.538 37.032 195.162 37.704L199.578 42.096L201.282 39.288H204.234L202.074 42.984L201.474 43.968L205.53 48H201.954ZM194.106 45.984C195.61 45.984 196.938 45.368 198.09 44.136L193.674 39.696C191.786 40.448 190.842 41.584 190.842 43.104C190.842 43.92 191.146 44.608 191.754 45.168C192.362 45.712 193.146 45.984 194.106 45.984ZM218.358 48.216C217.318 48.216 216.382 48.032 215.55 47.664C214.734 47.28 214.086 46.768 213.606 46.128C213.126 45.472 212.87 44.744 212.838 43.944H215.67C215.718 44.504 215.982 44.976 216.462 45.36C216.958 45.728 217.574 45.912 218.31 45.912C219.078 45.912 219.67 45.768 220.086 45.48C220.518 45.176 220.734 44.792 220.734 44.328C220.734 43.832 220.494 43.464 220.014 43.224C219.55 42.984 218.806 42.72 217.782 42.432C216.79 42.16 215.982 41.896 215.358 41.64C214.734 41.384 214.19 40.992 213.726 40.464C213.278 39.936 213.054 39.24 213.054 38.376C213.054 37.672 213.262 37.032 213.678 36.456C214.094 35.864 214.686 35.4 215.454 35.064C216.238 34.728 217.134 34.56 218.142 34.56C219.646 34.56 220.854 34.944 221.766 35.712C222.694 36.464 223.19 37.496 223.254 38.808H220.518C220.47 38.216 220.23 37.744 219.798 37.392C219.366 37.04 218.782 36.864 218.046 36.864C217.326 36.864 216.774 37 216.39 37.272C216.006 37.544 215.814 37.904 215.814 38.352C215.814 38.704 215.942 39 216.198 39.24C216.454 39.48 216.766 39.672 217.134 39.816C217.502 39.944 218.046 40.112 218.766 40.32C219.726 40.576 220.51 40.84 221.118 41.112C221.742 41.368 222.278 41.752 222.726 42.264C223.174 42.776 223.406 43.456 223.422 44.304C223.422 45.056 223.214 45.728 222.798 46.32C222.382 46.912 221.79 47.376 221.022 47.712C220.27 48.048 219.382 48.216 218.358 48.216ZM238.498 41.064C238.498 41.56 238.466 42.008 238.402 42.408H228.298C228.378 43.464 228.77 44.312 229.474 44.952C230.178 45.592 231.042 45.912 232.066 45.912C233.538 45.912 234.578 45.296 235.186 44.064H238.138C237.738 45.28 237.01 46.28 235.954 47.064C234.914 47.832 233.618 48.216 232.066 48.216C230.802 48.216 229.666 47.936 228.658 47.376C227.666 46.8 226.882 46 226.306 44.976C225.746 43.936 225.466 42.736 225.466 41.376C225.466 40.016 225.738 38.824 226.282 37.8C226.842 36.76 227.618 35.96 228.61 35.4C229.618 34.84 230.77 34.56 232.066 34.56C233.314 34.56 234.426 34.832 235.402 35.376C236.378 35.92 237.138 36.688 237.682 37.68C238.226 38.656 238.498 39.784 238.498 41.064ZM235.642 40.2C235.626 39.192 235.266 38.384 234.562 37.776C233.858 37.168 232.986 36.864 231.946 36.864C231.002 36.864 230.194 37.168 229.522 37.776C228.85 38.368 228.45 39.176 228.322 40.2H235.642ZM243.927 30.24V48H241.191V30.24H243.927ZM250.255 30.24V48H247.519V30.24H250.255ZM255.239 33.024C254.743 33.024 254.327 32.856 253.991 32.52C253.655 32.184 253.487 31.768 253.487 31.272C253.487 30.776 253.655 30.36 253.991 30.024C254.327 29.688 254.743 29.52 255.239 29.52C255.719 29.52 256.127 29.688 256.463 30.024C256.799 30.36 256.967 30.776 256.967 31.272C256.967 31.768 256.799 32.184 256.463 32.52C256.127 32.856 255.719 33.024 255.239 33.024ZM256.583 34.776V48H253.847V34.776H256.583ZM266.847 34.56C267.887 34.56 268.815 34.776 269.631 35.208C270.463 35.64 271.111 36.28 271.575 37.128C272.039 37.976 272.271 39 272.271 40.2V48H269.559V40.608C269.559 39.424 269.263 38.52 268.671 37.896C268.079 37.256 267.271 36.936 266.247 36.936C265.223 36.936 264.407 37.256 263.799 37.896C263.207 38.52 262.911 39.424 262.911 40.608V48H260.175V34.776H262.911V36.288C263.359 35.744 263.927 35.32 264.615 35.016C265.319 34.712 266.063 34.56 266.847 34.56ZM281.089 34.56C282.113 34.56 283.017 34.768 283.801 35.184C284.601 35.584 285.225 36.088 285.673 36.696V34.776H288.433V48.216C288.433 49.432 288.177 50.512 287.665 51.456C287.153 52.416 286.409 53.168 285.433 53.712C284.473 54.256 283.321 54.528 281.977 54.528C280.185 54.528 278.697 54.104 277.513 53.256C276.329 52.424 275.657 51.288 275.497 49.848H278.209C278.417 50.536 278.857 51.088 279.529 51.504C280.217 51.936 281.033 52.152 281.977 52.152C283.081 52.152 283.969 51.816 284.641 51.144C285.329 50.472 285.673 49.496 285.673 48.216V46.008C285.209 46.632 284.577 47.16 283.777 47.592C282.993 48.008 282.097 48.216 281.089 48.216C279.937 48.216 278.881 47.928 277.921 47.352C276.977 46.76 276.225 45.944 275.665 44.904C275.121 43.848 274.849 42.656 274.849 41.328C274.849 40 275.121 38.824 275.665 37.8C276.225 36.776 276.977 35.984 277.921 35.424C278.881 34.848 279.937 34.56 281.089 34.56ZM285.673 41.376C285.673 40.464 285.481 39.672 285.097 39C284.729 38.328 284.241 37.816 283.633 37.464C283.025 37.112 282.369 36.936 281.665 36.936C280.961 36.936 280.305 37.112 279.697 37.464C279.089 37.8 278.593 38.304 278.209 38.976C277.841 39.632 277.657 40.416 277.657 41.328C277.657 42.24 277.841 43.04 278.209 43.728C278.593 44.416 279.089 44.944 279.697 45.312C280.321 45.664 280.977 45.84 281.665 45.84C282.369 45.84 283.025 45.664 283.633 45.312C284.241 44.96 284.729 44.448 285.097 43.776C285.481 43.088 285.673 42.288 285.673 41.376ZM127.284 73.712L124.38 80.336H122.604L124.308 73.712H127.284ZM134.997 70.328C134.997 69 135.269 67.824 135.813 66.8C136.373 65.776 137.125 64.984 138.069 64.424C139.029 63.848 140.085 63.56 141.237 63.56C142.277 63.56 143.181 63.768 143.949 64.184C144.733 64.584 145.357 65.088 145.821 65.696V63.776H148.581V77H145.821V75.032C145.357 75.656 144.725 76.176 143.925 76.592C143.125 77.008 142.213 77.216 141.189 77.216C140.053 77.216 139.013 76.928 138.069 76.352C137.125 75.76 136.373 74.944 135.813 73.904C135.269 72.848 134.997 71.656 134.997 70.328ZM145.821 70.376C145.821 69.464 145.629 68.672 145.245 68C144.877 67.328 144.389 66.816 143.781 66.464C143.173 66.112 142.517 65.936 141.813 65.936C141.109 65.936 140.453 66.112 139.845 66.464C139.237 66.8 138.741 67.304 138.357 67.976C137.989 68.632 137.805 69.416 137.805 70.328C137.805 71.24 137.989 72.04 138.357 72.728C138.741 73.416 139.237 73.944 139.845 74.312C140.469 74.664 141.125 74.84 141.813 74.84C142.517 74.84 143.173 74.664 143.781 74.312C144.389 73.96 144.877 73.448 145.245 72.776C145.629 72.088 145.821 71.288 145.821 70.376ZM158.847 63.56C159.887 63.56 160.815 63.776 161.631 64.208C162.463 64.64 163.111 65.28 163.575 66.128C164.039 66.976 164.271 68 164.271 69.2V77H161.559V69.608C161.559 68.424 161.263 67.52 160.671 66.896C160.079 66.256 159.271 65.936 158.247 65.936C157.223 65.936 156.407 66.256 155.799 66.896C155.207 67.52 154.911 68.424 154.911 69.608V77H152.175V63.776H154.911V65.288C155.359 64.744 155.927 64.32 156.615 64.016C157.319 63.712 158.063 63.56 158.847 63.56ZM166.849 70.328C166.849 69 167.121 67.824 167.665 66.8C168.225 65.776 168.977 64.984 169.921 64.424C170.881 63.848 171.945 63.56 173.113 63.56C173.977 63.56 174.825 63.752 175.657 64.136C176.505 64.504 177.177 65 177.673 65.624V59.24H180.433V77H177.673V75.008C177.225 75.648 176.601 76.176 175.801 76.592C175.017 77.008 174.113 77.216 173.089 77.216C171.937 77.216 170.881 76.928 169.921 76.352C168.977 75.76 168.225 74.944 167.665 73.904C167.121 72.848 166.849 71.656 166.849 70.328ZM177.673 70.376C177.673 69.464 177.481 68.672 177.097 68C176.729 67.328 176.241 66.816 175.633 66.464C175.025 66.112 174.369 65.936 173.665 65.936C172.961 65.936 172.305 66.112 171.697 66.464C171.089 66.8 170.593 67.304 170.209 67.976C169.841 68.632 169.657 69.416 169.657 70.328C169.657 71.24 169.841 72.04 170.209 72.728C170.593 73.416 171.089 73.944 171.697 74.312C172.321 74.664 172.977 74.84 173.665 74.84C174.369 74.84 175.025 74.664 175.633 74.312C176.241 73.96 176.729 73.448 177.097 72.776C177.481 72.088 177.673 71.288 177.673 70.376ZM206.269 63.56C207.309 63.56 208.237 63.776 209.053 64.208C209.885 64.64 210.533 65.28 210.997 66.128C211.477 66.976 211.717 68 211.717 69.2V77H209.005V69.608C209.005 68.424 208.709 67.52 208.117 66.896C207.525 66.256 206.717 65.936 205.693 65.936C204.669 65.936 203.853 66.256 203.245 66.896C202.653 67.52 202.357 68.424 202.357 69.608V77H199.645V69.608C199.645 68.424 199.349 67.52 198.757 66.896C198.165 66.256 197.357 65.936 196.333 65.936C195.309 65.936 194.493 66.256 193.885 66.896C193.293 67.52 192.997 68.424 192.997 69.608V77H190.261V63.776H192.997V65.288C193.445 64.744 194.013 64.32 194.701 64.016C195.389 63.712 196.125 63.56 196.909 63.56C197.965 63.56 198.909 63.784 199.741 64.232C200.573 64.68 201.213 65.328 201.661 66.176C202.061 65.376 202.685 64.744 203.533 64.28C204.381 63.8 205.293 63.56 206.269 63.56ZM227.174 63.776V77H224.438V75.44C224.006 75.984 223.438 76.416 222.734 76.736C222.046 77.04 221.31 77.192 220.526 77.192C219.486 77.192 218.55 76.976 217.718 76.544C216.902 76.112 216.254 75.472 215.774 74.624C215.31 73.776 215.078 72.752 215.078 71.552V63.776H217.79V71.144C217.79 72.328 218.086 73.24 218.678 73.88C219.27 74.504 220.078 74.816 221.102 74.816C222.126 74.816 222.934 74.504 223.526 73.88C224.134 73.24 224.438 72.328 224.438 71.144V63.776H227.174ZM229.872 70.376C229.872 69.016 230.144 67.824 230.688 66.8C231.248 65.76 232.016 64.96 232.992 64.4C233.968 63.84 235.088 63.56 236.352 63.56C237.952 63.56 239.272 63.944 240.312 64.712C241.368 65.464 242.08 66.544 242.448 67.952H239.496C239.256 67.296 238.872 66.784 238.344 66.416C237.816 66.048 237.152 65.864 236.352 65.864C235.232 65.864 234.336 66.264 233.664 67.064C233.008 67.848 232.68 68.952 232.68 70.376C232.68 71.8 233.008 72.912 233.664 73.712C234.336 74.512 235.232 74.912 236.352 74.912C237.936 74.912 238.984 74.216 239.496 72.824H242.448C242.064 74.168 241.344 75.24 240.288 76.04C239.232 76.824 237.92 77.216 236.352 77.216C235.088 77.216 233.968 76.936 232.992 76.376C232.016 75.8 231.248 75 230.688 73.976C230.144 72.936 229.872 71.736 229.872 70.376ZM252.015 63.56C253.023 63.56 253.919 63.776 254.703 64.208C255.503 64.64 256.127 65.28 256.575 66.128C257.039 66.976 257.271 68 257.271 69.2V77H254.559V69.608C254.559 68.424 254.263 67.52 253.671 66.896C253.079 66.256 252.271 65.936 251.247 65.936C250.223 65.936 249.407 66.256 248.799 66.896C248.207 67.52 247.911 68.424 247.911 69.608V77H245.175V59.24H247.911V65.312C248.375 64.752 248.959 64.32 249.663 64.016C250.383 63.712 251.167 63.56 252.015 63.56ZM17.808 92.56C18.848 92.56 19.776 92.776 20.592 93.208C21.424 93.64 22.072 94.28 22.536 95.128C23.016 95.976 23.256 97 23.256 98.2V106H20.544V98.608C20.544 97.424 20.248 96.52 19.656 95.896C19.064 95.256 18.256 94.936 17.232 94.936C16.208 94.936 15.392 95.256 14.784 95.896C14.192 96.52 13.896 97.424 13.896 98.608V106H11.184V98.608C11.184 97.424 10.888 96.52 10.296 95.896C9.704 95.256 8.896 94.936 7.872 94.936C6.848 94.936 6.032 95.256 5.424 95.896C4.832 96.52 4.536 97.424 4.536 98.608V106H1.8V92.776H4.536V94.288C4.984 93.744 5.552 93.32 6.24 93.016C6.928 92.712 7.664 92.56 8.448 92.56C9.504 92.56 10.448 92.784 11.28 93.232C12.112 93.68 12.752 94.328 13.2 95.176C13.6 94.376 14.224 93.744 15.072 93.28C15.92 92.8 16.832 92.56 17.808 92.56ZM32.4735 106.216C31.2255 106.216 30.0975 105.936 29.0895 105.376C28.0815 104.8 27.2895 104 26.7135 102.976C26.1375 101.936 25.8495 100.736 25.8495 99.376C25.8495 98.032 26.1455 96.84 26.7375 95.8C27.3295 94.76 28.1375 93.96 29.1615 93.4C30.1855 92.84 31.3295 92.56 32.5935 92.56C33.8575 92.56 35.0015 92.84 36.0255 93.4C37.0495 93.96 37.8575 94.76 38.4495 95.8C39.0415 96.84 39.3375 98.032 39.3375 99.376C39.3375 100.72 39.0335 101.912 38.4255 102.952C37.8175 103.992 36.9855 104.8 35.9295 105.376C34.8895 105.936 33.7375 106.216 32.4735 106.216ZM32.4735 103.84C33.1775 103.84 33.8335 103.672 34.4415 103.336C35.0655 103 35.5695 102.496 35.9535 101.824C36.3375 101.152 36.5295 100.336 36.5295 99.376C36.5295 98.416 36.3455 97.608 35.9775 96.952C35.6095 96.28 35.1215 95.776 34.5135 95.44C33.9055 95.104 33.2495 94.936 32.5455 94.936C31.8415 94.936 31.1855 95.104 30.5775 95.44C29.9855 95.776 29.5135 96.28 29.1615 96.952C28.8095 97.608 28.6335 98.416 28.6335 99.376C28.6335 100.8 28.9935 101.904 29.7135 102.688C30.4495 103.456 31.3695 103.84 32.4735 103.84ZM44.7782 94.696C45.1782 94.024 45.7062 93.504 46.3622 93.136C47.0342 92.752 47.8262 92.56 48.7382 92.56V95.392H48.0422C46.9702 95.392 46.1542 95.664 45.5942 96.208C45.0502 96.752 44.7782 97.696 44.7782 99.04V106H42.0422V92.776H44.7782V94.696ZM63.3731 99.064C63.3731 99.56 63.3411 100.008 63.2771 100.408H53.1731C53.2531 101.464 53.6451 102.312 54.3491 102.952C55.0531 103.592 55.9171 103.912 56.9411 103.912C58.4131 103.912 59.4531 103.296 60.0611 102.064H63.0131C62.6131 103.28 61.8851 104.28 60.8291 105.064C59.7891 105.832 58.4931 106.216 56.9411 106.216C55.6771 106.216 54.5411 105.936 53.5331 105.376C52.5411 104.8 51.7571 104 51.1811 102.976C50.6211 101.936 50.3411 100.736 50.3411 99.376C50.3411 98.016 50.6131 96.824 51.1571 95.8C51.7171 94.76 52.4931 93.96 53.4851 93.4C54.4931 92.84 55.6451 92.56 56.9411 92.56C58.1891 92.56 59.3011 92.832 60.2771 93.376C61.2531 93.92 62.0131 94.688 62.5571 95.68C63.1011 96.656 63.3731 97.784 63.3731 99.064ZM60.5171 98.2C60.5011 97.192 60.1411 96.384 59.4371 95.776C58.7331 95.168 57.8611 94.864 56.8211 94.864C55.8771 94.864 55.0691 95.168 54.3971 95.776C53.7251 96.368 53.3251 97.176 53.1971 98.2H60.5171Z" fill="white"/>
<path d="M120.694 19.216C119.654 19.216 118.718 19.032 117.886 18.664C117.07 18.28 116.422 17.768 115.942 17.128C115.462 16.472 115.206 15.744 115.174 14.944H118.006C118.054 15.504 118.318 15.976 118.798 16.36C119.294 16.728 119.91 16.912 120.646 16.912C121.414 16.912 122.006 16.768 122.422 16.48C122.854 16.176 123.07 15.792 123.07 15.328C123.07 14.832 122.83 14.464 122.35 14.224C121.886 13.984 121.142 13.72 120.118 13.432C119.126 13.16 118.318 12.896 117.694 12.64C117.07 12.384 116.526 11.992 116.062 11.464C115.614 10.936 115.39 10.24 115.39 9.376C115.39 8.672 115.598 8.032 116.014 7.456C116.43 6.864 117.022 6.4 117.79 6.064C118.574 5.728 119.47 5.56 120.478 5.56C121.982 5.56 123.19 5.944 124.102 6.712C125.03 7.464 125.526 8.496 125.59 9.808H122.854C122.806 9.216 122.566 8.744 122.134 8.392C121.702 8.04 121.118 7.864 120.382 7.864C119.662 7.864 119.11 8 118.726 8.272C118.342 8.544 118.15 8.904 118.15 9.352C118.15 9.704 118.278 10 118.534 10.24C118.79 10.48 119.102 10.672 119.47 10.816C119.838 10.944 120.382 11.112 121.102 11.32C122.062 11.576 122.846 11.84 123.454 12.112C124.078 12.368 124.614 12.752 125.062 13.264C125.51 13.776 125.742 14.456 125.758 15.304C125.758 16.056 125.55 16.728 125.134 17.32C124.718 17.912 124.126 18.376 123.358 18.712C122.606 19.048 121.718 19.216 120.694 19.216ZM127.802 12.376C127.802 11.016 128.074 9.824 128.618 8.8C129.178 7.76 129.946 6.96 130.922 6.4C131.898 5.84 133.018 5.56 134.282 5.56C135.882 5.56 137.202 5.944 138.242 6.712C139.298 7.464 140.01 8.544 140.378 9.952H137.426C137.186 9.296 136.802 8.784 136.274 8.416C135.746 8.048 135.082 7.864 134.282 7.864C133.162 7.864 132.266 8.264 131.594 9.064C130.938 9.848 130.61 10.952 130.61 12.376C130.61 13.8 130.938 14.912 131.594 15.712C132.266 16.512 133.162 16.912 134.282 16.912C135.866 16.912 136.914 16.216 137.426 14.824H140.378C139.994 16.168 139.274 17.24 138.218 18.04C137.162 18.824 135.85 19.216 134.282 19.216C133.018 19.216 131.898 18.936 130.922 18.376C129.946 17.8 129.178 17 128.618 15.976C128.074 14.936 127.802 13.736 127.802 12.376ZM142.193 12.328C142.193 11 142.465 9.824 143.009 8.8C143.569 7.776 144.321 6.984 145.265 6.424C146.225 5.848 147.281 5.56 148.433 5.56C149.473 5.56 150.377 5.768 151.145 6.184C151.929 6.584 152.553 7.088 153.017 7.696V5.776H155.777V19H153.017V17.032C152.553 17.656 151.921 18.176 151.121 18.592C150.321 19.008 149.409 19.216 148.385 19.216C147.249 19.216 146.209 18.928 145.265 18.352C144.321 17.76 143.569 16.944 143.009 15.904C142.465 14.848 142.193 13.656 142.193 12.328ZM153.017 12.376C153.017 11.464 152.825 10.672 152.441 10C152.073 9.328 151.585 8.816 150.977 8.464C150.369 8.112 149.713 7.936 149.009 7.936C148.305 7.936 147.649 8.112 147.041 8.464C146.433 8.8 145.937 9.304 145.553 9.976C145.185 10.632 145.001 11.416 145.001 12.328C145.001 13.24 145.185 14.04 145.553 14.728C145.937 15.416 146.433 15.944 147.041 16.312C147.665 16.664 148.321 16.84 149.009 16.84C149.713 16.84 150.369 16.664 150.977 16.312C151.585 15.96 152.073 15.448 152.441 14.776C152.825 14.088 153.017 13.288 153.017 12.376ZM166.042 5.56C167.082 5.56 168.01 5.776 168.826 6.208C169.658 6.64 170.306 7.28 170.77 8.128C171.234 8.976 171.466 10 171.466 11.2V19H168.754V11.608C168.754 10.424 168.458 9.52 167.866 8.896C167.274 8.256 166.466 7.936 165.442 7.936C164.418 7.936 163.602 8.256 162.994 8.896C162.402 9.52 162.106 10.424 162.106 11.608V19H159.37V5.776H162.106V7.288C162.554 6.744 163.122 6.32 163.81 6.016C164.514 5.712 165.258 5.56 166.042 5.56ZM181.628 5.56C182.668 5.56 183.596 5.776 184.412 6.208C185.244 6.64 185.892 7.28 186.356 8.128C186.82 8.976 187.052 10 187.052 11.2V19H184.34V11.608C184.34 10.424 184.044 9.52 183.452 8.896C182.86 8.256 182.052 7.936 181.028 7.936C180.004 7.936 179.188 8.256 178.58 8.896C177.988 9.52 177.692 10.424 177.692 11.608V19H174.956V5.776H177.692V7.288C178.14 6.744 178.708 6.32 179.396 6.016C180.1 5.712 180.844 5.56 181.628 5.56ZM202.662 12.064C202.662 12.56 202.63 13.008 202.566 13.408H192.462C192.542 14.464 192.934 15.312 193.638 15.952C194.342 16.592 195.206 16.912 196.23 16.912C197.702 16.912 198.742 16.296 199.35 15.064H202.302C201.902 16.28 201.174 17.28 200.118 18.064C199.078 18.832 197.782 19.216 196.23 19.216C194.966 19.216 193.83 18.936 192.822 18.376C191.83 17.8 191.046 17 190.47 15.976C189.91 14.936 189.63 13.736 189.63 12.376C189.63 11.016 189.902 9.824 190.446 8.8C191.006 7.76 191.782 6.96 192.774 6.4C193.782 5.84 194.934 5.56 196.23 5.56C197.478 5.56 198.59 5.832 199.566 6.376C200.542 6.92 201.302 7.688 201.846 8.68C202.39 9.656 202.662 10.784 202.662 12.064ZM199.806 11.2C199.79 10.192 199.43 9.384 198.726 8.776C198.022 8.168 197.15 7.864 196.11 7.864C195.166 7.864 194.358 8.168 193.686 8.776C193.014 9.368 192.614 10.176 192.486 11.2H199.806ZM208.091 7.696C208.491 7.024 209.019 6.504 209.675 6.136C210.347 5.752 211.139 5.56 212.051 5.56V8.392H211.355C210.283 8.392 209.467 8.664 208.907 9.208C208.363 9.752 208.091 10.696 208.091 12.04V19H205.355V5.776H208.091V7.696ZM6.912 45.552L10.656 34.776H13.56L8.52 48H5.256L0.24 34.776H3.168L6.912 45.552ZM21.3641 48.216C20.1161 48.216 18.9881 47.936 17.9801 47.376C16.9721 46.8 16.1801 46 15.6041 44.976C15.0281 43.936 14.7401 42.736 14.7401 41.376C14.7401 40.032 15.0361 38.84 15.6281 37.8C16.2201 36.76 17.0281 35.96 18.0521 35.4C19.0761 34.84 20.2201 34.56 21.4841 34.56C22.7481 34.56 23.8921 34.84 24.9161 35.4C25.9401 35.96 26.7481 36.76 27.3401 37.8C27.9321 38.84 28.2281 40.032 28.2281 41.376C28.2281 42.72 27.9241 43.912 27.3161 44.952C26.7081 45.992 25.8761 46.8 24.8201 47.376C23.7801 47.936 22.6281 48.216 21.3641 48.216ZM21.3641 45.84C22.0681 45.84 22.7241 45.672 23.3321 45.336C23.9561 45 24.4601 44.496 24.8441 43.824C25.2281 43.152 25.4201 42.336 25.4201 41.376C25.4201 40.416 25.2361 39.608 24.8681 38.952C24.5001 38.28 24.0121 37.776 23.4041 37.44C22.7961 37.104 22.1401 36.936 21.4361 36.936C20.7321 36.936 20.0761 37.104 19.4681 37.44C18.8761 37.776 18.4041 38.28 18.0521 38.952C17.7001 39.608 17.5241 40.416 17.5241 41.376C17.5241 42.8 17.8841 43.904 18.6041 44.688C19.3401 45.456 20.2601 45.84 21.3641 45.84ZM33.6688 30.24V48H30.9328V30.24H33.6688ZM49.2369 34.776V48H46.5009V46.44C46.0689 46.984 45.5009 47.416 44.7969 47.736C44.1089 48.04 43.3729 48.192 42.5889 48.192C41.5489 48.192 40.6129 47.976 39.7809 47.544C38.9649 47.112 38.3169 46.472 37.8369 45.624C37.3729 44.776 37.1409 43.752 37.1409 42.552V34.776H39.8529V42.144C39.8529 43.328 40.1489 44.24 40.7409 44.88C41.3329 45.504 42.1409 45.816 43.1649 45.816C44.1889 45.816 44.9969 45.504 45.5889 44.88C46.1969 44.24 46.5009 43.328 46.5009 42.144V34.776H49.2369ZM68.8549 34.56C69.8949 34.56 70.8229 34.776 71.6389 35.208C72.4709 35.64 73.1189 36.28 73.5829 37.128C74.0629 37.976 74.3029 39 74.3029 40.2V48H71.5909V40.608C71.5909 39.424 71.2949 38.52 70.7029 37.896C70.1109 37.256 69.3029 36.936 68.2789 36.936C67.2549 36.936 66.4389 37.256 65.8309 37.896C65.2389 38.52 64.9429 39.424 64.9429 40.608V48H62.2309V40.608C62.2309 39.424 61.9349 38.52 61.3429 37.896C60.7509 37.256 59.9429 36.936 58.9189 36.936C57.8949 36.936 57.0789 37.256 56.4709 37.896C55.8789 38.52 55.5829 39.424 55.5829 40.608V48H52.8469V34.776H55.5829V36.288C56.0309 35.744 56.5989 35.32 57.2869 35.016C57.9749 34.712 58.7109 34.56 59.4949 34.56C60.5509 34.56 61.4949 34.784 62.3269 35.232C63.1589 35.68 63.7989 36.328 64.2469 37.176C64.6469 36.376 65.2709 35.744 66.1189 35.28C66.9669 34.8 67.8789 34.56 68.8549 34.56ZM89.9044 41.064C89.9044 41.56 89.8724 42.008 89.8084 42.408H79.7044C79.7844 43.464 80.1764 44.312 80.8804 44.952C81.5844 45.592 82.4484 45.912 83.4724 45.912C84.9444 45.912 85.9844 45.296 86.5924 44.064H89.5444C89.1444 45.28 88.4164 46.28 87.3604 47.064C86.3204 47.832 85.0244 48.216 83.4724 48.216C82.2084 48.216 81.0724 47.936 80.0644 47.376C79.0724 46.8 78.2884 46 77.7124 44.976C77.1524 43.936 76.8724 42.736 76.8724 41.376C76.8724 40.016 77.1444 38.824 77.6884 37.8C78.2484 36.76 79.0244 35.96 80.0164 35.4C81.0244 34.84 82.1764 34.56 83.4724 34.56C84.7204 34.56 85.8324 34.832 86.8084 35.376C87.7844 35.92 88.5444 36.688 89.0884 37.68C89.6324 38.656 89.9044 39.784 89.9044 41.064ZM87.0484 40.2C87.0324 39.192 86.6724 38.384 85.9684 37.776C85.2644 37.168 84.3924 36.864 83.3524 36.864C82.4084 36.864 81.6004 37.168 80.9284 37.776C80.2564 38.368 79.8564 39.176 79.7284 40.2H87.0484ZM295.027 44.712L292.123 51.336H290.347L292.051 44.712H295.027ZM4.536 65.744C5 65.104 5.632 64.584 6.432 64.184C7.248 63.768 8.152 63.56 9.144 63.56C10.312 63.56 11.368 63.84 12.312 64.4C13.256 64.96 14 65.76 14.544 66.8C15.088 67.824 15.36 69 15.36 70.328C15.36 71.656 15.088 72.848 14.544 73.904C14 74.944 13.248 75.76 12.288 76.352C11.344 76.928 10.296 77.216 9.144 77.216C8.12 77.216 7.208 77.016 6.408 76.616C5.624 76.216 5 75.704 4.536 75.08V77H1.8V59.24H4.536V65.744ZM12.576 70.328C12.576 69.416 12.384 68.632 12 67.976C11.632 67.304 11.136 66.8 10.512 66.464C9.904 66.112 9.248 65.936 8.544 65.936C7.856 65.936 7.2 66.112 6.576 66.464C5.968 66.816 5.472 67.328 5.088 68C4.72 68.672 4.536 69.464 4.536 70.376C4.536 71.288 4.72 72.088 5.088 72.776C5.472 73.448 5.968 73.96 6.576 74.312C7.2 74.664 7.856 74.84 8.544 74.84C9.248 74.84 9.904 74.664 10.512 74.312C11.136 73.944 11.632 73.416 12 72.728C12.384 72.04 12.576 71.24 12.576 70.328ZM20.8016 65.696C21.2016 65.024 21.7296 64.504 22.3856 64.136C23.0576 63.752 23.8496 63.56 24.7616 63.56V66.392H24.0656C22.9936 66.392 22.1776 66.664 21.6176 67.208C21.0736 67.752 20.8016 68.696 20.8016 70.04V77H18.0656V63.776H20.8016V65.696ZM39.3966 70.064C39.3966 70.56 39.3646 71.008 39.3006 71.408H29.1966C29.2766 72.464 29.6686 73.312 30.3726 73.952C31.0766 74.592 31.9406 74.912 32.9646 74.912C34.4366 74.912 35.4766 74.296 36.0846 73.064H39.0366C38.6366 74.28 37.9086 75.28 36.8526 76.064C35.8126 76.832 34.5166 77.216 32.9646 77.216C31.7006 77.216 30.5646 76.936 29.5566 76.376C28.5646 75.8 27.7806 75 27.2046 73.976C26.6446 72.936 26.3646 71.736 26.3646 70.376C26.3646 69.016 26.6366 67.824 27.1806 66.8C27.7406 65.76 28.5166 64.96 29.5086 64.4C30.5166 63.84 31.6686 63.56 32.9646 63.56C34.2126 63.56 35.3246 63.832 36.3006 64.376C37.2766 64.92 38.0366 65.688 38.5806 66.68C39.1246 67.656 39.3966 68.784 39.3966 70.064ZM36.5406 69.2C36.5246 68.192 36.1646 67.384 35.4606 66.776C34.7566 66.168 33.8846 65.864 32.8446 65.864C31.9006 65.864 31.0926 66.168 30.4206 66.776C29.7486 67.368 29.3486 68.176 29.2206 69.2H36.5406ZM41.1771 70.328C41.1771 69 41.4491 67.824 41.9931 66.8C42.5531 65.776 43.3051 64.984 44.2491 64.424C45.2091 63.848 46.2651 63.56 47.4171 63.56C48.4571 63.56 49.3611 63.768 50.1291 64.184C50.9131 64.584 51.5371 65.088 52.0011 65.696V63.776H54.7611V77H52.0011V75.032C51.5371 75.656 50.9051 76.176 50.1051 76.592C49.3051 77.008 48.3931 77.216 47.3691 77.216C46.2331 77.216 45.1931 76.928 44.2491 76.352C43.3051 75.76 42.5531 74.944 41.9931 73.904C41.4491 72.848 41.1771 71.656 41.1771 70.328ZM52.0011 70.376C52.0011 69.464 51.8091 68.672 51.4251 68C51.0571 67.328 50.5691 66.816 49.9611 66.464C49.3531 66.112 48.6971 65.936 47.9931 65.936C47.2891 65.936 46.6331 66.112 46.0251 66.464C45.4171 66.8 44.9211 67.304 44.5371 67.976C44.1691 68.632 43.9851 69.416 43.9851 70.328C43.9851 71.24 44.1691 72.04 44.5371 72.728C44.9211 73.416 45.4171 73.944 46.0251 74.312C46.6491 74.664 47.3051 74.84 47.9931 74.84C48.6971 74.84 49.3531 74.664 49.9611 74.312C50.5691 73.96 51.0571 73.448 51.4251 72.776C51.8091 72.088 52.0011 71.288 52.0011 70.376ZM63.5867 70.4L69.6827 77H65.9867L61.0907 71.312V77H58.3547V59.24H61.0907V69.56L65.8907 63.776H69.6827L63.5867 70.4ZM77.3798 77.216C76.1318 77.216 75.0038 76.936 73.9958 76.376C72.9878 75.8 72.1958 75 71.6198 73.976C71.0438 72.936 70.7558 71.736 70.7558 70.376C70.7558 69.032 71.0518 67.84 71.6438 66.8C72.2358 65.76 73.0438 64.96 74.0678 64.4C75.0918 63.84 76.2358 63.56 77.4998 63.56C78.7638 63.56 79.9078 63.84 80.9318 64.4C81.9558 64.96 82.7638 65.76 83.3558 66.8C83.9478 67.84 84.2438 69.032 84.2438 70.376C84.2438 71.72 83.9398 72.912 83.3318 73.952C82.7238 74.992 81.8918 75.8 80.8358 76.376C79.7958 76.936 78.6438 77.216 77.3798 77.216ZM77.3798 74.84C78.0838 74.84 78.7398 74.672 79.3478 74.336C79.9718 74 80.4758 73.496 80.8598 72.824C81.2438 72.152 81.4358 71.336 81.4358 70.376C81.4358 69.416 81.2518 68.608 80.8838 67.952C80.5158 67.28 80.0278 66.776 79.4198 66.44C78.8118 66.104 78.1558 65.936 77.4518 65.936C76.7478 65.936 76.0918 66.104 75.4838 66.44C74.8918 66.776 74.4198 67.28 74.0678 67.952C73.7158 68.608 73.5398 69.416 73.5398 70.376C73.5398 71.8 73.8998 72.904 74.6198 73.688C75.3558 74.456 76.2758 74.84 77.3798 74.84ZM98.9244 63.776V77H96.1884V75.44C95.7564 75.984 95.1884 76.416 94.4844 76.736C93.7964 77.04 93.0604 77.192 92.2764 77.192C91.2364 77.192 90.3004 76.976 89.4684 76.544C88.6524 76.112 88.0044 75.472 87.5244 74.624C87.0604 73.776 86.8284 72.752 86.8284 71.552V63.776H89.5404V71.144C89.5404 72.328 89.8364 73.24 90.4284 73.88C91.0204 74.504 91.8284 74.816 92.8524 74.816C93.8764 74.816 94.6844 74.504 95.2764 73.88C95.8844 73.24 96.1884 72.328 96.1884 71.144V63.776H98.9244ZM105.726 66.008V73.328C105.726 73.824 105.838 74.184 106.062 74.408C106.302 74.616 106.702 74.72 107.262 74.72H108.942V77H106.782C105.55 77 104.606 76.712 103.95 76.136C103.294 75.56 102.966 74.624 102.966 73.328V66.008H101.406V63.776H102.966V60.488H105.726V63.776H108.942V66.008H105.726ZM116.264 77.216C115.224 77.216 114.288 77.032 113.456 76.664C112.64 76.28 111.992 75.768 111.512 75.128C111.032 74.472 110.776 73.744 110.744 72.944H113.576C113.624 73.504 113.888 73.976 114.368 74.36C114.864 74.728 115.48 74.912 116.216 74.912C116.984 74.912 117.576 74.768 117.992 74.48C118.424 74.176 118.64 73.792 118.64 73.328C118.64 72.832 118.4 72.464 117.92 72.224C117.456 71.984 116.712 71.72 115.688 71.432C114.696 71.16 113.888 70.896 113.264 70.64C112.64 70.384 112.096 69.992 111.632 69.464C111.184 68.936 110.96 68.24 110.96 67.376C110.96 66.672 111.168 66.032 111.584 65.456C112 64.864 112.592 64.4 113.36 64.064C114.144 63.728 115.04 63.56 116.048 63.56C117.552 63.56 118.76 63.944 119.672 64.712C120.6 65.464 121.096 66.496 121.16 67.808H118.424C118.376 67.216 118.136 66.744 117.704 66.392C117.272 66.04 116.688 65.864 115.952 65.864C115.232 65.864 114.68 66 114.296 66.272C113.912 66.544 113.72 66.904 113.72 67.352C113.72 67.704 113.848 68 114.104 68.24C114.36 68.48 114.672 68.672 115.04 68.816C115.408 68.944 115.952 69.112 116.672 69.32C117.632 69.576 118.416 69.84 119.024 70.112C119.648 70.368 120.184 70.752 120.632 71.264C121.08 71.776 121.312 72.456 121.328 73.304C121.328 74.056 121.12 74.728 120.704 75.32C120.288 75.912 119.696 76.376 118.928 76.712C118.176 77.048 117.288 77.216 116.264 77.216Z" fill="#F4C430"/>
</svg>
