<svg width="306" height="135" viewBox="0 0 306 135" fill="none" xmlns="http://www.w3.org/2000/svg">
<path d="M11.856 14.592H4.872L3.672 18H0.816L6.792 1.296H9.96L15.936 18H13.056L11.856 14.592ZM11.088 12.36L8.376 4.608L5.64 12.36H11.088ZM21.2704 0.24V18H18.5344V0.24H21.2704ZM27.5985 0.24V18H24.8625V0.24H27.5985ZM40.617 7.008V14.328C40.617 14.824 40.729 15.184 40.953 15.408C41.193 15.616 41.593 15.72 42.153 15.72H43.833V18H41.673C40.441 18 39.497 17.712 38.841 17.136C38.185 16.56 37.857 15.624 37.857 14.328V7.008H36.297V4.776H37.857V1.488H40.617V4.776H43.833V7.008H40.617ZM49.0907 6.696C49.4907 6.024 50.0187 5.504 50.6747 5.136C51.3467 4.752 52.1387 4.56 53.0507 4.56V7.392H52.3547C51.2827 7.392 50.4667 7.664 49.9067 8.208C49.3627 8.752 49.0907 9.696 49.0907 11.04V18H46.3547V4.776H49.0907V6.696ZM54.6536 11.328C54.6536 10 54.9256 8.824 55.4696 7.8C56.0296 6.776 56.7816 5.984 57.7256 5.424C58.6856 4.848 59.7416 4.56 60.8936 4.56C61.9336 4.56 62.8376 4.768 63.6056 5.184C64.3896 5.584 65.0136 6.088 65.4776 6.696V4.776H68.2376V18H65.4776V16.032C65.0136 16.656 64.3816 17.176 63.5816 17.592C62.7816 18.008 61.8696 18.216 60.8456 18.216C59.7096 18.216 58.6696 17.928 57.7256 17.352C56.7816 16.76 56.0296 15.944 55.4696 14.904C54.9256 13.848 54.6536 12.656 54.6536 11.328ZM65.4776 11.376C65.4776 10.464 65.2856 9.672 64.9016 9C64.5336 8.328 64.0456 7.816 63.4376 7.464C62.8296 7.112 62.1736 6.936 61.4696 6.936C60.7656 6.936 60.1096 7.112 59.5016 7.464C58.8936 7.8 58.3976 8.304 58.0136 8.976C57.6456 9.632 57.4616 10.416 57.4616 11.328C57.4616 12.24 57.6456 13.04 58.0136 13.728C58.3976 14.416 58.8936 14.944 59.5016 15.312C60.1256 15.664 60.7816 15.84 61.4696 15.84C62.1736 15.84 62.8296 15.664 63.4376 15.312C64.0456 14.96 64.5336 14.448 64.9016 13.776C65.2856 13.088 65.4776 12.288 65.4776 11.376ZM70.9193 11.328C70.9193 10 71.1913 8.824 71.7353 7.8C72.2953 6.776 73.0473 5.984 73.9913 5.424C74.9513 4.848 76.0153 4.56 77.1833 4.56C78.0473 4.56 78.8953 4.752 79.7273 5.136C80.5753 5.504 81.2473 6 81.7433 6.624V0.24H84.5033V18H81.7433V16.008C81.2953 16.648 80.6713 17.176 79.8713 17.592C79.0873 18.008 78.1833 18.216 77.1593 18.216C76.0073 18.216 74.9513 17.928 73.9913 17.352C73.0473 16.76 72.2953 15.944 71.7353 14.904C71.1913 13.848 70.9193 12.656 70.9193 11.328ZM81.7433 11.376C81.7433 10.464 81.5513 9.672 81.1673 9C80.7993 8.328 80.3113 7.816 79.7033 7.464C79.0953 7.112 78.4393 6.936 77.7353 6.936C77.0313 6.936 76.3753 7.112 75.7673 7.464C75.1593 7.8 74.6633 8.304 74.2793 8.976C73.9113 9.632 73.7273 10.416 73.7273 11.328C73.7273 12.24 73.9113 13.04 74.2793 13.728C74.6633 14.416 75.1593 14.944 75.7673 15.312C76.3913 15.664 77.0473 15.84 77.7353 15.84C78.4393 15.84 79.0953 15.664 79.7033 15.312C80.3113 14.96 80.7993 14.448 81.1673 13.776C81.5513 13.088 81.7433 12.288 81.7433 11.376ZM100.217 11.064C100.217 11.56 100.185 12.008 100.121 12.408H90.0169C90.0969 13.464 90.4889 14.312 91.1929 14.952C91.8969 15.592 92.7609 15.912 93.7849 15.912C95.2569 15.912 96.2969 15.296 96.9049 14.064H99.8569C99.4569 15.28 98.7289 16.28 97.6729 17.064C96.6329 17.832 95.3369 18.216 93.7849 18.216C92.5209 18.216 91.3849 17.936 90.3769 17.376C89.3849 16.8 88.6009 16 88.0249 14.976C87.4649 13.936 87.1849 12.736 87.1849 11.376C87.1849 10.016 87.4569 8.824 88.0009 7.8C88.5609 6.76 89.3369 5.96 90.3289 5.4C91.3369 4.84 92.4889 4.56 93.7849 4.56C95.0329 4.56 96.1449 4.832 97.1209 5.376C98.0969 5.92 98.8569 6.688 99.4009 7.68C99.9449 8.656 100.217 9.784 100.217 11.064ZM97.3609 10.2C97.3449 9.192 96.9849 8.384 96.2809 7.776C95.5769 7.168 94.7049 6.864 93.6649 6.864C92.7209 6.864 91.9129 7.168 91.2409 7.776C90.5689 8.368 90.1689 9.176 90.0409 10.2H97.3609ZM105.645 6.696C106.045 6.024 106.573 5.504 107.229 5.136C107.901 4.752 108.693 4.56 109.605 4.56V7.392H108.909C107.837 7.392 107.021 7.664 106.461 8.208C105.917 8.752 105.645 9.696 105.645 11.04V18H102.909V4.776H105.645V6.696ZM116.92 18.216C115.88 18.216 114.944 18.032 114.112 17.664C113.296 17.28 112.648 16.768 112.168 16.128C111.688 15.472 111.432 14.744 111.4 13.944H114.232C114.28 14.504 114.544 14.976 115.024 15.36C115.52 15.728 116.136 15.912 116.872 15.912C117.64 15.912 118.232 15.768 118.648 15.48C119.08 15.176 119.296 14.792 119.296 14.328C119.296 13.832 119.056 13.464 118.576 13.224C118.112 12.984 117.368 12.72 116.344 12.432C115.352 12.16 114.544 11.896 113.92 11.64C113.296 11.384 112.752 10.992 112.288 10.464C111.84 9.936 111.616 9.24 111.616 8.376C111.616 7.672 111.824 7.032 112.24 6.456C112.656 5.864 113.248 5.4 114.016 5.064C114.8 4.728 115.696 4.56 116.704 4.56C118.208 4.56 119.416 4.944 120.328 5.712C121.256 6.464 121.752 7.496 121.816 8.808H119.08C119.032 8.216 118.792 7.744 118.36 7.392C117.928 7.04 117.344 6.864 116.608 6.864C115.888 6.864 115.336 7 114.952 7.272C114.568 7.544 114.376 7.904 114.376 8.352C114.376 8.704 114.504 9 114.76 9.24C115.016 9.48 115.328 9.672 115.696 9.816C116.064 9.944 116.608 10.112 117.328 10.32C118.288 10.576 119.072 10.84 119.68 11.112C120.304 11.368 120.84 11.752 121.288 12.264C121.736 12.776 121.968 13.456 121.984 14.304C121.984 15.056 121.776 15.728 121.36 16.32C120.944 16.912 120.352 17.376 119.584 17.712C118.832 18.048 117.944 18.216 116.92 18.216ZM130.263 11.328C130.263 10 130.535 8.824 131.079 7.8C131.639 6.776 132.391 5.984 133.335 5.424C134.295 4.848 135.351 4.56 136.503 4.56C137.543 4.56 138.447 4.768 139.215 5.184C139.999 5.584 140.623 6.088 141.087 6.696V4.776H143.847V18H141.087V16.032C140.623 16.656 139.991 17.176 139.191 17.592C138.391 18.008 137.479 18.216 136.455 18.216C135.319 18.216 134.279 17.928 133.335 17.352C132.391 16.76 131.639 15.944 131.079 14.904C130.535 13.848 130.263 12.656 130.263 11.328ZM141.087 11.376C141.087 10.464 140.895 9.672 140.511 9C140.143 8.328 139.655 7.816 139.047 7.464C138.439 7.112 137.783 6.936 137.079 6.936C136.375 6.936 135.719 7.112 135.111 7.464C134.503 7.8 134.007 8.304 133.623 8.976C133.255 9.632 133.071 10.416 133.071 11.328C133.071 12.24 133.255 13.04 133.623 13.728C134.007 14.416 134.503 14.944 135.111 15.312C135.735 15.664 136.391 15.84 137.079 15.84C137.783 15.84 138.439 15.664 139.047 15.312C139.655 14.96 140.143 14.448 140.511 13.776C140.895 13.088 141.087 12.288 141.087 11.376ZM150.177 6.696C150.577 6.024 151.105 5.504 151.761 5.136C152.433 4.752 153.225 4.56 154.137 4.56V7.392H153.441C152.369 7.392 151.553 7.664 150.993 8.208C150.449 8.752 150.177 9.696 150.177 11.04V18H147.441V4.776H150.177V6.696ZM168.772 11.064C168.772 11.56 168.74 12.008 168.676 12.408H158.572C158.652 13.464 159.044 14.312 159.748 14.952C160.452 15.592 161.316 15.912 162.34 15.912C163.812 15.912 164.852 15.296 165.46 14.064H168.412C168.012 15.28 167.284 16.28 166.228 17.064C165.188 17.832 163.892 18.216 162.34 18.216C161.076 18.216 159.94 17.936 158.932 17.376C157.94 16.8 157.156 16 156.58 14.976C156.02 13.936 155.74 12.736 155.74 11.376C155.74 10.016 156.012 8.824 156.556 7.8C157.116 6.76 157.892 5.96 158.884 5.4C159.892 4.84 161.044 4.56 162.34 4.56C163.588 4.56 164.7 4.832 165.676 5.376C166.652 5.92 167.412 6.688 167.956 7.68C168.5 8.656 168.772 9.784 168.772 11.064ZM165.916 10.2C165.9 9.192 165.54 8.384 164.836 7.776C164.132 7.168 163.26 6.864 162.22 6.864C161.276 6.864 160.468 7.168 159.796 7.776C159.124 8.368 158.724 9.176 158.596 10.2H165.916ZM182.498 18.216C181.458 18.216 180.522 18.032 179.69 17.664C178.874 17.28 178.226 16.768 177.746 16.128C177.266 15.472 177.01 14.744 176.978 13.944H179.81C179.858 14.504 180.122 14.976 180.602 15.36C181.098 15.728 181.714 15.912 182.45 15.912C183.218 15.912 183.81 15.768 184.226 15.48C184.658 15.176 184.874 14.792 184.874 14.328C184.874 13.832 184.634 13.464 184.154 13.224C183.69 12.984 182.946 12.72 181.922 12.432C180.93 12.16 180.122 11.896 179.498 11.64C178.874 11.384 178.33 10.992 177.866 10.464C177.418 9.936 177.194 9.24 177.194 8.376C177.194 7.672 177.402 7.032 177.818 6.456C178.234 5.864 178.826 5.4 179.594 5.064C180.378 4.728 181.274 4.56 182.282 4.56C183.786 4.56 184.994 4.944 185.906 5.712C186.834 6.464 187.33 7.496 187.394 8.808H184.658C184.61 8.216 184.37 7.744 183.938 7.392C183.506 7.04 182.922 6.864 182.186 6.864C181.466 6.864 180.914 7 180.53 7.272C180.146 7.544 179.954 7.904 179.954 8.352C179.954 8.704 180.082 9 180.338 9.24C180.594 9.48 180.906 9.672 181.274 9.816C181.642 9.944 182.186 10.112 182.906 10.32C183.866 10.576 184.65 10.84 185.258 11.112C185.882 11.368 186.418 11.752 186.866 12.264C187.314 12.776 187.546 13.456 187.562 14.304C187.562 15.056 187.354 15.728 186.938 16.32C186.522 16.912 185.93 17.376 185.162 17.712C184.41 18.048 183.522 18.216 182.498 18.216ZM202.639 11.064C202.639 11.56 202.607 12.008 202.543 12.408H192.439C192.519 13.464 192.911 14.312 193.615 14.952C194.319 15.592 195.183 15.912 196.207 15.912C197.679 15.912 198.719 15.296 199.327 14.064H202.279C201.879 15.28 201.151 16.28 200.095 17.064C199.055 17.832 197.759 18.216 196.207 18.216C194.943 18.216 193.807 17.936 192.799 17.376C191.807 16.8 191.023 16 190.447 14.976C189.887 13.936 189.607 12.736 189.607 11.376C189.607 10.016 189.879 8.824 190.423 7.8C190.983 6.76 191.759 5.96 192.751 5.4C193.759 4.84 194.911 4.56 196.207 4.56C197.455 4.56 198.567 4.832 199.543 5.376C200.519 5.92 201.279 6.688 201.823 7.68C202.367 8.656 202.639 9.784 202.639 11.064ZM199.783 10.2C199.767 9.192 199.407 8.384 198.703 7.776C197.999 7.168 197.127 6.864 196.087 6.864C195.143 6.864 194.335 7.168 193.663 7.776C192.991 8.368 192.591 9.176 192.463 10.2H199.783ZM204.419 11.376C204.419 10.016 204.691 8.824 205.235 7.8C205.795 6.76 206.563 5.96 207.539 5.4C208.515 4.84 209.635 4.56 210.899 4.56C212.499 4.56 213.819 4.944 214.859 5.712C215.915 6.464 216.627 7.544 216.995 8.952H214.043C213.803 8.296 213.419 7.784 212.891 7.416C212.363 7.048 211.699 6.864 210.899 6.864C209.779 6.864 208.883 7.264 208.211 8.064C207.555 8.848 207.227 9.952 207.227 11.376C207.227 12.8 207.555 13.912 208.211 14.712C208.883 15.512 209.779 15.912 210.899 15.912C212.483 15.912 213.531 15.216 214.043 13.824H216.995C216.611 15.168 215.891 16.24 214.835 17.04C213.779 17.824 212.467 18.216 210.899 18.216C209.635 18.216 208.515 17.936 207.539 17.376C206.563 16.8 205.795 16 205.235 14.976C204.691 13.936 204.419 12.736 204.419 11.376ZM231.698 4.776V18H228.962V16.44C228.53 16.984 227.962 17.416 227.258 17.736C226.57 18.04 225.834 18.192 225.05 18.192C224.01 18.192 223.074 17.976 222.242 17.544C221.426 17.112 220.778 16.472 220.298 15.624C219.834 14.776 219.602 13.752 219.602 12.552V4.776H222.314V12.144C222.314 13.328 222.61 14.24 223.202 14.88C223.794 15.504 224.602 15.816 225.626 15.816C226.65 15.816 227.458 15.504 228.05 14.88C228.658 14.24 228.962 13.328 228.962 12.144V4.776H231.698ZM238.044 6.696C238.444 6.024 238.972 5.504 239.628 5.136C240.3 4.752 241.092 4.56 242.004 4.56V7.392H241.308C240.236 7.392 239.42 7.664 238.86 8.208C238.316 8.752 238.044 9.696 238.044 11.04V18H235.308V4.776H238.044V6.696ZM256.639 11.064C256.639 11.56 256.607 12.008 256.543 12.408H246.439C246.519 13.464 246.911 14.312 247.615 14.952C248.319 15.592 249.183 15.912 250.207 15.912C251.679 15.912 252.719 15.296 253.327 14.064H256.279C255.879 15.28 255.151 16.28 254.095 17.064C253.055 17.832 251.759 18.216 250.207 18.216C248.943 18.216 247.807 17.936 246.799 17.376C245.807 16.8 245.023 16 244.447 14.976C243.887 13.936 243.607 12.736 243.607 11.376C243.607 10.016 243.879 8.824 244.423 7.8C244.983 6.76 245.759 5.96 246.751 5.4C247.759 4.84 248.911 4.56 250.207 4.56C251.455 4.56 252.567 4.832 253.543 5.376C254.519 5.92 255.279 6.688 255.823 7.68C256.367 8.656 256.639 9.784 256.639 11.064ZM253.783 10.2C253.767 9.192 253.407 8.384 252.703 7.776C251.999 7.168 251.127 6.864 250.087 6.864C249.143 6.864 248.335 7.168 247.663 7.776C246.991 8.368 246.591 9.176 246.463 10.2H253.783ZM262.067 0.24V18H259.331V0.24H262.067ZM277.563 4.776L269.451 24.216H266.619L269.307 17.784L264.099 4.776H267.147L270.867 14.856L274.731 4.776H277.563ZM13.92 40.064C13.92 40.56 13.888 41.008 13.824 41.408H3.72C3.8 42.464 4.192 43.312 4.896 43.952C5.6 44.592 6.464 44.912 7.488 44.912C8.96 44.912 10 44.296 10.608 43.064H13.56C13.16 44.28 12.432 45.28 11.376 46.064C10.336 46.832 9.04 47.216 7.488 47.216C6.224 47.216 5.088 46.936 4.08 46.376C3.088 45.8 2.304 45 1.728 43.976C1.168 42.936 0.888 41.736 0.888 40.376C0.888 39.016 1.16 37.824 1.704 36.8C2.264 35.76 3.04 34.96 4.032 34.4C5.04 33.84 6.192 33.56 7.488 33.56C8.736 33.56 9.848 33.832 10.824 34.376C11.8 34.92 12.56 35.688 13.104 36.68C13.648 37.656 13.92 38.784 13.92 40.064ZM11.064 39.2C11.048 38.192 10.688 37.384 9.984 36.776C9.28 36.168 8.408 35.864 7.368 35.864C6.424 35.864 5.616 36.168 4.944 36.776C4.272 37.368 3.872 38.176 3.744 39.2H11.064ZM22.2765 40.304L26.5485 47H23.4525L20.5965 42.512L17.9085 47H15.0525L19.3245 40.496L15.0525 33.776H18.1485L21.0045 38.264L23.6925 33.776H26.5485L22.2765 40.304ZM40.7091 40.064C40.7091 40.56 40.6771 41.008 40.6131 41.408H30.5091C30.5891 42.464 30.9811 43.312 31.6851 43.952C32.3891 44.592 33.2531 44.912 34.2771 44.912C35.7491 44.912 36.7891 44.296 37.3971 43.064H40.3491C39.9491 44.28 39.2211 45.28 38.1651 46.064C37.1251 46.832 35.8291 47.216 34.2771 47.216C33.0131 47.216 31.8771 46.936 30.8691 46.376C29.8771 45.8 29.0931 45 28.5171 43.976C27.9571 42.936 27.6771 41.736 27.6771 40.376C27.6771 39.016 27.9491 37.824 28.4931 36.8C29.0531 35.76 29.8291 34.96 30.8211 34.4C31.8291 33.84 32.9811 33.56 34.2771 33.56C35.5251 33.56 36.6371 33.832 37.6131 34.376C38.5891 34.92 39.3491 35.688 39.8931 36.68C40.4371 37.656 40.7091 38.784 40.7091 40.064ZM37.8531 39.2C37.8371 38.192 37.4771 37.384 36.7731 36.776C36.0691 36.168 35.1971 35.864 34.1571 35.864C33.2131 35.864 32.4051 36.168 31.7331 36.776C31.0611 37.368 30.6611 38.176 30.5331 39.2H37.8531ZM42.4896 40.376C42.4896 39.016 42.7616 37.824 43.3056 36.8C43.8656 35.76 44.6336 34.96 45.6096 34.4C46.5856 33.84 47.7056 33.56 48.9696 33.56C50.5696 33.56 51.8896 33.944 52.9296 34.712C53.9856 35.464 54.6976 36.544 55.0656 37.952H52.1136C51.8736 37.296 51.4896 36.784 50.9616 36.416C50.4336 36.048 49.7696 35.864 48.9696 35.864C47.8496 35.864 46.9536 36.264 46.2816 37.064C45.6256 37.848 45.2976 38.952 45.2976 40.376C45.2976 41.8 45.6256 42.912 46.2816 43.712C46.9536 44.512 47.8496 44.912 48.9696 44.912C50.5536 44.912 51.6016 44.216 52.1136 42.824H55.0656C54.6816 44.168 53.9616 45.24 52.9056 46.04C51.8496 46.824 50.5376 47.216 48.9696 47.216C47.7056 47.216 46.5856 46.936 45.6096 46.376C44.6336 45.8 43.8656 45 43.3056 43.976C42.7616 42.936 42.4896 41.736 42.4896 40.376ZM69.7682 33.776V47H67.0322V45.44C66.6002 45.984 66.0322 46.416 65.3282 46.736C64.6402 47.04 63.9042 47.192 63.1202 47.192C62.0802 47.192 61.1442 46.976 60.3122 46.544C59.4962 46.112 58.8482 45.472 58.3682 44.624C57.9042 43.776 57.6722 42.752 57.6722 41.552V33.776H60.3842V41.144C60.3842 42.328 60.6802 43.24 61.2722 43.88C61.8642 44.504 62.6722 44.816 63.6962 44.816C64.7202 44.816 65.5282 44.504 66.1202 43.88C66.7282 43.24 67.0322 42.328 67.0322 41.144V33.776H69.7682ZM76.5701 36.008V43.328C76.5701 43.824 76.6821 44.184 76.9061 44.408C77.1461 44.616 77.5461 44.72 78.1061 44.72H79.7861V47H77.6261C76.3941 47 75.4501 46.712 74.7941 46.136C74.1381 45.56 73.8101 44.624 73.8101 43.328V36.008H72.2501V33.776H73.8101V30.488H76.5701V33.776H79.7861V36.008H76.5701ZM94.4278 40.064C94.4278 40.56 94.3958 41.008 94.3318 41.408H84.2278C84.3078 42.464 84.6998 43.312 85.4038 43.952C86.1078 44.592 86.9718 44.912 87.9958 44.912C89.4678 44.912 90.5078 44.296 91.1158 43.064H94.0678C93.6678 44.28 92.9398 45.28 91.8838 46.064C90.8438 46.832 89.5478 47.216 87.9958 47.216C86.7318 47.216 85.5958 46.936 84.5878 46.376C83.5958 45.8 82.8118 45 82.2358 43.976C81.6758 42.936 81.3958 41.736 81.3958 40.376C81.3958 39.016 81.6678 37.824 82.2118 36.8C82.7718 35.76 83.5478 34.96 84.5398 34.4C85.5478 33.84 86.6998 33.56 87.9958 33.56C89.2438 33.56 90.3558 33.832 91.3318 34.376C92.3078 34.92 93.0678 35.688 93.6118 36.68C94.1558 37.656 94.4278 38.784 94.4278 40.064ZM91.5718 39.2C91.5558 38.192 91.1958 37.384 90.4918 36.776C89.7878 36.168 88.9158 35.864 87.8758 35.864C86.9318 35.864 86.1238 36.168 85.4518 36.776C84.7798 37.368 84.3798 38.176 84.2518 39.2H91.5718ZM96.2083 40.328C96.2083 39 96.4803 37.824 97.0243 36.8C97.5843 35.776 98.3363 34.984 99.2803 34.424C100.24 33.848 101.304 33.56 102.472 33.56C103.336 33.56 104.184 33.752 105.016 34.136C105.864 34.504 106.536 35 107.032 35.624V29.24H109.792V47H107.032V45.008C106.584 45.648 105.96 46.176 105.16 46.592C104.376 47.008 103.472 47.216 102.448 47.216C101.296 47.216 100.24 46.928 99.2803 46.352C98.3363 45.76 97.5843 44.944 97.0243 43.904C96.4803 42.848 96.2083 41.656 96.2083 40.328ZM107.032 40.376C107.032 39.464 106.84 38.672 106.456 38C106.088 37.328 105.6 36.816 104.992 36.464C104.384 36.112 103.728 35.936 103.024 35.936C102.32 35.936 101.664 36.112 101.056 36.464C100.448 36.8 99.9523 37.304 99.5683 37.976C99.2003 38.632 99.0163 39.416 99.0163 40.328C99.0163 41.24 99.2003 42.04 99.5683 42.728C99.9523 43.416 100.448 43.944 101.056 44.312C101.68 44.664 102.336 44.84 103.024 44.84C103.728 44.84 104.384 44.664 104.992 44.312C105.6 43.96 106.088 43.448 106.456 42.776C106.84 42.088 107.032 41.288 107.032 40.376ZM122.356 35.744C122.82 35.104 123.452 34.584 124.252 34.184C125.068 33.768 125.972 33.56 126.964 33.56C128.132 33.56 129.188 33.84 130.132 34.4C131.076 34.96 131.82 35.76 132.364 36.8C132.908 37.824 133.18 39 133.18 40.328C133.18 41.656 132.908 42.848 132.364 43.904C131.82 44.944 131.068 45.76 130.108 46.352C129.164 46.928 128.116 47.216 126.964 47.216C125.94 47.216 125.028 47.016 124.228 46.616C123.444 46.216 122.82 45.704 122.356 45.08V47H119.62V29.24H122.356V35.744ZM130.396 40.328C130.396 39.416 130.204 38.632 129.82 37.976C129.452 37.304 128.956 36.8 128.332 36.464C127.724 36.112 127.068 35.936 126.364 35.936C125.676 35.936 125.02 36.112 124.396 36.464C123.788 36.816 123.292 37.328 122.908 38C122.54 38.672 122.356 39.464 122.356 40.376C122.356 41.288 122.54 42.088 122.908 42.776C123.292 43.448 123.788 43.96 124.396 44.312C125.02 44.664 125.676 44.84 126.364 44.84C127.068 44.84 127.724 44.664 128.332 44.312C128.956 43.944 129.452 43.416 129.82 42.728C130.204 42.04 130.396 41.24 130.396 40.328ZM147.79 33.776L139.678 53.216H136.846L139.534 46.784L134.326 33.776H137.374L141.094 43.856L144.958 33.776H147.79ZM167.993 33.776L159.881 53.216H157.049L159.737 46.784L154.529 33.776H157.577L161.297 43.856L165.161 33.776H167.993ZM175.794 47.216C174.546 47.216 173.418 46.936 172.41 46.376C171.402 45.8 170.61 45 170.034 43.976C169.458 42.936 169.17 41.736 169.17 40.376C169.17 39.032 169.466 37.84 170.058 36.8C170.65 35.76 171.458 34.96 172.482 34.4C173.506 33.84 174.65 33.56 175.914 33.56C177.178 33.56 178.322 33.84 179.346 34.4C180.37 34.96 181.178 35.76 181.77 36.8C182.362 37.84 182.658 39.032 182.658 40.376C182.658 41.72 182.354 42.912 181.746 43.952C181.138 44.992 180.306 45.8 179.25 46.376C178.21 46.936 177.058 47.216 175.794 47.216ZM175.794 44.84C176.498 44.84 177.154 44.672 177.762 44.336C178.386 44 178.89 43.496 179.274 42.824C179.658 42.152 179.85 41.336 179.85 40.376C179.85 39.416 179.666 38.608 179.298 37.952C178.93 37.28 178.442 36.776 177.834 36.44C177.226 36.104 176.57 35.936 175.866 35.936C175.162 35.936 174.506 36.104 173.898 36.44C173.306 36.776 172.834 37.28 172.482 37.952C172.13 38.608 171.954 39.416 171.954 40.376C171.954 41.8 172.314 42.904 173.034 43.688C173.77 44.456 174.69 44.84 175.794 44.84ZM197.339 33.776V47H194.603V45.44C194.171 45.984 193.603 46.416 192.899 46.736C192.211 47.04 191.475 47.192 190.691 47.192C189.651 47.192 188.715 46.976 187.883 46.544C187.067 46.112 186.419 45.472 185.939 44.624C185.475 43.776 185.243 42.752 185.243 41.552V33.776H187.955V41.144C187.955 42.328 188.251 43.24 188.843 43.88C189.435 44.504 190.243 44.816 191.267 44.816C192.291 44.816 193.099 44.504 193.691 43.88C194.299 43.24 194.603 42.328 194.603 41.144V33.776H197.339ZM203.684 35.696C204.084 35.024 204.612 34.504 205.268 34.136C205.94 33.752 206.732 33.56 207.644 33.56V36.392H206.948C205.876 36.392 205.06 36.664 204.5 37.208C203.956 37.752 203.684 38.696 203.684 40.04V47H200.948V33.776H203.684V35.696ZM228.514 40.064C228.514 40.56 228.482 41.008 228.418 41.408H218.314C218.394 42.464 218.786 43.312 219.49 43.952C220.194 44.592 221.058 44.912 222.082 44.912C223.554 44.912 224.594 44.296 225.202 43.064H228.154C227.754 44.28 227.026 45.28 225.97 46.064C224.93 46.832 223.634 47.216 222.082 47.216C220.818 47.216 219.682 46.936 218.674 46.376C217.682 45.8 216.898 45 216.322 43.976C215.762 42.936 215.482 41.736 215.482 40.376C215.482 39.016 215.754 37.824 216.298 36.8C216.858 35.76 217.634 34.96 218.626 34.4C219.634 33.84 220.786 33.56 222.082 33.56C223.33 33.56 224.442 33.832 225.418 34.376C226.394 34.92 227.154 35.688 227.698 36.68C228.242 37.656 228.514 38.784 228.514 40.064ZM225.658 39.2C225.642 38.192 225.282 37.384 224.578 36.776C223.874 36.168 223.002 35.864 221.962 35.864C221.018 35.864 220.21 36.168 219.538 36.776C218.866 37.368 218.466 38.176 218.338 39.2H225.658ZM236.87 40.304L241.142 47H238.046L235.19 42.512L232.502 47H229.646L233.918 40.496L229.646 33.776H232.742L235.598 38.264L238.286 33.776H241.142L236.87 40.304ZM244.575 32.024C244.079 32.024 243.663 31.856 243.327 31.52C242.991 31.184 242.823 30.768 242.823 30.272C242.823 29.776 242.991 29.36 243.327 29.024C243.663 28.688 244.079 28.52 244.575 28.52C245.055 28.52 245.463 28.688 245.799 29.024C246.135 29.36 246.303 29.776 246.303 30.272C246.303 30.768 246.135 31.184 245.799 31.52C245.463 31.856 245.055 32.024 244.575 32.024ZM245.919 33.776V47H243.183V33.776H245.919ZM254.311 47.216C253.271 47.216 252.335 47.032 251.503 46.664C250.687 46.28 250.039 45.768 249.559 45.128C249.079 44.472 248.823 43.744 248.791 42.944H251.623C251.671 43.504 251.935 43.976 252.415 44.36C252.911 44.728 253.527 44.912 254.263 44.912C255.031 44.912 255.623 44.768 256.039 44.48C256.471 44.176 256.687 43.792 256.687 43.328C256.687 42.832 256.447 42.464 255.967 42.224C255.503 41.984 254.759 41.72 253.735 41.432C252.743 41.16 251.935 40.896 251.311 40.64C250.687 40.384 250.143 39.992 249.679 39.464C249.231 38.936 249.007 38.24 249.007 37.376C249.007 36.672 249.215 36.032 249.631 35.456C250.047 34.864 250.639 34.4 251.407 34.064C252.191 33.728 253.087 33.56 254.095 33.56C255.599 33.56 256.807 33.944 257.719 34.712C258.647 35.464 259.143 36.496 259.207 37.808H256.471C256.423 37.216 256.183 36.744 255.751 36.392C255.319 36.04 254.735 35.864 253.999 35.864C253.279 35.864 252.727 36 252.343 36.272C251.959 36.544 251.767 36.904 251.767 37.352C251.767 37.704 251.895 38 252.151 38.24C252.407 38.48 252.719 38.672 253.087 38.816C253.455 38.944 253.999 39.112 254.719 39.32C255.679 39.576 256.463 39.84 257.071 40.112C257.695 40.368 258.231 40.752 258.679 41.264C259.127 41.776 259.359 42.456 259.375 43.304C259.375 44.056 259.167 44.728 258.751 45.32C258.335 45.912 257.743 46.376 256.975 46.712C256.223 47.048 255.335 47.216 254.311 47.216ZM265.523 36.008V43.328C265.523 43.824 265.635 44.184 265.859 44.408C266.099 44.616 266.499 44.72 267.059 44.72H268.739V47H266.579C265.347 47 264.403 46.712 263.747 46.136C263.091 45.56 262.763 44.624 262.763 43.328V36.008H261.203V33.776H262.763V30.488H265.523V33.776H268.739V36.008H265.523ZM272.653 32.024C272.157 32.024 271.741 31.856 271.405 31.52C271.069 31.184 270.901 30.768 270.901 30.272C270.901 29.776 271.069 29.36 271.405 29.024C271.741 28.688 272.157 28.52 272.653 28.52C273.133 28.52 273.541 28.688 273.877 29.024C274.213 29.36 274.381 29.776 274.381 30.272C274.381 30.768 274.213 31.184 273.877 31.52C273.541 31.856 273.133 32.024 272.653 32.024ZM273.997 33.776V47H271.261V33.776H273.997ZM284.261 33.56C285.301 33.56 286.229 33.776 287.045 34.208C287.877 34.64 288.525 35.28 288.989 36.128C289.453 36.976 289.685 38 289.685 39.2V47H286.973V39.608C286.973 38.424 286.677 37.52 286.085 36.896C285.493 36.256 284.685 35.936 283.661 35.936C282.637 35.936 281.821 36.256 281.213 36.896C280.621 37.52 280.325 38.424 280.325 39.608V47H277.589V33.776H280.325V35.288C280.773 34.744 281.341 34.32 282.029 34.016C282.733 33.712 283.477 33.56 284.261 33.56ZM298.503 33.56C299.527 33.56 300.431 33.768 301.215 34.184C302.015 34.584 302.639 35.088 303.087 35.696V33.776H305.847V47.216C305.847 48.432 305.591 49.512 305.079 50.456C304.567 51.416 303.823 52.168 302.847 52.712C301.887 53.256 300.735 53.528 299.391 53.528C297.599 53.528 296.111 53.104 294.927 52.256C293.743 51.424 293.071 50.288 292.911 48.848H295.623C295.831 49.536 296.271 50.088 296.943 50.504C297.631 50.936 298.447 51.152 299.391 51.152C300.495 51.152 301.383 50.816 302.055 50.144C302.743 49.472 303.087 48.496 303.087 47.216V45.008C302.623 45.632 301.991 46.16 301.191 46.592C300.407 47.008 299.511 47.216 298.503 47.216C297.351 47.216 296.295 46.928 295.335 46.352C294.391 45.76 293.639 44.944 293.079 43.904C292.535 42.848 292.263 41.656 292.263 40.328C292.263 39 292.535 37.824 293.079 36.8C293.639 35.776 294.391 34.984 295.335 34.424C296.295 33.848 297.351 33.56 298.503 33.56ZM303.087 40.376C303.087 39.464 302.895 38.672 302.511 38C302.143 37.328 301.655 36.816 301.047 36.464C300.439 36.112 299.783 35.936 299.079 35.936C298.375 35.936 297.719 36.112 297.111 36.464C296.503 36.8 296.007 37.304 295.623 37.976C295.255 38.632 295.071 39.416 295.071 40.328C295.071 41.24 295.255 42.04 295.623 42.728C296.007 43.416 296.503 43.944 297.111 44.312C297.735 44.664 298.391 44.84 299.079 44.84C299.783 44.84 300.439 44.664 301.047 44.312C301.655 43.96 302.143 43.448 302.511 42.776C302.895 42.088 303.087 41.288 303.087 40.376ZM4.536 64.744C5 64.104 5.632 63.584 6.432 63.184C7.248 62.768 8.152 62.56 9.144 62.56C10.312 62.56 11.368 62.84 12.312 63.4C13.256 63.96 14 64.76 14.544 65.8C15.088 66.824 15.36 68 15.36 69.328C15.36 70.656 15.088 71.848 14.544 72.904C14 73.944 13.248 74.76 12.288 75.352C11.344 75.928 10.296 76.216 9.144 76.216C8.12 76.216 7.208 76.016 6.408 75.616C5.624 75.216 5 74.704 4.536 74.08V76H1.8V58.24H4.536V64.744ZM12.576 69.328C12.576 68.416 12.384 67.632 12 66.976C11.632 66.304 11.136 65.8 10.512 65.464C9.904 65.112 9.248 64.936 8.544 64.936C7.856 64.936 7.2 65.112 6.576 65.464C5.968 65.816 5.472 66.328 5.088 67C4.72 67.672 4.536 68.464 4.536 69.376C4.536 70.288 4.72 71.088 5.088 71.776C5.472 72.448 5.968 72.96 6.576 73.312C7.2 73.664 7.856 73.84 8.544 73.84C9.248 73.84 9.904 73.664 10.512 73.312C11.136 72.944 11.632 72.416 12 71.728C12.384 71.04 12.576 70.24 12.576 69.328ZM20.8016 64.696C21.2016 64.024 21.7296 63.504 22.3856 63.136C23.0576 62.752 23.8496 62.56 24.7616 62.56V65.392H24.0656C22.9936 65.392 22.1776 65.664 21.6176 66.208C21.0736 66.752 20.8016 67.696 20.8016 69.04V76H18.0656V62.776H20.8016V64.696ZM33.0126 76.216C31.7646 76.216 30.6366 75.936 29.6286 75.376C28.6206 74.8 27.8286 74 27.2526 72.976C26.6766 71.936 26.3886 70.736 26.3886 69.376C26.3886 68.032 26.6846 66.84 27.2766 65.8C27.8686 64.76 28.6766 63.96 29.7006 63.4C30.7246 62.84 31.8686 62.56 33.1326 62.56C34.3966 62.56 35.5406 62.84 36.5646 63.4C37.5886 63.96 38.3966 64.76 38.9886 65.8C39.5806 66.84 39.8766 68.032 39.8766 69.376C39.8766 70.72 39.5726 71.912 38.9646 72.952C38.3566 73.992 37.5246 74.8 36.4686 75.376C35.4286 75.936 34.2766 76.216 33.0126 76.216ZM33.0126 73.84C33.7166 73.84 34.3726 73.672 34.9806 73.336C35.6046 73 36.1086 72.496 36.4926 71.824C36.8766 71.152 37.0686 70.336 37.0686 69.376C37.0686 68.416 36.8846 67.608 36.5166 66.952C36.1486 66.28 35.6606 65.776 35.0526 65.44C34.4446 65.104 33.7886 64.936 33.0846 64.936C32.3806 64.936 31.7246 65.104 31.1166 65.44C30.5246 65.776 30.0526 66.28 29.7006 66.952C29.3486 67.608 29.1726 68.416 29.1726 69.376C29.1726 70.8 29.5326 71.904 30.2526 72.688C30.9886 73.456 31.9086 73.84 33.0126 73.84ZM47.8133 69.4L53.9093 76H50.2133L45.3173 70.312V76H42.5813V58.24H45.3173V68.56L50.1173 62.776H53.9093L47.8133 69.4ZM67.9903 69.064C67.9903 69.56 67.9583 70.008 67.8943 70.408H57.7903C57.8703 71.464 58.2623 72.312 58.9663 72.952C59.6703 73.592 60.5343 73.912 61.5583 73.912C63.0303 73.912 64.0703 73.296 64.6783 72.064H67.6303C67.2303 73.28 66.5023 74.28 65.4463 75.064C64.4063 75.832 63.1103 76.216 61.5583 76.216C60.2943 76.216 59.1583 75.936 58.1503 75.376C57.1583 74.8 56.3743 74 55.7983 72.976C55.2383 71.936 54.9583 70.736 54.9583 69.376C54.9583 68.016 55.2303 66.824 55.7743 65.8C56.3343 64.76 57.1103 63.96 58.1023 63.4C59.1103 62.84 60.2623 62.56 61.5583 62.56C62.8063 62.56 63.9183 62.832 64.8943 63.376C65.8703 63.92 66.6303 64.688 67.1743 65.68C67.7183 66.656 67.9903 67.784 67.9903 69.064ZM65.1343 68.2C65.1183 67.192 64.7583 66.384 64.0543 65.776C63.3503 65.168 62.4783 64.864 61.4383 64.864C60.4943 64.864 59.6863 65.168 59.0143 65.776C58.3423 66.368 57.9423 67.176 57.8143 68.2H65.1343ZM73.4188 64.696C73.8188 64.024 74.3468 63.504 75.0028 63.136C75.6748 62.752 76.4668 62.56 77.3788 62.56V65.392H76.6828C75.6108 65.392 74.7948 65.664 74.2348 66.208C73.6908 66.752 73.4188 67.696 73.4188 69.04V76H70.6828V62.776H73.4188V64.696ZM82.8938 72.712L79.9898 79.336H78.2138L79.9178 72.712H82.8938ZM235.113 62.56C236.153 62.56 237.081 62.776 237.897 63.208C238.729 63.64 239.377 64.28 239.841 65.128C240.305 65.976 240.537 67 240.537 68.2V76H237.825V68.608C237.825 67.424 237.529 66.52 236.937 65.896C236.345 65.256 235.537 64.936 234.513 64.936C233.489 64.936 232.673 65.256 232.065 65.896C231.473 66.52 231.177 67.424 231.177 68.608V76H228.441V62.776H231.177V64.288C231.625 63.744 232.193 63.32 232.881 63.016C233.585 62.712 234.329 62.56 235.113 62.56ZM256.147 69.064C256.147 69.56 256.115 70.008 256.051 70.408H245.947C246.027 71.464 246.419 72.312 247.123 72.952C247.827 73.592 248.691 73.912 249.715 73.912C251.187 73.912 252.227 73.296 252.835 72.064H255.787C255.387 73.28 254.659 74.28 253.603 75.064C252.563 75.832 251.267 76.216 249.715 76.216C248.451 76.216 247.315 75.936 246.307 75.376C245.315 74.8 244.531 74 243.955 72.976C243.395 71.936 243.115 70.736 243.115 69.376C243.115 68.016 243.387 66.824 243.931 65.8C244.491 64.76 245.267 63.96 246.259 63.4C247.267 62.84 248.419 62.56 249.715 62.56C250.963 62.56 252.075 62.832 253.051 63.376C254.027 63.92 254.787 64.688 255.331 65.68C255.875 66.656 256.147 67.784 256.147 69.064ZM253.291 68.2C253.275 67.192 252.915 66.384 252.211 65.776C251.507 65.168 250.635 64.864 249.595 64.864C248.651 64.864 247.843 65.168 247.171 65.776C246.499 66.368 246.099 67.176 245.971 68.2H253.291ZM263.951 73.552L267.695 62.776H270.599L265.559 76H262.295L257.279 62.776H260.207L263.951 73.552ZM284.787 69.064C284.787 69.56 284.755 70.008 284.691 70.408H274.587C274.667 71.464 275.059 72.312 275.763 72.952C276.467 73.592 277.331 73.912 278.355 73.912C279.827 73.912 280.867 73.296 281.475 72.064H284.427C284.027 73.28 283.299 74.28 282.243 75.064C281.203 75.832 279.907 76.216 278.355 76.216C277.091 76.216 275.955 75.936 274.947 75.376C273.955 74.8 273.171 74 272.595 72.976C272.035 71.936 271.755 70.736 271.755 69.376C271.755 68.016 272.027 66.824 272.571 65.8C273.131 64.76 273.907 63.96 274.899 63.4C275.907 62.84 277.059 62.56 278.355 62.56C279.603 62.56 280.715 62.832 281.691 63.376C282.667 63.92 283.427 64.688 283.971 65.68C284.515 66.656 284.787 67.784 284.787 69.064ZM281.931 68.2C281.915 67.192 281.555 66.384 280.851 65.776C280.147 65.168 279.275 64.864 278.235 64.864C277.291 64.864 276.483 65.168 275.811 65.776C275.139 66.368 274.739 67.176 274.611 68.2H281.931ZM290.216 64.696C290.616 64.024 291.144 63.504 291.8 63.136C292.472 62.752 293.264 62.56 294.176 62.56V65.392H293.48C292.408 65.392 291.592 65.664 291.032 66.208C290.488 66.752 290.216 67.696 290.216 69.04V76H287.48V62.776H290.216V64.696ZM8.64 91.56C9.648 91.56 10.544 91.776 11.328 92.208C12.128 92.64 12.752 93.28 13.2 94.128C13.664 94.976 13.896 96 13.896 97.2V105H11.184V97.608C11.184 96.424 10.888 95.52 10.296 94.896C9.704 94.256 8.896 93.936 7.872 93.936C6.848 93.936 6.032 94.256 5.424 94.896C4.832 95.52 4.536 96.424 4.536 97.608V105H1.8V87.24H4.536V93.312C5 92.752 5.584 92.32 6.288 92.016C7.008 91.712 7.792 91.56 8.64 91.56ZM23.1219 105.216C21.8739 105.216 20.7459 104.936 19.7379 104.376C18.7299 103.8 17.9379 103 17.3619 101.976C16.7859 100.936 16.4979 99.736 16.4979 98.376C16.4979 97.032 16.7939 95.84 17.3859 94.8C17.9779 93.76 18.7859 92.96 19.8099 92.4C20.8339 91.84 21.9779 91.56 23.2419 91.56C24.5059 91.56 25.6499 91.84 26.6739 92.4C27.6979 92.96 28.5059 93.76 29.0979 94.8C29.6899 95.84 29.9859 97.032 29.9859 98.376C29.9859 99.72 29.6819 100.912 29.0739 101.952C28.4659 102.992 27.6339 103.8 26.5779 104.376C25.5379 104.936 24.3859 105.216 23.1219 105.216ZM23.1219 102.84C23.8259 102.84 24.4819 102.672 25.0899 102.336C25.7139 102 26.2179 101.496 26.6019 100.824C26.9859 100.152 27.1779 99.336 27.1779 98.376C27.1779 97.416 26.9939 96.608 26.6259 95.952C26.2579 95.28 25.7699 94.776 25.1619 94.44C24.5539 94.104 23.8979 93.936 23.1939 93.936C22.4899 93.936 21.8339 94.104 21.2259 94.44C20.6339 94.776 20.1619 95.28 19.8099 95.952C19.4579 96.608 19.2819 97.416 19.2819 98.376C19.2819 99.8 19.6419 100.904 20.3619 101.688C21.0979 102.456 22.0179 102.84 23.1219 102.84ZM35.4266 87.24V105H32.6906V87.24H35.4266ZM38.1068 98.328C38.1068 97 38.3788 95.824 38.9228 94.8C39.4828 93.776 40.2348 92.984 41.1788 92.424C42.1388 91.848 43.2028 91.56 44.3708 91.56C45.2348 91.56 46.0828 91.752 46.9148 92.136C47.7628 92.504 48.4348 93 48.9308 93.624V87.24H51.6908V105H48.9308V103.008C48.4828 103.648 47.8588 104.176 47.0588 104.592C46.2748 105.008 45.3708 105.216 44.3468 105.216C43.1948 105.216 42.1388 104.928 41.1788 104.352C40.2348 103.76 39.4828 102.944 38.9228 101.904C38.3788 100.848 38.1068 99.656 38.1068 98.328ZM48.9308 98.376C48.9308 97.464 48.7388 96.672 48.3548 96C47.9868 95.328 47.4988 94.816 46.8908 94.464C46.2828 94.112 45.6268 93.936 44.9228 93.936C44.2188 93.936 43.5628 94.112 42.9548 94.464C42.3468 94.8 41.8508 95.304 41.4668 95.976C41.0988 96.632 40.9148 97.416 40.9148 98.328C40.9148 99.24 41.0988 100.04 41.4668 100.728C41.8508 101.416 42.3468 101.944 42.9548 102.312C43.5788 102.664 44.2348 102.84 44.9228 102.84C45.6268 102.84 46.2828 102.664 46.8908 102.312C47.4988 101.96 47.9868 101.448 48.3548 100.776C48.7388 100.088 48.9308 99.288 48.9308 98.376ZM60.0844 105.216C59.0444 105.216 58.1084 105.032 57.2764 104.664C56.4604 104.28 55.8124 103.768 55.3324 103.128C54.8524 102.472 54.5964 101.744 54.5644 100.944H57.3964C57.4444 101.504 57.7084 101.976 58.1884 102.36C58.6844 102.728 59.3004 102.912 60.0364 102.912C60.8044 102.912 61.3964 102.768 61.8124 102.48C62.2444 102.176 62.4604 101.792 62.4604 101.328C62.4604 100.832 62.2204 100.464 61.7404 100.224C61.2764 99.984 60.5324 99.72 59.5084 99.432C58.5164 99.16 57.7084 98.896 57.0844 98.64C56.4604 98.384 55.9164 97.992 55.4524 97.464C55.0044 96.936 54.7804 96.24 54.7804 95.376C54.7804 94.672 54.9884 94.032 55.4044 93.456C55.8204 92.864 56.4124 92.4 57.1804 92.064C57.9644 91.728 58.8604 91.56 59.8684 91.56C61.3724 91.56 62.5804 91.944 63.4924 92.712C64.4204 93.464 64.9164 94.496 64.9804 95.808H62.2444C62.1964 95.216 61.9564 94.744 61.5244 94.392C61.0924 94.04 60.5084 93.864 59.7724 93.864C59.0524 93.864 58.5004 94 58.1164 94.272C57.7324 94.544 57.5404 94.904 57.5404 95.352C57.5404 95.704 57.6684 96 57.9244 96.24C58.1804 96.48 58.4924 96.672 58.8604 96.816C59.2284 96.944 59.7724 97.112 60.4924 97.32C61.4524 97.576 62.2364 97.84 62.8444 98.112C63.4684 98.368 64.0044 98.752 64.4524 99.264C64.9004 99.776 65.1324 100.456 65.1484 101.304C65.1484 102.056 64.9404 102.728 64.5244 103.32C64.1084 103.912 63.5164 104.376 62.7484 104.712C61.9964 105.048 61.1084 105.216 60.0844 105.216ZM86.2431 91.776L78.1311 111.216H75.2991L77.9871 104.784L72.7791 91.776H75.8271L79.5471 101.856L83.4111 91.776H86.2431ZM94.0438 105.216C92.7958 105.216 91.6678 104.936 90.6598 104.376C89.6518 103.8 88.8598 103 88.2838 101.976C87.7078 100.936 87.4198 99.736 87.4198 98.376C87.4198 97.032 87.7158 95.84 88.3078 94.8C88.8998 93.76 89.7078 92.96 90.7318 92.4C91.7558 91.84 92.8998 91.56 94.1638 91.56C95.4278 91.56 96.5718 91.84 97.5958 92.4C98.6198 92.96 99.4278 93.76 100.02 94.8C100.612 95.84 100.908 97.032 100.908 98.376C100.908 99.72 100.604 100.912 99.9958 101.952C99.3878 102.992 98.5558 103.8 97.4998 104.376C96.4598 104.936 95.3078 105.216 94.0438 105.216ZM94.0438 102.84C94.7478 102.84 95.4038 102.672 96.0118 102.336C96.6358 102 97.1398 101.496 97.5238 100.824C97.9078 100.152 98.0998 99.336 98.0998 98.376C98.0998 97.416 97.9158 96.608 97.5478 95.952C97.1798 95.28 96.6918 94.776 96.0838 94.44C95.4758 94.104 94.8198 93.936 94.1158 93.936C93.4118 93.936 92.7558 94.104 92.1478 94.44C91.5558 94.776 91.0838 95.28 90.7318 95.952C90.3798 96.608 90.2038 97.416 90.2038 98.376C90.2038 99.8 90.5638 100.904 91.2838 101.688C92.0198 102.456 92.9398 102.84 94.0438 102.84ZM115.589 91.776V105H112.853V103.44C112.421 103.984 111.853 104.416 111.149 104.736C110.461 105.04 109.725 105.192 108.941 105.192C107.901 105.192 106.965 104.976 106.133 104.544C105.317 104.112 104.669 103.472 104.189 102.624C103.725 101.776 103.493 100.752 103.493 99.552V91.776H106.205V99.144C106.205 100.328 106.501 101.24 107.093 101.88C107.685 102.504 108.493 102.816 109.517 102.816C110.541 102.816 111.349 102.504 111.941 101.88C112.549 101.24 112.853 100.328 112.853 99.144V91.776H115.589ZM121.934 93.696C122.334 93.024 122.862 92.504 123.518 92.136C124.19 91.752 124.982 91.56 125.894 91.56V94.392H125.198C124.126 94.392 123.31 94.664 122.75 95.208C122.206 95.752 121.934 96.696 121.934 98.04V105H119.198V91.776H121.934V93.696ZM150.652 91.56C151.692 91.56 152.62 91.776 153.436 92.208C154.268 92.64 154.916 93.28 155.38 94.128C155.86 94.976 156.1 96 156.1 97.2V105H153.388V97.608C153.388 96.424 153.092 95.52 152.5 94.896C151.908 94.256 151.1 93.936 150.076 93.936C149.052 93.936 148.236 94.256 147.628 94.896C147.036 95.52 146.74 96.424 146.74 97.608V105H144.028V97.608C144.028 96.424 143.732 95.52 143.14 94.896C142.548 94.256 141.74 93.936 140.716 93.936C139.692 93.936 138.876 94.256 138.268 94.896C137.676 95.52 137.38 96.424 137.38 97.608V105H134.644V91.776H137.38V93.288C137.828 92.744 138.396 92.32 139.084 92.016C139.772 91.712 140.508 91.56 141.292 91.56C142.348 91.56 143.292 91.784 144.124 92.232C144.956 92.68 145.596 93.328 146.044 94.176C146.444 93.376 147.068 92.744 147.916 92.28C148.764 91.8 149.676 91.56 150.652 91.56ZM165.317 105.216C164.069 105.216 162.941 104.936 161.933 104.376C160.925 103.8 160.133 103 159.557 101.976C158.981 100.936 158.693 99.736 158.693 98.376C158.693 97.032 158.989 95.84 159.581 94.8C160.173 93.76 160.981 92.96 162.005 92.4C163.029 91.84 164.173 91.56 165.437 91.56C166.701 91.56 167.845 91.84 168.869 92.4C169.893 92.96 170.701 93.76 171.293 94.8C171.885 95.84 172.181 97.032 172.181 98.376C172.181 99.72 171.877 100.912 171.269 101.952C170.661 102.992 169.829 103.8 168.773 104.376C167.733 104.936 166.581 105.216 165.317 105.216ZM165.317 102.84C166.021 102.84 166.677 102.672 167.285 102.336C167.909 102 168.413 101.496 168.797 100.824C169.181 100.152 169.373 99.336 169.373 98.376C169.373 97.416 169.189 96.608 168.821 95.952C168.453 95.28 167.965 94.776 167.357 94.44C166.749 94.104 166.093 93.936 165.389 93.936C164.685 93.936 164.029 94.104 163.421 94.44C162.829 94.776 162.357 95.28 162.005 95.952C161.653 96.608 161.477 97.416 161.477 98.376C161.477 99.8 161.837 100.904 162.557 101.688C163.293 102.456 164.213 102.84 165.317 102.84ZM181.558 91.56C182.598 91.56 183.526 91.776 184.342 92.208C185.174 92.64 185.822 93.28 186.286 94.128C186.75 94.976 186.982 96 186.982 97.2V105H184.27V97.608C184.27 96.424 183.974 95.52 183.382 94.896C182.79 94.256 181.982 93.936 180.958 93.936C179.934 93.936 179.118 94.256 178.51 94.896C177.918 95.52 177.622 96.424 177.622 97.608V105H174.886V91.776H177.622V93.288C178.07 92.744 178.638 92.32 179.326 92.016C180.03 91.712 180.774 91.56 181.558 91.56ZM202.592 98.064C202.592 98.56 202.56 99.008 202.496 99.408H192.392C192.472 100.464 192.864 101.312 193.568 101.952C194.272 102.592 195.136 102.912 196.16 102.912C197.632 102.912 198.672 102.296 199.28 101.064H202.232C201.832 102.28 201.104 103.28 200.048 104.064C199.008 104.832 197.712 105.216 196.16 105.216C194.896 105.216 193.76 104.936 192.752 104.376C191.76 103.8 190.976 103 190.4 101.976C189.84 100.936 189.56 99.736 189.56 98.376C189.56 97.016 189.832 95.824 190.376 94.8C190.936 93.76 191.712 92.96 192.704 92.4C193.712 91.84 194.864 91.56 196.16 91.56C197.408 91.56 198.52 91.832 199.496 92.376C200.472 92.92 201.232 93.688 201.776 94.68C202.32 95.656 202.592 96.784 202.592 98.064ZM199.736 97.2C199.72 96.192 199.36 95.384 198.656 94.776C197.952 94.168 197.08 93.864 196.04 93.864C195.096 93.864 194.288 94.168 193.616 94.776C192.944 95.368 192.544 96.176 192.416 97.2H199.736ZM217.188 91.776L209.076 111.216H206.244L208.932 104.784L203.724 91.776H206.772L210.492 101.856L214.356 91.776H217.188ZM231.224 105.216C229.976 105.216 228.848 104.936 227.84 104.376C226.832 103.8 226.04 103 225.464 101.976C224.888 100.936 224.6 99.736 224.6 98.376C224.6 97.032 224.896 95.84 225.488 94.8C226.08 93.76 226.888 92.96 227.912 92.4C228.936 91.84 230.08 91.56 231.344 91.56C232.608 91.56 233.752 91.84 234.776 92.4C235.8 92.96 236.608 93.76 237.2 94.8C237.792 95.84 238.088 97.032 238.088 98.376C238.088 99.72 237.784 100.912 237.176 101.952C236.568 102.992 235.736 103.8 234.68 104.376C233.64 104.936 232.488 105.216 231.224 105.216ZM231.224 102.84C231.928 102.84 232.584 102.672 233.192 102.336C233.816 102 234.32 101.496 234.704 100.824C235.088 100.152 235.28 99.336 235.28 98.376C235.28 97.416 235.096 96.608 234.728 95.952C234.36 95.28 233.872 94.776 233.264 94.44C232.656 94.104 232 93.936 231.296 93.936C230.592 93.936 229.936 94.104 229.328 94.44C228.736 94.776 228.264 95.28 227.912 95.952C227.56 96.608 227.384 97.416 227.384 98.376C227.384 99.8 227.744 100.904 228.464 101.688C229.2 102.456 230.12 102.84 231.224 102.84ZM243.528 93.696C243.928 93.024 244.456 92.504 245.112 92.136C245.784 91.752 246.576 91.56 247.488 91.56V94.392H246.792C245.72 94.392 244.904 94.664 244.344 95.208C243.8 95.752 243.528 96.696 243.528 98.04V105H240.792V91.776H243.528V93.696ZM6.6 134.216C5.56 134.216 4.624 134.032 3.792 133.664C2.976 133.28 2.328 132.768 1.848 132.128C1.368 131.472 1.112 130.744 1.08 129.944H3.912C3.96 130.504 4.224 130.976 4.704 131.36C5.2 131.728 5.816 131.912 6.552 131.912C7.32 131.912 7.912 131.768 8.328 131.48C8.76 131.176 8.976 130.792 8.976 130.328C8.976 129.832 8.736 129.464 8.256 129.224C7.792 128.984 7.048 128.72 6.024 128.432C5.032 128.16 4.224 127.896 3.6 127.64C2.976 127.384 2.432 126.992 1.968 126.464C1.52 125.936 1.296 125.24 1.296 124.376C1.296 123.672 1.504 123.032 1.92 122.456C2.336 121.864 2.928 121.4 3.696 121.064C4.48 120.728 5.376 120.56 6.384 120.56C7.888 120.56 9.096 120.944 10.008 121.712C10.936 122.464 11.432 123.496 11.496 124.808H8.76C8.712 124.216 8.472 123.744 8.04 123.392C7.608 123.04 7.024 122.864 6.288 122.864C5.568 122.864 5.016 123 4.632 123.272C4.248 123.544 4.056 123.904 4.056 124.352C4.056 124.704 4.184 125 4.44 125.24C4.696 125.48 5.008 125.672 5.376 125.816C5.744 125.944 6.288 126.112 7.008 126.32C7.968 126.576 8.752 126.84 9.36 127.112C9.984 127.368 10.52 127.752 10.968 128.264C11.416 128.776 11.648 129.456 11.664 130.304C11.664 131.056 11.456 131.728 11.04 132.32C10.624 132.912 10.032 133.376 9.264 133.712C8.512 134.048 7.624 134.216 6.6 134.216ZM17.8123 123.008V130.328C17.8123 130.824 17.9243 131.184 18.1483 131.408C18.3883 131.616 18.7883 131.72 19.3483 131.72H21.0283V134H18.8683C17.6363 134 16.6923 133.712 16.0363 133.136C15.3803 132.56 15.0523 131.624 15.0523 130.328V123.008H13.4923V120.776H15.0523V117.488H17.8123V120.776H21.0283V123.008H17.8123ZM29.286 134.216C28.038 134.216 26.91 133.936 25.902 133.376C24.894 132.8 24.102 132 23.526 130.976C22.95 129.936 22.662 128.736 22.662 127.376C22.662 126.032 22.958 124.84 23.55 123.8C24.142 122.76 24.95 121.96 25.974 121.4C26.998 120.84 28.142 120.56 29.406 120.56C30.67 120.56 31.814 120.84 32.838 121.4C33.862 121.96 34.67 122.76 35.262 123.8C35.854 124.84 36.15 126.032 36.15 127.376C36.15 128.72 35.846 129.912 35.238 130.952C34.63 131.992 33.798 132.8 32.742 133.376C31.702 133.936 30.55 134.216 29.286 134.216ZM29.286 131.84C29.99 131.84 30.646 131.672 31.254 131.336C31.878 131 32.382 130.496 32.766 129.824C33.15 129.152 33.342 128.336 33.342 127.376C33.342 126.416 33.158 125.608 32.79 124.952C32.422 124.28 31.934 123.776 31.326 123.44C30.718 123.104 30.062 122.936 29.358 122.936C28.654 122.936 27.998 123.104 27.39 123.44C26.798 123.776 26.326 124.28 25.974 124.952C25.622 125.608 25.446 126.416 25.446 127.376C25.446 128.8 25.806 129.904 26.526 130.688C27.262 131.456 28.182 131.84 29.286 131.84ZM37.9427 127.376C37.9427 126.016 38.2147 124.824 38.7587 123.8C39.3187 122.76 40.0867 121.96 41.0627 121.4C42.0387 120.84 43.1587 120.56 44.4227 120.56C46.0227 120.56 47.3427 120.944 48.3827 121.712C49.4387 122.464 50.1507 123.544 50.5187 124.952H47.5667C47.3267 124.296 46.9427 123.784 46.4147 123.416C45.8867 123.048 45.2227 122.864 44.4227 122.864C43.3027 122.864 42.4067 123.264 41.7347 124.064C41.0787 124.848 40.7507 125.952 40.7507 127.376C40.7507 128.8 41.0787 129.912 41.7347 130.712C42.4067 131.512 43.3027 131.912 44.4227 131.912C46.0067 131.912 47.0547 131.216 47.5667 129.824H50.5187C50.1347 131.168 49.4147 132.24 48.3587 133.04C47.3027 133.824 45.9907 134.216 44.4227 134.216C43.1587 134.216 42.0387 133.936 41.0627 133.376C40.0867 132.8 39.3187 132 38.7587 130.976C38.2147 129.936 37.9427 128.736 37.9427 127.376ZM58.4773 127.4L64.5733 134H60.8773L55.9813 128.312V134H53.2453V116.24H55.9813V126.56L60.7813 120.776H64.5733L58.4773 127.4ZM67.6384 134.168C67.1424 134.168 66.7264 134 66.3904 133.664C66.0544 133.328 65.8864 132.912 65.8864 132.416C65.8864 131.92 66.0544 131.504 66.3904 131.168C66.7264 130.832 67.1424 130.664 67.6384 130.664C68.1184 130.664 68.5264 130.832 68.8624 131.168C69.1984 131.504 69.3664 131.92 69.3664 132.416C69.3664 132.912 69.1984 133.328 68.8624 133.664C68.5264 134 68.1184 134.168 67.6384 134.168Z" fill="white"/>
<path d="M94.2548 64.744C94.7188 64.104 95.3508 63.584 96.1508 63.184C96.9668 62.768 97.8708 62.56 98.8628 62.56C100.031 62.56 101.087 62.84 102.031 63.4C102.975 63.96 103.719 64.76 104.263 65.8C104.807 66.824 105.079 68 105.079 69.328C105.079 70.656 104.807 71.848 104.263 72.904C103.719 73.944 102.967 74.76 102.007 75.352C101.063 75.928 100.015 76.216 98.8628 76.216C97.8388 76.216 96.9268 76.016 96.1268 75.616C95.3428 75.216 94.7188 74.704 94.2548 74.08V76H91.5188V58.24H94.2548V64.744ZM102.295 69.328C102.295 68.416 102.103 67.632 101.719 66.976C101.351 66.304 100.855 65.8 100.231 65.464C99.6228 65.112 98.9668 64.936 98.2628 64.936C97.5748 64.936 96.9188 65.112 96.2948 65.464C95.6868 65.816 95.1908 66.328 94.8068 67C94.4388 67.672 94.2548 68.464 94.2548 69.376C94.2548 70.288 94.4388 71.088 94.8068 71.776C95.1908 72.448 95.6868 72.96 96.2948 73.312C96.9188 73.664 97.5748 73.84 98.2628 73.84C98.9668 73.84 99.6228 73.664 100.231 73.312C100.855 72.944 101.351 72.416 101.719 71.728C102.103 71.04 102.295 70.24 102.295 69.328ZM106.872 69.328C106.872 68 107.144 66.824 107.688 65.8C108.248 64.776 109 63.984 109.944 63.424C110.904 62.848 111.96 62.56 113.112 62.56C114.152 62.56 115.056 62.768 115.824 63.184C116.608 63.584 117.232 64.088 117.696 64.696V62.776H120.456V76H117.696V74.032C117.232 74.656 116.6 75.176 115.8 75.592C115 76.008 114.088 76.216 113.064 76.216C111.928 76.216 110.888 75.928 109.944 75.352C109 74.76 108.248 73.944 107.688 72.904C107.144 71.848 106.872 70.656 106.872 69.328ZM117.696 69.376C117.696 68.464 117.504 67.672 117.12 67C116.752 66.328 116.264 65.816 115.656 65.464C115.048 65.112 114.392 64.936 113.688 64.936C112.984 64.936 112.328 65.112 111.72 65.464C111.112 65.8 110.616 66.304 110.232 66.976C109.864 67.632 109.68 68.416 109.68 69.328C109.68 70.24 109.864 71.04 110.232 71.728C110.616 72.416 111.112 72.944 111.72 73.312C112.344 73.664 113 73.84 113.688 73.84C114.392 73.84 115.048 73.664 115.656 73.312C116.264 72.96 116.752 72.448 117.12 71.776C117.504 71.088 117.696 70.288 117.696 69.376ZM126.474 73.768H132.474V76H123.306V73.768L129.33 65.008H123.306V62.776H132.474V65.008L126.474 73.768ZM134.435 69.328C134.435 68 134.707 66.824 135.251 65.8C135.811 64.776 136.563 63.984 137.507 63.424C138.467 62.848 139.523 62.56 140.675 62.56C141.715 62.56 142.619 62.768 143.387 63.184C144.171 63.584 144.795 64.088 145.259 64.696V62.776H148.019V76H145.259V74.032C144.795 74.656 144.163 75.176 143.363 75.592C142.563 76.008 141.651 76.216 140.627 76.216C139.491 76.216 138.451 75.928 137.507 75.352C136.563 74.76 135.811 73.944 135.251 72.904C134.707 71.848 134.435 70.656 134.435 69.328ZM145.259 69.376C145.259 68.464 145.067 67.672 144.683 67C144.315 66.328 143.827 65.816 143.219 65.464C142.611 65.112 141.955 64.936 141.251 64.936C140.547 64.936 139.891 65.112 139.283 65.464C138.675 65.8 138.179 66.304 137.795 66.976C137.427 67.632 137.243 68.416 137.243 69.328C137.243 70.24 137.427 71.04 137.795 71.728C138.179 72.416 138.675 72.944 139.283 73.312C139.907 73.664 140.563 73.84 141.251 73.84C141.955 73.84 142.611 73.664 143.219 73.312C143.827 72.96 144.315 72.448 144.683 71.776C145.067 71.088 145.259 70.288 145.259 69.376ZM150.701 69.328C150.701 68 150.973 66.824 151.517 65.8C152.077 64.776 152.829 63.984 153.773 63.424C154.733 62.848 155.789 62.56 156.941 62.56C157.981 62.56 158.885 62.768 159.653 63.184C160.437 63.584 161.061 64.088 161.525 64.696V62.776H164.285V76H161.525V74.032C161.061 74.656 160.429 75.176 159.629 75.592C158.829 76.008 157.917 76.216 156.893 76.216C155.757 76.216 154.717 75.928 153.773 75.352C152.829 74.76 152.077 73.944 151.517 72.904C150.973 71.848 150.701 70.656 150.701 69.328ZM161.525 69.376C161.525 68.464 161.333 67.672 160.949 67C160.581 66.328 160.093 65.816 159.485 65.464C158.877 65.112 158.221 64.936 157.517 64.936C156.813 64.936 156.157 65.112 155.549 65.464C154.941 65.8 154.445 66.304 154.061 66.976C153.693 67.632 153.509 68.416 153.509 69.328C153.509 70.24 153.693 71.04 154.061 71.728C154.445 72.416 154.941 72.944 155.549 73.312C156.173 73.664 156.829 73.84 157.517 73.84C158.221 73.84 158.877 73.664 159.485 73.312C160.093 72.96 160.581 72.448 160.949 71.776C161.333 71.088 161.525 70.288 161.525 69.376ZM170.614 64.696C171.014 64.024 171.542 63.504 172.198 63.136C172.87 62.752 173.662 62.56 174.574 62.56V65.392H173.878C172.806 65.392 171.99 65.664 171.43 66.208C170.886 66.752 170.614 67.696 170.614 69.04V76H167.878V62.776H170.614V64.696ZM197.027 76H194.291L186.059 63.544V76H183.323V59.296H186.059L194.291 71.728V59.296H197.027V76ZM202.012 61.024C201.516 61.024 201.1 60.856 200.764 60.52C200.428 60.184 200.26 59.768 200.26 59.272C200.26 58.776 200.428 58.36 200.764 58.024C201.1 57.688 201.516 57.52 202.012 57.52C202.492 57.52 202.9 57.688 203.236 58.024C203.572 58.36 203.74 58.776 203.74 59.272C203.74 59.768 203.572 60.184 203.236 60.52C202.9 60.856 202.492 61.024 202.012 61.024ZM203.356 62.776V76H200.62V62.776H203.356ZM210.14 65.008V72.328C210.14 72.824 210.252 73.184 210.476 73.408C210.716 73.616 211.116 73.72 211.676 73.72H213.356V76H211.196C209.964 76 209.02 75.712 208.364 75.136C207.708 74.56 207.38 73.624 207.38 72.328V65.008H205.82V62.776H207.38V59.488H210.14V62.776H213.356V65.008H210.14ZM217.27 61.024C216.774 61.024 216.358 60.856 216.022 60.52C215.686 60.184 215.518 59.768 215.518 59.272C215.518 58.776 215.686 58.36 216.022 58.024C216.358 57.688 216.774 57.52 217.27 57.52C217.75 57.52 218.158 57.688 218.494 58.024C218.83 58.36 218.998 58.776 218.998 59.272C218.998 59.768 218.83 60.184 218.494 60.52C218.158 60.856 217.75 61.024 217.27 61.024ZM218.614 62.776V76H215.878V62.776H218.614Z" fill="#F4C430"/>
</svg>
